<?xml version="1.0" encoding="utf-8"?>
<!-- Generator: Adobe Illustrator 18.0.0, SVG Export Plug-In . SVG Version: 6.00 Build 0)  -->
<!DOCTYPE svg PUBLIC "-//W3C//DTD SVG 1.1//EN" "http://www.w3.org/Graphics/SVG/1.1/DTD/svg11.dtd">
<svg version="1.1" id="Livello_1" xmlns="http://www.w3.org/2000/svg" xmlns:xlink="http://www.w3.org/1999/xlink" x="0px" y="0px"
	 viewBox="0 0 3200 3200" enable-background="new 0 0 3200 3200" xml:space="preserve">
<g>
	<g>
		<path d="M1706,2c7.7,1.1,15.3,2.5,23,3.3c22.8,2.3,45.6,3.9,68.3,6.8c28.3,3.6,56.6,7.7,84.7,12.4c43.2,7.2,86.1,16.4,128.3,28.1
			c35.4,9.8,70.6,20.6,105.6,31.8c52.8,16.9,104,38,154.4,61c39.2,17.9,77.7,37.1,115.2,58.3c44.7,25.2,88.2,52.3,130.3,81.8
			c32.9,23,65.4,46.5,96.2,72.3c26.4,22.1,52.4,44.8,77.8,68.1c24.1,22.2,47.5,45.3,70.7,68.5c13.1,13.2,25.2,27.3,37.4,41.3
			c17.4,20,35,39.8,51.6,60.5c19.2,24.1,37.8,48.7,55.8,73.8c17.4,24.2,34.1,48.9,50.2,73.9c13.1,20.3,25.3,41.2,37.3,62.1
			c12.5,21.8,24.5,43.9,36.3,66c7.9,14.9,15.7,29.9,22.5,45.4c17.8,41,35.7,82,52.1,123.6c14.2,36,26.6,72.7,36.5,110.1
			c9.7,36.8,19.5,73.7,28.1,110.8c6.2,26.7,11.4,53.8,15.5,80.9c5.7,37.7,10.2,75.5,14.5,113.3c2.2,19.1,2.8,38.4,4.1,57.6
			c1.3,16.2,0.5,32.5,0.5,48.8c0.2,35.6,0.1,71.1,0,106.7c0,3.6,0.7,7.3-0.7,10.9c-1.2,20.2-1.9,40.5-3.9,60.6
			c-3,31.3-6.3,62.5-10.7,93.6c-4.3,30.5-9.3,60.9-15.6,91c-7.8,36.8-16.2,73.6-26.2,109.9c-9.5,34.5-20.5,68.6-32.5,102.2
			c-13,36.4-26.8,72.7-42.2,108.1c-14,32.4-30.3,63.8-46.2,95.4c-9.5,18.9-19.7,37.4-30,55.9c-20.7,37-43.6,72.7-67,108
			c-7.9,11.9-16.6,23.1-25,34.6c-9.8,13.3-19.5,26.8-29.8,39.8c-16.7,20.9-33.5,41.7-50.8,62.1c-16.7,19.7-33.6,39.3-51.2,58.1
			c-18.5,19.7-37.8,38.6-57.1,57.5c-30.8,30.1-62.9,58.8-96.4,85.9c-25.2,20.4-51.5,39.6-77.7,58.8c-18.6,13.7-37.6,26.9-56.9,39.6
			c-19.8,13.1-40,25.7-60.3,38c-36.4,22.2-74.1,42.1-112.3,61.1c-27.8,13.8-56.3,26.1-84.8,38.5c-44.6,19.4-90.3,35.9-136.6,50.7
			c-17.9,5.7-36,11.2-54.2,16.1c-25.5,6.9-50.9,13.9-76.7,19.3c-36.6,7.7-73.3,14.7-110.3,20.6c-32.7,5.2-65.6,8.6-98.5,12.4
			c-15.1,1.8-30.3,2.6-45.5,3.9c-2.4,1.7-5.1,1-7.7,1c-62.1,0-124.2,0-186.4,0c-2.6,0-5.3,0.7-7.7-1.1c-21.7-1.9-43.5-3.2-65.1-5.8
			c-33.2-3.9-66.4-7.3-99.2-13.8c-32.3-6.4-64.8-11.5-97-18.7c-27.7-6.2-55.1-13.9-82.3-21.8c-27.5-8-54.8-16.7-82-25.8
			c-19.7-6.6-39.2-14-58.6-21.7c-19.3-7.6-38.4-15.7-57.3-24c-25.6-11.3-51.3-22.5-75.9-36c-21.8-11.9-44.1-22.7-65.8-34.7
			c-17.1-9.4-33.7-19.6-50.3-29.8c-17.2-10.5-34.2-21.3-51.1-32.2c-11.6-7.5-23.1-15.2-34.3-23.3c-16.6-11.9-33-24-49.3-36.4
			c-13.7-10.4-27-21.2-40.4-31.9c-9-7.3-17.9-14.7-26.6-22.3c-17-14.8-34.4-29.1-50.7-44.7c-25.9-24.8-51.4-50-76.3-75.7
			c-16.8-17.3-32.3-35.8-48.3-54c-11.8-13.3-23.7-26.6-34.9-40.4c-11.7-14.2-23-28.8-33.8-43.6c-15.7-21.4-31.4-42.8-46.2-64.8
			c-15.1-22.4-29.5-45.2-43.3-68.4c-16.7-28-32.8-56.4-48.4-85.1c-18.2-33.5-34.9-67.8-49.3-103.1c-13.5-33.1-27.2-66.1-39.8-99.5
			c-9.1-24.1-17.2-48.6-24.9-73.2c-6.4-20.6-11.8-41.5-17.2-62.4c-5.9-23.1-11.7-46.2-16.8-69.5c-4.1-18.9-7.2-38-10.6-57.1
			c-3.2-17.8-6.7-35.7-9.4-53.6c-2.1-13.7-3.2-27.5-4.7-41.2c-1.2-10.8-2.5-21.7-3.6-32.5c-1.1-11.2-1.8-22.5-3-33.7
			c-1-9.1-2.4-18.1-3.7-27.1c0-57.3,0-114.7,0-172c2.8-7,1.8-14.4,2-21.6c0.1-3.6-0.6-7.4,1.7-10.7c0.7-10.3,1.1-20.5,2-30.8
			c0.9-9.5,2.4-19,3.4-28.5c1.1-10.1,1.9-20.3,3.2-30.4c1.4-11,3.2-22,4.9-33c1.6-10.4,3.1-20.8,4.8-31.1
			c2.7-16.1,5.6-32.1,8.5-48.1c1.8-9.7,3.6-19.3,5.9-28.9c4.6-19.4,9.3-38.7,14.3-58c5.7-22.2,11.6-44.4,17.8-66.5
			c2.9-10.4,6.7-20.5,10.1-30.8c4.8-14.6,9.2-29.4,14.4-43.9c5.7-15.7,12.1-31.2,18.4-46.7c8.9-21.9,17.7-43.8,27-65.5
			c6-13.9,12.6-27.5,19.4-41c13.1-26.1,25.9-52.4,40.1-77.9c14.3-25.9,29.7-51.3,45.4-76.4c14.2-22.7,29.4-44.9,44.5-67
			c22.3-32.8,46.2-64.5,71.6-95c15.9-19,31.1-38.7,47.9-56.8c24.3-26.1,49.7-51.3,75-76.5c19.9-19.9,40.1-39.5,60.9-58.5
			c15-13.7,31-26.4,47-39.2c17.8-14.2,35.6-28.3,54-41.7c20.9-15.3,42.3-29.9,63.7-44.6c17.9-12.3,35.8-24.6,54.3-36
			c18.1-11.2,36.8-21.5,55.3-32.1c10.8-6.2,21.7-12.5,32.8-18.2c19-9.8,38.2-19.3,57.4-28.6c19.6-9.4,39.1-19,59.1-27.5
			c23.9-10.2,48.2-19.4,72.5-28.8c12.9-5,25.8-10,38.9-14.5c12.5-4.3,25.1-8.1,37.7-12c14.8-4.6,29.6-9.3,44.4-13.6
			c16.4-4.7,32.9-9.3,49.5-13.5c14.1-3.6,28.2-6.8,42.4-9.7c24.2-4.9,48.5-9.6,72.8-14.2c38.7-7.4,77.7-13,117.1-16.3
			c18.5-1.6,37-2.9,55.5-4.4c0.9-0.1,1.7-1,2.5-1.5C1570,2,1638,2,1706,2z"/>
		<path fill="#ABABAB" d="M1502.1,3201.8c6.3,0,12.6,0.1,18.9,0.1c57,0,114,0,171,0c4,0,7.9,0,11.9,0c0,0.7,0,1.4,0.1,2.1
			c-67.3,0-134.7,0-202,0C1502,3203.3,1502.1,3202.6,1502.1,3201.8z"/>
		<path fill="#ABABAB" d="M3202.3,1680.1c-0.1-45.8-0.2-91.6-0.2-137.5c0-9.6,0.2-19.2,0.4-28.8c0.6-0.4,1.1-0.3,1.6,0.2
			c0,55.3,0,110.7,0,166C3203.4,1680.1,3202.9,1680.1,3202.3,1680.1z"/>
		<path fill="#6D6B6B" d="M5.7,1489.7c-0.1,7.2,0.1,14.5-0.3,21.7c-0.2,3.7,0.8,8.1-3.4,10.6c0-10.7,0-21.3,0-32
			C3.2,1489.9,4.5,1489.8,5.7,1489.7z"/>
		<path fill="#FFFFFF" d="M24.3,1602.4c0-25.6-0.6-51.3,0.2-76.9c0.7-19.9,3.2-39.7,4.9-59.5c1.4-15.9,2.3-31.8,4.3-47.6
			c3.9-30.3,7.8-60.6,12.9-90.7c7.2-42.3,16.3-84.2,27.3-125.7c13.7-51.4,29.3-102.3,48.2-152.1c17.1-45.1,35.7-89.5,56.7-132.9
			c24-49.4,50.3-97.4,78.9-144.2C289.3,721.4,324,672.2,361,624.7c15.1-19.4,31.8-37.6,47.3-56.6c32.1-39.3,68.3-74.7,104.4-110.1
			c17.8-17.4,36.8-33.6,55.6-50c16.3-14.2,32.4-28.6,49.5-41.8c28.9-22.3,58.1-44.3,88.1-65.3c26.7-18.6,53.9-36.6,81.9-53.1
			c35.1-20.7,71-40.2,107.1-59.2c22.9-12,46.7-22.3,70.3-33c14.8-6.7,29.8-13.2,44.9-19.2c39.2-15.6,78.5-30.8,119-42.6
			c33.2-9.7,66.3-19.7,99.9-27.8c37.1-8.9,74.6-17.1,112.3-23.2c39-6.4,78.4-10.2,117.7-14.8c60-7,120.3-6.3,180.6-6.1
			c36.3,0.1,72.5,2.1,108.6,6c32.4,3.5,64.7,7.7,97,11.9c35,4.5,69.6,10.9,103.8,19.5c40.6,10.2,81.2,20.4,121.5,31.7
			c21.4,6,42.4,13.6,63.2,21.4c32.4,12,64.6,24.4,96.6,37.4c16.9,6.9,33.2,15.1,49.6,23.1c22.4,10.9,44.9,21.5,66.7,33.4
			c29.4,16,58.7,32.4,87.2,50.1c29.4,18.2,58.2,37.4,86.4,57.4c27.4,19.5,53.8,40.2,80.2,61.1c19,15.1,37.5,30.8,55.7,46.9
			c16.6,14.8,32.7,30.3,48.5,46c22,21.8,44.2,43.4,64.9,66.4c23.8,26.4,46.9,53.5,69,81.4c22.9,28.9,44.5,58.9,66.1,88.9
			c25.3,35.1,48,71.9,69.5,109.4c31.3,54.5,59.4,110.7,84,168.5c39.3,92.4,69.8,187.6,91,285.7c8.7,40.3,16.1,80.8,20.8,121.7
			c3.1,27,5.5,54.1,8.6,81.2c7.4,64.7,5.3,129.6,5,194.4c-0.1,21.8-3.3,43.7-4.9,65.5c-0.9,11.9-1,23.9-2.3,35.8
			c-1.9,17.8-4.1,35.6-6.9,53.3c-4.8,30.5-9.4,61-15.3,91.3c-8.3,42.8-18.2,85.2-30.8,127c-7.8,26.1-15.7,52.2-24.6,77.9
			c-14.9,43.4-31.1,86.3-50.6,127.8c-12.8,27.4-25.1,55-38.6,82c-10.9,21.7-22.6,43-35,63.8c-17.3,29.1-35.1,58-53.7,86.3
			c-17,25.8-34.7,51.2-53.5,75.7c-23.3,30.3-47.4,60-72.2,89.1c-34.2,40-71,77.6-109.6,113.4c-21.7,20.1-43.6,40-66.2,59.1
			c-29.5,24.9-59.4,49.3-91.4,71c-27.2,18.5-53.9,37.8-81.6,55.5c-25.2,16.1-51.3,30.8-77.3,45.5c-18.7,10.7-37.8,20.7-57,30.5
			c-15.9,8.1-32.2,15.8-48.5,23.1c-23,10.4-46,20.9-69.4,30.1c-26.5,10.5-53.6,19.6-80.5,29.4c-34.4,12.5-69.4,23-104.9,31.7
			c-37.1,9.1-74.5,17.1-111.9,25.3c-38.7,8.5-78,13.2-117.3,17.6c-29,3.2-58.3,4.8-87.5,7c-46.2,3.5-92.5,2.1-138.8,1.7
			c-37.6-0.3-75.1-3-112.4-7.6c-31.7-3.9-63.4-7.4-94.9-12.4c-47.3-7.5-94.2-17.4-140.5-29.7c-22.8-6.1-45.7-11.9-68.2-19
			c-26.9-8.5-53.4-18.2-80.1-27.6c-39.8-14-78.5-30.7-116.8-48.3c-40.8-18.6-80.5-39.3-119.5-61.5c-35.5-20.2-70.5-41.4-103.8-65.1
			c-33-23.5-65.9-47.2-98-72c-20.8-16-40-34-60-51c-25.9-22-50.7-45.1-74.4-69.5c-19.7-20.3-39.6-40.4-58.3-61.5
			c-29.3-33.1-57.6-67.1-84.2-102.4c-30.5-40.4-59.4-81.9-85.5-125.2c-19.5-32.4-38.3-65.4-55.7-99c-17.6-33.9-34-68.4-49.3-103.3
			c-13.3-30.4-25.3-61.4-36.2-92.8c-13.1-37.7-25-75.7-36.1-114c-14.2-49.2-25-99.3-33.2-149.9c-3.1-19-6.5-37.9-9.1-57
			c-2.2-16.1-3.5-32.3-5.1-48.5c-1.8-17.8-3.7-35.6-5.1-53.5c-1.1-12.9-1.9-25.9-2.1-38.8C24.1,1649.1,24.3,1625.8,24.3,1602.4z"/>
		<path d="M2663.7,541.3c11.4,11.2,23.2,22,34.2,33.6c11.5,12,22.5,24.5,33.3,37.2c19.8,23.3,39.8,46.5,59,70.3
			c33.1,41,62.3,84.7,89.8,129.6c32.7,53.3,62.1,108.4,88.2,165.3c20.7,45.1,39.4,90.9,55.7,137.7c17.5,49.9,33.3,100.4,44.6,152.1
			c8.9,40.6,16.4,81.4,21.2,122.7c3.2,27.4,6,54.8,8.6,82.2c1.7,18.5,3.5,37,3.9,55.6c0.9,45.9,1.6,91.9,1.2,137.8
			c-0.2,21.8-3.2,43.7-4.9,65.5c-0.9,11.9-1.1,23.9-2.3,35.8c-1.9,17.8-4.1,35.6-6.9,53.3c-4.8,30.5-9.2,61.1-15.4,91.3
			c-6.1,29.9-13.6,59.7-21.7,89.1c-7.8,28.2-16.3,56.2-26.2,83.7c-13.1,36.2-27,72.2-42,107.7c-12.8,30.2-27.4,59.8-41.9,89.3
			c-29.1,59.1-62.8,115.7-99.8,170.2c-23.8,35-49.5,68.4-76.4,101.2c-40.6,49.5-84.7,95.8-130.7,140.1
			c-31.9,30.7-65.6,59.3-100,87.2c-40.6,33-83.4,63-127.7,90.7c-31.3,19.5-63.5,37.6-95.7,55.4c-32.3,17.8-65.3,34.1-99.3,48.5
			c-19.6,8.3-38.7,17.7-58.5,25.4c-25.4,9.9-50.9,19.4-76.8,27.7c-36.7,11.8-73.5,23-110.6,33.2c-22.7,6.3-46.1,10.2-69.2,15.1
			c-39.1,8.3-78.7,13.3-118.4,17.7c-29.1,3.2-58.3,4.8-87.5,7c-45.9,3.5-91.9,2.3-137.8,1.7c-30.2-0.4-60.4-2.8-90.5-5.7
			c-34.4-3.2-68.7-7.5-103-12.2c-20.1-2.7-40-6.9-59.9-10.4c-42.3-7.5-83.7-18.6-124.7-31.3c-25.3-7.9-50.4-16.8-75.4-25.5
			c-42.3-14.8-83.6-32.4-124.3-51c-40.8-18.7-80.5-39.4-119.5-61.5c-52.4-29.8-103.2-62.2-151-98.8c-30.9-23.6-60.1-49.3-89.9-74.3
			c-25.3-21.2-49.3-43.6-72.3-67.4c-1-3.9,1.5-6.3,3.7-8.7c2.3-2.5,4.7-4.8,7-7.1C1252.5,1949.2,1951.1,1250.5,2649.8,552
			C2653.9,547.9,2657,542.2,2663.7,541.3z"/>
		<path fill="#006EB1" d="M2663.7,541.3c-21,20.9-42.1,41.7-63.1,62.6c-33,32.9-65.9,65.9-98.8,98.9c-30.1,30.2-60.1,60.4-90.3,90.5
			c-40.3,40.3-80.7,80.4-121,120.7c-45,45-89.8,90.1-134.7,135c-44,44-88.2,87.9-132.2,132c-49.4,49.4-98.8,99-148.2,148.4
			c-40.3,40.3-80.7,80.4-120.9,120.6c-49,49-97.8,98.1-146.7,147c-44,44-88.2,88-132.2,132c-45.4,45.4-90.8,91-136.2,136.4
			c-25.4,25.4-51,50.6-76.5,76c-36.8,36.7-73.4,73.5-110.1,110.2c-48.5,48.5-97.1,96.9-145.6,145.5c-48.7,48.8-97.2,97.7-146,146.4
			c-44.5,44.5-89.2,88.8-133.7,133.3c-44.7,44.7-89.3,89.6-134,134.4c-14.3,14.4-28.9,28.6-43.2,43c-2.7,2.8-4.8,6.2-7.2,9.3
			c-22.2-23.7-45-47-66.6-71.4c-21.2-23.8-41.7-48.3-61.7-73.2c-29.8-37.2-56.9-76.3-81.5-117.1c-17.9-29.6-35.7-59.3-52.1-89.7
			c-19.9-36.8-38.2-74.5-54.9-113c-17.3-40-33.1-80.5-47.1-121.7c-15.3-45.1-29.5-90.5-39.6-137c-7.1-32.4-12.4-65.3-17.9-98
			c-3.7-21.9-6.7-44-9.3-66c-2.1-18.5-3.4-37-4.7-55.6c-1.5-22.2-2.6-44.4-3.6-66.7c-0.5-12-0.5-24-0.5-36
			c0.1-30.6-0.1-61.3,0.8-91.9c0.6-19.9,3.1-39.7,4.8-59.5c0.8-8.9,1.4-17.9,2.4-26.8c2.2-20.5,3.8-41,7.1-61.3
			c6.1-37.7,11.8-75.6,20.2-112.8c7.9-35,18.5-69.4,28.8-103.8c15.8-53.3,36.1-105.1,58.2-156.1C250,950.3,277.6,896.4,308,844
			c32.8-56.5,68.7-111,109.2-162.2c15.5-19.6,32.2-38.1,48-57.4c33-40.3,70.2-76.5,107.3-112.9c16.6-16.3,34.5-31.3,52-46.5
			c15.5-13.5,31.3-26.9,47.2-39.9c28.7-23.3,58.1-45.7,89.2-65.7c17.6-11.3,34.9-23.2,52.9-34c22.8-13.7,45.7-27.3,69.1-39.8
			c29.3-15.7,58.9-30.9,89-45c28.6-13.4,57.9-25.3,87.1-37.3c17.2-7.1,34.7-13.5,52.2-19.8c16.2-5.9,32.5-11.7,49-16.7
			c27.7-8.4,55.3-17.3,83.4-23.8c35.3-8.2,70.9-14.6,106.6-21.1c20.2-3.7,40.7-6.1,61.1-8.7c14.8-1.9,29.7-3.6,44.6-4.8
			c27.5-2.2,55-4.3,82.5-5.9c13.3-0.8,26.7-0.3,40-0.3c29,0,58-0.3,87,0.3c18.6,0.4,37.1,2.3,55.7,3.4c38.5,2.1,76.7,7.2,114.9,12.6
			c65,9.2,129,22.8,191.6,42.5c23.8,7.5,47.5,15.1,70.9,23.7c32.8,12,65.5,24.4,97.7,37.8c23,9.6,45.2,21.1,67.6,31.8
			c36.6,17.4,72.2,36.9,107.1,57.5c47.9,28.3,94.6,58.5,138.3,93c30.6,24.1,60.7,48.7,90,74.3c22,19.2,42.4,40.4,63.5,60.7
			C2663.3,540,2663.4,540.7,2663.7,541.3z"/>
	</g>
</g>
<g>
	<g>
		<path fill="#FFFFFF" d="M988,2265c-20.9,0-38.3-16.1-39.9-36.9l-14.5-187.5h-42.7l-16,187.8c-1.8,20.7-19.1,36.6-39.9,36.6H499.3
			c-11.5,0-22.5-5-30.1-13.6c-7.6-8.7-11.1-20.2-9.6-31.6l165.5-1250c2.6-19.9,19.6-34.7,39.7-34.7h468.9
			c19.8,0,36.6,14.5,39.6,34.1l186.3,1250c1.7,11.5-1.7,23.2-9.3,32c-7.6,8.8-18.7,13.9-30.3,13.9L988,2265L988,2265z M916.6,1738.7
			c-3.6-34.1-7.2-70.1-10.9-107.9c-4.5,40.2-8.2,76.2-11.2,107.9H916.6z"/>
		<path d="M1133.8,975l186.3,1250H988l-17.4-224.4H854.2L835,2225H499.3L664.9,975H1133.8 M850.9,1778.7h110.3
			c-15.5-141.3-31.6-316.4-48.4-525.4C880.4,1493.2,859.8,1668.3,850.9,1778.7 M1133.8,895H664.9c-40.1,0-74,29.7-79.3,69.5
			L420,2214.5c-3,22.8,3.9,45.9,19.1,63.2s37.1,27.3,60.2,27.3H835c35.8,0,66.5-23.6,76.5-56.6c10.1,33,40.7,56.6,76.5,56.6h332
			c23.3,0,45.4-10.1,60.6-27.8s22-41,18.5-64l-186.3-1250C1207.1,924,1173.4,895,1133.8,895L1133.8,895z"/>
	</g>
	<g>
		<path fill="#FFFFFF" d="M2368.7,2265c-20.9,0-38.3-16.1-39.9-36.9l-14.5-187.5h-42.7l-16,187.8c-1.8,20.7-19.1,36.6-39.9,36.6
			H1880c-11.5,0-22.5-5-30.1-13.6c-7.6-8.7-11.1-20.2-9.6-31.6l165.5-1250c2.6-19.9,19.6-34.7,39.7-34.7h468.9
			c19.8,0,36.6,14.5,39.6,34.1l186.3,1250c1.7,11.5-1.7,23.2-9.3,32s-18.7,13.9-30.3,13.9L2368.7,2265L2368.7,2265z M2297.2,1738.7
			c-3.6-34.1-7.2-70.1-10.9-107.9c-4.5,40.2-8.2,76.2-11.2,107.9H2297.2z"/>
		<path d="M2514.4,975l186.3,1250h-332l-17.4-224.4h-116.5l-19.2,224.4h-335.7l165.5-1250H2514.4 M2231.5,1778.7h110.3
			c-15.5-141.3-31.6-316.4-48.4-525.4C2261,1493.2,2240.4,1668.3,2231.5,1778.7 M2514.4,895h-468.9c-40.1,0-74,29.7-79.3,69.5
			l-165.5,1250c-3,22.8,3.9,45.9,19.1,63.2s37.1,27.3,60.2,27.3h335.7c35.8,0,66.5-23.6,76.5-56.6c10.1,33,40.7,56.6,76.5,56.6h332
			c23.3,0,45.4-10.1,60.6-27.8c15.2-17.6,22-41,18.5-64l-186.3-1250C2587.7,924,2554,895,2514.4,895L2514.4,895z"/>
	</g>
	<g>
		<path fill="#FFFFFF" d="M1425.1,2265c-22.1,0-40-17.9-40-40v-960h-151.5c-22.1,0-40-17.9-40-40V975c0-22.1,17.9-40,40-40h708.5
			c22.1,0,40,17.9,40,40v250c0,22.1-17.9,40-40,40h-152.7v960c0,22.1-17.9,40-40,40H1425.1z"/>
		<path d="M1942.2,975v250h-192.7v1000h-324.4V1225h-191.5V975H1942.2 M1942.2,895h-708.5c-44.2,0-80,35.8-80,80v250
			c0,44.2,35.8,80,80,80h111.5v920c0,44.2,35.8,80,80,80h324.4c44.2,0,80-35.8,80-80v-920h112.7c44.2,0,80-35.8,80-80V975
			C2022.2,930.8,1986.3,895,1942.2,895L1942.2,895z"/>
	</g>
</g>
</svg>
