<?xml version="1.0" encoding="utf-8"?>
<!-- Generator: Adobe Illustrator 18.0.0, SVG Export Plug-In . SVG Version: 6.00 Build 0)  -->
<!DOCTYPE svg PUBLIC "-//W3C//DTD SVG 1.1//EN" "http://www.w3.org/Graphics/SVG/1.1/DTD/svg11.dtd">
<svg version="1.1" id="Livello_1" xmlns="http://www.w3.org/2000/svg" xmlns:xlink="http://www.w3.org/1999/xlink" x="0px" y="0px"
	 viewBox="0 0 3200 3200" enable-background="new 0 0 3200 3200" xml:space="preserve">
<g>
	<g>
		<path d="M1706,2c0.7,0.6,1.4,1.5,2.1,1.6c17.5,1.5,35.1,2.3,52.6,4.3c28.7,3.2,57.3,6.6,85.9,10.7c21.6,3.1,43.2,6.9,64.6,11.2
			c43.3,8.7,86.3,18.3,128.6,31.1c28.5,8.6,57.3,16.6,85.5,26.4c31.4,10.9,62.4,22.7,93.1,35.5c55,22.9,108.8,48.4,160.8,77.5
			c42.2,23.6,83.4,48.7,123.4,75.8c38.4,26,75.8,53.4,111.6,83c29.6,24.5,58.2,50.2,86.5,76.2c18,16.6,34.9,34.4,52.1,51.9
			c13.7,14,27.8,27.7,40.6,42.4c21.5,24.7,42.5,50,63.1,75.5c15.2,18.8,29.7,38.2,43.8,57.8c14.5,20.1,28.7,40.6,42.2,61.4
			c16.4,25.2,32.5,50.6,47.8,76.5c12.4,21,23.7,42.7,34.9,64.5c13.3,25.9,26.6,51.8,38.7,78.3c11.9,26.2,22.9,53,33.2,79.9
			c12,31.5,23.8,63.2,34,95.4c10.1,31.9,18.2,64.4,26.7,96.7c11.1,42.3,19.1,85.2,26.5,128.3c6.4,36.9,11.1,74,14.1,111.4
			c1.5,19.5,2.8,39.1,4.2,58.6c1.3,16.2,0.5,32.5,0.5,48.8c0.2,35.6,0.1,71.1,0,106.7c0,3.6,0.7,7.3-0.7,10.9
			c-1.2,20.2-2,40.4-3.8,60.6c-2.5,28-5.1,56-8.8,83.8c-3.2,24.6-7.8,49.1-12,73.6c-6.3,36.8-14.4,73.3-24.2,109.3
			c-7.7,28.4-16.1,56.6-24.7,84.7c-15.2,50.1-34.2,98.9-54.8,147c-14.8,34.6-30.6,68.7-48.7,101.8c-10.1,18.5-19.8,37.3-30.1,55.8
			c-20.7,37-43.6,72.7-67,108c-7.8,11.9-16.6,23.1-25,34.6c-10,13.6-20.1,27.1-30.3,40.6c-15.9,21.1-32.4,41.8-50.1,61.4
			c-12.6,14-24.2,29-37.3,42.6c-26,27.1-52.4,53.8-79,80.3c-12.7,12.6-25.6,25-39.1,36.7c-17.7,15.4-36,30.2-54.2,45
			c-15.7,12.7-31.4,25.5-47.7,37.4c-21.5,15.8-43.5,30.9-65.5,46c-20.4,14-40.8,27.9-61.8,41.1c-17.6,11.1-35.8,21.4-54.1,31.4
			c-24,13.2-48.1,26.3-72.7,38.4c-22.8,11.3-46,21.7-69.4,31.8c-24.5,10.6-49.2,21-74.1,30.6c-21.3,8.2-43,15.3-64.6,22.3
			c-25.8,8.4-51.7,16.5-77.8,24c-16.4,4.7-33.2,8.3-49.9,12.1c-20,4.5-40,9-60.1,13c-21.4,4.2-42.9,8.2-64.5,11.7
			c-19.9,3.2-39.9,6.2-59.9,8.4c-22.4,2.5-44.9,4.1-67.4,6.1c-6.6,0.6-13.2,1.3-19.7,1.9c-2.4,1.7-5.1,1-7.7,1
			c-62.1,0-124.2,0-186.4,0c-2.6,0-5.3,0.7-7.7-1.1c-21.7-1.9-43.5-3.2-65.1-5.8c-33.2-3.9-66.4-7.3-99.2-13.8
			c-32.3-6.4-64.8-11.5-96.9-18.7c-27.7-6.2-55-14.2-82.4-21.7c-15.9-4.4-31.7-9-47.4-14c-16-5.2-31.9-10.8-47.7-16.6
			c-16.7-6.1-33.4-12.4-49.9-18.8c-12.3-4.8-24.6-9.8-36.7-15c-16-6.9-32-13.9-47.9-21.2c-13.5-6.2-26.8-12.6-40-19.3
			c-12.4-6.2-24.6-12.7-36.7-19.4c-23.4-13-47-25.8-70-39.4c-19.9-11.8-39.2-24.6-58.6-37.2c-17.7-11.5-35.3-23-52.5-35.1
			c-14.5-10.2-28.5-21.3-42.6-32.2c-14.9-11.5-29.7-23.1-44.4-35c-9-7.3-17.6-15.1-26.3-22.7c-7-6.1-14.1-12.1-20.9-18.4
			c-18.2-16.9-36.4-33.8-54.3-51.1c-14.3-13.9-28.4-27.9-42-42.5c-16.7-17.9-32.8-36.3-49-54.7c-11.8-13.3-23.7-26.6-34.9-40.4
			c-11.7-14.2-23-28.8-33.9-43.6c-15.7-21.4-31.4-42.8-46.2-64.8c-15.1-22.4-29.5-45.2-43.3-68.4c-16.7-28-32.7-56.5-48.4-85.1
			c-13.8-25-25.9-50.9-37.8-76.9c-15.9-34.6-30.5-69.7-43.9-105.3c-9.3-24.8-18.4-49.7-25.8-75.3c-6.6-22.9-13.9-45.5-20.6-68.4
			c-3.9-13.2-7.5-26.4-10.6-39.8c-3.7-15.9-6.6-32-10-48c-2-9.3-4.4-18.5-6.2-27.8c-2.1-10.6-3.9-21.3-5.7-32
			c-1.1-6.8-1.7-13.8-2.8-20.6c-2.3-13.7-5-27.2-7.1-40.9c-1.2-7.8-1.5-15.8-2.2-23.7c-0.8-8.5-1.7-17.1-2.6-25.6
			c-1.9-16.8-3.9-33.5-5.7-50.3c-0.5-4.3,0-8.7-0.3-13c-0.1-1.9-1.1-3.6-1.6-5.5c0-57.3,0-114.7,0-172c2.8-7,1.8-14.4,2-21.6
			c0.1-3.6-0.6-7.4,1.7-10.7c0.7-10.3,1.1-20.5,2-30.8c1-11.2,2.5-22.3,3.8-33.4c2-17.3,3.9-34.6,6.1-51.9c2-15.6,4.1-31.2,6.8-46.7
			c2.4-13.4,5.7-26.7,8.5-40.1c1.9-9,3.2-18.1,5.4-27c4.9-20,8-40.4,14.6-60c4.1-12,6.1-24.7,9.6-37c4.4-15.2,9.3-30.1,14-45.2
			c6-19.1,11.9-38.1,18.1-57.1c1.3-4.1,3.5-7.9,5-11.9c6.3-16.5,11.9-33.4,19-49.6c14.3-32.8,28.9-65.6,44.2-97.9
			c11.3-24,23.3-47.8,36.2-71c13.3-23.9,27.8-47.1,42-70.4c8.6-14.2,17.1-28.4,26.4-42.2c12.3-18.4,25.1-36.5,38-54.5
			c10.2-14.2,20.9-28.1,31.6-41.8c11.8-15.2,23.9-30.1,36-45.1c22.8-28.2,47.1-55.2,73-80.7c29.8-29.3,59.3-59,89.7-87.6
			c18.7-17.5,38.7-33.6,58.5-49.9c16.3-13.4,32.9-26.4,49.8-39.1c17.5-13.2,35.2-26.2,53.4-38.5c18.7-12.8,37.8-25.2,57.2-37
			c21.8-13.4,44-26.2,66.3-38.8c20.9-11.8,41.7-24,63.3-34.4c35-17,69.8-34.3,106.2-48.3c17.2-6.6,34.3-13.3,51.4-20.1
			c26.4-10.5,53.4-19,80.4-27.9c29-9.5,58.5-17.6,88-25c38.7-9.7,77.6-18.1,117-24.6c39.2-6.5,78.4-13.1,118.1-16.1
			c18.2-1.4,36.3-2.8,54.5-4.3c0.8-0.1,1.6-1,2.4-1.6C1570,2,1638,2,1706,2z"/>
		<path fill="#ABABAB" d="M1502.1,3201.8c6.6,0.1,13.3,0.1,19.9,0.1c56,0,112,0,168,0c4.6,0,9.3,0,13.9,0c0,0.7,0,1.4,0.1,2.1
			c-67.3,0-134.7,0-202,0C1502,3203.3,1502.1,3202.6,1502.1,3201.8z"/>
		<path fill="#ABABAB" d="M3202.3,1680.1c-0.1-33.5-0.2-67.1-0.3-100.6c-0.1-19.6-0.2-39.2-0.2-58.8c0-2.3,0.4-4.6,0.6-6.9
			c0.6-0.4,1.1-0.3,1.6,0.2c0,55.3,0,110.7,0,166C3203.4,1680.1,3202.9,1680.1,3202.3,1680.1z"/>
		<path fill="#6D6B6B" d="M5.7,1489.7c-0.1,7.2,0.1,14.5-0.3,21.7c-0.2,3.7,0.7,8-3.4,10.6c0-10.7,0-21.3,0-32
			C3.2,1489.9,4.5,1489.8,5.7,1489.7z"/>
		<path fill="#F0C60B" d="M1617.2,3182.1c-429.3,5.6-817.8-164.1-1094.8-427.6c-309.4-294.3-475-656.3-498-1083.2
			C10.5,1229.4,153,845.6,451.9,519.8c296.1-307.2,656.4-474,1083-496.3c442-14.4,825.6,128.7,1151.4,427.5
			c306.7,295.7,474.4,655.7,495.6,1081.6c14.4,288.1-48.4,560.2-184.8,814.4c-136.6,254.7-329,457.5-575.9,607.7
			C2177.3,3103.1,1900.8,3180.5,1617.2,3182.1z"/>
		<path fill="#114FA1" d="M2203.9,2977.3c-16.7,6.9-33.4,13.8-50.1,20.7c-3.2-3.6-2.8-8-2.9-12.3c-0.2-11-0.1-22-0.1-33
			c0-359,0-717.9,0-1076.9c0-22.6,0.8-20.5-20.7-20.5c-167.3,0-334.6,0-501.9,0c-21.7,0-20.8-1.7-20.8,20.4
			c0,401.6,0,803.2-0.1,1204.8c0,7.1,2,14.8-3.4,21.1c-18,0-36,0.2-53.9-0.2c-15.6-0.3-31.2-1-46.8-2.2c-24.5-1.8-49.1-3.2-73.5-6.2
			c-35.3-4.4-70.5-9.6-105.6-15.2c-39.1-6.3-77.7-15.2-115.8-26.2c-1.6-0.5-3-1.3-4.6-1.9c-2.4-3.1-2.7-6.7-2.8-10.4
			c-0.1-4.7-0.1-9.3-0.1-14c0-732.2,0-1464.4,0-2196.6c0-26.2,1.9-23.5-23.8-23.5c-117-0.1-234,0-350.9,0c-18.7,0-18.7,0-18.7,18.7
			c0,675.2,0,1350.4-0.1,2025.6c0,7.4,2.2,15.4-3.5,21.9c-12.4-7.7-25.1-15-37.3-23.1c-52.3-34.5-101.3-73.3-148.4-114.7
			c-29.3-25.7-57.7-52.3-85-80.1c-45.7-46.6-88.4-95.9-128.2-147.6c-0.6-0.8-0.9-1.8-1.4-2.6c-3-8-2.6-16.4-2.6-24.7
			c0-550.1,0-1100.3,0-1650.4c0-25.6,1.7-22.8-23.3-23c-10.3-0.1-20.7,0.1-31-0.1c-4.3-0.1-8.8,0.3-12.1-3.3
			c9.6-15.2,18.9-30.5,28.9-45.4C401.1,700.5,443,648,488.7,598.5c23.9-25.9,48-51.8,73.4-76.3C656,431.5,759.3,353.7,874,290.9
			c75.2-41.2,152.9-76.6,233.5-105.7c50.1-18.1,100.9-34.2,152.9-45.8c34.4-7.7,69.1-13.7,103.9-19.2c31.1-4.9,62.5-8.2,93.9-11.9
			c12.9-1.5,25.8-1.9,38.8-2.8c47.8-3.5,95.8-4.2,143.7-3.1c30.2,0.7,60.4,2.9,90.5,5.1c23.8,1.7,47.7,4,71.4,6.8
			c22.7,2.7,45.4,6.2,68,10c44.3,7.4,88.2,16.8,131.4,29.3c77.2,22.4,152.4,50,225.3,83.6c99.2,45.8,193.2,100.4,280.3,166.5
			c39,29.6,76.4,61.1,112,94.6c20.3,19.2,40.7,38.4,60.3,58.4c42.3,43.4,81.9,89.2,118.9,137.2c24.6,31.9,47.5,65.1,69.1,99.1
			c1.8,2.8,3.3,5.8,5,8.6c-4.9,4.9-11.2,3.4-17.1,3.4c-60,0.1-119.9,0.1-179.9,0.1c-3.3,0-6.7,0.1-10,0.1c-5.9-0.1-8.4,2.9-8.4,8.6
			c0,3-0.1,6-0.1,9c0,169.3,0,338.5,0,507.8c0,18,0,18.1,18.2,18.1c129.9,0,259.9,0,389.8,0.1c6.2,0,12.8-1.6,18.2,3.2
			c2.2,13.4,4.5,26.7,6.6,40.1c0.5,3.3,0.8,6.6,1.2,9.8c-3.7,3.8-8.6,3.2-13.2,3.2c-153.3,0.1-306.7,0.1-460,0
			c-15.4,0-17.3-2.3-17.3-19.6c-0.1-161.3,0-322.7,0-484c0-27.7,0.1-55.3-0.1-83c-0.1-12.2-1.1-13.3-13.1-13.3
			c-122.3-0.1-244.7-0.1-367,0c-12.6,0-13.3,0.9-13.3,15c0,91.3,0,182.7,0,274c0,94.7,0,189.3,0,284c0,2.3,0,4.7,0,7
			c-0.1,18.5-1.5,20-19.9,20c-155,0-310,0-465,0c-34,0-68-0.1-102,0c-12.1,0-13,0.9-13,13.2c-0.1,122-0.1,244,0,366
			c0,13.5,0.9,14.3,15.2,14.3c109.7,0,219.3,0,329,0c76.3,0,152.7,0,229,0c3.7,0,7.3-0.1,11,0.1c13.1,0.4,15.4,2.8,15.8,16.2
			c0.1,2.7,0,5.3,0,8c0,378.3,0,756.7,0,1135C2207.2,2964.5,2208.5,2971.5,2203.9,2977.3z"/>
		<path fill="#EC4336" d="M2203.9,2977.3c-0.1-3.3-0.2-6.7-0.2-10c0-384,0-768,0-1152c0-15,1.8-13.1-13.5-13.1
			c-191.3,0-382.7,0-574-0.1c-14.3,0-12.5,1.9-12.5-12.9c0-124.7,0-249.3,0-374c0-1,0-2,0-3c0-11.2-0.3-10,10.5-10
			c191.7,0,383.3,0,575,0c14.5,0,14.5,0,14.5-14c0-191,0-382,0-573c0-14.8-1.6-12.9,12.6-12.9c125,0,250,0,375,0
			c13.8,0,12.4-1.6,12.4,12.1c0,191.7,0,383.3,0,575c0,14.8-1.8,12.8,12.6,12.8c154.3,0,308.7,0,463,0c4,0,8-0.2,12-0.2
			c2.3,23.1,4.5,46.2,6.9,69.3c2.4,23.1,2.7,46.4,4.3,69.6c2.2,32.6,1.1,65.2,1.1,97.8c0,21.2-2.2,42.4-3.4,63.6
			c-0.6,10.3-1.1,20.6-2.1,30.8c-2.1,23.1-4.5,46.2-6.8,69.3c-5.6,4.1-12.2,2.8-18.4,2.8c-148.6,0.1-297.3,0.1-445.9,0.1
			c-19.7,0-19.7,0-19.7,19.6c0,291.3,0,582.6,0,873.9c0,6.9,1.2,14.1-3.3,20.3c-14.3,12.9-28.2,26.4-43.1,38.5
			c-25.8,20.9-51.7,41.7-78.6,61.3c-24.9,18.2-50.7,35.3-76.8,51.9c-44.7,28.3-90.9,53.9-138.3,77.3
			C2246.3,2958.3,2225,2967.6,2203.9,2977.3z"/>
		<path fill="#EC4336" d="M803.6,2871.5c0-5,0.1-10,0.1-15c0-679.6,0-1359.2,0-2038.9c0-15.4,0-15.4,15.2-15.4
			c124.3,0,248.7,0,373,0c13.2,0,11.8-1.3,11.8,11.7c0,742.3,0,1484.6,0,2226.9c0,3-0.1,6-0.1,9c-37.8-10.2-75-22.6-111.7-36.3
			c-39.8-14.8-79.1-31.2-117.7-49.1c-43.5-20.1-85.8-42.4-127.4-66.3C832.2,2889.6,818,2880.4,803.6,2871.5z"/>
		<path fill="#FFFFFF" d="M1603.8,3101.7c0-3.3-0.1-6.7-0.1-10c0-408.6,0-817.2,0-1225.8c0-13.7,0-13.7,13.6-13.7
			c174,0,347.9,0,521.9,0c14.5,0,14.5,0,14.5,14c0,371.9,0,743.9,0,1115.8c0,5.3,0,10.7,0,16c-10.7,4.4-21.3,9.3-32.2,13.2
			c-54.1,19.5-108.6,37.9-164.6,51.1c-29.4,7-59.2,12.4-88.9,17.6c-25.9,4.5-51.9,8-77.9,11.4c-16.2,2.1-32.4,3.6-48.7,4.7
			c-28.2,2-56.4,3.8-84.7,5.1C1639.1,3101.8,1621.4,3101.5,1603.8,3101.7z"/>
		<path fill="#EC4336" d="M334.3,801.9c18.7,0.1,37.3,0.2,56,0.4c2.7,0,5.3,0.1,8,0c3.7-0.2,5.7,1.2,5.5,5.1c-0.1,2.3,0,4.7,0,7
			c0,559.7,0,1119.4,0,1679.1c0,3.3-0.2,6.6-0.3,10c-30.9-39.3-57.8-81.3-83.6-124c-23.3-38.5-44.7-77.9-64.4-118.3
			c-24.5-50.2-46.5-101.5-65.6-154.1c-17.9-49.4-34.2-99.2-46.4-150.2c-6.9-28.6-12-57.7-17.4-86.7c-3.6-19.5-6.7-39.2-9.5-58.9
			c-2-14.1-3.1-28.3-4.5-42.5c-1.9-19.1-3.8-38.3-5.5-57.4c-0.3-3.6-0.1-7.3-0.3-11c-3.7-55.6-2.2-111.2-1.7-166.8
			c0.1-15.5,2.2-31.1,3.4-46.6c0.7-9.6,1.1-19.2,2.2-28.8c3.1-28,6.4-56,9.7-83.9c4.2-35.2,10.6-70.2,18.5-104.7
			c6.1-26.8,13.3-53.4,21-79.9c12.9-44.7,28.3-88.6,45.3-131.9c10.3-26,21.5-51.6,33.1-76.9c11.7-25.4,23.6-50.7,36.9-75.3
			c18.7-34.5,38.8-68.3,58.3-102.3C333.1,802.6,333.8,802.3,334.3,801.9z"/>
		<path fill="#FFFFFF" d="M3083.6,1852.3c-4.9,27.1-8.8,54.5-14.8,81.4c-19.3,86.6-48.1,170.2-82.8,251.8
			c-43.6,102.3-97.3,199-161.6,289.8c-28.9,40.7-60.2,79.6-93.8,116.5c-22.6,24.9-46,49-69.1,73.4c-2.3,2.4-4.9,4.4-7.4,6.6
			c-4.4-4.7-3.3-10.6-3.3-16.2c-0.1-41-0.1-82-0.1-123c0-220,0-439.9,0-659.9c0-23.8,0.2-24,23.9-24c130.3,0,260.6,0,390.9,0.1
			C3071.7,1848.8,3078.4,1847.3,3083.6,1852.3z"/>
		<path fill="#FFFFFF" d="M3083.5,1352c-8.3,0-16.7,0.1-25,0.1c-130.9,0-261.8,0-392.7,0c-14,0-12.1,2-12.1-12.2
			c0-175.2,0-350.4,0-525.6c0-14.2-1.6-12.1,12.2-12.1c65.3-0.1,130.6,0,195.9-0.1c3.7,0,7.3-0.3,11-0.4
			c8.6,13.8,17.8,27.3,25.6,41.6c18.3,33.6,36.8,67.1,53.8,101.3c48.6,98.4,86.4,201,112.7,307.6c7.9,32.2,12.7,65.2,18.9,97.8
			C3083.8,1350.7,3083.5,1351.4,3083.5,1352z"/>
		<path fill="#114FA2" d="M3083.6,1852.3c-3,0-6-0.1-9-0.1c-136.6,0-273.2,0-409.7,0c-12.4,0-11.2-1.7-11.2,11.1
			c0,266.2,0,532.3,0,798.5c0,3.3,0.3,6.6,0.4,10c-11.9,11.8-23.8,23.6-35.9,35.3c-4.5,4.3-9.5,8.1-14.3,12.1
			c-0.1-4.3-0.2-8.7-0.2-13c0-296.7,0-593.3,0-890c0-16.2-2-13.9,13.6-13.9c154-0.1,308,0,462,0c4,0,8,0.1,12,0.2
			c-1.8,13.1-3.5,26.2-5.4,39.2C3085.4,1845.2,3084.4,1848.8,3083.6,1852.3z"/>
		<path fill="#FFFFFF" d="M2153.7,1077c0,88,0,176,0,263.9c0,12.4,1.6,11.3-11.1,11.3c-176,0-351.9,0-527.9,0
			c-12.6,0-11,1.6-11-11.3c0-175.6,0-351.2,0-526.9c0-13.7-1.4-11.8,11.5-11.8c175.6,0,351.3,0,526.9,0c13.1,0,11.6-1.6,11.6,11.8
			C2153.7,901.7,2153.7,989.3,2153.7,1077z"/>
	</g>
</g>
<g>
	<g>
		<path fill="#FFFFFF" d="M472.3,2263.2c-22.1,0-40-17.9-40-40V975.6c0-22.1,17.9-40,40-40h324c107.2,0,187.1,8.4,244.2,25.7
			c61.6,18.6,111.8,56.7,149.4,113c37.2,55.9,55.3,140,55.3,257.2c0,83.1-14,141.2-42.8,177.7c-12.5,15.8-29.2,29.6-50.3,41.7
			c29.6,16.8,53,37.5,69.3,61.6c31.6,46.5,46.9,112.9,46.9,202.9v115.4c0,91-10.7,157.8-32.8,204.2c-23.9,50.3-62.6,85.2-115,103.6
			c-46.9,16.5-136,24.6-272.5,24.6L472.3,2263.2L472.3,2263.2z M836.1,1966.4c12.7-2.3,18.4-4.9,20.4-6c1.9-3.7,7.9-19.6,7.9-66.7
			v-116.4c0-44-4.2-62.1-6.3-68.4c-3.3-1.2-9.9-3.2-22-4.9L836.1,1966.4L836.1,1966.4z M836.1,1426.4c12.7-0.6,18.5-2.9,20.4-3.9
			c2-5.9,8-30.9,8-114.6c0-46.4-5.6-61.9-7.3-65.6c-3-6.4-5.4-8.6-5.9-9c-1.4-0.4-5.5-1.5-15.2-2.6V1426.4z"/>
		<path d="M796.3,975.6c102.3,0,179.8,8,232.6,23.9c52.7,16,95.2,48.3,127.7,96.9c32.4,48.6,48.6,127,48.6,235.1
			c0,73.1-11.4,124-34.2,152.9c-22.8,28.8-67.8,51-135,66.4c74.9,16.9,125.6,45,152.3,84.3c26.7,39.3,40,99.4,40,180.4v115.4
			c0,84.1-9.6,146.5-28.9,187s-50,68.2-92.2,83.1c-42.2,14.9-128.6,22.3-259.2,22.3H472.3V975.6H796.3 M796.1,1467.3
			c14.1-0.5,25.1-0.8,33-0.8c32.4,0,53.1-7.9,62-23.6s13.4-60.8,13.4-135.1c0-39.2-3.7-66.7-11-82.5c-7.3-15.7-16.9-25.7-28.7-29.8
			c-11.8-4.1-34.7-6.4-68.7-7V1467.3 M796.1,2010.2c46.6-1.5,76.3-8.7,89.1-21.6s19.2-44.5,19.2-94.9v-116.4
			c0-53.5-5.8-85.9-17.3-97.2c-11.5-11.3-41.9-17.7-91.1-19.3L796.1,2010.2 M796.3,895.6h-324c-44.2,0-80,35.8-80,80v1247.7
			c0,44.2,35.8,80,80,80H848c187.9,0,253.1-15.3,285.8-26.9c31-10.9,58.5-27.1,81.6-48s42-46.5,56.2-76.2
			c24.7-51.9,36.7-124.3,36.7-221.4v-115.4c0-98.3-17.6-172.1-53.8-225.4c-9.8-14.4-21.5-27.8-35.1-40c5.2-5.1,9.9-10.5,14.3-16
			c19.1-24.2,32.6-54.3,41-92c7.1-31.5,10.5-67.7,10.5-110.5c0-125.4-20.3-216.8-62-279.4c-21.1-31.7-46.1-58.6-74.4-80.1
			c-28.8-21.8-61.3-38.3-96.6-49C991.2,904.5,907.5,895.6,796.3,895.6L796.3,895.6z"/>
	</g>
	<g>
		<path fill="#FFFFFF" d="M2205.5,2263.2c-22.1,0-40-17.9-40-40V975.6c0-22.1,17.9-40,40-40h323.8c22.1,0,40,17.9,40,40v958.1h158.4
			c22.1,0,40,17.9,40,40v249.5c0,22.1-17.9,40-40,40H2205.5z"/>
		<path d="M2529.2,975.6v998.1h198.4v249.5h-522.2V975.6H2529.2 M2529.2,895.6h-323.8c-44.2,0-80,35.8-80,80v1247.7
			c0,44.2,35.8,80,80,80h522.2c44.2,0,80-35.8,80-80v-249.5c0-44.2-35.8-80-80-80h-118.4V975.6
			C2609.2,931.4,2573.4,895.6,2529.2,895.6L2529.2,895.6z"/>
	</g>
	<g>
		<path fill="#FFFFFF" d="M1709.9,2290c-71.7,0-137.3-12-195-35.8c-59.7-24.5-108.5-62-145.1-111.4
			c-36.4-49.1-58.3-103.5-65.3-161.6c-6.4-53.3-9.5-143.1-9.5-274.5v-213.5c0-128,3-216.6,9.1-270.7c6.6-58.8,27.7-113.2,62.7-161.8
			c35.1-48.8,83-86.7,142.3-112.7c57.7-25.2,125.2-38,200.8-38c71.6,0,137.2,12,195,35.8c59.7,24.5,108.6,62,145.1,111.4
			c36.4,49.1,58.3,103.5,65.3,161.6c6.4,53.4,9.5,143.2,9.5,274.5v213.5c0,127.9-3,216.5-9.1,270.7c-6.6,58.8-27.7,113.2-62.7,161.8
			c-35.2,48.8-83,86.8-142.3,112.7C1853,2277.2,1785.4,2290,1709.9,2290z M1705,1999.2c1,0.1,2.3,0.3,4.2,0.3c2,0,3.3-0.2,4.1-0.3
			c0.1-0.3,0.2-0.7,0.4-1.1c2.2-7,7.4-33.6,7.4-127.6v-574.1c0-69.3-4.8-90.4-6.5-95.6c-0.7-0.1-1.8-0.2-3.1-0.2
			c-3.5,0-4.6,0.4-5.5,1.4c-1.5,4.1-7.2,24.1-7.2,94.4v583.3C1698.8,1966.9,1703.3,1992.6,1705,1999.2z"/>
		<path d="M1709.9,950c66.7,0,126.6,10.9,179.8,32.8c53.1,21.8,95.9,54.6,128.2,98.3s51.6,91.2,57.7,142.6s9.2,141.3,9.2,269.7
			v213.5c0,125.4-3,214.1-8.9,266.2c-5.9,52.2-24.4,99.8-55.4,142.9c-31.1,43.2-73,76.3-125.9,99.4
			c-52.9,23.1-114.5,34.7-184.8,34.7c-66.7,0-126.6-10.9-179.8-32.8c-53.1-21.8-95.8-54.6-128.2-98.3
			c-32.3-43.7-51.6-91.2-57.7-142.5c-6.2-51.4-9.2-141.3-9.2-269.7v-213.5c0-125.3,2.9-214.1,8.8-266.2s24.4-99.8,55.4-142.9
			s73-76.3,125.9-99.4C1578,961.6,1639.6,950,1709.9,950 M1709.1,2039.4c22.2,0,36.4-9.8,42.6-29.3c6.2-19.6,9.3-66.1,9.3-139.7
			v-574.1c0-58.1-3.2-95.3-9.7-111.5s-19.8-24.3-39.9-24.3c-17,0-30.1,6.6-39.1,19.7s-13.5,51.8-13.5,116.1v583.3
			c0,72.5,3,117.3,8.9,134.3C1673.6,2030.9,1687.5,2039.4,1709.1,2039.4 M1709.9,870c-81.1,0-154,13.9-216.8,41.4
			c-65.9,28.8-119.3,71.2-158.7,126c-39,54.2-62.6,115-70,180.7c-6.3,55.7-9.4,145.7-9.4,275.2v213.5c0,133,3.2,224.3,9.8,279.2
			c7.8,65.1,32.3,125.9,72.9,180.6c41,55.4,95.5,97.3,162.1,124.6c62.6,25.7,133.3,38.8,210.2,38.8c81,0,154-13.9,216.8-41.4
			c66-28.9,119.4-71.2,158.8-126c39-54.2,62.6-115,70-180.7c6.3-55.8,9.4-145.8,9.4-275.2v-213.5c0-132.8-3.2-224.2-9.8-279.2
			c-7.8-65.1-32.3-125.9-72.9-180.6c-41-55.3-95.5-97.3-162.1-124.6C1857.5,883,1786.8,870,1709.9,870L1709.9,870z"/>
	</g>
</g>
</svg>
