<?xml version="1.0" encoding="utf-8"?>
<!-- Generator: Adobe Illustrator 18.0.0, SVG Export Plug-In . SVG Version: 6.00 Build 0)  -->
<!DOCTYPE svg PUBLIC "-//W3C//DTD SVG 1.1//EN" "http://www.w3.org/Graphics/SVG/1.1/DTD/svg11.dtd">
<svg version="1.1" id="Livello_1" xmlns="http://www.w3.org/2000/svg" xmlns:xlink="http://www.w3.org/1999/xlink" x="0px" y="0px"
	 viewBox="0 0 3200 3200" enable-background="new 0 0 3200 3200" xml:space="preserve">
<g>
	<g>
		<path d="M1706,2c8,1.1,16,2.8,24,3.3c45.1,2.8,89.8,8.5,134.3,16.4c32.6,5.8,65.3,11.7,97.6,18.9c40.8,9,81,20.3,120.9,32.7
			c48.9,15.2,97,32.7,144,52.8c29.2,12.4,58,25.9,86.4,40.1c31.3,15.7,62.4,32.1,92.8,49.4c37.4,21.2,73.9,44,108.8,69.3
			c20.7,14.9,41.8,29.3,61.9,44.9c24.1,18.7,48,37.8,70.9,57.9c27.7,24.2,54.8,49.1,81.1,74.7c22.6,21.9,44.4,44.7,65.3,68.2
			c23.6,26.5,46.3,53.8,68.3,81.6c17.5,22,33.7,45.1,50,68.1c14.7,20.8,29.2,41.9,42.9,63.4c13.2,20.6,25.6,41.6,37.8,62.8
			c12.3,21.5,24.2,43.3,35.8,65.2c8.1,15.2,16,30.5,22.9,46.3c17.7,40.7,35.4,81.4,51.8,122.7c14.4,36.3,26.8,73.3,36.8,111.1
			c9.8,37.2,19.8,74.3,28.5,111.7c6.1,26.1,11,52.5,14.9,79c5.7,38,10.1,76.2,14.7,114.3c1.2,9.9,1.1,19.9,1.8,29.8
			c0.2,2.5,1.1,5,1.7,7.5c0,71.3,0,142.7,0,214c-0.6,3.2-1.6,6.3-1.7,9.5c-1,32.1-4.8,64-9.4,95.8c-4.9,34.1-10.3,68.1-16.5,102
			c-6.2,34.1-13.8,68-23.7,101.3c-8.3,27.9-15.7,56.1-24.5,83.9c-7,22.1-15.3,43.7-23.4,65.5c-6.5,17.4-13.1,34.7-20.3,51.7
			c-9.7,23.2-19.5,46.4-30.2,69.1c-12,25.3-24.8,50.3-37.9,75.1c-7.8,14.9-16.7,29.2-25.2,43.8c-10.7,18.3-20.9,36.9-32.3,54.8
			c-15.7,24.5-31.9,48.8-48.7,72.5c-13,18.4-27.2,35.9-41.1,53.6c-13.3,16.9-26.5,34-40.4,50.3c-16,18.9-32.4,37.5-49.4,55.6
			c-21.9,23.3-44.2,46.2-67.1,68.5c-19.5,18.9-39.9,36.8-60.3,54.7c-35.4,31-72.3,60-111,86.9c-18.6,13-37,26.4-55.9,38.9
			c-19.8,13.1-39.9,25.8-60.3,38c-33.7,20.2-68.1,39.2-103.6,56.3c-29.5,14.2-58.9,28.7-88.9,41.7c-26,11.3-52.9,20.6-79.4,30.8
			c-41.1,15.9-83.4,28.1-125.6,40.5c-16.4,4.8-33.2,8.3-49.9,12.1c-19.7,4.5-39.4,8.9-59.1,12.8c-21.4,4.3-42.9,8.4-64.5,11.8
			c-21.5,3.5-43.2,6.6-64.9,8.9c-25.7,2.7-51.5,4.4-77.3,6.6c-2,0.2-3.9,0.7-5.8,1c-2.4,1.7-5.2,1-7.7,1c-62.1,0-124.2,0-186.4,0
			c-2.6,0-5.3,0.7-7.7-1.1c-21.7-1.9-43.5-3.2-65.1-5.8c-33.2-3.9-66.4-7.3-99.2-13.8c-32.3-6.4-64.8-11.5-96.9-18.7
			c-27.7-6.2-55.1-13.9-82.3-21.8c-27.5-8-54.8-16.7-82-25.8c-19.7-6.6-39.2-14-58.6-21.7c-19.3-7.6-38.4-15.7-57.3-24
			c-25.6-11.2-51.3-22.5-75.9-36c-21.8-11.9-44.1-22.7-65.8-34.7c-17.1-9.4-33.7-19.6-50.3-29.8c-17.2-10.5-34.2-21.3-51.1-32.3
			c-11.6-7.5-23.1-15.2-34.3-23.2c-16.6-11.9-33-24-49.3-36.4c-13.7-10.4-27.1-21.2-40.4-31.9c-9-7.3-17.9-14.7-26.6-22.3
			c-17-14.8-34.4-29.1-50.7-44.7c-25.9-24.8-51.4-50-76.3-75.7c-16.8-17.3-32.3-35.8-48.3-54c-11.8-13.3-23.7-26.6-34.9-40.4
			c-11.7-14.2-23-28.8-33.9-43.6c-15.7-21.4-31.4-42.8-46.2-64.8c-15.1-22.4-29.5-45.2-43.3-68.4c-16.7-28-32.8-56.4-48.4-85.1
			c-18.2-33.5-34.9-67.8-49.3-103.1c-13.5-33.1-27.2-66.1-39.8-99.5c-9.1-24.1-17.2-48.6-24.9-73.2c-6.4-20.6-11.8-41.5-17.2-62.4
			c-5.9-23.1-11.7-46.2-16.8-69.5c-4.1-18.9-7.2-38-10.6-57.1c-3.2-17.8-6.7-35.7-9.4-53.6c-2.1-13.7-3.2-27.5-4.7-41.2
			c-1.2-10.8-2.5-21.7-3.6-32.5c-1.1-11.2-1.8-22.5-3-33.7c-1-9.1-2.4-18.1-3.7-27.1c0-57.3,0-114.7,0-172c2.8-7,1.8-14.4,2-21.6
			c0.1-3.6-0.6-7.4,1.7-10.7c0.7-10.3,1.1-20.5,2-30.8c0.9-9.5,2.4-19,3.5-28.5c1.1-10.1,1.9-20.3,3.1-30.5c1.4-11,3.2-22,4.9-33
			c1.6-10.4,3-20.8,4.8-31.2c2.7-16.1,5.6-32.1,8.5-48.1c1.8-9.7,3.6-19.3,5.8-28.9c4.6-19.4,9.4-38.7,14.4-58
			c5.7-22.2,11.6-44.4,17.8-66.5c2.8-10.1,6.4-19.9,9.7-29.9c4.9-14.9,9.6-30,14.9-44.8c5.6-15.4,11.7-30.7,17.9-45.9
			c9-22.2,18.1-44.4,27.6-66.4c6.3-14.5,13.1-28.7,20.1-42.9c9-18.2,17.9-36.5,27.7-54.3c15.9-28.8,32-57.6,49-85.8
			c13.8-22.9,28.8-45.2,43.9-67.4c12.5-18.3,25.4-36.2,38.9-53.8c19.5-25.5,39.3-50.8,59.6-75.7c11.2-13.8,23.2-27,35.4-39.9
			c20.9-22.1,42-44,63.6-65.5c21.9-21.7,44-43.2,66.7-64c15-13.8,31.1-26.4,47-39.1c17-13.6,33.9-27.3,51.5-40.1
			c21.4-15.6,43.4-30.5,65.3-45.5c17.7-12,35.4-24.1,53.6-35.3c18.1-11.2,36.7-21.6,55.2-32.2c10.3-5.9,20.5-12,31-17.4
			c23.1-11.9,46.3-23.6,69.7-35.1c37.6-18.4,76.2-34.8,115.4-49.5c28.7-10.7,57.8-20.3,87-29.5c29.4-9.2,59-18.1,88.9-25.6
			c38.7-9.7,77.6-18.1,117-24.6c39.2-6.5,78.4-13.1,118.1-16.1c18.2-1.4,36.3-2.8,54.5-4.3c0.8-0.1,1.6-1,2.4-1.6
			C1570,2,1638,2,1706,2z"/>
		<path fill="#ABABAB" d="M1502.1,3201.8c6.3,0,12.6,0.1,18.9,0.1c57,0,114,0,171,0c4,0,7.9,0,11.9,0c0,0.7,0,1.4,0.1,2.1
			c-67.3,0-134.7,0-202,0C1502,3203.3,1502.1,3202.6,1502.1,3201.8z"/>
		<path fill="#6D6B6B" d="M5.7,1489.7c-0.1,7.2,0.1,14.5-0.3,21.7c-0.2,3.7,0.8,8-3.4,10.6c0-10.7,0-21.3,0-32
			C3.2,1489.9,4.5,1489.8,5.7,1489.7z"/>
		<path fill="#FFFFFF" d="M1603,22.1c21,0,42-0.5,63,0.2c16.5,0.5,33,2.4,49.6,3.6c7,0.5,14,0.4,20.9,1.1c23.4,2.3,47,4.1,70.3,7.3
			c27.9,3.8,55.6,8.4,83.3,13.5c29.4,5.4,58.8,10.9,87.8,18.2c33.8,8.4,67.2,18.3,100.5,28.2c32.4,9.6,64.4,20.8,95.7,33.8
			c27.5,11.4,55.3,22.4,82.6,34.4c18.5,8.1,36.5,17.5,54.5,26.7c23,11.8,46.1,23.5,68.5,36.4c27.5,15.9,54.8,32.2,81.4,49.6
			c29.2,19,57.7,39.1,86.1,59.3c15.6,11.2,30.6,23.4,45.5,35.5c19.6,15.9,38.8,32.3,58.1,48.5c29.5,24.6,55.2,53,82.4,80
			c12.8,12.6,25.7,25.2,37.8,38.4c15.1,16.4,29.9,33,44.1,50.2c16.1,19.4,31.6,39.3,46.9,59.4c13.7,17.9,27,36.1,40.1,54.5
			c9.8,13.8,19.2,27.9,28.2,42.2c16.2,25.9,32.5,51.7,47.5,78.2c16.9,30,33,60.6,48.3,91.4c19.5,39.3,37.3,79.4,52.8,120.3
			c12,31.6,22.5,63.8,33,96c7.8,24,14.9,48.2,21.5,72.5c4.5,16.3,7.7,33,11.4,49.5c3.3,14.6,6.7,29.1,9.7,43.7c3.1,15,6,30,8.4,45.1
			c3.3,20.6,6.3,41.2,9,61.9c2.3,18.1,4.3,36.3,5.9,54.4c1.9,21.8,3.9,43.7,4.4,65.6c1,49.6,1.6,99.2,1.2,148.8
			c-0.2,21.5-3.1,42.9-4.9,64.4c-1.5,17.5-2.7,35.1-4.8,52.6c-2.6,21.4-5.9,42.7-9.3,64c-3.1,19.7-6.3,39.3-10,58.8
			c-6.9,36.2-14.6,72.3-25.2,107.6c-8,27-15.6,54.2-24.2,81.1c-6.4,19.9-13.9,39.4-21.3,59c-8.1,21.4-16.2,42.8-25.1,63.9
			c-7.4,17.7-15.9,34.9-24,52.4c-4.2,9-8.4,18.1-13,26.9c-14.1,27-27.9,54.2-42.9,80.7c-15.5,27.4-31.6,54.6-48.7,81.1
			c-15.9,24.6-33.3,48.1-50.1,72c-6.3,9-12.7,17.9-19.4,26.6c-13.6,17.2-27.2,34.4-41.2,51.2c-14.8,17.9-30.1,35.5-45.3,53
			c-5.2,6-10.7,11.9-16.3,17.5c-25.9,26-51.5,52.2-77.8,77.7c-14.1,13.6-29.3,26.1-44.2,38.8c-14.4,12.3-28.8,24.6-43.6,36.4
			c-17.4,13.9-35,27.6-52.9,40.7c-21.9,16.1-43.9,31.9-66.5,47.1c-17.9,12-36.5,23-55,34.1c-16.5,9.9-33,19.8-49.8,29.1
			c-18.3,10-36.9,19.5-55.6,28.9c-18,9.1-36.2,17.9-54.4,26.6c-12.3,5.8-24.7,11.3-37.3,16.7c-11.9,5-23.8,10-35.9,14.4
			c-31.2,11.4-62.3,23-93.9,33.3c-29.6,9.7-59.6,18.5-89.8,26.5c-26.3,7-53,13-79.7,18.2c-33.2,6.6-66.6,12.6-100.1,17.6
			c-25.6,3.8-51.4,5.6-77.2,8.2c-71.7,7.3-143.6,5.8-215.4,4.5c-20.2-0.4-40.4-2.2-60.6-4c-27.1-2.4-54.2-4.9-81.1-8.5
			c-24.7-3.3-49.2-7.8-73.8-12.2c-19.6-3.5-39.2-7-58.6-11.7c-33.9-8.3-67.7-17-101.3-26.4c-23.6-6.6-47-14.5-70.2-22.4
			c-17.6-6-35-12.5-52.1-19.4c-24.9-10.1-49.7-20.3-74.2-31.2c-20.6-9.2-40.7-19.3-60.9-29.2c-15.5-7.6-31.1-14.8-46.1-23.2
			c-26.9-15.2-53.5-31-79.8-47.1c-21.2-13-42.2-26.5-62.8-40.5c-18.9-12.9-37.2-26.7-55.5-40.6c-18-13.6-35.7-27.7-53.3-41.8
			c-8.8-7.1-17.2-14.7-25.7-22c-7.6-6.5-15.3-12.8-22.6-19.6c-16.1-14.9-32.1-29.9-48-45.1c-11.5-11.1-22.8-22.4-33.9-33.9
			c-14.7-15.4-29.4-30.8-43.6-46.6c-10.4-11.6-19.8-24.2-30.3-35.7c-25.2-27.5-47.1-57.5-69.4-87.4c-31.7-42.4-60.1-86.9-87-132.4
			c-13.7-23.1-25.5-47.3-38.6-70.8c-18.1-32.5-33.4-66.4-48.1-100.4c-13.4-31-25.2-62.8-37-94.5c-7.7-20.5-14.6-41.3-21.1-62.3
			c-6.1-19.7-11.9-39.5-16.8-59.5c-8.9-36.1-17.5-72.3-25.2-108.7c-4.7-22.4-7.7-45.1-11.3-67.7c-2.4-14.7-4.8-29.4-6.7-44.2
			c-1.5-11.2-2.2-22.4-3.3-33.7c-1.6-16.8-3.3-33.6-4.8-50.5c-0.5-5.2-0.4-10.5-0.4-15.7c-0.7-45.9-1.7-91.9-1.9-137.8
			c-0.1-16.9,2-33.8,2.7-50.7c0.8-18.2,2.1-36.2,4.2-54.3c2.1-17.8,2.9-35.7,5.2-53.5c2.5-19,5.8-38,9.2-56.9
			c5-27.8,10-55.6,15.9-83.2c9.4-44.3,21.1-87.9,35.5-130.9c10-29.9,19.7-59.9,30.7-89.4c8.1-21.7,17.7-42.9,27-64.1
			c10.2-23.3,20.1-46.9,31.4-69.7c12.2-24.6,25.5-48.7,38.9-72.7c11.5-20.5,23.5-40.8,35.9-60.8c11.7-18.9,23.6-37.7,36.3-56
			c15.7-22.6,31.9-45,48.6-66.9c18-23.4,36.9-46.1,55.4-69.2c40.5-50.6,88.7-93.8,134.1-139.6c18.4-18.6,39.2-34.9,59.3-51.7
			c19.4-16.2,39.1-32,59.4-47.1c22.1-16.5,44.7-32.3,67.4-47.9c18-12.4,36.2-24.5,54.8-36.1c16.6-10.4,33.8-19.9,50.9-29.6
			c14.1-8,28.2-16,42.6-23.5c16.7-8.7,33.6-17.3,50.7-25.2c32.6-14.9,65.2-29.8,98.2-43.6c22.6-9.5,45.8-17.7,69-25.6
			c27.7-9.4,55.4-18.6,83.5-26.5c29.4-8.3,59.1-15.7,89-22.1c34.7-7.5,69.6-14.7,104.8-19.8c38.1-5.5,76.6-8.6,115-12.6
			C1519.8,21.6,1561.4,21.6,1603,22.1z"/>
		<path fill="#B00D28" d="M1601.8,3102.1c-20,0-40,0.5-59.9-0.2c-24.2-0.8-48.5-2-72.6-4c-27.4-2.3-54.9-4.9-82.1-8.7
			c-26.3-3.6-52.6-8.2-78.6-13.4c-30.3-6-60.6-12.4-90.5-20.2c-25.7-6.7-50.7-15.9-76.2-23.5c-27.7-8.2-54.5-18.7-81.2-29.6
			c-24.9-10.1-50-19.7-74.4-30.9c-30.7-14.1-60.9-29.1-90.7-45.2c-42.4-22.9-83.7-47.6-124.2-73.8c-38.9-25.2-75.8-52.9-111.6-82.3
			c-26-21.3-52-42.5-75.9-66.1c-24.4-24.1-49.2-47.8-73.2-72.3c-20.7-21.1-40.3-43.3-58.6-66.6c-13.3-17-28-32.9-41-50.1
			c-17.9-23.6-35.3-47.6-51.9-72.1c-15.3-22.5-29.9-45.6-43.7-69.1c-15.5-26.3-30.1-53.2-44.4-80.2c-12.4-23.5-24.2-47.3-35.3-71.4
			c-9.9-21.3-19-43-27.5-65c-12.8-33.2-25.2-66.5-36.7-100.1c-13.5-39.6-25-80-34-120.9c-7.4-33.4-13.7-67-18-101
			c-2.9-23.4-6.8-46.6-9.6-70c-1.8-14.8-2.4-29.8-3.6-44.6c-4.4-53.7-4.4-107.6-3.9-161.4c0.2-17.9,1.6-35.8,2.5-53.8
			c0.8-14.8,1.4-29.7,2.8-44.5c1.6-17.5,3.8-34.9,6-52.4c1.8-14.1,3.8-28.3,5.9-42.4c2.1-14.4,4.1-28.9,6.6-43.3
			c6.9-39,14.9-77.7,26.3-115.7c8.3-27.7,17.3-55.1,26.3-82.6c5.7-17.3,11.4-34.7,18.1-51.7c8.6-21.9,17.9-43.5,27.2-65.1
			c7.6-17.6,15.4-35.2,23.6-52.6c7.1-14.9,14.7-29.6,22.4-44.3c10.3-19.7,20.2-39.6,31.4-58.7c14.2-24.4,29-48.5,44.3-72.2
			c13.3-20.7,27.2-41.1,41.7-61c21.6-29.5,44.8-57.8,68.1-86c41.5-50.2,89.2-94.4,135.1-140.2c18.1-18,38.3-34,57.8-50.5
			c37.6-31.9,77.1-61.4,118.2-88.5c31.6-20.9,64.4-39.9,97.1-59c22.3-13,45.2-25,68.1-36.9c15.9-8.2,32.1-15.9,48.4-23.2
			c21.8-9.8,43.6-19.8,65.8-28.5c27.5-10.8,55.2-21,83.2-30.3c30.2-10.1,60.7-19.3,91.3-28.2c43.2-12.6,87.3-21.1,131.7-27.5
			c38.5-5.6,77.1-10.2,115.8-14.2c43.4-4.4,87-5.2,130.6-4.6c1.7,0,3.3,0.4,5,0.6c3.4,6.2,1.9,13.1,1.8,19.5
			c-1,65.2-0.4,130.5-0.4,195.7c0,47.3-0.2,94.5,0.3,141.8c0.5,46.9-0.9,93.8,0.2,140.8c0.1,3.7-0.6,7.3-2.1,10.7
			c-3.6,4.9-8.9,3.6-13.8,3.7c-120.8,2.1-237.6,24.8-350,69.2c-102.5,40.5-195.5,97.1-279.3,168.8c-67.7,57.9-126.5,124-176.2,197.9
			C699.1,1177,646.1,1316.3,625,1467.7c-8.4,60.2-11,120.8-8,181.4c5.2,104.8,26.2,206.6,63.7,304.8
			c38.4,100.5,92,192.2,160.2,275.2c78.7,95.8,172.5,173.7,280.5,234.5c74.2,41.7,152.5,73.2,234.9,94.3
			c53.6,13.7,108,23.6,163.3,27.5c24.2,1.7,48.4,4,72.7,3.8c3.9,0,8.1-0.4,10.9,3.5c2.2,5.1,1.8,10.5,1.8,15.8
			c-0.1,50.3-0.1,100.5,0,150.8c0.1,29.6,0.3,59.3,0.1,88.9c-0.2,35.6,0.5,71.2,0,106.8c-0.5,29.9-0.4,59.9,0.1,89.9
			c0.2,15.6-0.5,31.3-0.2,46.9C1605.2,3095.6,1604.6,3099.3,1601.8,3102.1z"/>
		<path fill="#002350" d="M1602,611.7c0.1-17.9,0.1-35.7,0.2-53.6c0.2-24.8,0.8-49.7,0.8-74.5c0-23.5-0.7-47-0.7-70.5
			c0-23.2,0.7-46.3,0.7-69.5c0-21.9-0.7-43.8-0.7-65.7c0-24.5,0.7-49,0.7-73.5c0-15.6-0.6-31.1-0.7-46.7c-0.1-15.5-0.1-31,0-46.6
			c0-2.9,1-5.9,1.5-8.8c23-0.1,46-1.1,69,0c27.5,1.3,54.9,4.2,82.3,6.8c23.1,2.1,46.2,4.2,69.2,7.2c18.4,2.4,36.6,6.1,54.9,9.5
			c20.9,3.8,42,6.9,62.6,12.1c37.3,9.5,74.7,19.1,111.4,30.8c34.7,11.1,68.7,24.8,102.7,38c21.6,8.4,43.1,17.3,64.3,26.8
			c18.5,8.3,36.5,17.5,54.6,26.6c14,7,27.8,14.1,41.7,21.4c10.6,5.5,21.2,11.1,31.5,17.1c16.1,9.3,32.3,18.5,47.8,28.7
			c33.1,21.7,66.2,43.5,98.5,66.3c19.8,14,38.3,29.8,57,45.3c21.5,17.8,42.8,35.9,63.8,54.2c7.8,6.8,14.8,14.4,22.1,21.7
			c22.2,22.1,44.6,44,66.3,66.5c14.3,14.9,27.5,30.7,40.9,46.3c14.7,17.2,29.3,34.5,43.5,52.1c9.2,11.4,17.8,23.3,26.5,35
			c27.7,37.1,52.8,76,76.5,115.7c15.3,25.6,29.6,51.9,43.3,78.4c13.9,26.8,26.9,54,39.5,81.4c11.9,26,23.4,52.2,33.8,78.8
			c10,25.7,18.7,51.8,27.1,78.1c9.4,29.4,19.2,58.8,26.4,88.8c9,37.5,16.3,75.4,23.1,113.3c4.9,27.7,8,55.8,11.6,83.7
			c1.4,10.5,1.8,21.2,2.7,31.8c1.1,13.9,2.1,27.8,3.3,41.7c2.9,32.6,2,65.2,2.1,97.8c0.1,20,0.3,40-0.3,60
			c-0.4,15.9-1.8,31.8-3.1,47.6c-1.8,22.2-3.5,44.4-6,66.4c-3.1,26.7-6.4,53.4-10.9,79.9c-5.4,32.1-11.3,64.2-18.6,95.8
			c-6.5,27.8-14.9,55.1-23.2,82.5c-6.9,22.9-13.9,45.8-22.2,68.1c-11.8,31.7-24.6,63.1-37.7,94.3c-8.2,19.6-17.1,38.9-26.7,57.8
			c-15.2,29.8-31.2,59.3-47.2,88.6c-23.6,43.2-50.5,84.5-78.7,124.8c-15.6,22.3-32.7,43.7-49.6,65.1c-14.5,18.2-29.6,35.9-44.6,53.7
			c-32.7,38.7-69.5,73.5-105.5,109.1c-16.1,15.9-33.3,30.5-50.5,45.2c-21.7,18.5-43.6,37-66.1,54.6c-18.6,14.5-38.1,28-57.5,41.5
			c-16.4,11.4-33,22.5-50,33c-22,13.6-44.3,26.9-66.9,39.5c-21.1,11.8-42.8,22.7-64.3,33.7c-14.5,7.3-29.6,13.5-43.9,21.2
			c-30,16-61.8,27.6-93.2,40.1c-27.1,10.8-55,19.9-82.7,29c-21.4,7.1-43.2,13.3-64.8,19.5c-29.1,8.4-58.5,15.3-88.4,20.3
			c-16.4,2.7-32.7,6.1-49.1,8.6c-19,3-38.1,5.5-57.2,7.9c-20.1,2.5-40.2,4.8-60.3,6.9c-6.6,0.7-13.3,0.7-19.9,0.9
			c-35.6,1-71.2,2-106.7,2.9c-1.9,0.1-3.9-0.5-5.9-0.8c0.1-8.3,0.3-16.5,0.3-24.8c0-21.2-0.1-42.4,0-63.6
			c0.2-27.2,0.7-54.3,0.8-81.5c0-19.5-0.8-39-0.7-58.5c0-27.2,0.7-54.3,0.7-81.5c0-19.6-0.8-39.1-0.7-58.7c0-27.1,0.7-54.2,0.7-81.4
			c0-16.2-0.6-32.5-0.8-48.7c0-3.6,0.3-7.3,0.5-11c3.3-4,7.9-2.9,12.1-3c134.8-1.3,263.8-29.5,387.1-83.6
			c88.2-38.7,168.8-89.6,242-152.3c91.1-78,166-169.2,224.1-274c58.1-104.9,95.6-216.9,112.7-335.5c4.8-33.6,8-67.3,9.1-101.4
			c0.6-18.9,2-37.9,1.4-56.9c-2.8-88.2-14.7-175.1-39.6-260c-19.7-67.1-46.1-131.4-79.2-193c-32.9-61.3-72.2-118.3-117.4-171.2
			c-73.1-85.3-157.9-156.5-254.9-213.2c-52.5-30.7-107.5-55.9-164.8-76.4c-70.9-25.4-143.9-42-218.6-50.9c-33.4-4-66.9-6-100.6-6.7
			C1611.3,614.5,1606,616,1602,611.7z"/>
		<path fill="#FFFFFF" d="M1602,611.7c17.6,0.6,35.3,1.1,52.9,2c152.9,7.9,296.8,48.3,430.1,123.7c214.4,121.3,364.4,298,449.9,529
			c28.1,76,45.3,154.6,53.5,235.2c7.7,75.6,6.9,151.1-2.8,226.4c-17.4,135.3-60,262.1-130.5,379c-125,207.4-302.1,351.5-530.6,432
			c-64,22.5-129.9,37.2-197.2,45.6c-41.4,5.2-82.9,7.5-124.6,7.9c-18-0.7-36-1.1-53.9-2c-151.1-8.2-293-48.8-425.2-122.4
			c-152.3-84.8-274-201.8-365.2-350.2C692.2,2010,648.9,1893.7,627.6,1769c-12.2-71.3-17-143-12.8-215.1
			c15.8-272,124-501,324.4-685.5c120.1-110.5,260.7-184.8,418.7-225.7c46.1-11.9,93-20.2,140.5-25.1
			C1532.8,614,1567.3,612.4,1602,611.7z"/>
		<path fill="#B10D28" d="M1543.9,1095.5c0-143.7,0-287.3,0-431c0-2.3,0-4.7,0-7c0.1-7.6,0.1-8,7.4-8.1c34.9-0.2,69.9-0.2,104.8,0
			c6.8,0,6.9,0.5,7,7.6c0.1,2.7,0,5.3,0,8c0,288,0,576,0,864c0,13.3,0,13.3,13.1,13.3c289,0,578,0,867,0c12.5,0,13.2,0,13.3,12.6
			c0.2,33.6-0.3,67.2-0.3,100.9c0,5.1-2.3,6.3-6.7,6c-2.7-0.2-5.3,0-8,0c-288.3,0-576.7,0-865,0c-13.4,0-13.4,0-13.4,13
			c0,288.7,0,577.3,0,866c0,13.2,0,13.7-12.7,14.4c-15.3,0.8-30.6,0.9-45.9,0.8c-18.3-0.1-36.6-0.9-54.9-1.2
			c-4.2-0.1-6.1-1.5-5.8-5.9c0.2-3,0-6,0-9c0-288.3,0-576.7,0-865c0-13.1,0-13.1-13.2-13.1c-289,0-578,0-867,0
			c-12.7,0-13.3,0-13.4-12.6c-0.2-33.3,0.1-66.6,0.3-99.9c0-6.7,0.4-6.7,6.7-6.9c3-0.1,6,0,9,0c288.3,0,576.7,0,865,0
			c14.8,0,12.5,1.9,12.5-12.8C1543.9,1384.8,1543.9,1240.1,1543.9,1095.5z"/>
	</g>
</g>
<g>
	<g>
		<path fill="#FFFFFF" d="M774.3,2290c-101.5,0-187.2-19.1-254.6-56.7c-70.4-39.3-117.9-94.9-141-165.4
			c-21.6-65.5-32.1-159.5-32.1-287.2v-364.5c0-92.6,3.1-160.5,9.6-207.7c7.1-51.4,28.1-101.3,62.5-148.1
			c34.6-47.1,82.8-84.5,143.3-111.2c59.1-26,127.4-39.2,203-39.2c102.4,0,188.9,20.5,257,61c70.1,41.7,117.2,95.3,139.8,159.2
			c21.3,60.1,31.6,148.7,31.6,270.9v118.5c0,22.1-17.9,40-40,40H829.7c-22.1,0-40-17.9-40-40v-217.3c0-72.7-5-95.2-6.6-100.7
			c-1.5-0.5-4.7-1.1-10.3-1.1c-9.4,0-13.1,1.7-13.8,2.2c-0.1,0.1-0.2,0.3-0.3,0.7c-1.9,5.1-8.3,28-8.3,109.2v580.2
			c0,77.5,6.2,99.3,8.1,104.2c0.1,0.3,0.2,0.6,0.3,0.7c0.8,0.4,4,1.7,11.6,1.7c7.1,0,9.8-1.3,10.2-1.5c0.1-0.2,0.3-0.5,0.7-1.3
			c1.4-3.4,8.4-25.2,8.4-115.6v-156.9c0-22.1,17.9-40,40-40h323.8c22.1,0,40,17.9,40,40v48.6c0,134.6-9.6,228.6-29.5,287.3
			c-21.1,62.5-67.2,117.2-137.1,162.6C958.1,2267.3,873.1,2290,774.3,2290z"/>
		<path d="M765,950c95.6,0,174.4,18.5,236.6,55.4c62.2,37,103,83,122.5,138.2s29.3,141,29.3,257.5v118.5H829.7v-217.3
			c0-63.2-3.5-102.6-10.5-118.3c-7-15.7-22.5-23.5-46.4-23.5c-27,0-44.2,9.5-51.4,28.5c-7.3,19-10.9,60.2-10.9,123.5v580.2
			c0,60.7,3.6,100.3,10.9,118.8c7.3,18.5,23.6,27.8,49.1,27.8c24.4,0,40.4-9.3,47.9-27.8s11.3-62.1,11.3-130.6V1724h323.8v48.6
			c0,129-9.1,220.5-27.4,274.5c-18.2,54-58.6,101.3-121,141.9s-139.4,60.9-230.8,60.9c-95.1,0-173.4-17.2-235.1-51.6
			c-61.7-34.4-102.5-82.1-122.5-142.9c-20-60.9-30.1-152.5-30.1-274.7v-364.5c0-89.9,3.1-157.3,9.2-202.3
			c6.2-44.9,24.5-88.2,55.1-129.8c30.6-41.6,73-74.4,127.2-98.3C632.3,961.9,694.6,950,765,950 M765,870
			c-81.2,0-155,14.3-219.2,42.6c-66.9,29.5-120.6,71.3-159.4,124.1c-38.4,52.3-61.9,108.2-69.9,166.3c-6.7,49-10,118.7-10,213.2
			v364.5c0,132.1,11.1,230.1,34.1,299.8c13.3,40.3,33.8,76.8,60.9,108.4c26.5,30.9,59.7,57.6,98.6,79.3
			c37.5,20.9,80.2,36.8,126.9,47c44.6,9.8,94.2,14.8,147.2,14.8c52.4,0,101.7-6,146.7-17.9c46.5-12.3,89.5-31.1,127.7-56
			c77.6-50.5,129.1-112.2,153.2-183.3c21.2-62.9,31.6-161,31.6-300.1v-48.6c0-44.2-35.8-80-80-80H829.7c-14.3,0-27.7,3.7-39.3,10.3
			v-65.1c11.6,6.6,25,10.3,39.3,10.3h323.8c44.2,0,80-35.8,80-80v-118.5c0-126.8-11.1-219.7-33.9-284.2
			c-25.9-73-78.7-133.7-157.1-180.3c-38-22.6-81.2-39.6-128.4-50.7C868.8,875.4,818.7,870,765,870L765,870z"/>
	</g>
	<g>
		<path fill="#FFFFFF" d="M2377,2290c-60.9,0-118.8-15.1-172-44.7c-53.1-29.6-94.3-67.3-122.3-111.9
			c-27.5-43.6-44.9-90.3-51.8-138.6c-6.5-45.1-9.6-110.1-9.6-198.7v-370.7c0-123.5,6.6-211.4,20.3-268.9
			c15-63.1,57.2-120.7,125.5-171.3c67.5-49.9,154.9-75.3,259.6-75.3c102,0,188.6,21.8,257.3,64.7c70.1,43.8,116.8,97.5,138.8,159.7
			c20.7,58.6,30.8,139.5,30.8,247.3v54c0,22.1-17.9,40-40,40h-323.8c-22.1,0-40-17.9-40-40V1322c0-90.3-5.1-115-6.9-121
			c-1.1-0.3-3.1-0.5-6.2-0.5c-2.3,0-3.8,0.2-4.7,0.4c-1.3,3.7-6.9,24.2-6.9,101.6V1515c3.2-0.8,6.5-1.2,9.9-1.2h378.6
			c22.1,0,40,17.9,40,40v669.5c0,22.1-17.9,40-40,40h-204.2c-17.2,0-32.4-11-37.9-27.2l-6.1-18.3c-15,14.8-31.5,27.4-49.3,37.7
			C2476.2,2278.4,2429.5,2290,2377,2290z M2433.3,1998.9c0.8,0.2,2.4,0.6,5.4,0.6c8.8,0,9.5-1.8,11.1-5.6
			c2.9-6.8,9.5-30.4,9.5-101.9v-108.3h-24.5c-3.4,0-6.7-0.4-9.9-1.2v119.7c0,70.9,6,91.2,7.8,95.7
			C2433,1998.3,2433.1,1998.6,2433.3,1998.9z"/>
		<path d="M2426.5,950c94.9,0,173.6,19.5,236.1,58.6c62.6,39.1,103.3,85.4,122.3,139.1s28.5,131.7,28.5,234v54h-323.8v-113.6
			c0-71.6-3.1-116.4-9.2-134.5c-6.2-18-20.8-27-43.9-27c-20,0-33.6,7.7-40.8,23.1s-10.8,55-10.8,118.8V1902
			c0,56.1,3.6,93,10.7,110.7c7.2,17.7,21.5,26.6,43,26.6c23.5,0,39.6-10,48-30.1s12.7-59.2,12.7-117.4v-148.3h-64.5v-189.9h378.6
			v669.5h-204.2l-30.1-89.4c-22,38.5-49.8,67.5-83.4,87c-33.6,19.4-73.1,29.2-118.7,29.2c-54.3,0-105.2-13.2-152.6-39.7
			c-47.4-26.5-83.4-59.2-108-98.3c-24.6-39-40-80-46.1-122.9c-6.2-42.9-9.2-107.2-9.2-193v-370.7c0-119.2,6.4-205.7,19.2-259.7
			c12.8-53.9,49.6-103.4,110.4-148.3C2251.5,972.5,2330.1,950,2426.5,950 M2426.5,870c-55.4,0-107,6.7-153.2,19.9
			c-48.3,13.8-92.1,35.1-130.1,63.2c-76.1,56.3-123.4,121.6-140.6,194.2c-14.4,60.6-21.4,151.6-21.4,278.2v370.7
			c0,90.5,3.3,157.4,10,204.4c7.7,53.9,27.1,105.7,57.6,154.2c31.7,50.3,77.6,92.5,136.7,125.5c59.3,33.1,123.7,49.8,191.5,49.8
			c59.6,0,113.1-13.4,158.8-40c5.7-3.3,11.2-6.8,16.6-10.4c14.7,14.8,34.9,23.6,56.7,23.6h204.2c44.2,0,80-35.8,80-80v-669.5
			c0-23.4-10-44.4-26-59c16-14.6,26-35.7,26-59v-54c0-112.5-10.8-197.7-33-260.6c-25.1-71-77.3-131.6-155.3-180.3
			c-38.3-23.9-81.7-42-129.1-53.7C2530.5,875.7,2480.2,870,2426.5,870L2426.5,870z"/>
	</g>
	<g>
		<path fill="#FFFFFF" d="M1682.8,2263.2c-20.9,0-38.3-16.1-39.9-36.9l-14.5-187.1h-42.5l-16,187.4c-1.8,20.7-19.1,36.6-39.9,36.6
			h-335c-11.5,0-22.5-5-30.1-13.6c-7.6-8.7-11.1-20.2-9.6-31.6l165.2-1247.7c2.6-19.9,19.6-34.7,39.7-34.7h468
			c19.8,0,36.6,14.5,39.6,34.1l185.9,1247.7c1.7,11.5-1.7,23.2-9.3,32c-7.6,8.8-18.7,13.9-30.3,13.9L1682.8,2263.2L1682.8,2263.2z
			 M1611.3,1737.7c-3.6-33.8-7.2-69.5-10.8-106.9c-4.4,39.8-8.1,75.4-11.1,106.9H1611.3z"/>
		<path d="M1828.2,975.6l185.9,1247.7h-331.4l-17.4-224H1549l-19.1,224h-335l165.2-1247.7L1828.2,975.6 M1545.8,1777.7h110
			c-15.4-141-31.5-315.9-48.3-524.4C1575.3,1492.8,1554.7,1667.6,1545.8,1777.7 M1828.2,895.6h-468c-40.1,0-74,29.7-79.3,69.5
			l-165.2,1247.7c-3,22.8,3.9,45.9,19.1,63.2s37.1,27.3,60.2,27.3h335c35.6,0,66.2-23.4,76.4-56.2c10.2,32.8,40.7,56.2,76.4,56.2
			h331.4c23.3,0,45.4-10.1,60.6-27.8c15.2-17.6,22-41,18.5-64l-186-1247.7C1901.5,924.6,1867.8,895.6,1828.2,895.6L1828.2,895.6z"/>
	</g>
</g>
</svg>
