<?xml version="1.0" encoding="utf-8"?>
<!-- Generator: Adobe Illustrator 18.0.0, SVG Export Plug-In . SVG Version: 6.00 Build 0)  -->
<!DOCTYPE svg PUBLIC "-//W3C//DTD SVG 1.1//EN" "http://www.w3.org/Graphics/SVG/1.1/DTD/svg11.dtd">
<svg version="1.1" id="Livello_1" xmlns="http://www.w3.org/2000/svg" xmlns:xlink="http://www.w3.org/1999/xlink" x="0px" y="0px"
	 viewBox="0 0 3200 3200" enable-background="new 0 0 3200 3200" xml:space="preserve">
<g>
	<g>
		<path d="M1706,2c1.3,0.6,2.7,1.7,4,1.8c25.8,2.2,51.7,3.5,77.3,6.7c32.2,4.1,64.3,9.4,96.3,14.8c24.5,4.2,49,8.9,73.2,14.4
			c27.5,6.3,54.8,13.3,81.9,20.9c29,8.2,58,16.8,86.4,26.7c31.6,11,63,23,94,35.8c48.3,19.8,95.8,41.8,141.5,67
			c37,20.4,73.2,42.2,108.9,64.7c25.2,15.8,49,33.8,73.6,50.6c40.9,27.8,78.8,59.4,115.9,92c25.6,22.5,50.1,46.3,74.2,70.4
			c24.4,24.3,48.3,49,71.3,74.6c18.2,20.2,34.7,41.8,52,62.8c36.7,44.7,68.1,93.3,100.5,141c13,19.1,23.8,39.7,35.4,59.8
			c10,17.2,19.9,34.3,29.3,51.8c8.4,15.7,16.6,31.7,24,47.9c13.3,29.1,26.3,58.3,38.8,87.8c14.9,35.1,28.6,70.7,39.7,107.2
			c9.6,31.7,19.8,63.2,28.2,95.2c12.9,48.8,23.1,98.3,31.5,148.1c6.3,36.9,11.2,74,14.1,111.4c1.5,19.5,2.8,39,4.2,58.5
			c1.3,29.5,0.5,59.1,0.5,88.6c0,23.9,0.9,47.8-0.5,71.7c-1.3,22.5-2.2,45.1-4.1,67.5c-1.9,22.7-4.4,45.3-7.5,67.8
			c-4.5,32.2-9.5,64.3-14.8,96.4c-2.5,15.3-6.3,30.4-9.6,45.5c-3.8,17.1-7.3,34.2-11.9,51.1c-8.2,29.9-16.7,59.7-25.7,89.4
			c-13.6,44.9-30.3,88.7-48.5,131.9c-10.8,25.8-22.9,51.1-35.1,76.3c-12.3,25.5-25.1,50.8-38.1,76c-5,9.6-11.4,18.6-16.9,27.9
			c-4.9,8.2-9.3,16.8-14.3,25c-14.1,22.8-28.1,45.8-42.8,68.1c-12.9,19.5-26.7,38.5-40.5,57.4c-8,10.9-16.8,21.2-25.2,31.7
			c-13.6,17-27.1,34.1-40.8,50.9c-7.3,8.9-14.6,17.8-22.5,26.2c-23.7,25.2-47,50.7-71.6,75c-26.1,25.7-53.1,50.5-80.4,75
			c-53.4,48-112.3,88.6-171.8,128.4c-14.1,9.4-27.9,19.1-42,28.5c-4.9,3.3-10.1,6.2-15.3,9.1c-42.9,24.2-85.8,48.5-130.5,69.4
			c-38.6,18.1-77.4,35.8-117.6,50.1c-27.7,9.8-55.3,19.9-83.2,29.1c-20,6.6-40.4,12.1-60.6,18.1c-51.6,15.2-104.5,24.9-157.1,35.4
			c-24.2,4.8-48.9,7.8-73.5,10.5c-34.7,3.9-69.6,6.8-104.4,10.2c-2.1,1.3-4.5,0.9-6.8,0.9c-56.1,0-112.3,0-168.4,0
			c-2.3,0-4.7,0.4-6.8-0.8c-10.4-1-20.9-2-31.3-2.9c-16.1-1.4-32.3-2.6-48.4-4.2c-15.8-1.5-31.6-3.1-47.4-5.2
			c-14.1-1.9-28.2-4.5-42.2-7c-24.8-4.4-49.7-8.8-74.4-13.7c-15.9-3.2-31.6-7.2-47.4-11.1c-16.4-4-32.8-8-48.9-12.7
			c-28.2-8.2-56.7-15.9-84.4-25.8c-38.9-13.9-77.2-29.5-115.6-44.8c-18.1-7.2-36.2-14.8-53.8-23.4c-26.1-12.8-51.7-26.7-77.6-40
			c-33.9-17.5-66.8-36.9-98.7-57.8c-26.3-17.3-52.2-35.3-78.1-53.3c-55.7-38.8-107.1-82.8-156.9-128.9
			c-32.3-29.9-63.3-61.2-92.4-94.2c-26.7-30.3-52.2-61.8-77.7-93.1c-29.6-36.4-55.3-75.6-81.3-114.5c-17.1-25.6-32.1-52.6-47.5-79.2
			c-12.1-20.9-23.8-42-34.8-63.4c-10.4-20.3-20.1-41-29.5-61.7c-9.3-20.5-18.2-41.2-26.7-62c-7.6-18.7-14.5-37.7-21.4-56.6
			c-7.5-20.9-15-41.7-21.8-62.8c-10.6-33-19.7-66.4-27.8-100.1c-9.6-40-18-80.3-24.8-120.8c-4.8-28.4-8.3-57.1-11.9-85.7
			c-2-15.8-3.2-31.7-4.6-47.5c-1-11.1-1.9-22.2-3-33.3c-0.1-0.8-1.2-1.5-1.9-2.3c0-59.3,0-118.7,0-178c3-4.8,3.2-10.2,3.5-15.7
			c0.9-15.5,1.3-31.1,2.8-46.6c2.2-21.3,4.8-42.7,8-63.9c4.2-28.2,8.5-56.3,13.8-84.3c5.4-29,11.7-57.8,18.2-86.5
			c4-17.4,9-34.6,13.9-51.8c7.1-24.7,14.3-49.4,22.1-73.9c6.2-19.1,13.2-38,20.3-56.8c8.9-23.2,17.7-46.4,27.6-69.1
			c11.6-26.6,24.1-52.8,36.9-78.8c11.7-23.7,23.8-47.2,36.9-70.1c20.9-36.7,42.6-73,66.4-108c9.4-13.8,18.2-28,28-41.5
			c12.8-17.6,25.8-35.1,39.6-52c24.7-30.2,49.2-60.7,75.3-89.7c36.8-40.7,75.4-79.7,116.9-115.8c20.7-18,40.8-36.7,62.2-53.7
			c24.6-19.6,50-38.1,75.7-56.2c29-20.5,58.3-40.9,88.3-60c33.2-21.1,67.1-41.1,102.5-58.4c30-14.6,59.6-30.1,90-43.9
			c26.9-12.2,54.5-23.1,82.1-33.8c26.3-10.1,52.9-19.9,79.7-28.5c24.5-7.9,49.5-14.3,74.4-21.1c20.2-5.5,40.3-11.1,60.7-15.5
			c27.2-5.9,54.6-11.1,82.1-16.1c23.5-4.3,47-8.8,70.6-11.6c31.9-3.8,64-6,95.9-8.9c1.8-0.2,3.5-1.1,5.3-1.7C1570,2,1638,2,1706,2z"
			/>
		<path fill="#ABABAB" d="M1514,3202.1c13.9,0,27.8-0.1,41.7-0.1c44.5-0.1,88.9-0.2,133.4-0.3c2.3,0,4.6,0.2,6.9,0.4
			c0,0.6,0,1.3,0,1.9c-60.7,0-121.3,0-182,0C1514,3203.4,1513.9,3202.7,1514,3202.1z"/>
		<path fill="#ACACAC" d="M3202.3,1674.2c-0.1-16.3-0.3-32.5-0.3-48.8c-0.1-34.5-0.2-69.1-0.2-103.6c0-2.6,0.4-5.3,0.6-7.9
			c0.6-0.4,1.1-0.4,1.6,0.2c0,53.3,0,106.7,0,160l-0.8,0.3C3203.2,1674.3,3202.3,1674.2,3202.3,1674.2z"/>
		<path fill="#FFE303" d="M23.3,1635.1c-0.1-288.1,57.5-529.5,174.8-756c139.6-269.5,340.2-482.5,601.2-637.3
			c259.1-153.7,540.4-227.6,841.3-219C2068.5,35,2433,196.5,2735.3,499.1c304.7,320.7,454.5,702.1,448.2,1144.5
			c-15.6,426.7-175.7,790.1-477.8,1091.4c-320.8,304.1-701.9,454.5-1144.1,446.8c-192.2-3.4-377.5-43-555.5-115.9
			c-204.3-83.7-383.5-204.8-537.2-363.2c-139.5-143.7-248-308.2-325.1-493.1C62.9,2015.3,23,1812.8,23.3,1635.1z"/>
		<path fill="#0559A2" d="M1603,3101.5c-27.3,0-54.7,0.9-81.9-0.3c-26.1-1.1-52.2-3.9-78.3-6.8c-27.4-3-54.7-6.1-81.9-10.6
			c-27.8-4.6-55.5-10.3-83.1-16.5c-24.9-5.5-49.6-12.2-74.4-18.5c-39-9.9-77.1-22.7-114.9-36.5c-32.2-11.7-64-24.1-95.1-38.6
			c-30.7-14.3-61.3-28.8-91.6-44c-16.3-8.2-31.8-17.9-47.7-27.1c-15.5-8.9-31.3-17.6-46.4-27.1c-16.6-10.5-32.7-21.7-48.8-32.8
			c-20.5-14.2-41.1-28.2-61-43.2c-36.6-27.6-71.9-56.8-105.6-87.8c-15.9-14.6-31.6-29.3-46.9-44.5c-31.6-31.3-62-63.8-90.2-98.3
			c-22.9-28-45.5-56.3-67.1-85.2c-15.5-20.7-29.6-42.5-43.5-64.3c-17.5-27.5-34.4-55.3-51-83.3c-9.6-16.3-18.5-33.1-26.7-50.2
			c-16.8-34.7-34.3-69.2-49.1-104.7c-19.2-46-36.6-92.7-50.3-140.7c-8.9-31.3-18-62.6-25.4-94.3c-7.6-32.3-14.3-64.9-19.7-97.6
			c-5.4-33.3-8.6-67.1-12.9-100.6c-6-47.3-6.4-94.8-6-142.4c0.2-19.7,0.1-39.3,0-59c-0.1-31.9,2.8-63.7,6.4-95.4
			c3.1-27,7.4-53.9,10.5-80.9c3.9-33.4,11.2-66.1,18.7-98.8c5.4-23.6,11.4-47.1,17.4-70.6c9.9-38.3,22.8-75.6,36.1-112.9
			c14.5-40.8,31-80.7,49.4-119.8c13.6-28.8,28.4-57.1,43.7-85.1c14.7-27.1,30.2-53.8,46.2-80.2c10-16.5,21.4-32.1,32.4-47.9
			c13.6-19.6,26.9-39.5,41.5-58.5c28.9-37.7,58.5-74.7,91.4-109.1c8.2-8.6,15.7-17.9,24-26.5c13.6-14.1,27.2-28.3,41.7-41.5
			c26.5-24.2,53.2-48.1,80.5-71.4c29.2-25.1,59.7-48.6,91.5-70.4c23.9-16.3,47.4-33.1,71.9-48.4c27.1-16.8,55-32.3,82.7-48
			c15.6-8.8,31.4-17.4,47.5-25.3c18.5-9.1,37.4-17.3,56.1-25.8c10.6-4.8,21.1-9.9,31.9-14.1c34.5-13.2,68.9-26.4,103.7-38.9
			c19.4-6.9,39.2-12.6,59-18.2c23.6-6.7,47.3-13.5,71.3-18.8c33.1-7.3,66.3-14.2,99.8-19.4c36.7-5.7,73.7-9.4,110.7-13.8
			c46.3-5.6,92.9-5.6,139.5-5.2c12.3,0.1,24.7,0,37,0c53.2,0.2,106,5.6,158.7,12.9c24,3.3,48,6.9,71.9,11c16,2.7,32,6.2,47.8,9.9
			c25.9,6.1,51.6,12.8,77.4,19.2c40.4,9.9,79.8,23,118.6,37.8c29.2,11.1,58,23,86.8,35.1c19,7.9,37.8,16.3,56.3,25.3
			c18.2,8.9,36.1,18.6,53.8,28.3c20.6,11.4,41.4,22.6,61.4,35c23.5,14.4,46.4,29.7,69.2,45.1c20.9,14.1,41.8,28.4,61.8,43.7
			c38.3,29.2,75.5,59.9,110.7,92.8c17.4,16.3,34,33.5,51.3,50c32.3,30.8,61.4,64.4,89.8,98.6c22.2,26.8,42.5,55.2,63.3,83.1
			c10.7,14.4,21.2,29,30.9,44.1c15,23.5,29.5,47.3,43.9,71.2c9.9,16.5,19.5,33.2,28.5,50.2c9.8,18.5,19.1,37.2,28.1,56.1
			c10.7,22.5,21.4,45.1,31.2,68c8.6,20.1,16.5,40.6,23.9,61.2c8.8,24.4,17.6,48.8,25,73.6c10.5,35.3,20.7,70.9,29.3,106.7
			c7.7,31.9,13.8,64.3,19.1,96.8c4.9,29.4,8.3,59.1,11.5,88.8c2.7,24.7,4.9,49.6,5.9,74.4c1.3,30.6,1.1,61.2,1.5,91.8
			c0.1,9,0,18,0,27c0.3,38.9-2.5,77.6-7.3,116.2c-3.2,25.7-7.1,51.2-10,76.9c-3.6,32.4-10.6,64.2-18.1,95.9
			c-6,25.5-12.3,51-18.8,76.5c-9.7,38.1-22.7,75.1-35.9,112c-14.5,40.7-31,80.6-49.5,119.7c-13.3,28.2-27.8,56-42.7,83.4
			c-13.7,25.1-28.3,49.6-43.2,74c-11.2,18.4-23.2,36.4-35.4,54.1c-13.1,19.2-26.7,38-40.4,56.7c-23.7,32.4-49.5,63.3-76.1,93.4
			c-13.2,14.9-26.5,29.7-40.2,44.1c-10.3,10.8-21.3,21-32.1,31.3c-14.8,14.2-29.4,28.8-44.7,42.5c-20.1,17.9-40.3,35.6-61.4,52.3
			c-29.4,23.3-59.5,45.8-89.7,68.1c-13.3,9.8-27.7,18.3-41.7,27.2c-16.5,10.6-32.8,21.4-49.6,31.4c-16.3,9.7-33,18.5-49.7,27.5
			c-15.8,8.5-31.4,17.4-47.6,25.1c-30,14.2-60.3,27.8-90.7,41.3c-13.7,6.1-27.6,11.6-41.7,16.6c-24.7,8.8-49.6,17-74.5,25.5
			c-7.9,2.7-15.7,5.5-23.7,7.7c-31.4,8.7-62.7,17.9-94.4,25.4c-31,7.3-62.3,13.7-93.8,18.6c-37.6,5.9-75.6,10-113.4,14.4
			C1692.8,3102.6,1647.9,3102.9,1603,3101.5z"/>
		<path fill="#FEE203" d="M2805.8,1730.9c-2.8,197.8-116.8,479.2-343.5,714.7c-245.5,243.7-541.2,363.6-887.1,359.9
			c-317.2-10.4-589.6-126.3-817.5-346.9C515,2212.7,395.8,1917,400.4,1571.5c10.9-315.3,126.3-586.2,345.1-813.2
			c245.8-243.3,541.4-365,887.5-358.5C2280.8,412,2809.1,947.6,2805.8,1730.9z"/>
	</g>
</g>
<g>
	<g>
		<path fill="#FFFFFF" d="M946.9,2290c-101.5,0-187.2-19.1-254.6-56.7c-70.4-39.3-117.9-94.9-141-165.4
			c-21.6-65.5-32.1-159.5-32.1-287.2v-364.5c0-92.6,3.1-160.5,9.6-207.7c7.1-51.4,28.1-101.2,62.5-148.1
			c34.6-47.1,82.8-84.5,143.3-111.2c59.1-26,127.4-39.2,203-39.2c102.4,0,188.9,20.5,257,61c70.1,41.7,117.2,95.3,139.8,159.2
			c21.3,60.1,31.6,148.7,31.6,270.9v118.5c0,22.1-17.9,40-40,40h-323.8c-22.1,0-40-17.9-40-40v-217.3c0-72.7-5-95.2-6.6-100.7
			c-1.5-0.5-4.7-1.1-10.3-1.1c-9.4,0-13.1,1.7-13.8,2.2c-0.1,0.1-0.2,0.3-0.3,0.7c-1.9,5.1-8.3,28-8.3,109.2v580.2
			c0,77.5,6.2,99.3,8.1,104.2c0.1,0.3,0.2,0.6,0.3,0.7c0.8,0.4,4,1.7,11.6,1.7c7.1,0,9.8-1.3,10.2-1.5c0.1-0.2,0.3-0.5,0.7-1.3
			c1.4-3.4,8.4-25.2,8.4-115.6v-156.9c0-22.1,17.9-40,40-40H1326c22.1,0,40,17.9,40,40v48.6c0,134.6-9.6,228.6-29.5,287.3
			c-21.1,62.5-67.2,117.2-137.1,162.6C1130.7,2267.3,1045.7,2290,946.9,2290z"/>
		<path d="M937.6,950c95.6,0,174.4,18.5,236.6,55.4c62.2,37,103,83,122.5,138.2s29.3,141,29.3,257.5v118.5h-323.8v-217.3
			c0-63.2-3.5-102.6-10.5-118.3c-7-15.7-22.5-23.5-46.4-23.5c-27,0-44.2,9.5-51.4,28.5c-7.3,19-10.9,60.2-10.9,123.5v580.2
			c0,60.7,3.6,100.3,10.9,118.8c7.3,18.5,23.6,27.8,49.1,27.8c24.4,0,40.4-9.3,47.9-27.8s11.3-62.1,11.3-130.6V1724H1326v48.6
			c0,129-9.1,220.5-27.4,274.5c-18.2,54-58.6,101.3-121,141.9s-139.4,60.9-230.8,60.9c-95.1,0-173.4-17.2-235.1-51.6
			c-61.7-34.4-102.5-82.1-122.5-142.9c-20-60.9-30-152.5-30-274.7v-364.5c0-89.9,3.1-157.3,9.2-202.3c6.2-44.9,24.5-88.2,55.1-129.8
			c30.6-41.6,73-74.4,127.2-98.3C804.9,961.9,867.2,950,937.6,950 M937.6,870c-81.2,0-155,14.3-219.2,42.6
			c-66.9,29.5-120.6,71.3-159.4,124.1c-38.4,52.3-61.9,108.2-69.9,166.3c-6.7,49-10,118.7-10,213.2v364.5
			c0,132.1,11.1,230.1,34.1,299.8c13.3,40.3,33.8,76.8,60.9,108.4c26.5,30.9,59.7,57.6,98.6,79.3c37.5,20.9,80.2,36.8,126.9,47
			c44.6,9.8,94.2,14.8,147.2,14.8c52.4,0,101.7-6,146.7-17.9c46.5-12.3,89.5-31.1,127.7-56c77.6-50.5,129.1-112.2,153.2-183.3
			c21.2-62.9,31.6-161,31.6-300.1v-48.6c0-44.2-35.8-80-80-80h-323.8c-14.3,0-27.7,3.7-39.3,10.3v-65.1c11.6,6.6,25,10.3,39.3,10.3
			H1326c44.2,0,80-35.8,80-80v-118.5c0-126.8-11.1-219.7-33.9-284.2c-25.9-73-78.7-133.7-157.1-180.3c-38-22.6-81.2-39.6-128.4-50.7
			C1041.5,875.4,991.3,870,937.6,870L937.6,870z"/>
	</g>
	<g>
		<path fill="#FFFFFF" d="M2317,2263.2c-22.1,0-40-17.9-40-40V975.6c0-22.1,17.9-40,40-40h323.8c22.1,0,40,17.9,40,40v1247.7
			c0,22.1-17.9,40-40,40L2317,2263.2L2317,2263.2z"/>
		<path d="M2640.8,975.6v1247.7H2317V975.6H2640.8 M2640.8,895.6H2317c-44.2,0-80,35.8-80,80v1247.7c0,44.2,35.8,80,80,80h323.8
			c44.2,0,80-35.8,80-80V975.6C2720.8,931.4,2685,895.6,2640.8,895.6L2640.8,895.6z"/>
	</g>
	<g>
		<path fill="#FFFFFF" d="M1863.6,2263.2c-22.1,0-40-17.9-40-40v-484.6H1805v484.6c0,22.1-17.9,40-40,40h-323.8
			c-22.1,0-40-17.9-40-40V975.6c0-22.1,17.9-40,40-40H1765c22.1,0,40,17.9,40,40v405.5h18.6V975.6c0-22.1,17.9-40,40-40h323.8
			c22.1,0,40,17.9,40,40v1247.7c0,22.1-17.9,40-40,40L1863.6,2263.2L1863.6,2263.2z"/>
		<path d="M2187.4,975.6v1247.7h-323.8v-524.6H1765v524.6h-323.8V975.6H1765v445.5h98.6V975.6H2187.4 M2187.4,895.6h-323.8
			c-18.6,0-35.7,6.3-49.3,17c-13.6-10.6-30.7-17-49.3-17h-323.8c-44.2,0-80,35.8-80,80v1247.7c0,44.2,35.8,80,80,80H1765
			c18.6,0,35.7-6.3,49.3-17c13.6,10.6,30.7,17,49.3,17h323.8c44.2,0,80-35.8,80-80V975.6C2267.4,931.4,2231.6,895.6,2187.4,895.6
			L2187.4,895.6z"/>
	</g>
</g>
</svg>
