<?xml version="1.0" encoding="utf-8"?>
<!-- Generator: Adobe Illustrator 18.0.0, SVG Export Plug-In . SVG Version: 6.00 Build 0)  -->
<!DOCTYPE svg PUBLIC "-//W3C//DTD SVG 1.1//EN" "http://www.w3.org/Graphics/SVG/1.1/DTD/svg11.dtd">
<svg version="1.1" id="Livello_1" xmlns="http://www.w3.org/2000/svg" xmlns:xlink="http://www.w3.org/1999/xlink" x="0px" y="0px"
	 viewBox="0 0 3200 3200" enable-background="new 0 0 3200 3200" xml:space="preserve">
<g>
	<g>
		<path d="M1706,2c1.3,0.6,2.7,1.7,4,1.8c25.8,2.2,51.7,3.5,77.3,6.7c32.2,4.1,64.3,9.4,96.3,14.8c24.5,4.2,49,8.9,73.2,14.4
			c27.5,6.3,54.8,13.3,81.9,20.9c29,8.2,58,16.8,86.4,26.7c31.6,11,63,23,94,35.8c48.3,19.8,95.8,41.8,141.5,67
			c37,20.4,73.2,42.2,108.9,64.7c25.2,15.8,49,33.8,73.6,50.6c40.9,27.8,78.8,59.4,115.9,92c25.6,22.5,50.1,46.3,74.2,70.4
			c24.4,24.3,48.3,49,71.3,74.6c18.2,20.2,34.7,41.8,52,62.8c36.7,44.7,68.1,93.3,100.5,141c13,19.1,23.8,39.7,35.4,59.8
			c10,17.2,19.9,34.3,29.3,51.8c8.4,15.7,16.6,31.7,24,47.9c13.3,29.1,26.3,58.3,38.8,87.8c14.9,35.1,28.6,70.7,39.7,107.2
			c9.6,31.7,19.8,63.2,28.2,95.2c12.9,48.8,23.1,98.3,31.5,148.1c6.3,36.9,11.2,74,14.1,111.4c1.5,19.5,2.8,39,4.2,58.5
			c1.3,29.5,0.5,59.1,0.5,88.6c0,23.9,0.9,47.8-0.5,71.7c-1.3,22.5-2.2,45.1-4.1,67.5c-1.9,22.7-4.4,45.3-7.5,67.8
			c-4.5,32.2-9.5,64.3-14.8,96.4c-2.5,15.3-6.3,30.4-9.6,45.5c-3.8,17.1-7.3,34.2-11.9,51.1c-8.2,29.9-16.7,59.7-25.7,89.4
			c-13.6,44.9-30.3,88.7-48.5,131.9c-10.8,25.8-22.9,51.1-35.1,76.3c-12.3,25.5-25.1,50.8-38.1,76c-5,9.6-11.4,18.6-16.9,27.9
			c-4.9,8.2-9.3,16.8-14.3,25c-14.1,22.8-28.1,45.8-42.8,68.1c-12.9,19.5-26.7,38.5-40.5,57.4c-8,10.9-16.8,21.2-25.2,31.7
			c-13.6,17-27.1,34.1-40.8,50.9c-7.3,8.9-14.6,17.8-22.5,26.2c-23.7,25.2-47,50.7-71.6,75c-26.1,25.7-53.1,50.5-80.4,74.9
			c-53.4,48-112.3,88.6-171.8,128.4c-14.1,9.4-27.9,19.1-42,28.5c-4.9,3.3-10.1,6.2-15.3,9.1c-42.9,24.2-85.8,48.5-130.5,69.4
			c-38.6,18.1-77.4,35.8-117.6,50.1c-27.7,9.8-55.3,19.9-83.2,29.1c-20,6.6-40.3,12.2-60.6,18c-53.6,15.4-108.2,26.1-163,36.1
			c-21.7,4-43.7,6.6-65.6,9.5c-18,2.4-36.1,4.4-54.2,6.2c-17.4,1.7-34.8,2.9-52.2,4.2c-2.1,1.3-4.5,0.9-6.8,0.9
			c-56.1,0-112.3,0-168.4,0c-2.3,0-4.7,0.4-6.8-0.8c-10.4-1-20.9-2-31.3-2.9c-16.1-1.4-32.3-2.6-48.4-4.2
			c-15.8-1.5-31.6-3.1-47.4-5.2c-14.1-1.9-28.2-4.5-42.2-7c-24.8-4.4-49.7-8.8-74.4-13.7c-15.9-3.2-31.6-7.2-47.4-11.1
			c-16.4-4-32.8-8-48.9-12.7c-28.2-8.2-56.7-15.9-84.4-25.8c-38.9-13.9-77.2-29.5-115.6-44.8c-18.1-7.2-36.2-14.8-53.8-23.4
			c-26.1-12.8-51.7-26.7-77.6-40c-33.9-17.5-66.8-36.9-98.7-57.8c-26.3-17.3-52.2-35.3-78.1-53.3c-55.7-38.8-107.1-82.8-156.9-128.9
			c-32.3-29.9-63.3-61.2-92.4-94.2c-26.7-30.3-52.2-61.8-77.7-93.1c-29.6-36.4-55.3-75.6-81.3-114.5c-17.1-25.6-32.1-52.6-47.5-79.2
			c-12.1-20.9-23.8-42-34.8-63.4c-10.4-20.3-20.1-41-29.5-61.7c-9.3-20.5-18.2-41.2-26.7-62c-7.6-18.7-14.5-37.7-21.4-56.6
			c-7.5-20.9-15-41.7-21.8-62.8c-10.6-33-19.7-66.4-27.8-100.1c-9.6-40-18-80.3-24.8-120.8c-4.8-28.4-8.3-57.1-11.9-85.7
			c-2-15.8-3.2-31.7-4.6-47.5c-1-11.1-1.9-22.2-3-33.3c-0.1-0.8-1.2-1.5-1.9-2.3c0-59.3,0-118.7,0-178c3-4.8,3.2-10.2,3.5-15.7
			c0.9-15.5,1.3-31.1,2.8-46.6c2.2-21.3,4.8-42.7,8-63.9c4.2-28.2,8.5-56.3,13.8-84.3c5.4-29,11.7-57.8,18.2-86.5
			c4-17.4,9-34.6,13.9-51.8c7.1-24.7,14.3-49.4,22.1-73.9c6.2-19.1,13.2-38,20.3-56.8c8.9-23.2,17.7-46.4,27.6-69.1
			c11.6-26.6,24.1-52.8,36.9-78.8c11.7-23.7,23.8-47.2,36.9-70.1c20.9-36.7,42.6-73,66.4-108c9.4-13.8,18.2-28,28-41.5
			c12.8-17.6,25.8-35.1,39.6-52c24.7-30.2,49.2-60.7,75.3-89.7c36.8-40.7,75.4-79.7,116.9-115.8c20.7-18,40.8-36.7,62.2-53.7
			c24.6-19.6,50-38.1,75.7-56.2c29-20.5,58.3-40.9,88.3-60c33.2-21.1,67.1-41.1,102.5-58.4c30-14.6,59.6-30.1,90-43.9
			c26.9-12.2,54.5-23.1,82.1-33.8c26.3-10.1,52.9-19.9,79.7-28.5c24.5-7.9,49.5-14.3,74.4-21.1c20.2-5.5,40.3-11.1,60.7-15.5
			c27.2-5.9,54.6-11.1,82.1-16.1c23.5-4.3,47-8.8,70.6-11.6c31.9-3.8,64-6,95.9-8.9c1.8-0.2,3.5-1.1,5.3-1.7C1570,2,1638,2,1706,2z"
			/>
		<path fill="#ABABAB" d="M1514,3202.1c13.9,0,27.8-0.1,41.7-0.1c44.5-0.1,88.9-0.2,133.4-0.3c2.3,0,4.6,0.2,6.9,0.4
			c0,0.6,0,1.3,0,1.9c-60.7,0-121.3,0-182,0C1514,3203.4,1513.9,3202.7,1514,3202.1z"/>
		<path fill="#ACACAC" d="M3202.3,1674.2c-0.1-16.3-0.3-32.5-0.3-48.8c-0.1-34.5-0.2-69.1-0.2-103.6c0-2.6,0.4-5.3,0.6-7.9
			c0.6-0.4,1.1-0.4,1.6,0.2c0,53.3,0,106.7,0,160l-0.8,0.3C3203.2,1674.3,3202.3,1674.2,3202.3,1674.2z"/>
		<path fill="#FFFFFF" d="M1603.2,3182.1c-420.6,2-832.6-166.2-1133.1-479.1C164.5,2384.5,16.6,2002.2,23.7,1560.4
			c15-427.2,176-790.4,478.2-1091.7c320-303,700.1-452.4,1140.9-446.6c427,14.9,790.7,174.8,1092.4,476.7
			c305.1,321.2,455,703.1,448.4,1146.2c-16,425.8-174.4,790-477.5,1088.9C2421.4,3014.6,2027.5,3184,1603.2,3182.1z"/>
		<path fill="#C90003" d="M334.2,802.1c10.9-16.8,21.8-33.6,32.7-50.5c3.5-2.1,7.4-2.8,11.5-2.8c4,0,8,0,12,0
			c808.7,0,1617.4,0,2426.2,0c7.9,0,16.1-1.4,23.5,3c7.8,11.4,15.7,22.7,23.3,34.2c3.5,5.2,6.4,10.7,9.5,16.1
			c-4.8,4.3-10.7,3.2-16.2,3.2c-90.3,0.1-180.6,0.1-270.9,0.1c-18.5,0-18.5,0-18.5,18.8c0,635.8,0,1271.6,0,1907.3
			c0,7.9,1.1,16.1-3.3,23.4c-32.8,28.3-67,54.8-102.6,79.3c-53.8,37-109.8,70.2-167.8,100.3c-64.1,33.3-130.2,61.8-198.3,86.1
			c-48.6,17.3-97.9,32.1-147.9,44.4c-7.7,1.9-15.6,3.1-23.4,4.7c-2.9-2.9-2.9-6.6-3.1-10.3c-0.2-5-0.1-10-0.1-15
			c0-738.9,0-1477.8,0-2216.7c0-24.8,1.7-22.4-22.8-22.4c-197,0-393.9,0-590.9,0c-19.7,0-19.7,0-19.7,19.6
			c0,740.9,0,1481.8-0.1,2222.7c0,7.4,2.3,15.5-3.6,22.1c-18.7-4.4-37.6-8.3-56.2-13.2c-85-22.4-167.2-52.7-247.1-89.2
			c-70.5-32.3-138.2-69.9-203.3-112.2c-44.4-28.9-86.7-60.6-127.4-94.5c-2-1.7-4-3.6-5.9-5.3c-2.2-3.9-2.9-8.1-2.9-12.5
			c0-4.7,0-9.3,0-14c0-633.5,0-1267,0-1900.5c0-25.5,1.8-22.9-23.4-23c-88.6-0.1-177.3,0-265.9-0.1
			C345.6,805.2,339.3,806.5,334.2,802.1z"/>
		<path fill="#201C5E" d="M1283.5,3069.7c0.1-5.3,0.2-10.7,0.2-16c0-745.3,0-1490.6,0-2235.9c0-15.6,0-15.6,16-15.6
			c203.3,0,406.6,0,610,0c16,0,14-1.9,14,13.6c0,746,0,1491.9,0,2237.9c0,5.3,0.1,10.7,0.2,16c-17.6,3.4-35.1,7.5-52.8,10.2
			c-30.8,4.8-61.7,9.6-92.8,13c-30.4,3.3-60.9,4.8-91.3,7.2c-41.9,3.3-83.8,2.1-125.7,1.8c-23.6-0.2-47.1-1.9-70.6-3.7
			c-29.1-2.3-58.3-4.7-87.2-8.3c-28.4-3.5-56.5-8.4-84.7-13C1306.9,3074.9,1295.2,3072.1,1283.5,3069.7z"/>
		<path fill="#201C5E" d="M2840,751.7c-4,0.1-8,0.4-12,0.4c-816.4,0-1632.8,0-2449.2,0c-4,0-8-0.4-11.9-0.5
			c17.9-24.4,35.2-49.3,53.8-73.2c29.6-38.1,61.6-74.2,94.8-109.2c54.4-57.4,113.1-109.9,175.3-158.6
			C754.2,361,822.3,318.7,893,280.5c82.2-44.4,167.8-80.7,256.5-109.7c45.8-15,92-29.1,139.6-37.6c40.6-7.2,81.2-13.9,122.1-19.4
			c30.6-4.1,61.5-5.7,92.2-8.4c48.8-4.3,97.8-4.2,146.7-2.9c49.1,1.2,98.2,5,147,11.2c56.8,7.2,113.3,16,168.7,30.3
			c81.7,21,160.9,49,238.1,82.9c75.1,33,147,71.9,216.2,115.8c53.8,34.2,104.4,72.5,152.8,114c37.7,32.3,74.1,66,108.5,101.7
			c41.4,42.9,80.6,87.7,116.8,135.1c11.3,14.8,22.3,29.9,33.3,45C2834.5,742.6,2837.2,747.3,2840,751.7z"/>
		<path fill="#201C5E" d="M334.2,802.1c98.7,0,197.3,0,296,0.1c15.2,0,13.5-1.9,13.5,13.1c0,643.3,0,1286.7,0,1930
			c0,3.3-0.1,6.7-0.1,10c-16.9-14.5-34.2-28.6-50.5-43.7c-22.2-20.6-44.2-41.5-65.3-63.2c-62.7-64.6-120.4-133.4-170.2-208.5
			c-31.1-46.9-59.6-95.4-85.6-145.3c-45.3-87-81.8-177.6-110.6-271.4c-17.8-58-31.1-117-39.5-177c-4.8-34.2-8.6-68.5-12.2-102.8
			c-2-19.1-2.6-38.4-4.1-57.6c-3.6-44.2-2.6-88.6-1.6-132.8c1.3-64.8,7.2-129.3,17.8-193.2c5.8-34.8,12-69.5,19.5-103.9
			c9.6-43.6,23.2-86.1,37.6-128.3c18-52.6,38.9-104,62.2-154.6c26.8-58.1,57.7-114,91-168.6C332.7,803.4,333.5,802.8,334.2,802.1z"
			/>
		<path fill="#201C5E" d="M2563.9,2754.8c0-4-0.1-8-0.1-12c0-641.7,0-1283.5,0-1925.2c0-15.4,0-15.4,15.2-15.4
			c93.6,0,187.3,0,280.9,0c4.3,0,8.7-0.1,13-0.2c13.1,22,26.8,43.7,39.3,66c52.2,92.5,93.8,189.6,126.3,290.7
			c19.2,59.7,34.3,120.2,43.9,182.2c5.6,36.4,11.4,72.8,13.9,109.7c2.1,30.1,4.6,60.3,5.8,90.5c1.2,31.3,1.9,62.6,1.2,93.9
			c-0.7,31.9-2.8,63.7-5.1,95.5c-2.1,27.5-4.7,54.9-8.3,82.2c-9.3,70.7-22.7,140.5-43.9,208.7c-18.2,58.9-39.1,116.7-63.6,173.3
			c-26.5,61.2-57.1,120.2-90.8,177.7c-44,74.9-94.9,144.7-151.9,210.2c-30.8,35.4-62.8,69.8-97,102
			C2617.2,2708.6,2590.2,2731.4,2563.9,2754.8z"/>
	</g>
</g>
<g>
	<g>
		<path fill="#FFFFFF" d="M751.2,2290c-101.5,0-187.2-19.1-254.6-56.7c-70.4-39.3-117.9-94.9-141-165.4
			c-21.6-65.5-32.1-159.5-32.1-287.2v-364.5c0-92.6,3.1-160.5,9.6-207.7c7.1-51.4,28.1-101.3,62.5-148.1
			c34.6-47.1,82.8-84.5,143.3-111.2c59.1-26,127.4-39.2,203-39.2c102.4,0,188.9,20.5,257,61c70.1,41.7,117.2,95.3,139.8,159.2
			c21.3,60.1,31.6,148.7,31.6,270.9v118.5c0,22.1-17.9,40-40,40H806.6c-22.1,0-40-17.9-40-40v-217.3c0-72.7-5-95.2-6.6-100.7
			c-1.5-0.5-4.7-1.1-10.3-1.1c-9.4,0-13.1,1.7-13.8,2.2c-0.1,0.1-0.2,0.3-0.3,0.7c-1.9,5.1-8.3,28-8.3,109.2v580.2
			c0,77.5,6.2,99.3,8.1,104.2c0.1,0.3,0.2,0.6,0.3,0.7c0.8,0.4,4,1.7,11.6,1.7c7.1,0,9.8-1.3,10.2-1.5c0.1-0.2,0.3-0.5,0.7-1.3
			c1.4-3.4,8.4-25.2,8.4-115.6v-156.9c0-22.1,17.9-40,40-40h323.8c22.1,0,40,17.9,40,40v48.6c0,134.6-9.6,228.6-29.5,287.3
			c-21.1,62.5-67.2,117.2-137.1,162.6C935.1,2267.3,850.1,2290,751.2,2290z"/>
		<path d="M742,950c95.6,0,174.4,18.5,236.6,55.4c62.2,37,103,83,122.5,138.2s29.3,141,29.3,257.5v118.5H806.6v-217.3
			c0-63.2-3.5-102.6-10.5-118.3c-7-15.7-22.5-23.5-46.4-23.5c-27,0-44.2,9.5-51.4,28.5c-7.3,19-10.9,60.2-10.9,123.5v580.2
			c0,60.7,3.6,100.3,10.9,118.8c7.3,18.5,23.6,27.8,49.1,27.8c24.4,0,40.4-9.3,47.9-27.8s11.3-62.1,11.3-130.6V1724h323.8v48.6
			c0,129-9.1,220.5-27.4,274.5c-18.2,54-58.6,101.3-121,141.9s-139.4,60.9-230.8,60.9c-95.1,0-173.4-17.2-235.1-51.6
			c-61.7-34.4-102.5-82.1-122.5-142.9c-20-60.9-30.1-152.5-30.1-274.7v-364.5c0-89.9,3.1-157.3,9.2-202.3
			c6.2-44.9,24.5-88.2,55.1-129.8c30.6-41.6,73-74.4,127.2-98.3C609.3,961.9,671.6,950,742,950 M742,870
			c-81.2,0-155,14.3-219.2,42.6c-66.9,29.5-120.6,71.3-159.4,124.1c-38.4,52.3-61.9,108.2-69.9,166.3c-6.7,49-10,118.7-10,213.2
			v364.5c0,132.1,11.1,230.1,34.1,299.8c13.3,40.3,33.8,76.8,60.9,108.4c26.5,30.9,59.7,57.6,98.6,79.3
			c37.5,20.9,80.2,36.8,126.9,47c44.6,9.8,94.2,14.8,147.2,14.8c52.4,0,101.7-6,146.7-17.9c46.5-12.3,89.5-31.1,127.7-56
			c77.6-50.5,129.1-112.2,153.2-183.3c21.2-62.9,31.6-161,31.6-300.1v-48.6c0-44.2-35.8-80-80-80H806.6c-14.3,0-27.7,3.7-39.3,10.3
			v-65.1c11.6,6.6,25,10.3,39.3,10.3h323.8c44.2,0,80-35.8,80-80v-118.5c0-126.8-11.1-219.7-33.9-284.2
			c-25.9-73-78.7-133.7-157.1-180.3c-38-22.6-81.2-39.6-128.4-50.7C845.8,875.4,795.6,870,742,870L742,870z"/>
	</g>
	<g>
		<path fill="#FFFFFF" d="M2461.6,2290c-71.7,0-137.3-12-195-35.8c-59.7-24.5-108.5-62-145.1-111.4
			c-36.4-49.1-58.3-103.5-65.3-161.6c-6.4-53.3-9.5-143.1-9.5-274.5v-213.5c0-128,3-216.6,9.1-270.7c6.6-58.8,27.7-113.2,62.7-161.8
			c35.1-48.8,83-86.7,142.3-112.7c57.7-25.2,125.2-38,200.8-38c71.6,0,137.2,12,195,35.8c59.7,24.5,108.5,62,145.1,111.4
			c36.3,49.1,58.3,103.5,65.3,161.6c6.4,53.4,9.5,143.2,9.5,274.5v213.5c0,127.9-3,216.5-9.1,270.7c-6.6,58.8-27.7,113.2-62.7,161.8
			c-35.2,48.8-83,86.8-142.3,112.7C2604.6,2277.2,2537.1,2290,2461.6,2290z M2456.6,1999.2c1,0.1,2.3,0.3,4.2,0.3
			c2,0,3.3-0.2,4.1-0.3c0.1-0.3,0.2-0.7,0.4-1.1c2.2-7,7.4-33.6,7.4-127.6v-574.1c0-69.3-4.8-90.4-6.5-95.6
			c-0.7-0.1-1.8-0.2-3.1-0.2c-3.5,0-4.6,0.4-5.5,1.4c-1.5,4.1-7.2,24.2-7.2,94.4v583.3C2450.4,1966.9,2454.9,1992.6,2456.6,1999.2z"
			/>
		<path d="M2461.6,950c66.7,0,126.6,10.9,179.8,32.8c53.1,21.8,95.9,54.6,128.2,98.3s51.6,91.2,57.7,142.6
			c6.2,51.4,9.2,141.3,9.2,269.7v213.5c0,125.4-3,214.1-8.9,266.2c-5.9,52.2-24.4,99.8-55.4,142.9c-31.1,43.2-73,76.3-125.9,99.4
			c-52.9,23.1-114.5,34.7-184.8,34.7c-66.7,0-126.6-10.9-179.8-32.8s-95.8-54.6-128.2-98.3c-32.3-43.7-51.6-91.2-57.7-142.5
			c-6.2-51.4-9.2-141.3-9.2-269.7v-213.5c0-125.3,2.9-214.1,8.8-266.2c5.9-52.2,24.4-99.8,55.4-142.9s73-76.3,125.9-99.4
			C2329.7,961.6,2391.2,950,2461.6,950 M2460.8,2039.4c22.2,0,36.4-9.8,42.6-29.3c6.2-19.6,9.3-66.1,9.3-139.7v-574.1
			c0-58.1-3.2-95.3-9.7-111.5s-19.8-24.3-39.9-24.3c-17,0-30.1,6.6-39.1,19.7s-13.5,51.8-13.5,116.1v583.3c0,72.5,3,117.3,8.9,134.3
			C2425.3,2030.9,2439.1,2039.4,2460.8,2039.4 M2461.6,870c-81.1,0-154,13.9-216.8,41.4c-65.9,28.8-119.3,71.2-158.7,126
			c-39,54.2-62.6,115-70,180.7c-6.3,55.7-9.4,145.7-9.4,275.2v213.5c0,133,3.2,224.3,9.8,279.2c7.8,65.1,32.3,125.9,72.9,180.6
			c41,55.4,95.5,97.3,162.1,124.6c62.6,25.7,133.3,38.8,210.2,38.8c81,0,154-13.9,216.8-41.4c66-28.9,119.4-71.2,158.8-126
			c39-54.2,62.6-115,70-180.7c6.3-55.8,9.4-145.8,9.4-275.2v-213.5c0-132.8-3.2-224.2-9.8-279.2c-7.8-65.1-32.3-125.9-72.9-180.6
			c-41-55.3-95.5-97.3-162.1-124.6C2609.1,883,2538.4,870,2461.6,870L2461.6,870z"/>
	</g>
	<g>
		<path fill="#FFFFFF" d="M1669.1,2263.2c-22.1,0-40-17.9-40-40v-414.4c0-72.5-6.6-95.2-8.9-100.8c-1.5-0.8-4.8-2.3-10.9-3.7v518.9
			c0,22.1-17.9,40-40,40h-323.8c-22.1,0-40-17.9-40-40V975.6c0-22.1,17.9-40,40-40h229.6c157.4,0,261.9,6.1,319.4,18.7
			c64.1,14,116.8,49.9,156.7,106.7c39.4,56,58.5,139.6,58.5,255.5c0,50.8-3.3,94.2-9.7,129.1c-7.2,38.9-18.3,68.4-34.1,90.2
			c-12.6,17.4-29.5,32.1-50.5,43.8c14.4,9.5,26.3,20,35.8,31.4c26.2,31.7,42.4,61,49.3,89.6c4,16.4,9.2,54.3,9.2,193.8v328.8
			c0,22.1-17.9,40-40,40H1669.1z M1609.3,1424.2c6.3-1.2,10.2-2.6,12.5-3.7c2.1-5.1,7.3-22,7.3-66.3v-68.9c0-37.1-7-47.1-7.8-48.1
			c-0.7-0.5-3.9-2.8-12-4.8V1424.2z"/>
		<path d="M1475.2,975.6c153.1,0,256.7,5.9,310.9,17.7c54.2,11.8,98.4,42,132.5,90.6s51.2,126.1,51.2,232.5
			c0,97.2-12.1,162.5-36.2,195.9s-71.6,53.5-142.5,60.2c64.2,15.9,107.3,37.2,129.4,63.9c22.1,26.7,35.8,51.2,41.2,73.5
			c5.4,22.3,8.1,83.8,8.1,184.4v328.8h-300.7v-414.4c0-66.8-5.3-108.1-16-124s-38.6-23.9-83.8-23.9v562.4h-323.8V975.6H1475.2
			 M1569.3,1467.3c36.9,0,62.8-5,77.6-15.1c14.8-10.1,22.2-42.7,22.2-97.9v-68.9c0-39.8-7.2-65.8-21.5-78.2
			c-14.3-12.4-40.4-18.6-78.4-18.6v278.7 M1475.2,895.6h-229.6c-44.2,0-80,35.8-80,80v1247.7c0,44.2,35.8,80,80,80h323.8
			c18.9,0,36.2-6.5,49.9-17.5c13.7,10.9,31,17.5,49.9,17.5h300.7c44.2,0,80-35.8,80-80v-328.8c0-141.3-5.2-182-10.3-203.2
			c0,0,0,0,0-0.1c-8.4-34.6-27.1-69.2-57.3-105.7c-1-1.2-2.1-2.4-3.1-3.7c7.1-7,13.6-14.6,19.4-22.6c35-48.5,51.3-125.6,51.3-242.7
			c0-124.4-21.5-215.6-65.8-278.5c-22.5-32-49.1-58.7-79-79.1c-30.5-20.9-64.8-35.6-101.9-43.6
			C1742.7,902,1635.4,895.6,1475.2,895.6L1475.2,895.6z"/>
	</g>
</g>
</svg>
