<?xml version="1.0" encoding="utf-8"?>
<!-- Generator: Adobe Illustrator 18.0.0, SVG Export Plug-In . SVG Version: 6.00 Build 0)  -->
<!DOCTYPE svg PUBLIC "-//W3C//DTD SVG 1.1//EN" "http://www.w3.org/Graphics/SVG/1.1/DTD/svg11.dtd">
<svg version="1.1" id="Livello_1" xmlns="http://www.w3.org/2000/svg" xmlns:xlink="http://www.w3.org/1999/xlink" x="0px" y="0px"
	 viewBox="0 0 3200 3200" enable-background="new 0 0 3200 3200" xml:space="preserve">
<g>
	<g>
		<path d="M1706,2c1.3,0.6,2.7,1.7,4,1.8c25.8,2.2,51.7,3.5,77.3,6.7c32.2,4.1,64.3,9.4,96.3,14.8c24.5,4.2,49,8.9,73.2,14.4
			c27.5,6.3,54.8,13.3,81.9,20.9c29,8.2,58,16.8,86.4,26.7c31.6,11,63,23,94,35.8c48.3,19.8,95.8,41.8,141.5,67
			c37,20.4,73.2,42.2,108.9,64.7c25.2,15.8,49,33.8,73.6,50.6c40.9,27.8,78.8,59.4,115.9,92c25.6,22.5,50.1,46.3,74.2,70.4
			c24.4,24.3,48.3,49,71.3,74.6c18.2,20.2,34.7,41.8,52,62.8c36.7,44.7,68.1,93.3,100.5,141c13,19.1,23.8,39.7,35.4,59.8
			c10,17.2,19.9,34.3,29.3,51.8c8.4,15.7,16.6,31.7,24,47.9c13.3,29.1,26.3,58.3,38.8,87.8c14.9,35.1,28.6,70.7,39.7,107.2
			c9.6,31.7,19.8,63.2,28.2,95.2c12.9,48.8,23.1,98.3,31.5,148.1c6.3,36.9,11.2,74,14.1,111.4c1.5,19.5,2.8,39,4.2,58.5
			c1.3,29.5,0.5,59.1,0.5,88.6c0,23.9,0.9,47.8-0.5,71.7c-1.3,22.5-2.2,45.1-4.1,67.5c-1.9,22.7-4.4,45.3-7.5,67.8
			c-4.5,32.2-9.5,64.3-14.8,96.4c-2.5,15.3-6.3,30.4-9.6,45.5c-3.8,17.1-7.3,34.2-11.9,51.1c-8.2,29.9-16.7,59.7-25.7,89.4
			c-13.6,44.9-30.3,88.7-48.5,131.9c-10.8,25.8-22.9,51.1-35.1,76.3c-12.3,25.5-25.1,50.8-38.1,76c-5,9.6-11.4,18.6-16.9,27.9
			c-4.9,8.2-9.3,16.8-14.3,25c-14.1,22.8-28.1,45.8-42.8,68.1c-12.9,19.5-26.7,38.5-40.5,57.4c-8,10.9-16.8,21.2-25.2,31.7
			c-13.6,17-27.1,34.1-40.8,50.9c-7.3,8.9-14.6,17.8-22.5,26.2c-23.7,25.2-47,50.7-71.6,75c-26.1,25.7-53.1,50.5-80.4,74.9
			c-53.4,48-112.3,88.6-171.8,128.4c-14.1,9.4-27.9,19.1-42,28.5c-4.9,3.3-10.1,6.2-15.3,9.1c-42.9,24.2-85.8,48.5-130.5,69.4
			c-38.6,18.1-77.4,35.8-117.6,50.1c-27.7,9.8-55.3,19.9-83.2,29.1c-20,6.6-40.3,12.2-60.6,18c-53.6,15.4-108.2,26.1-163,36.1
			c-21.7,4-43.7,6.6-65.6,9.5c-18,2.4-36.1,4.4-54.2,6.2c-17.4,1.7-34.8,2.9-52.2,4.2c-2.1,1.3-4.5,0.9-6.8,0.9
			c-56.1,0-112.3,0-168.4,0c-2.3,0-4.7,0.4-6.8-0.8c-10.4-1-20.9-2-31.3-2.9c-16.1-1.4-32.3-2.6-48.4-4.2
			c-15.8-1.5-31.6-3.1-47.4-5.2c-14.1-1.9-28.2-4.5-42.2-7c-24.8-4.4-49.7-8.8-74.4-13.7c-15.9-3.2-31.6-7.2-47.4-11.1
			c-16.4-4-32.8-8-48.9-12.7c-28.2-8.2-56.7-15.9-84.4-25.8c-38.9-13.9-77.2-29.5-115.6-44.8c-18.1-7.2-36.2-14.8-53.8-23.4
			c-26.1-12.8-51.7-26.7-77.6-40c-33.9-17.5-66.8-36.9-98.7-57.8c-26.3-17.3-52.2-35.3-78.1-53.3c-55.7-38.8-107.1-82.8-156.9-128.9
			c-32.3-29.9-63.3-61.2-92.4-94.2c-26.7-30.3-52.2-61.8-77.7-93.1c-29.6-36.4-55.3-75.6-81.3-114.5c-17.1-25.6-32.1-52.6-47.5-79.2
			c-12.1-20.9-23.8-42-34.8-63.4c-10.4-20.3-20.1-41-29.5-61.7c-9.3-20.5-18.2-41.2-26.7-62c-7.6-18.7-14.5-37.7-21.4-56.6
			c-7.5-20.9-15-41.7-21.8-62.8c-10.6-33-19.7-66.4-27.8-100.1c-9.6-40-18-80.3-24.8-120.8c-4.8-28.4-8.3-57.1-11.9-85.7
			c-2-15.8-3.2-31.7-4.6-47.5c-1-11.1-1.9-22.2-3-33.3c-0.1-0.8-1.2-1.5-1.9-2.3c0-59.3,0-118.7,0-178c3-4.8,3.2-10.2,3.5-15.7
			c0.9-15.5,1.3-31.1,2.8-46.6c2.2-21.3,4.8-42.7,8-63.9c4.2-28.2,8.5-56.3,13.8-84.3c5.4-29,11.7-57.8,18.2-86.5
			c4-17.4,9-34.6,13.9-51.8c7.1-24.7,14.3-49.4,22.1-73.9c6.2-19.1,13.2-38,20.3-56.8c8.9-23.2,17.7-46.4,27.6-69.1
			c11.6-26.6,24.1-52.8,36.9-78.8c11.7-23.7,23.8-47.2,36.9-70.1c20.9-36.7,42.6-73,66.4-108c9.4-13.8,18.2-28,28-41.5
			c12.8-17.6,25.8-35.1,39.6-52c24.7-30.2,49.2-60.7,75.3-89.7c36.8-40.7,75.4-79.7,116.9-115.8c20.7-18,40.8-36.7,62.2-53.7
			c24.6-19.6,50-38.1,75.7-56.2c29-20.5,58.3-40.9,88.3-60c33.2-21.1,67.1-41.1,102.5-58.4c30-14.6,59.6-30.1,90-43.9
			c26.9-12.2,54.5-23.1,82.1-33.8c26.3-10.1,52.9-19.9,79.7-28.5c24.5-7.9,49.5-14.3,74.4-21.1c20.2-5.5,40.3-11.1,60.7-15.5
			c27.2-5.9,54.6-11.1,82.1-16.1c23.5-4.3,47-8.8,70.6-11.6c31.9-3.8,64-6,95.9-8.9c1.8-0.2,3.5-1.1,5.3-1.7C1570,2,1638,2,1706,2z"
			/>
		<path fill="#ABABAB" d="M1514,3202.1c13.9,0,27.8-0.1,41.7-0.1c44.5-0.1,88.9-0.2,133.4-0.3c2.3,0,4.6,0.2,6.9,0.4
			c0,0.6,0,1.3,0,1.9c-60.7,0-121.3,0-182,0C1514,3203.4,1513.9,3202.7,1514,3202.1z"/>
		<path fill="#ACACAC" d="M3202.3,1674.2c-0.1-16.3-0.3-32.5-0.3-48.8c-0.1-34.5-0.2-69.1-0.2-103.6c0-2.6,0.4-5.3,0.6-7.9
			c0.6-0.4,1.1-0.4,1.6,0.2c0,53.3,0,106.7,0,160l-0.8,0.3C3203.2,1674.3,3202.3,1674.2,3202.3,1674.2z"/>
		<path fill="#FFFFFF" d="M23.3,1601.9c0.3-275.5,67-533.7,202.3-773.8C364.5,581.7,556,385.9,799.2,241.7
			c259.7-153.9,541.5-227.9,843.1-219c426.7,12.5,790.2,173.6,1091.9,475c305.8,321.1,455.9,703.2,449.5,1146.7
			c-15.8,426.2-175.8,789.2-477.5,1090.2c-320.8,304.3-702.1,454.9-1144.4,447.1c-192.1-3.4-377.4-42.9-555.3-115.9
			c-204.2-83.7-383.4-204.7-537.1-362.9c-139.5-143.6-248-308-325.2-492.8C63,2015.6,22.9,1812.7,23.3,1601.9z"/>
		<path fill="#00569A" d="M104.4,1602.3c0-23.7-0.9-47.3,0.2-70.9c1.4-30.2,3.8-60.3,7.1-90.3c3.9-35.6,8.8-71.2,14.1-106.6
			c8.3-55.4,22-109.6,38.7-163c20.1-64.2,44-127,71.8-188.3c21.2-46.7,45-92.1,70.5-136.6c2.5-4.3,5.3-6.6,10.3-6.1
			c2.3,0.2,4.7,0,7,0c852.7,0,1705.3,0,2558,0c17.4,0,13.4-1.7,21.5,12.4c56.1,97.3,100.8,199.5,135,306.4
			c19.1,59.7,34.2,120.3,43.8,182.2c6.8,43.7,13,87.4,15.8,131.5c1.5,22.9,3.2,45.7,3.9,68.6c0.9,35.3,1.8,70.6,1.2,105.9
			c-0.5,27.5-2.9,55-5,82.5c-1.7,22.5-3.7,45-6.4,67.4c-9.4,76.4-23.4,151.8-46.2,225.4c-19.7,63.7-42.6,126.1-69.8,187
			c-25,56-53.5,110.2-84.5,163c-44,74.9-95,144.7-152,210.1c-30.4,34.9-62,68.7-95.6,100.7c-62.6,59.5-128.4,115.1-200.5,162.9
			c-48,31.9-97.7,61.1-148.8,87.7c-75.8,39.4-154.2,72.4-235.4,98.9c-45.6,14.9-91.5,28.6-138.6,37.8c-45.4,8.8-90.9,16.9-137,21.2
			c-29.4,2.7-58.8,6.2-88.3,7.7c-33.2,1.7-66.5,1.8-99.8,2.2c-21,0.2-42,0.3-62.9-0.8c-29.8-1.7-59.7-4.1-89.4-7.1
			c-28.1-2.8-56.2-6.2-84.1-10.3c-66.6-9.9-132-25.1-196.1-45.7c-62.5-20.1-123.7-43.5-183.3-70.9
			c-70.3-32.2-137.7-69.9-202.7-111.9c-54.4-35.2-105.2-74.9-154.1-117.2c-35-30.3-68.7-62-100.7-95.6
			c-58.9-61.8-113.8-126.9-161.3-198c-32-47.9-61.2-97.5-88-148.6c-23.8-45.4-45.2-92-64.4-139.6c-24.8-61.5-45.8-124.3-62.4-188.5
			c-11.6-44.8-19.5-90.3-26.2-136.1c-5.5-37.5-9.3-75.1-12.2-112.9C104.6,1680.1,103.3,1641.2,104.4,1602.3z"/>
		<path fill="#00579C" d="M358.2,763.9c3.8-5.6,6.9-10.2,10.1-14.8c33.6-49.3,70.8-95.9,110.8-140.1c23.9-26.4,48.4-52.3,73.6-77.5
			c42.4-42.4,87.7-81.6,135-118.5c70.3-55,145.9-101.5,224.9-142.7c76.3-39.8,155.5-72.8,237.3-99.6c45.9-15,92.2-28.6,139.7-37.7
			c40.8-7.8,81.7-15.2,123.1-19.4c30.1-3,60.2-5.4,90.3-8.1c48.2-4.2,96.5-3.9,144.7-3.1c30.5,0.5,61,3,91.5,5.4
			c57,4.5,113.5,12.9,169.7,23.5c60.4,11.4,118.9,29.2,176.9,49c47.9,16.3,94.7,35.6,140.8,56.5s90.9,44.4,134.7,69.9
			c50.7,29.5,99.9,61.3,146.5,97.1c38.6,29.6,75.9,60.7,111.3,94c21.1,19.8,42.2,39.8,62.4,60.5c41.6,42.7,80.8,87.6,116.8,135.1
			c15.3,20.2,29.8,40.9,44.7,61.4c1.9,2.6,3.6,5.4,6,9.1C2018.1,763.9,1188.9,763.9,358.2,763.9z"/>
	</g>
</g>
<g>
	<g>
		<path fill="#FFFFFF" d="M354.6,2265c-22.1,0-40-17.9-40-40V975c0-22.1,17.9-40,40-40h542.7c22.1,0,40,17.9,40,40v250
			c0,22.1-17.9,40-40,40H719v156.6h163.7c22.1,0,40,17.9,40,40v237.8c0,22.1-17.9,40-40,40H719V1935h199c22.1,0,40,17.9,40,40v250
			c0,22.1-17.9,40-40,40H354.6z"/>
		<path d="M897.3,975v250H679v236.6h203.7v237.8H679V1975h239v250H354.6V975H897.3 M897.3,895H354.6c-44.2,0-80,35.8-80,80v1250
			c0,44.2,35.8,80,80,80H918c44.2,0,80-35.8,80-80v-250c0-44.2-35.8-80-80-80H759v-115.6h123.7c44.2,0,80-35.8,80-80v-237.8
			c0-44.2-35.8-80-80-80H759V1305h138.3c44.2,0,80-35.8,80-80V975C977.3,930.8,941.4,895,897.3,895L897.3,895z"/>
	</g>
	<g>
		<path fill="#FFFFFF" d="M2144.2,2265c-22.1,0-40-17.9-40-40V975c0-22.1,17.9-40,40-40H2472c93.3,0,163.9,7.3,215.7,22.4
			c54.6,15.9,96.9,40,125.8,71.6c28.6,31.3,48.2,69.5,58.2,113.4c9.3,40.7,13.8,100.2,13.8,182.1v108.8c0,86.3-9.3,148.8-28.4,190.9
			c-20.6,45.6-58.1,80.6-111.4,104.2c-49.1,21.7-112.9,32.7-189.5,32.7h-47.6V2225c0,22.1-17.9,40-40,40H2144.2z M2508.6,1466.9
			c9.8-1.5,14.6-4.1,16-6c0.3-0.5,8.9-12.9,8.9-66.7v-102.9c0-40.4-6.8-52.7-8-54.6c-1.1-0.7-5.6-3.2-16.9-5.3V1466.9z"/>
		<path d="M2472,975c88.6,0,156.8,7,204.5,20.8c47.7,13.9,83.5,34,107.5,60.2c24,26.3,40.2,58,48.7,95.3s12.8,95.1,12.8,173.3v108.8
			c0,79.8-8.3,137.9-24.8,174.4s-46.9,64.6-91.1,84.1c-44.2,19.6-102,29.3-173.3,29.3h-87.6V2225h-324.4V975H2472 M2492.8,1507.9
			c30.3,0,51.3-7.3,63-22s17.6-45.3,17.6-91.7v-102.9c0-42.8-6.8-70.7-20.4-83.6c-13.6-12.9-41.7-19.3-84.5-19.3v318.7
			C2478,1507.7,2486.1,1507.9,2492.8,1507.9 M2472,895h-327.8c-44.2,0-80,35.8-80,80v1250c0,44.2,35.8,80,80,80h324.4
			c44.2,0,80-35.8,80-80v-423.7h7.6c40,0,77-2.8,110.2-8.5c35.3-6,67.4-15.3,95.5-27.7c30.1-13.3,56.2-30.1,77.8-50.1
			c23-21.3,41.1-46.2,53.8-74.2c11.5-25.4,19.7-55.8,24.9-92.7c4.6-32.7,7-71.2,7-114.7v-108.8c0-84.9-4.8-147.4-14.8-191
			c-11.6-50.8-34.3-95-67.6-131.5c-17.7-19.4-39.5-36.4-64.8-50.6c-23.1-12.9-49.8-23.9-79.3-32.5C2643.4,902.9,2569.1,895,2472,895
			L2472,895z"/>
	</g>
	<g>
		<path fill="#FFFFFF" d="M1729.6,2265c-22.1,0-40-17.9-40-40l-0.2-246l-33.6,251.3c-2.7,19.9-19.6,34.7-39.6,34.7H1415
			c-19.9,0-36.8-14.6-39.6-34.3l-39.7-275.8l-0.2,270.1c0,22.1-17.9,40-40,40h-284.1c-22.1,0-40-17.9-40-40V975
			c0-22.1,17.9-40,40-40h420.4c19.7,0,36.5,14.4,39.5,33.9c11.6,75.2,24.5,165,38.3,266.8l3.6,24.7L1550,970c2.5-20,19.5-35,39.7-35
			h424.1c22.1,0,40,17.9,40,40v1250c0,22.1-17.9,40-40,40H1729.6z"/>
		<path d="M2013.8,975v1250h-284.1l-0.6-843.9L1616.2,2225H1415l-118.9-825.6l-0.6,825.6h-284.1V975h420.4
			c11.6,75.6,24.4,164.4,38.2,266.3l45.6,317.4l74.1-583.7L2013.8,975 M2013.8,895h-424.1c-39.4,0-72.7,28.6-79,67.2
			c-6.3-38.7-39.7-67.2-79-67.2h-420.4c-44.2,0-80,35.8-80,80v1250c0,44.2,35.8,80,80,80h284.1c23.8,0,45.1-10.4,59.8-26.8
			c14.7,16.5,36.2,26.8,59.8,26.8h201.2c22,0,42.1-8.9,56.7-23.6c14.5,14.6,34.5,23.6,56.7,23.6h284.1c44.2,0,80-35.8,80-80V975
			C2093.8,930.8,2057.9,895,2013.8,895L2013.8,895z"/>
	</g>
</g>
</svg>
