<?xml version="1.0" encoding="utf-8"?>
<!-- Generator: Adobe Illustrator 18.0.0, SVG Export Plug-In . SVG Version: 6.00 Build 0)  -->
<!DOCTYPE svg PUBLIC "-//W3C//DTD SVG 1.1//EN" "http://www.w3.org/Graphics/SVG/1.1/DTD/svg11.dtd">
<svg version="1.1" id="Livello_1" xmlns="http://www.w3.org/2000/svg" xmlns:xlink="http://www.w3.org/1999/xlink" x="0px" y="0px"
	 viewBox="0 0 3200 3200" enable-background="new 0 0 3200 3200" xml:space="preserve">
<g>
	<g>
		<path d="M1706,2c1.3,0.6,2.7,1.7,4,1.8c25.8,2.2,51.7,3.5,77.3,6.7c32.2,4.1,64.3,9.4,96.3,14.8c24.5,4.2,49,8.9,73.2,14.4
			c27.5,6.3,54.8,13.3,81.9,20.9c29,8.2,58,16.8,86.4,26.7c31.6,11,63,23,94,35.8c48.3,19.8,95.8,41.8,141.5,67
			c37,20.4,73.2,42.2,108.9,64.7c25.2,15.8,49,33.8,73.6,50.6c40.9,27.8,78.8,59.4,115.9,92c25.6,22.5,50.1,46.3,74.2,70.4
			c24.4,24.3,48.3,49,71.3,74.6c18.2,20.2,34.7,41.8,52,62.8c36.7,44.7,68.1,93.3,100.5,141c13,19.1,23.8,39.7,35.4,59.8
			c10,17.2,19.9,34.3,29.3,51.8c8.4,15.7,16.6,31.7,24,47.9c13.3,29.1,26.3,58.3,38.8,87.8c14.9,35.1,28.6,70.7,39.7,107.2
			c9.6,31.7,19.8,63.2,28.2,95.2c12.9,48.8,23.1,98.3,31.5,148.1c6.3,36.9,11.2,74,14.1,111.4c1.5,19.5,2.8,39,4.2,58.5
			c1.3,29.5,0.5,59.1,0.5,88.6c0,23.9,0.9,47.8-0.5,71.7c-1.3,22.5-2.2,45.1-4.1,67.5c-1.9,22.7-4.4,45.3-7.5,67.8
			c-4.5,32.2-9.5,64.3-14.8,96.4c-2.5,15.3-6.3,30.4-9.6,45.5c-3.8,17.1-7.3,34.2-11.9,51.1c-8.2,29.9-16.7,59.7-25.7,89.4
			c-13.6,44.9-30.3,88.7-48.5,131.9c-10.8,25.8-23,51.1-35.1,76.3c-12.3,25.5-25.1,50.8-38.1,76c-5,9.6-11.4,18.6-16.9,27.9
			c-4.9,8.2-9.3,16.8-14.3,25c-14.1,22.8-28.1,45.8-42.8,68.1c-12.9,19.5-26.7,38.5-40.5,57.4c-8,10.9-16.8,21.2-25.2,31.7
			c-13.6,17-27.1,34.1-40.8,50.9c-7.3,8.9-14.6,17.8-22.5,26.2c-23.7,25.2-47,50.7-71.6,75c-26.1,25.7-53.1,50.5-80.4,75
			c-53.4,48-112.3,88.6-171.8,128.4c-14.1,9.4-27.9,19.1-42,28.5c-4.9,3.3-10.1,6.2-15.3,9.1c-42.9,24.2-85.8,48.5-130.5,69.4
			c-38.6,18.1-77.4,35.8-117.6,50.1c-27.7,9.8-55.3,19.9-83.2,29.1c-20,6.6-40.3,12.2-60.6,18c-53.6,15.4-108.2,26.1-163,36.1
			c-21.7,4-43.7,6.6-65.6,9.5c-18,2.4-36.1,4.4-54.2,6.2c-17.4,1.7-34.8,2.8-52.2,4.2c-2.1,1.3-4.5,0.9-6.8,0.9
			c-56.2,0-112.3,0-168.4,0c-2.3,0-4.7,0.4-6.8-0.8c-10.4-1-20.9-2-31.3-2.9c-16.1-1.4-32.3-2.6-48.4-4.2
			c-15.8-1.5-31.6-3.1-47.4-5.2c-14.1-1.9-28.2-4.5-42.2-7c-24.8-4.4-49.7-8.8-74.4-13.7c-15.9-3.2-31.6-7.2-47.4-11.1
			c-16.4-4-32.8-8-48.9-12.7c-28.2-8.2-56.7-15.9-84.4-25.8c-38.9-13.9-77.2-29.5-115.6-44.8c-18.1-7.2-36.2-14.8-53.8-23.4
			c-26.1-12.8-51.7-26.7-77.6-40c-33.9-17.5-66.8-36.9-98.7-57.8c-26.3-17.3-52.2-35.3-78.1-53.3c-55.7-38.8-107.1-82.8-156.9-128.9
			c-32.3-29.9-63.3-61.2-92.4-94.2c-26.7-30.3-52.2-61.8-77.7-93.1c-29.6-36.4-55.3-75.6-81.3-114.5c-17.1-25.6-32.1-52.6-47.5-79.2
			c-12.1-20.9-23.8-42-34.8-63.4c-10.4-20.3-20.1-41-29.5-61.7c-9.3-20.5-18.2-41.2-26.7-62c-7.6-18.7-14.5-37.7-21.4-56.6
			c-7.5-20.9-15-41.7-21.8-62.8c-10.6-33-19.7-66.4-27.8-100.1c-9.6-40-18-80.3-24.8-120.8c-4.8-28.4-8.3-57.1-11.9-85.7
			c-2-15.8-3.2-31.7-4.6-47.5c-1-11.1-1.9-22.2-3-33.3c-0.1-0.8-1.2-1.5-1.9-2.3c0-59.3,0-118.7,0-178c3-4.8,3.2-10.2,3.5-15.7
			c0.9-15.5,1.3-31.1,2.8-46.6c2.2-21.3,4.8-42.7,8-63.9c4.2-28.2,8.5-56.3,13.8-84.3c5.4-29,11.7-57.8,18.2-86.5
			c4-17.4,9-34.6,13.9-51.8c7.1-24.7,14.3-49.4,22.1-73.9c6.2-19.1,13.2-38,20.3-56.8c8.9-23.2,17.7-46.4,27.6-69.1
			c11.6-26.6,24.1-52.8,36.9-78.8c11.7-23.7,23.8-47.2,36.9-70.1c20.9-36.7,42.6-73,66.4-108c9.4-13.8,18.2-28,28-41.5
			c12.8-17.6,25.8-35.1,39.6-52c24.7-30.2,49.2-60.7,75.3-89.7c36.8-40.7,75.4-79.7,116.9-115.8c20.7-18,40.8-36.7,62.2-53.7
			c24.6-19.6,50-38.1,75.7-56.2c29-20.5,58.3-40.9,88.3-60c33.2-21.1,67.1-41.1,102.5-58.4c30-14.6,59.6-30.1,90-43.9
			c26.9-12.2,54.5-23.1,82.1-33.8c26.3-10.1,52.9-19.9,79.7-28.5c24.5-7.9,49.5-14.3,74.4-21.1c20.2-5.5,40.3-11.1,60.7-15.5
			c27.2-5.9,54.6-11.1,82.1-16.1c23.5-4.3,47-8.8,70.6-11.6c31.9-3.8,64-6,95.9-8.9c1.8-0.2,3.5-1.1,5.3-1.7C1570,2,1638,2,1706,2z"
			/>
		<path fill="#ABABAB" d="M1513.9,3202.1c13.9,0,27.8-0.1,41.7-0.1c44.5-0.1,88.9-0.2,133.4-0.3c2.3,0,4.6,0.2,6.9,0.4
			c0,0.6,0,1.3,0,1.9c-60.7,0-121.3,0-182,0C1514,3203.4,1513.9,3202.7,1513.9,3202.1z"/>
		<path fill="#ACACAC" d="M3202.3,1674.2c-0.1-16.3-0.3-32.5-0.3-48.8c-0.1-34.5-0.2-69.1-0.2-103.6c0-2.6,0.4-5.3,0.6-7.9
			c0.6-0.4,1.1-0.4,1.6,0.2c0,53.3,0,106.7,0,160l-0.8,0.3L3202.3,1674.2z"/>
		<path fill="#A59361" d="M23.4,1641.1c-0.2-294.1,57.3-535.3,174.4-761.5c139.5-269.5,340-482.7,601-637.6
			c259.4-153.9,541.1-228,842.4-219.3c428,12.3,792.4,174.1,1094.7,476.8c304.2,320.6,454,701.7,447.8,1143.9
			c-15.6,426.7-175.7,790.2-477.7,1091.5c-320.5,303.8-701.3,454.4-1143.2,446.9c-192.9-3.3-378.9-43-557.4-116.4
			c-203.6-83.6-382.3-204.4-535.6-362.2C330,2559.3,221.4,2394.6,144,2209.4C67.1,2025.8,22,1817.2,23.4,1641.1z"/>
		<path fill="#482F91" d="M1603,3101.7c-22.3,0-44.7,0.4-67-0.1c-15.2-0.4-30.4-2.2-45.7-3.4c-9.6-0.7-19.2-1.2-28.8-2.2
			c-23.4-2.5-46.9-4.5-70.2-7.9c-37.1-5.5-74.1-11.4-111-18.4c-23.8-4.6-47.3-10.8-70.5-17.6c-33.4-9.9-66.7-20.4-99.7-31.9
			c-46.2-16.1-91.5-34.4-135.6-55.6c-22.2-10.7-44.5-21.2-66.3-32.5c-38.1-19.8-75.3-41.2-111.6-64.1c-37.5-23.6-74-48.6-108.7-76.1
			c-23.2-18.4-45.7-37.6-68.3-56.8c-31.2-26.5-61-54.7-89.5-84.1c-31.7-32.8-62.1-66.7-91.1-101.9c-32.4-39.4-63.2-79.9-90.3-123.1
			c-20.7-33-40.4-66.6-59.9-100.3c-11.5-19.9-22.2-40.3-32.2-60.9c-26.5-54.5-50.2-110.1-70.7-167.2c-16.5-46-31.1-92.6-42.8-140
			c-7-28.3-11.9-57.1-17.2-85.8c-3.6-19.6-6.5-39.3-9.3-59c-2-13.8-3.3-27.7-4.7-41.5c-2-19.8-3.8-39.6-5.6-59.4
			c-0.3-3.6-0.1-7.3-0.3-11c-3.8-55.9-2.5-111.9-1.7-167.8c0.4-23.2,3.3-46.3,5.1-69.5c0.7-8.9,1.3-17.9,2.3-26.8
			c2.1-19.1,4-38.3,6.7-57.3c3.3-22.6,7-45.2,11.4-67.7c5.2-26.7,10.7-53.3,17.3-79.7c10.5-41.9,24-83,38.4-123.7
			c15.9-44.8,34-88.8,53.9-132c20.6-44.8,43.4-88.5,68.1-131.1c35.6-61.4,74.8-120.4,119.7-175.5c27.8-34.1,56-67.6,86.8-99
			c10-10.2,19.6-20.9,29.7-31c32.2-31.9,65.6-62.3,100.4-91.4c31.6-26.5,63.9-52.2,97.9-75.6c48.6-33.5,98.8-64.2,150.8-92.2
			c46.3-24.9,93.7-47.8,142.6-67.2c38-15,76.2-29.9,115-42.7c36.2-12,73.1-22.1,110.1-31.4c26.3-6.6,53.4-10.6,80.1-15.2
			c20.2-3.5,40.6-6.7,60.9-9.5c14.5-2,29-3.2,43.6-4.5c21.8-2,43.6-3.9,65.4-5.7c5-0.4,10-0.3,15-0.4c39.9-0.6,79.9-1.7,119.8-1.7
			c19.2,0,38.4,2.1,57.6,3.3c9.9,0.6,19.9,1.1,29.8,2.1c31,3.2,62,6.3,93,10c41.5,5.1,82.7,12.5,123.4,22.1
			c60.2,14.3,119,33.2,176.9,55.1c43.3,16.3,85.7,34.7,127.4,54.7c63.4,30.4,124.3,65.4,183.1,103.9c45.5,29.8,88.4,62.8,130,97.8
			c47,39.5,91.5,81.5,133.3,126.3c50,53.5,96.7,109.8,138.1,170.4c31.2,45.7,59.6,93,86,141.6c37.6,69.5,69.5,141.5,96.2,215.8
			c18.2,50.7,34.5,102,46.4,154.5c7,31,12,62.5,17.4,93.9c3.7,21.6,6.8,43.3,9.5,65c2.1,17.1,3.4,34.4,4.5,51.6
			c1.6,24.2,2.2,48.5,4.2,72.6c3,35.6,1.3,71.2,1.2,106.8c0,24.5-1.7,49.2-4,73.6c-3.1,33.7-7.3,67.3-11.5,100.8
			c-5.5,44.5-13.3,88.6-24.1,132.1c-12.7,51.3-28.7,101.6-46.8,151.3c-17.4,47.9-37.3,94.7-59.2,140.6c-25.2,53-54,103.9-84.6,153.9
			c-30.9,50.3-65.3,98.1-102.8,143.6c-19.4,23.6-39.5,46.8-60.4,69.1c-26.7,28.4-53.9,56.3-82,83.3c-22.8,21.9-46.8,42.5-71,62.8
			c-21.7,18.2-43.8,35.9-66.7,52.4c-27.8,20-56.3,39.1-85.2,57.6c-41.5,26.6-84.6,50.5-128.7,72.6c-51.8,25.9-104.9,48.9-159.2,69.1
			c-58,21.6-116.9,40.2-177.2,54c-27.1,6.2-54.7,10.8-82.2,15.3c-27.2,4.4-54.4,8.3-81.8,11.6c-18.8,2.3-37.8,2.8-56.6,4.6
			C1680.8,3101.9,1641.9,3102.4,1603,3101.7z"/>
		<path fill="#FFFFFF" d="M1603.2,2610.1c-558,0-1006.9-453.3-1007.7-1006.5C594.7,1051.3,1041.4,595,1602.3,594.2
			c557.3-0.8,1009.6,451,1009.2,1008C2611.2,2162.2,2157.1,2610.6,1603.2,2610.1z"/>
		<path fill="#EE2D24" d="M2399.6,1597.3c0,16.4-0.4,28.4,0.1,40.4c0.7,14.9-3,29.3-4.5,44c-1,9.9-1.7,19.8-3.4,29.6
			c-4.3,25-8.5,50.1-14,74.9c-7.1,32.1-16.6,63.5-28.4,94.2c-6.3,16.4-13.5,32.4-20.3,48.6c-12.2,29.2-27.3,57-43.7,83.9
			c-20.5,33.7-43.4,65.8-68.7,96.4c-22.1,26.7-45.9,51.7-71.1,75.4c-24.4,23-50.3,44.2-77.7,63.6c-27.7,19.7-56.4,37.4-86.2,53.8
			c-63.6,35-130.8,60.3-201.6,76c-28.7,6.4-57.8,10.5-86.8,15.2c-8.5,1.4-17.2,1.1-25.7,2.2c-38.4,5.3-77,1.2-115.4,2.3
			c-7.1,0.2-14.3-1.5-21.4-2.5c-12.1-1.6-24.2-3.4-36.3-5c-31.5-4.1-62.6-10.4-93.4-18.3c-40.3-10.3-79.4-23.9-117.4-40.8
			c-56-24.9-109.1-55.1-157.6-92.8c-18.9-14.6-37.4-29.8-55.2-45.7c-17.6-15.7-34.8-32-50.9-49.3c-34.5-37.3-65.5-77.4-92.3-120.7
			c-16.7-26.9-31.9-54.5-45.5-83c-7.3-15.2-14-30.8-19.9-46.6c-7.8-20.8-15.1-41.8-21.6-63c-9.6-31.3-17.3-63.2-22.2-95.6
			c-2.9-19.2-6-38.5-8.3-57.8c-1.5-11.8-2.3-23.6-2.5-35.5c-0.4-24,0.2-48-0.2-72c-0.2-16.3,1.9-32.2,4.2-48.2
			c2-13.7,2.9-27.6,5-41.3c4.6-30.7,11.5-61,19.6-91.1c9.8-36.3,22.5-71.4,37.5-105.8c12.5-28.6,26.8-56.4,42.8-83.3
			c18.3-30.9,38.2-60.6,60.5-88.7c11.1-14,22.7-27.7,34.8-40.9c14.1-15.5,28.7-30.6,43.7-45.2c25.7-25.1,53.5-47.6,82.6-68.7
			c25.3-18.4,51.7-35,79-50.2c31.9-17.8,65.1-33,99.2-46.4c45.2-17.7,91.7-30.9,139.4-39.7c22.4-4.1,44.8-8.5,67.7-9.6
			c8.8-0.4,17.5-2.8,26.2-4.1c2.3-0.3,4.7-0.1,7-0.1c31.7,0,63.3-0.2,95,0.1c8.2,0.1,16.3,1.5,24.4,2.5c12.1,1.5,24.2,3.3,36.3,4.9
			c26.9,3.6,53.5,8.6,79.9,14.9c45.3,10.9,89.3,25.9,131.8,44.7c57,25.2,110.6,56.6,160.1,94.6c17.6,13.5,34.6,28,51.1,42.8
			c15.6,14,30.7,28.5,45.3,43.6c23.3,24.1,44.4,50,64.4,77c31.4,42.3,58.2,87.4,80.5,135c20.1,43,36.3,87.6,48,133.7
			c6.8,26.6,12.8,53.3,16.4,80.5c2.6,19.3,2.9,39,7.1,58C2401.8,1559.6,2397.5,1580.7,2399.6,1597.3z"/>
	</g>
</g>
<g>
	<g>
		<path fill="#FFFFFF" d="M688.2,2263.2c-22.1,0-40-17.9-40-40V975.6c0-22.1,17.9-40,40-40h550.2c22.1,0,40,17.9,40,40v249.5
			c0,22.1-17.9,40-40,40H1052v156.1h162.1c22.1,0,40,17.9,40,40v237.4c0,22.1-17.9,40-40,40H1052v484.6c0,22.1-17.9,40-40,40H688.2z
			"/>
		<path d="M1238.4,975.6v249.5H1012v236.1h202.1v237.4H1012v524.6H688.2V975.6H1238.4 M1238.4,895.6H688.2c-44.2,0-80,35.8-80,80
			v1247.7c0,44.2,35.8,80,80,80H1012c44.2,0,80-35.8,80-80v-444.6h122.1c44.2,0,80-35.8,80-80v-237.4c0-44.2-35.8-80-80-80H1092
			v-76.1h146.4c44.2,0,80-35.8,80-80V975.6C1318.4,931.4,1282.6,895.6,1238.4,895.6L1238.4,895.6z"/>
	</g>
	<g>
		<path fill="#FFFFFF" d="M2136.9,2290c-71.7,0-137.3-12-195-35.8c-59.7-24.5-108.5-62-145.1-111.4
			c-36.4-49.1-58.3-103.5-65.3-161.6c-6.4-53.3-9.5-143.1-9.5-274.5v-213.5c0-128,3-216.6,9.1-270.7c6.6-58.8,27.8-113.2,62.7-161.8
			c35.1-48.8,83-86.7,142.3-112.7c57.7-25.2,125.2-38,200.8-38c71.6,0,137.2,12,195,35.8c59.7,24.5,108.5,62,145.1,111.4
			c36.3,49.1,58.3,103.5,65.3,161.6c6.4,53.4,9.5,143.2,9.5,274.5v213.5c0,127.9-3,216.5-9.1,270.7c-6.6,58.8-27.7,113.2-62.7,161.8
			c-35.2,48.8-83,86.8-142.3,112.7C2279.9,2277.2,2212.4,2290,2136.9,2290z M2131.9,1999.2c1,0.1,2.3,0.3,4.2,0.3
			c2,0,3.3-0.2,4.1-0.3c0.1-0.3,0.2-0.7,0.4-1.1c2.2-7,7.4-33.6,7.4-127.6v-574.1c0-69.3-4.8-90.4-6.5-95.6
			c-0.7-0.1-1.8-0.2-3.1-0.2c-3.5,0-4.6,0.4-5.5,1.4c-1.5,4.1-7.2,24.2-7.2,94.4v583.3C2125.7,1966.9,2130.2,1992.6,2131.9,1999.2z"
			/>
		<path d="M2136.9,950c66.7,0,126.6,10.9,179.8,32.8c53.1,21.8,95.9,54.6,128.2,98.3s51.6,91.2,57.7,142.6
			c6.2,51.4,9.2,141.3,9.2,269.7v213.5c0,125.4-3,214.1-8.9,266.2c-5.9,52.2-24.4,99.8-55.4,142.9c-31.1,43.2-73,76.3-125.9,99.4
			c-52.9,23.1-114.5,34.7-184.8,34.7c-66.7,0-126.6-10.9-179.8-32.8c-53.1-21.8-95.8-54.6-128.2-98.3
			c-32.3-43.7-51.6-91.2-57.7-142.5c-6.2-51.4-9.2-141.3-9.2-269.7v-213.5c0-125.3,2.9-214.1,8.8-266.2s24.4-99.8,55.4-142.9
			s73-76.3,125.9-99.4C2005,961.6,2066.5,950,2136.9,950 M2136.1,2039.4c22.2,0,36.4-9.8,42.6-29.3c6.2-19.6,9.3-66.1,9.3-139.7
			v-574.1c0-58.1-3.2-95.3-9.7-111.5s-19.8-24.3-39.9-24.3c-17,0-30.1,6.6-39.1,19.7s-13.5,51.8-13.5,116.1v583.3
			c0,72.5,3,117.3,8.9,134.3C2100.6,2030.9,2114.4,2039.4,2136.1,2039.4 M2136.9,870c-81.1,0-154,13.9-216.8,41.4
			c-65.9,28.8-119.3,71.2-158.7,126c-39,54.2-62.6,115-70,180.7c-6.3,55.7-9.4,145.7-9.4,275.2v213.5c0,133,3.2,224.3,9.8,279.2
			c7.8,65.1,32.3,125.9,72.9,180.6c41,55.4,95.5,97.3,162.1,124.6c62.6,25.7,133.3,38.8,210.2,38.8c81,0,154-13.9,216.8-41.4
			c66-28.9,119.4-71.2,158.8-126c39-54.2,62.6-115,70-180.7c6.3-55.8,9.4-145.8,9.4-275.2v-213.5c0-132.8-3.2-224.2-9.8-279.2
			c-7.8-65.1-32.3-125.9-72.9-180.6c-41-55.3-95.5-97.3-162.1-124.6C2284.5,883,2213.7,870,2136.9,870L2136.9,870z"/>
	</g>
	<g>
		<path fill="#FFFFFF" d="M1316,2263.2c-22.1,0-40-17.9-40-40V975.6c0-22.1,17.9-40,40-40h323.8c22.1,0,40,17.9,40,40v1247.7
			c0,22.1-17.9,40-40,40L1316,2263.2L1316,2263.2z"/>
		<path d="M1639.8,975.6v1247.7H1316V975.6H1639.8 M1639.8,895.6H1316c-44.2,0-80,35.8-80,80v1247.7c0,44.2,35.8,80,80,80h323.8
			c44.2,0,80-35.8,80-80V975.6C1719.8,931.4,1684,895.6,1639.8,895.6L1639.8,895.6z"/>
	</g>
</g>
</svg>
