<?xml version="1.0" encoding="utf-8"?>
<!-- Generator: Adobe Illustrator 18.0.0, SVG Export Plug-In . SVG Version: 6.00 Build 0)  -->
<!DOCTYPE svg PUBLIC "-//W3C//DTD SVG 1.1//EN" "http://www.w3.org/Graphics/SVG/1.1/DTD/svg11.dtd">
<svg version="1.1" id="Livello_1" xmlns="http://www.w3.org/2000/svg" xmlns:xlink="http://www.w3.org/1999/xlink" x="0px" y="0px"
	 viewBox="0 0 3200 3200" enable-background="new 0 0 3200 3200" xml:space="preserve">
<g>
	<g>
		<path d="M1706,2c1.3,0.6,2.7,1.7,4,1.8c25.8,2.2,51.7,3.5,77.3,6.7c32.2,4.1,64.3,9.4,96.3,14.8c24.5,4.2,49,8.9,73.2,14.4
			c27.5,6.3,54.8,13.3,81.9,20.9c29,8.2,58,16.8,86.4,26.7c31.6,11,63,23,94,35.8c48.3,19.8,95.8,41.8,141.5,67
			c37,20.4,73.2,42.2,108.9,64.7c25.2,15.8,49,33.8,73.6,50.6c40.9,27.8,78.8,59.4,115.9,92c25.6,22.5,50.1,46.3,74.2,70.4
			c24.4,24.3,48.3,49,71.3,74.6c18.2,20.2,34.7,41.8,52,62.8c36.7,44.7,68.1,93.3,100.5,141c13,19.1,23.8,39.7,35.4,59.8
			c10,17.2,19.9,34.3,29.3,51.8c8.4,15.7,16.6,31.7,24,47.9c13.3,29.1,26.3,58.3,38.8,87.8c14.9,35.1,28.6,70.7,39.7,107.2
			c9.6,31.7,19.8,63.2,28.2,95.2c12.9,48.8,23.1,98.3,31.5,148.1c6.3,36.9,11.2,74,14.1,111.4c1.5,19.5,2.8,39,4.2,58.5
			c1.3,29.5,0.5,59.1,0.5,88.6c0,23.9,0.9,47.8-0.5,71.7c-1.3,22.5-2.2,45.1-4.1,67.5c-1.9,22.7-4.4,45.3-7.5,67.8
			c-4.5,32.2-9.5,64.3-14.8,96.4c-2.5,15.3-6.3,30.4-9.6,45.5c-3.8,17.1-7.3,34.2-11.9,51.1c-8.2,29.9-16.7,59.7-25.7,89.4
			c-13.6,44.9-30.3,88.7-48.5,131.9c-10.8,25.8-22.9,51.1-35.1,76.3c-12.3,25.5-25.1,50.8-38.1,76c-5,9.6-11.4,18.6-16.9,27.9
			c-4.9,8.2-9.3,16.8-14.3,25c-14.1,22.8-28,45.8-42.8,68.1c-12.9,19.5-26.7,38.5-40.5,57.4c-8,10.9-16.8,21.2-25.2,31.7
			c-13.6,17-27.1,34.1-40.8,50.9c-7.3,8.9-14.6,17.8-22.5,26.2c-23.7,25.2-47,50.7-71.6,75c-26.1,25.7-53.1,50.5-80.4,75
			c-53.4,48-112.3,88.6-171.8,128.4c-14.1,9.4-27.9,19.1-42,28.5c-4.9,3.3-10.1,6.2-15.3,9.1c-42.9,24.2-85.8,48.5-130.5,69.4
			c-38.6,18.1-77.4,35.8-117.6,50.1c-27.7,9.8-55.3,19.9-83.2,29.1c-20,6.6-40.4,12.1-60.6,18.1c-51.6,15.2-104.5,24.9-157.1,35.4
			c-24.2,4.8-48.9,7.8-73.5,10.5c-34.7,3.9-69.6,6.8-104.4,10.2c-2.1,1.3-4.5,0.9-6.8,0.9c-56.1,0-112.3,0-168.4,0
			c-2.3,0-4.7,0.4-6.8-0.8c-10.4-1-20.9-2-31.3-2.9c-16.1-1.4-32.3-2.6-48.4-4.2c-15.8-1.5-31.6-3.1-47.4-5.2
			c-14.1-1.9-28.2-4.5-42.2-7c-24.8-4.4-49.7-8.8-74.4-13.7c-15.9-3.2-31.6-7.2-47.4-11.1c-16.4-4-32.8-8-48.9-12.7
			c-28.2-8.2-56.7-15.9-84.4-25.8c-38.9-13.9-77.2-29.5-115.6-44.8c-18.1-7.2-36.2-14.8-53.8-23.4c-26.1-12.8-51.7-26.7-77.6-40
			c-33.9-17.5-66.8-36.9-98.7-57.8c-26.4-17.3-52.2-35.3-78.1-53.3c-55.7-38.8-107.1-82.8-156.9-128.9
			c-32.3-29.9-63.3-61.2-92.4-94.2c-26.7-30.3-52.2-61.8-77.7-93.1c-29.6-36.4-55.3-75.6-81.3-114.5c-17.1-25.6-32.1-52.6-47.5-79.2
			c-12.1-20.9-23.8-42-34.8-63.4c-10.4-20.3-20.1-41-29.5-61.7c-9.3-20.5-18.2-41.2-26.7-62c-7.6-18.7-14.5-37.7-21.4-56.6
			c-7.5-20.9-15-41.7-21.8-62.8c-10.6-33-19.7-66.4-27.8-100.1c-9.6-40-18-80.3-24.8-120.8c-4.8-28.4-8.3-57.1-11.9-85.7
			c-2-15.8-3.2-31.7-4.6-47.5c-1-11.1-1.9-22.2-3-33.3c-0.1-0.8-1.2-1.5-1.9-2.3c0-59.3,0-118.7,0-178c3-4.8,3.2-10.2,3.5-15.7
			c0.9-15.5,1.3-31.1,2.8-46.6c2.2-21.3,4.8-42.7,8-63.9c4.2-28.2,8.5-56.3,13.8-84.3c5.4-29,11.7-57.8,18.2-86.5
			c4-17.4,9-34.6,13.9-51.8c7.1-24.7,14.3-49.4,22.1-73.9c6.2-19.1,13.2-38,20.3-56.8c8.9-23.2,17.7-46.4,27.6-69.1
			c11.6-26.6,24.1-52.8,36.9-78.8c11.7-23.7,23.8-47.2,36.9-70.1c20.9-36.7,42.6-73,66.4-108c9.4-13.8,18.2-28,28-41.5
			c12.8-17.6,25.8-35.1,39.6-52c24.7-30.2,49.2-60.7,75.3-89.7c36.8-40.7,75.4-79.7,116.9-115.8c20.7-18,40.8-36.7,62.2-53.7
			c24.6-19.6,50-38.1,75.7-56.2c29-20.5,58.3-40.9,88.3-60c33.2-21.1,67.1-41.1,102.5-58.4c30-14.6,59.6-30.1,90-43.9
			c26.9-12.2,54.5-23.1,82.1-33.8c26.3-10.1,52.9-19.9,79.7-28.5c24.5-7.9,49.5-14.3,74.4-21.1c20.2-5.5,40.3-11.1,60.7-15.5
			c27.2-5.9,54.6-11.1,82.1-16.1c23.5-4.3,47-8.8,70.6-11.6c31.9-3.8,64-6,95.9-8.9c1.8-0.2,3.5-1.1,5.3-1.7C1570,2,1638,2,1706,2z"
			/>
		<path fill="#ABABAB" d="M1514,3202.1c13.9,0,27.8-0.1,41.7-0.1c44.5-0.1,88.9-0.2,133.4-0.3c2.3,0,4.6,0.2,6.9,0.4
			c0,0.6,0,1.3,0,1.9c-60.7,0-121.3,0-182,0C1514,3203.4,1513.9,3202.7,1514,3202.1z"/>
		<path fill="#ACACAC" d="M3202.3,1674.2c-0.1-16.3-0.3-32.5-0.3-48.8c-0.1-34.5-0.2-69.1-0.2-103.6c0-2.6,0.4-5.3,0.6-7.9
			c0.6-0.4,1.1-0.4,1.6,0.2c0,53.3,0,106.7,0,160l-0.8,0.3C3203.2,1674.3,3202.3,1674.2,3202.3,1674.2z"/>
		<path fill="#FFD41C" d="M23.3,1644.9c-0.1-297.9,57.4-539.1,174.6-765.3c139.7-269.8,340.4-483,601.8-638
			C1058.9,88,1340.2,14.1,1641.1,22.8C2069.4,35.1,2434,197,2736.4,500.1c304.1,320.7,453.6,701.9,447.3,1144
			c-15.7,426.7-175.9,790.1-478.1,1091.3c-320.6,303.7-701.3,454.1-1143.2,446.5c-192.5-3.3-378.2-42.9-556.4-116.1
			c-204-83.7-383-204.6-536.5-362.6c-139.8-143.9-248.3-308.7-325.7-493.8C66.7,2024.9,22,1816,23.3,1644.9z"/>
		<path fill="#9C002C" d="M640.6,451.7c41.1-36.2,84.8-69,130.7-98.8c0.8-0.5,1.8-0.8,2.7-1.2c6.9-3.3,14.2-3,21.6-3
			c243.2,0,486.5,0,729.7,0c28.6,0,25.3,2.8,25.4-24.9c0.1-68.3,0-136.6,0.1-204.9c0-5.6-1-11.4,2.8-16.4c25.5-0.2,51-0.4,76.4-0.4
			c7.9,0,15.9,0.3,23.8,0.5c4.3,5.1,3.4,11.3,3.4,17.2c0.1,69.3,0,138.7,0,208c0,3.3,0.2,6.7,0,10c-0.5,8.2,3.4,11.5,11.4,11
			c4-0.2,8,0,12,0c243.7,0,487.3,0,731,0c7.4,0,14.7-0.2,21.6,2.9c13.3,8.8,27.2,16.9,39.8,26.6c30.5,23.1,60.4,47,90.5,70.5
			c1,0.8,1.8,1.9,2.6,2.9c-2.6,3.2-6.4,3.2-10,3.4c-4.7,0.3-9.3,0.1-14,0.1c-288.2,0-576.3,0-864.5,0c-20.4,0-20.4,0-20.4,19.9
			c0,102.9,0,205.9,0,308.8c0,5.9,0.9,12-2.1,17.6c-6.3,5.4-13.9,3.3-21,3.4c-26.9,0.3-26.7,0.1-27,27c-0.2,15.9,1.3,31.9-1,47.7
			c-2.5,5.5-7.6,4.7-12.1,4.8c-51.2,0.3-101.6,6.5-151.4,17.9c-79,18.1-152.8,48.5-221.4,91.9c-52.7,33.3-100.4,72.7-142.7,118.3
			c-57,61.5-102.2,130.5-135.4,207.5c-28.8,67-46.7,136.8-54,209.2c-4.5,44.4-3.8,89.1-0.8,133.7c4.9,71.8,22.2,140.7,48.6,207.3
			c29.5,74.4,71.3,141.4,123.6,201.9c75.7,87.5,167.6,152.4,274.6,196.3c63,25.8,128.7,41.2,196.3,48.7c20.5,2.3,41.2,2.6,61.8,2.4
			c4.8-0.1,10.4-1,12.9,5.2c1.4,4.9,1.1,9.9,1.1,14.9c0,248,0,496.1,0,744.1c0,6.2,1.5,12.8-3.6,18c-26.6-0.5-53.2-0.7-79.8-1.7
			c-20.6-0.8-41.2-2.2-61.7-4.1c-26.5-2.5-53-4.7-79.3-8.8c-39.4-6.2-78.8-12.8-117.8-21.3c-32.1-7-63.7-16.5-95.2-25.9
			c-53.6-16-105.8-36-157.1-58.2c-57.8-24.9-113.9-53.4-168.3-85.1c-50.1-29.2-98.7-60.7-144.8-96c-34.1-26.1-67.3-53.3-98.8-82.6
			c-25.6-23.8-51.3-47.6-75.6-72.7c-62.1-64.2-119.3-132.6-168.6-207.3c-30.8-46.7-59.1-94.9-85-144.6
			c-33.1-63.6-61.4-129.2-85.7-196.6c-16.5-45.8-31.2-92.1-42.5-139.3c-7.5-31.3-13.6-63-18.8-94.8c-5.7-34.7-10.1-69.7-14-104.6
			c-2.6-23.8-3.9-47.7-4.7-71.6c-1.2-36.9-1.7-73.9-2.1-110.8c-0.4-38.3,2-76.4,5.9-114.5c2-19.8,3.3-39.7,6.2-59.4
			c5.8-39.1,11.5-78.3,19.1-117c14.7-74.6,38.7-146.6,65.9-217.5c18.6-48.5,39.8-95.9,63.3-142.2c20.9-41.3,43.9-81.5,68-121
			c0.5-0.8,1.4-1.4,2-2.2c5-3.4,10.8-3,16.4-3c42,0,84,0,126,0c351,0,702,0,1053,0c22.9,0,21.1,0.9,21.1-21.3c0-100.7,0-201.3,0-302
			c0-2.7,0-5.3,0-8c-0.3-10.9-1.2-11.9-12.1-12.2c-3.7-0.1-7.3,0-11,0c-289,0-578,0-867-0.1C653.9,455.2,646.5,457.2,640.6,451.7z"
			/>
		<path fill="#00244B" d="M1603.6,881.7c0.1-21.3,0.1-42.7,0.2-64c0-2.3,0-4.7,0-7c0.2-8.4,0.2-8.4,8.2-8.5c9-0.1,18,0,27,0
			c5,0,10-0.1,15-0.2c2.9-2.6,6.6-3,10.3-3.1c3.7-0.1,7.3-0.1,11-0.1c391.9,0,783.9,0,1175.8,0.1c7.2,0,14.8-1.5,21.4,3
			c9.3,15,18.8,29.8,27.7,45c22.3,38.3,43,77.4,61.8,117.5c32.5,69.4,60.2,140.7,82.5,214.1c12.1,39.8,23.4,79.9,30.4,120.9
			c6.3,36.7,12.2,73.4,17.2,110.3c3.6,26.6,5.6,53.5,7.8,80.3c1.4,16.9,2,33.9,2.4,50.8c0.7,34.6,1.8,69.3,1.1,103.9
			c-0.5,28.5-2.9,57-5,85.5c-1.6,22.2-3.6,44.4-6.3,66.4c-9.5,76.7-23.4,152.4-46.4,226.4c-19.7,63.7-42.6,126.1-69.8,186.9
			c-25,56-53.5,110.1-84.5,163c-44,74.9-95,144.7-152,210.1c-30.4,34.9-62,68.7-95.6,100.7c-62.5,59.5-128.4,115.1-200.4,162.9
			c-48,31.9-97.7,61.1-148.8,87.7c-75.8,39.4-154.2,72.4-235.4,98.9c-45.6,14.9-91.5,28.6-138.6,37.8
			c-39.8,7.7-79.7,15.1-120.1,19.3c-29.4,3-58.7,6.9-88.2,8.8c-36.2,2.4-72.4,4.4-108.7,2.6c0.1-4,0.2-8,0.2-12
			c0-251.1,0-502.2,0-753.4c0-4.6,0.4-9.3,0.6-13.9c3.2-4.1,7.9-3,12.1-3c116.1,0,224.7-30,326.7-84.2c49.9-26.5,95.7-59.2,138-96.8
			c59.6-53,108.9-114.3,148.1-183.5c45.6-80.4,73.9-166.7,86.2-258.2c5.6-42,7.8-84.3,5.7-126.6c-4.5-89.3-24-175.3-60.5-257.3
			c-27.6-61.9-62.8-119-106.4-170.8c-56.8-67.5-123.3-123.1-200.3-166.3c-66-37-136.1-62.8-210.2-77.5c-42.2-8.4-84.9-13.3-128-13.6
			C1611.5,884.5,1606.9,885.6,1603.6,881.7z"/>
		<path fill="#FFFFFF" d="M640.6,451.7c5,0.1,10,0.3,15,0.3c295,0,590,0,884.9,0c13.1,0,13.1,0,13.1,13.2c0,108,0,216,0,324
			c0,12.8,0,12.8-12.5,12.8c-334,0-668,0-1001.9,0c-64.3,0-128.7,0-193,0c-4,0-8-0.1-12-0.2c8.6-13.8,16.9-27.9,26-41.4
			c38.3-57,80.9-110.7,127.4-161.3c23.4-25.5,47.2-50.7,72-74.9c24.8-24.1,51.1-46.6,76.8-69.8C637.7,453.4,639.2,452.6,640.6,451.7
			z"/>
		<path fill="#FFFFFF" d="M2872.5,801.8c-3.3,0.1-6.7,0.3-10,0.3c-399.5,0-799,0-1198.5,0c-3.3,0-6.7-0.1-10-0.1
			c-0.1-3.3-0.3-6.7-0.3-10c0-109.6,0-219.2,0-328.8c0-12.9-1.7-11.1,11-11.1c296.2,0,592.3,0,888.5,0c4.3,0,8.6-0.2,13-0.3
			c9.4,7.8,19.3,15.2,28.3,23.5c28.8,27.1,58,53.8,85.8,81.9c42.3,42.8,81.3,88.5,118.1,136.1c24.8,32.1,47.9,65.5,69.5,99.8
			C2869.6,795.9,2870.9,798.9,2872.5,801.8z"/>
		<path fill="#FFFFFF" d="M1553.6,102.5c0,80.7,0.1,161.3,0.1,242c0,7.4-0.1,7.4-7.8,7.5c-1.7,0-3.3,0-5,0c-251.3,0-502.6,0-753.9,0
			c-4.3,0-8.7-0.2-13-0.3c14.7-9.6,29.2-19.7,44.2-28.8c46.9-28.5,95.1-54.8,144.8-78.2c68.1-32,137.9-59.5,209.8-81.7
			c37.8-11.6,75.7-22.9,114.7-29.8c35-6.3,70-12.3,105.2-17.2c29.6-4.2,59.3-7.2,89.1-9.8c20.2-1.8,40.5-2,60.8-2.9
			C1546.3,103.1,1549.9,102.8,1553.6,102.5z"/>
		<path fill="#FFFFFF" d="M2433.1,351.7c-4,0.1-8,0.3-12,0.3c-251.9,0-503.9,0-755.8,0c-1.3,0-2.7,0-4,0c-7.8,0.1-7.7,0.5-7.7-7.5
			c0.1-80.6,0.1-161.3,0.2-241.9c9.6,0.5,19.2,1,28.9,1.4c38.5,1.6,76.9,5.1,115.1,9.8c57.1,7,113.8,16.1,169.5,30.4
			c69.3,17.8,137,40.3,202.9,68.3c37,15.7,73.7,32.2,109.7,50.1c49.5,24.5,97.3,52.2,143.7,82.2
			C2426.9,346.8,2430,349.3,2433.1,351.7z"/>
		<path fill="#FFD41C" d="M1603.6,881.7c5.3,0.2,10.6,0.4,16,0.5c58.7,0.6,116.3,9.4,173,24.6c46.7,12.5,91.6,29.8,134.8,51.6
			c57.6,29.1,110.3,65.3,158.3,108.5c56.6,50.9,104,109.3,142.1,175.1c41.5,71.6,69.9,148.2,84.6,229.9c5,27.8,9.2,55.6,10,83.9
			c0.8,27.6,2.4,55.3,1.1,82.8c-2.8,58.5-12.6,116-29.6,172.1c-12,39.5-27.1,77.9-45.7,114.7c-27.6,54.5-61.4,104.8-101.7,151
			c-37.8,43.3-80.2,81.5-127,114.7c-68.4,48.6-143.2,84-224.1,106.3c-43,11.8-86.6,20.2-131.1,22.9c-19.9,1.2-39.8,1.6-59.8,2.3
			c-15.3-0.3-30.6-0.3-45.9-1.1c-35.9-1.9-71.3-7.1-106.5-14.6c-49.6-10.5-97.5-26.3-143.6-47.1c-65-29.2-124.5-67.2-178.1-114.4
			c-12.2-10.8-24.6-21.5-36-33.1c-31.3-31.8-60-65.8-85.2-102.8c-19.2-28.1-36.6-57.1-51.6-87.6c-29-59-50.2-120.7-61.9-185.6
			c-4.4-24.5-7.8-49.1-9.9-73.9c-3.2-37.3-3.4-74.6-0.9-111.7c5.6-83.5,25.6-163.7,59.7-240.3c16.5-37.2,36-72.7,58.5-106.6
			c23.6-35.5,50.4-68.5,79.8-99.5c49-51.5,104.6-94.5,166.2-129.6c47.5-27.1,97.7-48.1,150.2-63.7c39-11.6,78.6-19.7,118.9-24.5
			c22.1-2.6,44.4-3.1,66.6-4.3C1590.9,881.7,1597.3,881.8,1603.6,881.7z"/>
	</g>
</g>
<g>
	<g>
		<path fill="#FFFFFF" d="M786.9,2290c-60.9,0-118.8-15.1-172-44.7c-53.1-29.6-94.3-67.3-122.3-111.9
			c-27.5-43.6-44.9-90.3-51.8-138.6c-6.5-45.1-9.6-110.1-9.6-198.7v-370.7c0-123.5,6.6-211.4,20.3-268.9
			c15-63.1,57.2-120.7,125.5-171.3c67.5-49.9,154.9-75.3,259.6-75.3c102,0,188.6,21.8,257.3,64.7c70.1,43.8,116.8,97.5,138.8,159.7
			c20.7,58.6,30.8,139.5,30.8,247.3v54c0,22.1-17.9,40-40,40h-324c-22.1,0-40-17.9-40-40V1322c0-90.4-5.1-115-6.9-121
			c-1.1-0.3-3.1-0.5-6.2-0.5c-2.3,0-3.8,0.2-4.7,0.4c-1.3,3.7-6.9,24.2-6.9,101.6V1515c3.2-0.8,6.5-1.2,9.9-1.2h378.6
			c22.1,0,40,17.9,40,40v669.5c0,22.1-17.9,40-40,40H1019c-17.2,0-32.4-11-37.9-27.2l-6.1-18.3c-15,14.8-31.5,27.4-49.3,37.7
			C886.1,2278.4,839.4,2290,786.9,2290z M843.1,1998.9c0.8,0.2,2.4,0.6,5.4,0.6c8.8,0,9.5-1.8,11.1-5.6c2.9-6.8,9.5-30.4,9.5-101.9
			v-108.3h-24.5c-3.4,0-6.7-0.4-9.9-1.2v119.7c0,70.9,6,91.2,7.8,95.7C842.8,1998.3,843,1998.6,843.1,1998.9z"/>
		<path d="M836.4,950c94.9,0,173.6,19.5,236.1,58.6c62.6,39.1,103.3,85.4,122.3,139.1s28.5,131.7,28.5,234v54H899.5v-113.6
			c0-71.6-3.1-116.4-9.2-134.5c-6.2-18-20.8-27-43.9-27c-20,0-33.6,7.7-40.8,23.1s-10.8,55-10.8,118.8V1902
			c0,56.1,3.6,93,10.7,110.7c7.2,17.7,21.5,26.6,43,26.6c23.5,0,39.6-10,48-30.1s12.7-59.2,12.7-117.4v-148.3h-64.5v-189.9h378.6
			v669.5H1019l-30.1-89.4c-22,38.5-49.8,67.5-83.4,87c-33.5,19.4-73.1,29.2-118.7,29.2c-54.3,0-105.2-13.2-152.6-39.7
			s-83.4-59.2-108-98.3c-24.6-39-40-80-46.1-122.9c-6.2-42.9-9.2-107.2-9.2-193v-370.7c0-119.2,6.4-205.7,19.2-259.7
			c12.8-53.9,49.6-103.4,110.4-148.3C661.4,972.5,740,950,836.4,950 M836.4,870c-55.4,0-107,6.7-153.2,19.9
			c-48.3,13.8-92.1,35.1-130.1,63.2c-76.1,56.3-123.4,121.6-140.6,194.2c-14.4,60.6-21.4,151.6-21.4,278.2v370.7
			c0,90.5,3.3,157.4,10,204.4c7.7,53.9,27.1,105.7,57.6,154.2c31.7,50.3,77.6,92.5,136.7,125.5c59.3,33.1,123.7,49.8,191.5,49.8
			c59.6,0,113.1-13.4,158.8-40c5.7-3.3,11.2-6.8,16.6-10.4c14.7,14.8,34.9,23.6,56.7,23.6h204.2c44.2,0,80-35.8,80-80v-669.5
			c0-23.4-10-44.4-26-59c16-14.6,26-35.7,26-59v-54c0-112.5-10.8-197.7-33-260.6c-25.1-71-77.3-131.6-155.3-180.3
			c-38.3-23.9-81.7-42-129.1-53.7C940.4,875.7,890.1,870,836.4,870L836.4,870z"/>
	</g>
	<g>
		<path fill="#FFFFFF" d="M2445.3,2263.2c-17.7,0-33.3-11.6-38.3-28.6l-90.9-304.6v293.2c0,22.1-17.9,40-40,40h-271.4
			c-22.1,0-40-17.9-40-40V975.6c0-22.1,17.9-40,40-40h271.4c17.4,0,32.7,11.2,38.1,27.7l103.3,320V975.6c0-22.1,17.9-40,40-40H2729
			c22.1,0,40,17.9,40,40v1247.7c0,22.1-17.9,40-40,40L2445.3,2263.2L2445.3,2263.2z"/>
		<path d="M2729,975.6v1247.7h-283.6L2276.2,1656v567.2h-271.4V975.6h271.4l181.4,561.8V975.6H2729 M2729,895.6h-271.4
			c-44.2,0-80,35.8-80,80v53.6l-25.2-78.2c-10.7-33-41.4-55.4-76.1-55.4h-271.4c-44.2,0-80,35.8-80,80v1247.7c0,44.2,35.8,80,80,80
			h271.4c44.2,0,80-35.8,80-80v-19.1l12.5,42c10.1,33.9,41.3,57.1,76.7,57.1H2729c44.2,0,80-35.8,80-80V975.6
			C2809,931.4,2773.1,895.6,2729,895.6L2729,895.6z"/>
	</g>
	<g>
		<path fill="#FFFFFF" d="M1349.2,2263.2c-22.1,0-40-17.9-40-40V975.6c0-22.1,17.9-40,40-40h541.7c22.1,0,40,17.9,40,40v249.5
			c0,22.1-17.9,40-40,40H1713v156.1h163.3c22.1,0,40,17.9,40,40v237.4c0,22.1-17.9,40-40,40H1713v195.1h198.6c22.1,0,40,17.9,40,40
			v249.5c0,22.1-17.9,40-40,40H1349.2z"/>
		<path d="M1890.9,975.6v249.5H1673v236.1h203.3v237.4H1673v275.1h238.6v249.5h-562.4V975.6H1890.9 M1890.9,895.6h-541.7
			c-44.2,0-80,35.8-80,80v1247.7c0,44.2,35.8,80,80,80h562.4c44.2,0,80-35.8,80-80v-249.5c0-44.2-35.8-80-80-80H1753v-115.1h123.3
			c44.2,0,80-35.8,80-80v-237.4c0-44.2-35.8-80-80-80H1753v-76.1h137.9c44.2,0,80-35.8,80-80V975.6
			C1970.9,931.4,1935.1,895.6,1890.9,895.6L1890.9,895.6z"/>
	</g>
</g>
</svg>
