<?xml version="1.0" encoding="utf-8"?>
<!-- Generator: Adobe Illustrator 18.0.0, SVG Export Plug-In . SVG Version: 6.00 Build 0)  -->
<!DOCTYPE svg PUBLIC "-//W3C//DTD SVG 1.1//EN" "http://www.w3.org/Graphics/SVG/1.1/DTD/svg11.dtd">
<svg version="1.1" id="Livello_1" xmlns="http://www.w3.org/2000/svg" xmlns:xlink="http://www.w3.org/1999/xlink" x="0px" y="0px"
	 viewBox="0 0 3200 3200" enable-background="new 0 0 3200 3200" xml:space="preserve">
<g>
	<g>
		<path d="M1706,2c1.3,0.6,2.7,1.7,4,1.8c25.8,2.2,51.7,3.5,77.3,6.7c32.2,4.1,64.3,9.4,96.3,14.8c24.5,4.2,49,8.9,73.2,14.4
			c27.5,6.3,54.8,13.3,81.9,20.9c29,8.2,58,16.8,86.4,26.7c31.6,11,63,23,94,35.8c48.3,19.8,95.8,41.8,141.5,67
			c37,20.4,73.2,42.2,108.9,64.7c25.2,15.8,49,33.8,73.6,50.6c40.9,27.8,78.8,59.4,115.9,92c25.6,22.5,50.1,46.3,74.2,70.4
			c24.4,24.3,48.3,49,71.3,74.6c18.2,20.2,34.7,41.8,52,62.8c36.7,44.7,68.1,93.3,100.5,141c13,19.1,23.8,39.7,35.4,59.8
			c10,17.2,19.9,34.3,29.3,51.8c8.4,15.7,16.6,31.7,24,47.9c13.3,29.1,26.3,58.3,38.8,87.8c14.9,35.1,28.6,70.7,39.7,107.2
			c9.6,31.7,19.8,63.2,28.2,95.2c12.9,48.8,23.1,98.3,31.5,148.1c6.3,36.9,11.2,74,14.1,111.4c1.5,19.5,2.8,39,4.2,58.5
			c1.3,29.5,0.5,59.1,0.5,88.6c0,23.9,0.9,47.8-0.5,71.7c-1.3,22.5-2.2,45.1-4.1,67.5c-1.9,22.7-4.4,45.3-7.5,67.8
			c-4.5,32.2-9.5,64.3-14.8,96.4c-2.5,15.3-6.3,30.4-9.6,45.5c-3.8,17.1-7.3,34.2-11.9,51.1c-8.2,29.9-16.7,59.7-25.7,89.4
			c-13.6,44.9-30.3,88.7-48.5,131.9c-10.8,25.8-22.9,51.1-35.1,76.3c-12.3,25.5-25.1,50.8-38.1,76c-5,9.6-11.4,18.6-16.9,27.9
			c-4.9,8.2-9.3,16.8-14.3,25c-14.1,22.8-28.1,45.8-42.8,68.1c-12.9,19.5-26.7,38.5-40.5,57.4c-8,10.9-16.8,21.2-25.2,31.7
			c-13.6,17-27.1,34.1-40.8,50.9c-7.3,8.9-14.6,17.8-22.5,26.2c-23.7,25.2-47,50.7-71.6,75c-26.1,25.7-53.1,50.5-80.4,75
			c-53.4,48-112.3,88.6-171.8,128.4c-14.1,9.4-27.9,19.1-42,28.5c-4.9,3.3-10.1,6.2-15.3,9.1c-42.9,24.2-85.8,48.5-130.5,69.4
			c-38.6,18.1-77.4,35.8-117.6,50.1c-27.7,9.8-55.3,19.9-83.2,29.1c-20,6.6-40.4,12.1-60.6,18.1c-51.6,15.2-104.5,24.9-157.1,35.4
			c-24.2,4.8-48.9,7.8-73.5,10.5c-34.7,3.9-69.6,6.8-104.4,10.2c-2.1,1.3-4.5,0.9-6.8,0.9c-56.2,0-112.3,0-168.4,0
			c-2.3,0-4.7,0.4-6.8-0.8c-10.4-1-20.9-2-31.3-2.9c-16.1-1.4-32.3-2.6-48.4-4.2c-15.8-1.5-31.6-3.1-47.4-5.2
			c-14.1-1.9-28.2-4.5-42.2-7c-24.8-4.4-49.7-8.8-74.4-13.7c-15.9-3.2-31.6-7.2-47.4-11.1c-16.4-4-32.8-8-48.9-12.7
			c-28.2-8.2-56.7-15.9-84.4-25.8c-38.9-13.9-77.2-29.5-115.6-44.8c-18.1-7.2-36.2-14.8-53.8-23.4c-26.1-12.8-51.7-26.7-77.6-40
			c-33.9-17.5-66.8-36.9-98.7-57.8c-26.3-17.3-52.2-35.3-78.1-53.3c-55.7-38.8-107.1-82.8-156.9-128.9
			c-32.3-29.9-63.3-61.2-92.4-94.2c-26.7-30.3-52.2-61.8-77.7-93.1c-29.6-36.4-55.3-75.6-81.3-114.5c-17.1-25.6-32.1-52.6-47.5-79.2
			c-12.1-20.9-23.8-42-34.8-63.4c-10.4-20.3-20.1-41-29.5-61.7c-9.3-20.5-18.2-41.2-26.7-62c-7.6-18.7-14.5-37.7-21.4-56.6
			c-7.5-20.9-15-41.7-21.8-62.8c-10.6-33-19.7-66.4-27.8-100.1c-9.6-40-18-80.3-24.8-120.8c-4.8-28.4-8.3-57.1-11.9-85.7
			c-2-15.8-3.2-31.7-4.6-47.5c-1-11.1-1.9-22.2-3-33.3c-0.1-0.8-1.2-1.5-1.9-2.3c0-59.3,0-118.7,0-178c3-4.8,3.2-10.2,3.5-15.7
			c0.9-15.5,1.3-31.1,2.8-46.6c2.2-21.3,4.8-42.7,8-63.9c4.2-28.2,8.5-56.3,13.8-84.3c5.4-29,11.7-57.8,18.2-86.5
			c4-17.4,9-34.6,13.9-51.8c7.1-24.7,14.3-49.4,22.1-73.9c6.2-19.1,13.2-38,20.3-56.8c8.9-23.2,17.7-46.4,27.6-69.1
			c11.6-26.6,24.1-52.8,36.9-78.8c11.7-23.7,23.8-47.2,36.9-70.1c20.9-36.7,42.6-73,66.4-108c9.4-13.8,18.2-28,28-41.5
			c12.8-17.6,25.8-35.1,39.6-52c24.7-30.2,49.2-60.7,75.3-89.7c36.8-40.7,75.4-79.7,116.9-115.8c20.7-18,40.8-36.7,62.2-53.7
			c24.6-19.6,50-38.1,75.7-56.2c29-20.5,58.3-40.9,88.3-60c33.2-21.1,67.1-41.1,102.5-58.4c30-14.6,59.6-30.1,90-43.9
			c26.9-12.2,54.5-23.1,82.1-33.8c26.3-10.1,52.9-19.9,79.7-28.5c24.5-7.9,49.5-14.3,74.4-21.1c20.2-5.5,40.3-11.1,60.7-15.5
			c27.2-5.9,54.6-11.1,82.1-16.1c23.5-4.3,47-8.8,70.6-11.6c31.9-3.8,64-6,95.9-8.9c1.8-0.2,3.5-1.1,5.3-1.7C1570,2,1638,2,1706,2z"
			/>
		<path fill="#ABABAB" d="M1513.9,3202.1c13.9,0,27.8-0.1,41.7-0.1c44.5-0.1,88.9-0.2,133.4-0.3c2.3,0,4.6,0.2,6.9,0.4
			c0,0.6,0,1.3,0,1.9c-60.7,0-121.3,0-182,0C1514,3203.4,1513.9,3202.7,1513.9,3202.1z"/>
		<path fill="#ACACAC" d="M3202.3,1674.2c-0.1-16.3-0.3-32.5-0.3-48.8c-0.1-34.5-0.2-69.1-0.2-103.6c0-2.6,0.4-5.3,0.6-7.9
			c0.6-0.4,1.1-0.4,1.6,0.2c0,53.3,0,106.7,0,160l-0.8,0.3L3202.3,1674.2z"/>
		<path fill="#A39261" d="M1603.2,3182.1c-421.1,2.2-832.9-167.3-1131.4-477.5C165.6,2386.4,17,2004.3,23.7,1562.3
			C38,1135.7,198.2,772.7,499.4,471.2c320-304.5,700.7-454.5,1142.4-449.1c427.9,14.8,792.3,175,1094.5,477.8
			c304.1,320.7,455.1,702,446.8,1144c-4.8,257-71.6,498.7-196.7,723.5c-139.3,250.2-332.4,448.9-578.6,595.3
			C2164.3,3107.5,1886.4,3183.7,1603.2,3182.1z"/>
		<path fill="#1266AB" d="M1603.3,3101.7c-22,0-44,0.7-66-0.2c-22.2-0.9-44.3-3.3-66.5-5.1c-7.9-0.6-15.9-1.2-23.8-2.1
			c-24.4-2.8-48.9-5.3-73.2-9c-24.6-3.7-49.1-8.2-73.5-13.4c-28.6-6.1-57-13-85.3-20.2c-39.4-9.9-78-22.3-116.2-35.9
			c-49.5-17.7-97.9-38.1-145.4-60.8c-61.7-29.5-120.9-63.4-177.9-101c-39.2-25.8-76.9-53.6-113.4-83.2c-31-25.1-61.5-50.9-89.9-79
			c-15.2-15-30.9-29.3-45.7-44.6c-34.9-36.1-68.7-73.4-99.2-113.3c-23.6-30.9-47.1-62-69-94.2c-19.5-28.6-37.2-58.3-54.6-88.2
			c-16.1-27.6-31.3-55.7-45.6-84.2c-25.8-51.5-48.3-104.5-67.6-158.8c-17.5-49.2-32.8-99.1-44.9-149.9c-10.4-44-19.5-88.2-25.8-133
			c-4.1-28.9-8.7-57.8-10.1-87c-0.9-18.6-2.3-37.1-3.8-55.7c-3.6-44.9-1.9-89.9-1.4-134.8c0.3-23.9,2-47.8,3.9-71.6
			c3.5-44.4,9.6-88.4,17-132.4c14.4-84.5,36.4-166.9,65.1-247.5c15.2-42.6,32.6-84.4,51.6-125.5c24.5-53,52.2-104.1,82.6-153.9
			c31.2-51.2,65.7-100.1,103.1-147c27.4-34.4,55.6-68,86.4-99.4c12.6-12.8,24.7-26.1,37.6-38.7c31.6-31,64.8-60.2,98.8-88.6
			c47.9-39.9,98.4-76.3,151.1-109.4c29.3-18.4,59.4-35.6,89.6-52.5c54.1-30.3,110.7-55.3,168.4-78c40.2-15.8,81.2-29.7,122.8-41.6
			c23.6-6.7,47.3-13.8,71.2-19c35.7-7.8,71.6-14.7,107.5-21.1c25.5-4.5,51.2-7.6,76.8-11.2c7.6-1.1,15.2-1.8,22.8-2.2
			c28.9-1.7,57.7-3.6,86.6-4.7c29.3-1,58.6-1.7,87.8-1.4c20.9,0.2,41.8,2,62.7,3.2c10.3,0.6,20.6,1,30.8,2.1
			c25.4,2.5,50.9,4.8,76.2,8.2c26.3,3.5,52.6,7.5,78.7,12.4c58.9,10.9,116.8,25.7,173.9,43.8c68,21.5,134,47.9,198.3,78.8
			c81.8,39.4,159.2,86.2,232.5,139.6c43.1,31.4,84.5,64.8,123.6,101c30.5,28.3,60.5,57.3,89.1,87.5c43,45.5,82.5,94,119.2,144.8
			c36.6,50.8,70,103.7,100.1,158.6c25.2,45.8,48,92.9,68.1,141.1c19.2,46.1,36.9,92.7,50.3,140.9c9.6,34.6,19.8,69,27.8,103.9
			c7.9,34.3,13.6,69.1,19.7,103.7c5,28.5,8.5,57.1,10.6,86c2.1,28.5,5.3,56.9,5.6,85.5c0.3,29.3,1.5,58.6,1.3,87.8
			c-0.2,22.2-1.9,44.4-3.3,66.6c-1.3,20.9-2.4,41.8-4.5,62.6c-2.1,21.5-4.8,42.9-8.2,64.2c-4.7,29.2-9.8,58.3-15.7,87.2
			c-13.7,67.2-32.6,133-55.7,197.6c-16.7,46.7-35.9,92.4-57.2,137.2c-34.2,72.1-74.1,140.8-119.2,206.5
			c-26.4,38.4-54.9,75.3-84.6,111.2c-34.5,41.6-71.7,80.6-110.3,118.3c-36.7,35.8-75.2,69.7-116,100.8
			c-29.3,22.4-58.8,44.7-89.5,65.1c-32.9,21.9-67,42.3-101.3,62c-28,16.1-56.8,30.8-85.8,45c-47.6,23.2-96.2,44-146.5,60.8
			c-31.5,10.6-63,21.5-95,30.5c-40.3,11.4-80.9,21.5-122.2,28.8c-29.4,5.2-58.9,10.3-88.5,14.2c-28.3,3.7-56.8,5.6-85.2,8.5
			C1677.8,3102.1,1640.6,3102.5,1603.3,3101.7z"/>
		<path d="M1601.7,3002c-10.7,0-21.3,0.2-32,0c-24.3-0.5-48.7-0.4-72.9-2.2c-26.8-2.1-53.5-6-80.1-9.4c-19.1-2.4-38.3-4.7-57.1-8.3
			c-30-5.8-59.9-12.2-89.6-19.2c-23.9-5.6-47.7-12-71.2-19c-21.6-6.4-43-13.9-64.3-21.3c-18.2-6.4-36.3-12.8-54.1-20.2
			c-26-10.9-52-22-77.5-34.2c-25.8-12.3-51.4-25.1-76.3-39.1c-32.6-18.5-65-37.6-96.4-58.1c-27.2-17.8-53.3-37.4-79.2-57
			c-19.9-15-39.3-30.7-58.2-46.9c-17.9-15.3-35.1-31.3-52.3-47.4c-15-14.1-29.8-28.5-44.1-43.3c-14.1-14.6-27.5-29.8-41-44.9
			c-11.5-12.9-23.2-25.6-34.1-39c-14.1-17.3-27.6-35-41.2-52.7c-27.3-35.6-51.9-73.1-75.6-111.2c-11.9-19.1-22.5-39.1-33.2-59
			c-12.7-23.7-25.1-47.6-37.1-71.7c-6.9-13.9-13-28.3-19-42.7c-7.2-17.1-14.2-34.4-20.8-51.8c-7.4-19.6-14.6-39.2-21-59.1
			c-8-24.6-15.9-49.3-22.4-74.3c-7.9-30.5-14.3-61.4-21.2-92.2c-3.1-13.9-6.2-27.9-8.3-42.1c-4.3-29.5-8.3-59.1-11.7-88.8
			c-2-17.8-3.2-35.7-4-53.6c-1.1-25.6-1.8-51.2-2-76.8c-0.2-30-0.3-60,0.6-90c1-33.5,3.8-66.9,9-100.1c3-19.7,4.7-39.6,8.4-59.1
			c6.1-32.3,12.5-64.6,20.2-96.5c7.2-30,15.3-59.8,24.4-89.3c13-42.2,28.5-83.5,45.6-124.3c15.5-36.7,32.6-72.7,51.1-108
			c10.7-20.6,22.5-40.7,34.3-60.7c11-18.6,22-37.1,34.1-55c16.3-24.3,32.9-48.4,50.6-71.6c19.9-26.2,40.5-51.9,62.1-76.7
			c21.3-24.6,44-48,66.6-71.5c15.4-16,31.3-31.6,47.6-46.7c15.6-14.4,31.8-28.2,48.2-41.6c22.2-18,44.5-35.9,67.4-52.9
			c37.9-28.1,77-54.6,118.2-77.8c30.7-17.2,61.4-34.4,92.8-50.4c23.4-11.9,47.7-22,71.7-32.5c17.7-7.7,35.5-15.2,53.5-22
			c17.3-6.6,35-12.4,52.6-18.3c13.5-4.5,27-9.1,40.8-12.9c20.4-5.7,41-11,61.6-16.3c16.4-4.2,32.8-8.4,49.4-11.7
			c23.8-4.7,47.6-9,71.6-12.8c20.7-3.3,41.4-5.8,62.2-8.4c25.4-3.3,50.9-5.8,76.5-6.1c47.3-0.5,94.6-1.6,141.9-1.1
			c24.2,0.2,48.4,3,72.5,5.2c21.8,2,43.7,4.2,65.4,7.4c21.7,3.1,43.3,7,64.7,11.5c32.5,6.8,64.9,14,97.1,21.9
			c20,4.9,39.6,11.2,59.2,17.5c22.8,7.2,45.5,14.7,67.9,22.7c16,5.7,31.6,12.3,47.2,19c25.6,11.1,51.1,22.5,76.5,34.2
			c13.3,6.1,26.1,13.1,39,20c14.7,7.8,29.4,15.5,43.7,23.9c18.9,11.1,37.6,22.6,56.2,34.4c17.7,11.2,35.2,22.6,52.4,34.6
			c15,10.4,29.5,21.6,44,32.7c10.1,7.6,20,15.4,29.8,23.4c17.4,14.4,35.1,28.5,51.7,43.8c26.4,24.3,52.4,49.1,77.8,74.5
			c23.9,24,46.8,49.1,67.8,75.7c22.4,28.4,45.2,56.6,66.4,85.9c20.2,28,39,57,57.3,86.3c14.7,23.7,28.3,48.1,41.2,72.8
			c12.3,23.5,23.5,47.5,34.4,71.6c12.6,28.1,24.9,56.5,36.3,85.1c7.5,18.8,13.1,38.3,19.5,57.5c4.1,12.3,8.4,24.5,12.2,36.8
			c11.4,37.2,20.4,75,28.8,112.9c4.6,20.7,8.9,41.6,11.9,62.6c4.3,29.6,7.8,59.3,10.8,89c2.1,20.1,3.6,40.3,4,60.5
			c1,46.3,2.3,92.6,1.2,138.8c-0.9,39.7-4,79.5-10.6,118.8c-3.4,20.3-4.9,40.9-8.7,61.1c-6.1,32-13,63.8-20.7,95.4
			c-6.9,28.4-14.8,56.5-23.3,84.4c-11.4,37.5-24.9,74.3-39.9,110.5c-7.6,18.3-15.9,36.4-24.1,54.5c-15.9,35-33,69.5-52.8,102.5
			c-17,28.1-33.2,56.8-51.3,84.1c-18.9,28.4-39.4,55.9-60,83.1c-16.5,21.7-33.5,43-51.6,63.3c-22.5,25.4-45.8,50.1-69.8,74.1
			c-23.8,23.6-48.2,46.7-73.6,68.5c-26.5,22.7-54,44.3-81.9,65.1c-23.7,17.6-48.4,33.8-73.1,50.1c-17.7,11.8-35.8,23.1-54.1,33.9
			c-17.7,10.4-35.8,20.3-54.1,29.8c-18,9.4-36.1,18.6-54.6,26.8c-30,13.4-60.3,26.4-90.7,38.9c-35.3,14.6-71.7,26.4-108.3,36.9
			c-34.1,9.8-68.8,17.7-103.4,25.8c-22.3,5.2-44.8,9.8-67.4,13.3c-28.5,4.4-57.3,7.3-86,11c-20.8,2.7-41.7,3.8-62.6,4.3
			c-26.3,0.6-52.6,1.3-78.8,2C1601.7,3002.4,1601.7,3002.2,1601.7,3002z"/>
		<path fill="#A39261" d="M304.3,1602.3c0-24-0.6-48,0.2-72c1.2-35.9,5.6-71.5,10.2-107.1c3.6-27.7,8.7-55.1,13.8-82.5
			c2.7-14.7,6.2-29.3,10-43.7c7.7-29.2,14.9-58.6,24.2-87.4c10.9-33.8,23-67.3,36.1-100.3c10.6-26.8,23.1-52.9,35.6-79
			c15.1-31.5,31.4-62.3,50.1-91.8c15.3-24.1,29.7-48.9,45.9-72.4c17.9-26,37.2-51.1,56.6-76c13.3-17,27.4-33.5,41.9-49.4
			c22.9-25,46.1-49.8,70-73.8c14.7-14.8,30.7-28.3,46.5-42c18.1-15.7,36.1-31.5,54.9-46.2c19.8-15.6,40.3-30.4,61-44.8
			c21.3-14.8,42.7-29.5,65-42.7c28.8-17.2,58.2-33.5,87.9-49.1c23.5-12.3,47.6-23.8,72.1-34.1c29-12.3,58.6-23.3,88.2-34.2
			c35.6-13.1,71.9-24,108.7-32.8c33.6-8,67.4-15.3,101.4-21.4c27.4-5,55.2-8.3,82.9-11.3c21.5-2.4,43.1-4,64.6-4.5
			c43.6-1,87.3-2.2,130.8-1.1c38.5,1,77,4.1,115.1,10.7c29.8,5.2,59.7,9.4,89.5,14.6c13.1,2.3,26,5.4,38.9,8.8
			c24.4,6.3,48.9,12.6,73.1,19.8c21,6.2,41.8,13.2,62.4,20.7c25.9,9.5,51.5,19.6,77.1,29.9c12,4.8,23.8,10.4,35.4,16.2
			c26.1,13.1,52.5,25.9,78.1,40.1c27,15,53.6,30.7,79.7,47.3c21,13.4,41.1,28.2,61.2,42.9c17.2,12.5,34.1,25.4,50.7,38.7
			c12.7,10.2,24.4,21.6,37,32c27.6,23,53.3,48,78,74c21.7,22.9,42.9,46.3,63.1,70.6c21.5,25.8,42.1,52.3,61.8,79.5
			c17,23.4,32.7,47.7,47.9,72.2c15.2,24.6,29.5,49.6,43.2,75.1c11.3,21,21.6,42.6,31.4,64.4c11.5,25.4,22.4,51.1,32.7,77
			c7.6,19.1,13.7,38.8,20.3,58.3c3.7,11,7.3,22.1,10.8,33.2c10.9,35.3,19.9,71,27.3,107.2c5.2,25.4,9.8,50.9,13.3,76.6
			c5.4,39.5,11.1,79,11.5,119c0.4,43,1.9,85.9,1,128.9c-0.9,38.8-4.1,77.7-10.4,116.1c-5,30.1-9.6,60.4-15,90.4
			c-2.8,15.7-7.1,31.1-10.6,46.7c-8.7,38.6-20.3,76.4-33.3,113.7c-9.6,27.6-20.9,54.6-31.7,81.8c-6.2,15.4-12.6,30.7-19.6,45.7
			c-6.7,14.5-13.9,28.7-21.5,42.7c-12.7,23.3-26.1,46.2-39,69.5c-19.5,35.3-42.3,68.4-66,100.8c-24.1,33-49,65.5-77.1,95.3
			c-22.3,23.7-44.4,47.8-67.3,70.9c-15.9,16-32.9,30.8-49.9,45.6c-18.2,16-36.6,32-55.6,46.9c-19.6,15.4-39.8,29.9-60.3,44
			c-21.8,15.1-44,29.9-66.5,43.9c-19.8,12.2-40.3,23.3-60.7,34.5c-13.4,7.4-27,14.4-40.7,21.3c-30.9,15.5-62.4,29.7-94.7,42
			c-22.7,8.6-45.3,17.5-68.3,24.9c-29.1,9.4-58.5,17.9-88,25.8c-40.5,10.8-81.4,19.4-122.9,25.2c-32.2,4.5-64.6,8.5-97,11.7
			c-18.8,1.9-37.8,2.4-56.8,2.5c-39,0.2-78,0.1-116.9-0.6c-35.9-0.6-71.6-5.1-107.1-10.3c-28.6-4.2-57.1-9-85.5-14.1
			c-14-2.5-27.8-6.4-41.8-9.6c-38.6-8.7-76.5-20.1-114-32.7c-27.7-9.4-54.9-20.3-82-31.3c-23.3-9.6-46.4-19.9-69.2-30.8
			c-18.3-8.7-36.2-18.3-53.9-28.1c-19.2-10.6-38.2-21.5-56.9-33.1c-20.3-12.7-40.4-25.7-59.8-39.6c-27-19.3-53.7-39.1-80-59.3
			c-12.9-9.9-24.7-21.2-36.9-32c-9.2-8.1-18.8-15.8-27.5-24.4c-25.3-25.1-50.5-50.2-75.2-75.9c-26.5-27.6-50.7-57.2-73.9-87.6
			c-14.9-19.6-29-39.7-42.9-60c-12.4-18.1-24.5-36.4-36-55.1c-10.9-17.8-21.2-36.1-31.1-54.6c-11.6-21.7-23.2-43.4-33.7-65.7
			c-11.4-24.3-21.9-49.1-31.9-74.1c-8.8-21.9-17-44.1-24.3-66.5c-9.7-30-19.4-60.1-26.9-90.7c-9.1-37.1-17-74.6-23.6-112.2
			c-5.3-30.1-8.4-60.5-11.6-90.9C303.5,1682.8,303.1,1642.6,304.3,1602.3z"/>
		<path fill="#FFFFFF" d="M403.8,1610.3c0-38.2-0.4-67.8,0.2-97.5c0.3-13.9,2.5-27.7,4.2-41.6c2.3-19.1,4.7-38.2,7.6-57.2
			c2.5-16.4,5.5-32.7,8.9-48.9c5-24,10-48,15.9-71.7c4.4-17.7,10.3-35,15.6-52.5c2.2-7.3,4.5-14.6,7-21.8
			c9.9-28.8,20.2-57.5,32.7-85.3c5.4-12,10-24.5,15.8-36.4c10.3-21.2,21.3-42,32.1-63c4.1-8,8.2-16,12.8-23.7
			c11.7-19.7,23.3-39.4,35.6-58.7c13.1-20.3,26.3-40.6,40.7-60.1c21.6-29.2,43.9-58,68.8-84.7c12.6-13.6,25-27.4,37.8-40.8
			c10.5-11,21.4-21.7,32.4-32.2c13.9-13.2,27.9-26.4,42.2-39c12.7-11.2,25.9-21.7,39-32.3c12.6-10.2,25.3-20.3,38.3-29.9
			c14.7-10.8,29.6-21.2,44.8-31.3c14.3-9.6,28.8-19,43.6-27.8c17.9-10.7,36.3-20.7,54.5-30.8c12.8-7,25.6-14.1,38.7-20.5
			c28.3-13.7,56.9-27,86.4-38.2c18.2-7,36.3-14.4,54.8-20.6c19.1-6.5,38.5-12.3,58-17.5c28.2-7.5,56.5-14.9,84.9-21.2
			c23.3-5.2,46.9-9.3,70.5-12.8c27.9-4.1,56-7.2,84.1-10.2c8.6-0.9,17.3-0.2,26-0.2c50,0,100-0.3,150,0.2
			c13.6,0.1,27.1,2.3,40.6,3.9c18.8,2.2,37.6,4.5,56.3,7.3c17.1,2.6,34,5.8,51,9.2c21.4,4.3,42.8,9,64.2,13.8
			c8.4,1.9,16.6,4.7,24.9,7.1c20.7,6.1,41.5,11.8,62,18.5c17,5.5,33.7,11.8,50.3,18.4c20.6,8.3,41.1,16.9,61.3,26.1
			c19.3,8.7,38.5,17.7,57.3,27.5c19.4,10.1,38.5,20.9,57.3,32.1c22.5,13.4,44.8,27.2,66.5,41.8c19,12.7,37.1,26.7,55.5,40.2
			c21.3,15.8,41.1,33.4,61.3,50.7c21.2,18.1,41.2,37.3,60.6,57.2c13.7,14,27.7,27.7,40.8,42.2c13.8,15.2,27,30.9,39.9,46.8
			c11.5,14.1,22.6,28.4,33.3,43.1c13.3,18.2,26.4,36.6,38.8,55.4c11.5,17.4,22.2,35.3,32.8,53.2c6.5,10.8,12.4,22,18.3,33.1
			c9.9,18.8,19.7,37.6,29.3,56.6c5.5,10.9,11.1,21.9,15.7,33.3c10.3,25.5,20.3,51.2,29.9,77c6.7,17.9,13.1,36,18.6,54.3
			c6.6,22.2,12.5,44.6,17.7,67.2c6.8,29.4,12.9,58.9,18.6,88.5c2.7,14.3,4,28.9,5.7,43.3c2.3,18.8,4.5,37.5,6.4,56.4
			c0.9,8.9,1.1,17.8,1.1,26.8c0.1,49.3,0.6,98.7-0.3,148c-0.4,21.1-3.8,42.2-6.1,63.2c-1.7,16.2-3.3,32.3-5.8,48.4
			c-2.1,14.1-5.1,28.1-8.1,42c-4.5,21.4-8.7,42.8-14.2,63.9c-6.1,23.4-13.3,46.5-20.4,69.6c-5.1,16.4-10.4,32.7-16.4,48.7
			c-7.9,21.1-16,42.2-25.1,62.8c-12.3,27.5-24.8,55.1-38.9,81.7c-14.7,27.8-30.6,55-47.2,81.7c-20,32.1-41.5,63.2-65.2,92.7
			c-18.8,23.4-37.6,46.9-57.4,69.4c-16,18.1-33.7,34.8-50.7,52c-10.7,10.9-21.4,21.9-32.5,32.3c-9.9,9.2-20.5,17.7-30.8,26.4
			c-12.9,10.9-25.8,21.9-38.9,32.6c-4.6,3.8-9.6,7-14.3,10.7c-29.7,22.8-60.5,44-92.2,63.8c-34.4,21.4-69.9,40.9-106.1,59
			c-16.6,8.3-33.4,16.3-50.4,23.7c-18.9,8.2-37.9,16.1-57.2,22.9c-25.9,9.2-52.1,17.6-78.3,25.9c-12.9,4.1-26.1,7.6-39.3,11
			c-27,6.8-54.2,12.8-81.5,18.3c-41.1,8.3-82.9,11.5-124.2,17.5c-4.3,0.6-8.6,0.6-13,0.6c-57,0-114,0.3-171-0.2
			c-14.9-0.1-29.7-2.7-44.6-4.4c-19.1-2.2-38.2-4.5-57.2-7.4c-13.8-2.1-27.4-5.2-41.1-7.6c-20.9-3.7-41.6-8.7-62.2-13.7
			c-25.8-6.3-51.3-13.3-76.5-21.6c-18.2-6-36.6-11.6-54.6-18.3c-19.2-7.1-38.2-15.1-57.1-23c-11.3-4.8-22.3-10.1-33.3-15.5
			c-20.5-10.1-41.1-20.1-61.2-31c-18.1-9.8-35.7-20.5-53.2-31.2c-16.7-10.2-33.2-20.6-49.3-31.6c-18.3-12.5-36.4-25.5-54-39
			c-18.4-14.1-36.4-28.7-54-43.8c-20.1-17.2-39.9-34.8-58.2-54c-17-17.7-34.7-34.8-51.3-52.9c-14.5-15.8-28.2-32.5-41.8-49.1
			c-11.3-13.8-22.6-27.8-33-42.2c-13.8-19.1-27.2-38.5-40.2-58.2c-10.6-16-20.6-32.4-30.4-49c-6.7-11.4-12.7-23.3-18.9-34.9
			c-4.9-9.1-9.8-18.1-14.6-27.2c-6.3-12.1-12.8-24-18.5-36.4c-8.3-18-16.3-36.2-23.6-54.7c-9-22.8-17.5-45.8-25.4-69
			c-8.1-23.9-16-47.9-22.2-72.3c-7.6-29.8-15.3-59.7-19.8-90.3c-1.7-11.5-4.4-22.8-6.1-34.3c-2.9-19.7-4.9-39.5-8-59.1
			C401,1687.6,405,1644.6,403.8,1610.3z"/>
		<path fill="#A29161" d="M1597.4,557.4c32.3,0,58-0.4,83.7,0.2c12.6,0.3,25.2,1.9,37.7,3.3c15.8,1.7,31.7,3.6,47.5,5.7
			c7.5,1,15,2.5,22.5,4c9.8,1.9,19.4,4.2,29.2,6.1c24.8,4.7,49,11.4,73.3,18c13.8,3.7,27.3,8,40.7,12.8c14.5,5.3,29.5,9.5,44,14.8
			c15.2,5.6,30.2,11.8,45.2,18c7.6,3.2,15.1,6.9,22.4,10.6c17.5,8.8,34.8,17.8,52.2,26.7c9.4,4.9,18.8,9.8,28.1,14.9
			c6.4,3.5,12.7,7,18.8,11c18.9,12.3,37.7,24.7,56.3,37.3c11.8,8,23.5,16,34.8,24.6c15.2,11.7,30.1,23.9,44.9,36.1
			c10.1,8.4,20,17.1,29.9,25.9c8.6,7.7,17.1,15.5,25.4,23.6c8.5,8.4,16.7,17,24.8,25.7c9.9,10.6,19.5,21.4,29.2,32.1
			c7.5,8.3,15.4,16.3,22.3,25.1c14.4,18.1,28.4,36.5,42.3,55.1c8.3,11.1,16.4,22.5,24,34.1c13.2,20.2,26.7,40.2,37.7,61.8
			c4.8,9.4,10.8,18.2,15.8,27.5s9.6,18.9,14.1,28.4c4.9,10.2,9.6,20.3,14.2,30.6c6,13.6,11.9,27.2,17.6,40.9
			c6.2,15,12.4,30,17.7,45.4c5.4,15.6,9.7,31.5,14.4,47.3c0.2,0.6,0.2,1.4,0.4,1.9c7.9,18.4,10.5,38.3,15.5,57.5
			c4,15,5.9,30.6,9.6,45.7c5.8,23.3,5.5,47.5,10.2,70.9c5.8,28.4,4.1,57,4.3,85.6c0.2,31.3-0.4,62.7,0.2,94
			c0.4,23.1-1.7,45.8-5,68.5c-1.9,13.5-2.8,27.1-4.9,40.6c-1.8,11.8-4.6,23.4-7.1,35.1c-4.6,22-9.3,44.1-14.1,66.1
			c-0.9,4.2-2.7,8.2-3.9,12.3c-5.5,18.4-10.8,36.8-16.5,55.1c-1.7,5.3-4.6,10.3-6.5,15.5c-5.2,14-10.1,28.1-15.1,42.1
			c-0.8,2.2-2.1,4.1-3,6.2c-6,14-11.7,28.1-18,41.9c-4.6,10.2-10,20.1-15.1,30.1c-5.4,10.6-10.6,21.3-16.2,31.8
			c-4.4,8.2-9.2,16.1-13.9,24.1c-5.9,10-11.5,20.1-17.7,29.8c-7.6,12-15.6,23.7-23.7,35.4c-9.7,13.9-19.3,27.8-29.7,41.1
			c-12.4,15.8-25.6,30.9-38.4,46.4c-5,6.1-9.4,12.7-14.7,18.5c-7.5,8.3-15.5,16.2-23.4,24.2c-12.2,12.2-24.3,24.5-36.7,36.3
			c-9.5,9.1-19.5,17.6-29.3,26.3c-8.9,7.9-17.7,15.9-26.9,23.4c-11.5,9.5-23.2,18.7-35,27.8c-7.3,5.7-14.9,11-22.5,16.3
			c-13.1,9-26.3,17.8-39.5,26.5c-7.5,4.9-15,9.9-22.6,14.5c-9.6,5.8-19.3,11.3-29.1,16.9c-8.9,5.1-17.7,10.4-26.8,15.2
			c-10.2,5.4-20.6,10.5-31.1,15.5c-8.7,4.1-17.5,7.9-26.3,11.9c-11.1,5.1-21.9,11.2-33.4,15c-13.9,4.5-26.1,13.1-40.8,15.3
			c-0.3,0-0.7,0.1-1,0.3c-15.5,5.7-31.1,11.4-46.7,16.9c-4.7,1.6-9.6,2.3-14.4,3.6c-20.2,5.4-40.3,11-60.5,16.4
			c-2.9,0.8-5.8,1.6-8.7,2.2c-14.7,2.8-29.3,6-44,8.3c-19.3,3-38.8,5.2-58.1,7.8c-10.5,1.4-21,3-31.6,4.3c-4.9,0.6-9.9,1.1-14.9,1.2
			c-49,0.1-98-0.2-147,0.2c-15.8,0.1-31.1-2.4-46.6-4.2s-31-3.5-46.4-5.8c-11.5-1.7-22.8-4.3-34.2-6.5c-6.9-1.3-13.8-2.3-20.6-3.6
			c-6.5-1.3-13-2.6-19.4-4.2c-8-2-16-4.2-24-6.4c-9.3-2.5-18.5-5.2-27.8-7.6c-12.9-3.2-25.3-8.1-37.9-11.8
			c-19.4-5.7-38.1-13-56.9-20.3c-11.4-4.5-23-8.4-34.3-13.3c-10.6-4.6-20.8-10.1-31.3-15.2c-8-3.9-16.2-7.5-24.1-11.6
			c-16.8-8.7-33.6-17.3-50-26.7c-14-8-27.5-17.1-41.2-25.7c-8.1-5.1-16.5-9.9-24.4-15.3c-12.2-8.5-24.1-17.5-36-26.4
			c-10.1-7.5-20-15.3-29.9-23c-6-4.7-12.2-9.2-17.9-14.2c-15.4-13.3-31-26.5-45.9-40.4c-12.1-11.3-23.3-23.5-34.9-35.3
			c-9-9.2-18.2-18.2-26.9-27.6c-7.8-8.5-15.2-17.4-22.6-26.2c-7.7-9-15.5-17.9-22.7-27.3c-8.2-10.8-15.9-22-23.7-33.1
			c-7.6-10.8-15.5-21.4-22.8-32.5c-14-21.3-28.4-42.3-39.9-65.2c-4.8-9.4-10.7-18.2-15.9-27.4c-3.4-6-6.6-12.2-9.6-18.5
			c-5.2-11-10.3-22.1-15.2-33.3c-3.8-8.4-7.4-17-11-25.5c-4.9-11.5-10.2-22.9-14.7-34.7c-5.8-15.1-11-30.5-16.4-45.8
			c-0.2-0.6-0.2-1.3-0.4-1.9c-5.2-16.4-10.7-32.7-15.5-49.2c-3-10.1-5-20.6-7.3-30.9c-5.1-23-10.6-45.9-15.1-69
			c-2.4-12.3-2.9-25-4.6-37.5c-4.1-29.3-8.6-58.4-7.9-88.2c0.9-41.6,0.5-83.3,0.1-125c-0.1-15.4,2.3-30.4,4.1-45.6
			c2-16.5,3.5-33,5.9-49.4c1.5-10.8,4.1-21.5,6.4-32.2c5.1-24.3,10.2-48.6,15.7-72.8c1.3-5.8,4-11.2,5.8-16.9
			c5.1-16.8,9.5-33.8,15.1-50.4c5.1-15,11.5-29.6,17.1-44.5c6.3-16.7,12.9-33.2,21-49.2c5.4-10.5,9.1-21.9,14.3-32.6
			c4.8-9.8,10.5-19.2,15.8-28.7c4.3-7.8,8.9-15.4,13-23.4c8.9-17.5,19.2-34,30.4-50.1c7.7-11.1,14.2-23,22-34.1
			c8.9-12.8,18.5-25.1,28.1-37.4c8.9-11.5,17.9-22.8,27.1-34c5.4-6.6,11.3-12.9,17-19.3c7.7-8.5,15.3-17.1,23.2-25.5
			c8.1-8.7,16.4-17.2,24.8-25.6c9.6-9.5,19.3-19,29.3-28.1c9.4-8.7,19.3-16.9,28.9-25.3c4.8-4.2,9.3-8.6,14.3-12.4
			c18.6-14.4,36.8-29.2,56-42.9c22.7-16.1,45.8-31.5,69.4-46.4c14.5-9.2,30.1-16.7,45.1-25c9.6-5.3,19-10.8,28.7-16
			c6.7-3.5,13.7-6.7,20.6-9.7c11.5-5.1,23-10.2,34.6-15c11.6-4.9,23.3-9.6,35-14.2c13.2-5.2,26.2-11.3,39.8-15.1
			c10.3-2.9,20-6.9,30.2-9.8c17.5-5,35.3-9,52.9-13.5c2.6-0.7,5.2-1.3,7.6-2.2c14.2-5.2,29.3-5.8,43.7-9.5
			c25.9-6.6,52.5-7.9,78.6-12.4C1520.9,554.7,1562.5,558.8,1597.4,557.4z"/>
	</g>
</g>
<g>
	<g>
		<path fill="#FFFFFF" d="M617.6,2265c-22.1,0-40-17.9-40-40V975c0-22.1,17.9-40,40-40H942c22.1,0,40,17.9,40,40v1250
			c0,22.1-17.9,40-40,40H617.6z"/>
		<path d="M942,975v1250H617.6V975H942 M942,895H617.6c-44.2,0-80,35.8-80,80v1250c0,44.2,35.8,80,80,80H942c44.2,0,80-35.8,80-80
			V975C1022,930.8,986.2,895,942,895L942,895z"/>
	</g>
	<g>
		<path fill="#FFFFFF" d="M2065.3,2265c-22.1,0-40-17.9-40-40v-960h-151.5c-22.1,0-40-17.9-40-40V975c0-22.1,17.9-40,40-40h708.5
			c22.1,0,40,17.9,40,40v250c0,22.1-17.9,40-40,40h-152.7v960c0,22.1-17.9,40-40,40H2065.3z"/>
		<path d="M2582.4,975v250h-192.7v1000h-324.4V1225h-191.5V975H2582.4 M2582.4,895h-708.5c-44.2,0-80,35.8-80,80v250
			c0,44.2,35.8,80,80,80h111.5v920c0,44.2,35.8,80,80,80h324.4c44.2,0,80-35.8,80-80v-920h112.7c44.2,0,80-35.8,80-80V975
			C2662.4,930.8,2626.6,895,2582.4,895L2582.4,895z"/>
	</g>
	<g>
		<path fill="#FFFFFF" d="M1514.4,2265c-17.7,0-33.3-11.6-38.3-28.6l-91.2-305.7V2225c0,22.1-17.9,40-40,40h-272
			c-22.1,0-40-17.9-40-40V975c0-22.1,17.9-40,40-40h272c17.4,0,32.7,11.2,38.1,27.7l103.6,321V975c0-22.1,17.9-40,40-40h272
			c22.1,0,40,17.9,40,40v1250c0,22.1-17.9,40-40,40H1514.4z"/>
		<path d="M1798.5,975v1250h-284.1l-169.5-568.3V2225h-272V975h272l181.7,562.8V975H1798.5 M1798.5,895h-272c-44.2,0-80,35.8-80,80
			v54.6l-25.6-79.2c-10.7-33-41.4-55.4-76.1-55.4h-272c-44.2,0-80,35.8-80,80v1250c0,44.2,35.8,80,80,80h272c44.2,0,80-35.8,80-80
			v-20.2l12.9,43.1c10.1,33.9,41.3,57.1,76.7,57.1h284.1c44.2,0,80-35.8,80-80V975C1878.5,930.8,1842.7,895,1798.5,895L1798.5,895z"
			/>
	</g>
</g>
</svg>
