<?xml version="1.0" encoding="utf-8"?>
<!-- Generator: Adobe Illustrator 18.0.0, SVG Export Plug-In . SVG Version: 6.00 Build 0)  -->
<!DOCTYPE svg PUBLIC "-//W3C//DTD SVG 1.1//EN" "http://www.w3.org/Graphics/SVG/1.1/DTD/svg11.dtd">
<svg version="1.1" id="Livello_1" xmlns="http://www.w3.org/2000/svg" xmlns:xlink="http://www.w3.org/1999/xlink" x="0px" y="0px"
	 viewBox="0 0 3200 3200" enable-background="new 0 0 3200 3200" xml:space="preserve">
<g>
	<g>
		<path d="M1502,2c68,0,136,0,204,0c17.1,2.4,34.4,1.5,51.6,3.1c44.5,4,88.6,10.7,132.6,18.4c69,12.1,136.9,29.1,203.5,50.6
			c53.6,17.3,106.3,37,157.7,60.3c41.9,19,83.6,38.4,123.7,60.8c57,31.9,112.6,66.1,165.6,104.4c41.1,29.7,80.6,61.3,119,94.4
			c30,25.8,58.7,53.2,86.3,81.7c30.3,31.4,60,63.4,87.9,97c31.1,37.4,60.6,76,87.6,116.6c18.5,27.7,38,54.8,55.1,83.4
			c26.1,43.8,50.6,88.4,72.7,134.4c32.8,68.3,61,138.5,83.9,210.6c21.2,66.4,36.8,134.3,49.3,202.8c8.6,47.2,15.5,94.7,19.1,142.5
			c1.4,17.9,1.8,35.9,1.3,53.9c0,51.2,0,102.4,0,153.6c1.1,47.7-3.2,95-9.7,142.3c-7.5,55.1-16.5,110-29.6,164.1
			c-20,83-46.1,164-79.4,242.8c-17.3,40.8-35.2,81.3-55.7,120.6c-29.5,56.4-61.3,111.5-97.4,164c-26,37.9-52.8,75.2-82.3,110.5
			c-54.3,64.9-111.7,126.9-175.4,183c-30.8,27.1-61.7,54.1-94.5,78.4c-34.8,25.7-70.8,49.9-106.7,74.1
			c-45.4,30.6-93.1,56.9-141.6,82.1c-79.5,41.2-162.2,74.4-247.5,101.3c-47.6,15-96.1,26.9-145,37.2
			c-47.9,10.1-96.1,18.9-144.7,24.7c-33.4,4-66.8,6.9-100.5,7.2c-58.5,0-117,0-175.5,0c-39.6-0.8-78.9-4.6-118.3-9.6
			c-52.3-6.6-104.1-15.8-155.4-27.7c-53.8-12.5-107.1-27.1-159.5-45.3c-56.1-19.5-111.3-41.3-164.9-66.7
			c-73.6-34.8-144.3-74.9-211.7-120.6c-44.2-30-86.5-62.2-127.9-95.9c-51.5-42-99.5-87.7-144.9-136c-50.5-53.7-97.5-110.3-139.5-171
			c-26.5-38.4-52.8-76.9-76.2-117.3c-27.7-47.9-53.2-96.9-76.2-147.3c-26.4-58-49.4-117.3-68.9-177.9c-14.2-44.1-25.6-89-35.5-134.2
			c-7.6-34.8-14.9-69.7-20.5-104.9c-8-49.3-13.7-98.9-14.9-148.9c0-1.9,0.5-4.1-1.3-5.6c0-59.3,0-118.7,0-178
			c3.6-15.3,2.1-31,3.1-46.5c2-32,6.8-63.6,10.7-95.3c4.4-35.4,11.5-70.3,18.4-105.3c4.1-21.2,9.8-42.1,15-63.1
			c16.9-67.6,38.6-133.7,64.3-198.5c31.9-80.4,70-157.7,114.9-231.6c25.6-42.1,52.5-83.4,81.8-123.1
			c35.4-48.1,72.9-94.3,113.7-137.9c53.1-56.7,109-110.3,169.7-159.1c54.6-43.9,112.5-83.2,171.3-121c47.9-30.9,98.5-57.3,150-81.6
			c58.1-27.4,117.4-52,178.6-72.2c43.7-14.5,88-26.1,132.5-37.5c56.9-14.7,114.8-23.8,172.7-32.8c28.2-4.4,56.8-6.7,85.5-7.5
			C1490.2,2.8,1496.2,4.1,1502,2z"/>
		<path fill="#ABABAB" d="M1696,3202.1c0,0.6,0,1.3,0,1.9c-60.7,0-121.3,0-182,0c0-0.6-0.1-1.3,0-1.9c13.9,0,27.8-0.1,41.7-0.1
			c44.5-0.1,88.9-0.2,133.4-0.3C1691.4,3201.7,1693.7,3201.9,1696,3202.1z"/>
		<path fill="#ACACAC" d="M3202.4,1513.8c0.6-0.4,1.1-0.4,1.6,0.2c0,53.3,0,106.7,0,160l-0.8,0.3l-0.8-0.1
			c-0.1-16.3-0.3-32.5-0.3-48.8c-0.1-34.5-0.2-69.1-0.2-103.6C3201.8,1519.1,3202.2,1516.5,3202.4,1513.8z"/>
		<path fill="#FEFEFE" d="M102.5,1602.6c0.7-57.1,4.4-113.9,9.9-170.7c13.6-140,49.8-274.1,104.4-403.5
			c45-106.8,100.6-207.9,167.8-302.4c30.5-42.9,63.9-83.6,99.5-122.4c23.2-25.3,46.3-50.7,70.9-74.5c27.4-26.6,56.1-52.1,84.9-77.2
			c75.7-65.9,159-120.7,247.1-168.4c112.3-60.7,230.3-107,353.7-139.5c36.4-9.6,73.4-16.3,110.6-21.9c35.2-5.3,70.4-10.2,105.8-13.7
			c28.7-2.9,57.7-4,86.6-5c30.3-1,60.6-1.8,90.9-1.1c33.9,0.8,67.7,2.7,101.5,5.2c71.1,5.3,141.5,15.9,210.9,32
			c75,17.4,147.9,41.7,218.8,71.5c38.3,16.1,76.5,32.7,113.6,51.4c99,49.9,192.5,108.6,277.1,180.6c26.8,22.8,53.3,46.2,78.9,70.4
			c67.3,63.8,128.7,133.1,183.6,207.9c38.3,52.2,71.9,107.4,102.7,164.2c55.4,102.2,99,209.2,131.1,321
			c13.9,48.4,23.6,97.6,31.5,147.3c8.7,54.7,14.3,109.7,17.1,164.9c2.6,50.6,2.9,101.3,0.7,151.9c-4.3,96.7-15.2,192.7-38.7,286.7
			c-36.7,146.9-95.2,285.1-172.3,415.4c-43.6,73.6-93.1,142.8-149.5,207c-22.4,25.5-45.8,50.1-69.3,74.7
			c-55.5,58.2-116.4,110.3-180.9,158.3c-50.3,37.4-103.5,70.3-158.2,100.7c-95.1,52.9-194.9,94.7-298.7,127.4
			c-58.8,18.5-118.8,32.1-179.7,41.7c-42.4,6.7-85,11.9-127.7,15.5c-56.8,4.7-113.7,5.2-170.6,4c-52.5-1.2-104.8-5.8-157-12.3
			c-125.7-15.5-246.3-49.6-363.1-98c-91.2-37.8-178.3-83.4-261-137.4c-55.6-36.3-107.9-76.8-157.5-120.9
			c-20.6-18.3-41.4-36.6-60.9-56.1c-58.4-58.1-113.4-119.2-162.4-185.5c-43.9-59.3-82.1-122.1-116.7-187.2
			c-58.8-110.8-104-226.8-134.4-348.4c-8.9-35.5-15.3-71.6-20.8-107.8c-6-39.5-10.7-79.2-13.9-119
			C105.3,1687.2,104.4,1644.9,102.5,1602.6z"/>
		<path d="M1378.3,2140.9c0-293.9,0-587.9,0-881.8c0-14.2-2-12.9,12.7-12.9c90.6,0,181.3,0,271.9,0.1c52,0.1,104,0.3,155.9,0.5
			c1.7,0,3.3,0.1,5,0c2.9-0.1,4.3,1.3,4.3,4.2c0,2.7,0.1,5.3,0.1,8c0,589.2,0,1178.5,0,1767.7c0,1,0,2,0,3c-0.2,6.9-0.3,7.2-7.1,8.1
			c-16.8,2.1-33.6,4.5-50.5,6c-25.1,2.4-50.3,4.7-75.5,6.1c-25.2,1.4-50.5,1.7-75.8,2.1c-17,0.3-34,0.5-51-0.1
			c-25.9-0.9-51.8-1.8-77.7-3.9c-34.1-2.7-68.1-6.6-102.2-10c-0.7-0.1-1.3-0.1-2-0.2c-7.9-1.1-8.1-1.3-8.2-9.1c0-2.3,0-4.7,0-7
			C1378.3,2728.1,1378.3,2434.5,1378.3,2140.9z"/>
		<path fill="#B07619" d="M3005.4,1222c-3.9,0-7.2,0-10.5,0c-82.3,0-164.7,0.1-247-0.2c-77-0.2-154-0.9-230.9-1.3
			c-43.3-0.2-86.6-0.3-130-0.6c-4.6,0-9.2-1.1-13.8-1.5c-7-0.6-13.9-1.5-20.9-1.5c-137-0.4-274-0.6-410.9-1
			c-129.6-0.3-259.3-0.7-388.9-1.1c-9,0-18,0.5-27,0.2c-6.9-0.3-13.8-1.5-20.8-2.2c-3.3-0.3-6.6-0.8-9.9-0.8c-113,0-226-0.1-339,0
			c-58,0.1-116,0.5-174,0.8c-71.6,0.4-143.3,0.8-214.9,1.2c-37.3,0.2-74.6,0.7-112,0.7c-17.6,0-35.2-1.4-52.8-1.4
			c-35,0-70,0.4-104.9,0.8c-44.3,0.5-88.6,1.3-132.9,2c-18.3,0.3-36.6,0.4-55,0.7c-30.6,0.5-61.3,1.1-91.9,1.7
			c-4.6,0.1-9.2,0-14.6,0c0.6-3,0.8-5.2,1.4-7.3c8.7-26.6,17.6-53.1,25.9-79.8c2.1-6.6,6-9.5,12.1-11.6
			c32.4-11.1,64.6-22.7,97.1-33.6c94.6-31.8,190.3-60,287.2-83.9c52.3-12.9,105-24.2,157.5-36.1c1.6-0.4,3.4-1.2,4.9-0.9
			c14.7,2.6,28.2-3.5,42.2-5.8c49.2-8.2,98.3-17.3,147.5-25.2c41.4-6.6,82.9-12.4,124.5-17.8c32-4.1,64.1-7.2,96.2-10.4
			c35.7-3.5,71.5-6.8,107.3-9.8c16.6-1.4,33.2-1.9,49.8-2.8c32.2-1.7,64.4-3.5,96.6-5.2c9.6-0.5,19.3-0.5,29-0.8
			c20.6-0.5,41.3-1,61.9-1.3c15.3-0.3,30.6-0.6,46-0.6c22,0,44,0.3,66,0.5c1.7,0,3.5-0.1,4.9,0.4c11.2,4.3,22.9,3.2,34.5,3.6
			c23.9,0.8,47.8,2,71.8,3c9.3,0.4,18.6,0.4,27.9,0.9c40.8,2.4,81.7,4.5,122.5,7.5c39.8,3,79.5,6.4,119.2,10.7
			c41.3,4.4,82.6,9.4,123.7,15.4c57.3,8.3,114.6,16.5,171.5,26.9c65.1,12,129.7,26.4,194.5,39.8c39.3,14.8,80.7,21.7,121.1,32.5
			c107.7,28.7,214.1,61.4,319.4,97.8c6.4,2.2,9.7,5.7,11.7,12c8,25.4,16.4,50.6,24.6,76C3004.1,1215.4,3004.5,1218.4,3005.4,1222z"
			/>
		<path d="M928.3,2885.9c-7.4-3.8-13.6-6.8-19.6-10.1c-50.7-28.1-100.4-57.7-147.7-91.3c-37.5-26.6-73.1-55.6-107.4-86.2
			c-20.6-18.4-41.4-36.6-60.9-56.1c-37.5-37.4-73.8-76-108-116.5c-4.6-5.4-6.5-10.8-6.5-17.9c0.2-416,0.1-832,0.2-1248
			c0-14.2-2.5-12.9,12.5-13c103-0.7,206-1.4,309-1.9c40-0.2,80,0,120,0.1c8.3,0,8.3,0.1,8.4,8.1c0.1,2.7,0,5.3,0,8
			c0,537,0,1074,0,1611C928.3,2876.2,928.3,2880.5,928.3,2885.9z"/>
		<path d="M2278.3,2886.4c0-5.2,0-8.5,0-11.8c0-537.3,0-1074.6,0-1611.8c0-14.3-1.8-12.9,12.7-12.8c80,0.4,160,0.9,239.9,1.3
			c56.7,0.3,113.3,0.4,170,0.7c7.3,0,14.6,0.5,22,0.5c3.7,0,5.7,1.1,5.4,5.1c-0.2,2.3,0,4.7,0,7c0,414.6,0,829.2,0.1,1243.9
			c0,6.7-1.6,11.9-6.1,17c-30.4,35.4-62,69.6-94.7,103c-52.3,53.4-108.8,101.8-168.7,146.4c-46.5,34.7-96,64.7-146.7,92.9
			C2301.7,2873.7,2290.9,2879.5,2278.3,2886.4z"/>
		<path d="M1828.3,514.6c0,111.7,0,223.3,0,335c0,14,0.9,11.6-11.7,11.1c-44.3-1.6-88.6-3.3-132.9-4.7
			c-89.3-2.9-178.6-0.8-267.9,2.4c-10.3,0.4-20.6,1-30.9,1.7c-4.6,0.3-7-1-6.6-6c0.2-2.6,0-5.3,0-8c0-222.3,0-444.6,0-666.9
			c0-11.8,0-11.7,11.6-13c22.4-2.5,44.8-5.4,67.3-7.8c13.2-1.4,26.5-1.9,39.8-2.9c49.8-3.7,99.8-4.1,149.7-3.1
			c30.9,0.6,61.7,3,92.5,5.5c26.8,2.2,53.5,5.5,80.3,8.4c8.9,1,9,1.1,9,10.4C1828.3,289.3,1828.3,401.9,1828.3,514.6z"/>
		<path d="M2278.8,318.5c6.9,3.6,12.8,6.4,18.6,9.6c60.4,33.3,119.3,68.9,174.3,110.6c34.5,26.2,67.6,54,99.6,83.1
			c14.5,13.2,29.3,26.2,43.1,40.2c37.2,37.7,73.8,75.9,107.9,116.6c4.3,5.2,6.3,10.2,6.3,17c-0.2,103-0.1,206-0.1,309
			c0,3.6,0,7.2,0,11.9c-4.4-1.3-7.7-2.4-11.1-3.3c-51.5-13.6-102.9-28.1-154.7-40.4c-59-14.1-118.3-26.5-177.7-39
			c-32.3-6.8-64.8-12.3-97.2-18.3c-9.1-1.7-9.2-1.7-9.2-10.5c0-194,0-387.9,0-581.9C2278.4,322.1,2278.5,321.1,2278.8,318.5z"/>
		<path d="M478.3,1010.6c0-4.3,0-7.5,0-10.8c0-101.3,0.1-202.7-0.1-304c0-6.8,2-11.8,6.4-16.9c29.7-34.7,60.6-68.2,92.6-100.9
			c53.7-54.8,111.6-104.8,173.2-150.4c45.8-33.9,94.4-63.5,144.3-91.1c10.7-5.9,21.4-11.8,33.1-18.2c0.2,3.7,0.6,6.3,0.6,8.8
			c0,190.3,0,380.6,0,571c0,1,0,2,0,3c-0.2,6.7-0.2,6.9-7,8.1c-24.6,4.6-49.2,9.1-73.7,13.6c-60,11.1-119.6,23.9-178.9,38
			c-60,14.3-119.7,29.4-178.8,46.9C486.4,1008.8,482.9,1009.5,478.3,1010.6z"/>
	</g>
</g>
<g>
	<g>
		<path fill="#FFFFFF" d="M496.2,2250.7c-22.1,0-40-17.9-40-40v-217.9c0-11.2,4.7-21.8,12.9-29.4c7.4-6.9,17.1-10.6,27.1-10.6
			c1.1,0,2.1,0,3.2,0.1c22.9,1.8,34.1,2.2,39.5,2.2c13.5,0,23.4-2.6,29.4-7.6c7.2-6,8.7-11.5,9.3-16c1.3-10.2,2.8-34.2,2.8-90.6
			V962.5c0-22.1,17.9-40,40-40h323.9c22.1,0,40,17.9,40,40v834.2c0,127-1.3,206.8-4,243.8c-3.1,43.1-17.5,82.6-42.8,117.4
			c-26,35.8-61.5,60.9-105.5,74.5c-39.9,12.4-96.6,18.4-173.3,18.4L496.2,2250.7L496.2,2250.7z"/>
		<path d="M944.4,962.5v834.2c0,124.9-1.3,205.2-3.9,240.9c-2.6,35.7-14.3,68-35.2,96.8c-20.9,28.8-49.2,48.7-84.9,59.7
			c-35.7,11.1-89.5,16.6-161.5,16.6H496.2v-217.9c19.7,1.6,33.9,2.3,42.7,2.3c23.3,0,41.7-5.7,55.1-17
			c13.5-11.3,21.2-25.2,23.3-41.7c2.1-16.4,3.1-48.3,3.1-95.6V962.5H944.4 M944.4,882.5h-324c-44.2,0-80,35.8-80,80v878.4
			c0,39.8-0.8,62.1-1.5,74.2c-3.8,0-13.7-0.3-36.4-2.1c-2.1-0.2-4.2-0.3-6.3-0.3c-20,0-39.4,7.5-54.3,21.2
			c-16.4,15.1-25.7,36.4-25.7,58.8v217.9c0,44.2,35.8,80,80,80h162.6c80.8,0,141.3-6.6,185.1-20.2c25.8-8,49.4-19.5,70.4-34.2
			c21.3-15,40-33.5,55.6-55c29.7-40.9,46.6-87.3,50.3-138c2.8-38,4.1-118.7,4.1-246.7v-834C1024.4,918.3,988.5,882.5,944.4,882.5
			L944.4,882.5z"/>
	</g>
	<g>
		<path fill="#FFFFFF" d="M2046.5,2250.7c-19.8,0-36.6-14.5-39.6-34L1819.1,968.5c-1.7-11.5,1.6-23.2,9.2-32s18.7-13.9,30.3-13.9
			h342.2c20.3,0,37.4,15.3,39.7,35.5c16.2,142.5,30.6,276.6,43.1,401.7c5.4-58.6,11-114.8,16.6-168.5l21.4-232.4
			c1.9-20.6,19.2-36.3,39.8-36.3h342.2c11.5,0,22.5,5,30.1,13.6c7.6,8.7,11.1,20.2,9.6,31.6L2577.5,2216
			c-2.6,19.9-19.6,34.7-39.7,34.7H2046.5z"/>
		<path d="M2703.8,962.5l-165.9,1248.2h-491.4L1858.7,962.5h342.2c39.1,344.2,67.3,635.2,84.6,873.2
			c16.9-240.7,35.1-454.2,54.6-640.6l21.5-232.6H2703.8 M2703.8,882.5h-342.2c-41.3,0-75.9,31.5-79.7,72.6l-0.6,6.8
			c-0.3-2.8-0.6-5.7-1-8.5c-4.6-40.4-38.8-71-79.5-71h-342.2c-23.3,0-45.4,10.2-60.6,27.8c-15.2,17.7-21.9,41.1-18.5,64.1
			l187.8,1248.2c5.9,39.1,39.5,68.1,79.1,68.1h491.4c40.1,0,74-29.7,79.3-69.5l166-1248.1c3-22.9-3.9-45.9-19.1-63.3
			C2748.8,892.4,2726.8,882.5,2703.8,882.5L2703.8,882.5z"/>
	</g>
	<g>
		<path fill="#FFFFFF" d="M1448.3,2277.5c-79.7,0-151.5-13.6-213.3-40.3c-63.6-27.5-112.3-64.5-144.7-109.9
			c-32.1-45-51.4-93.4-57.3-143.9c-5.4-45.9-8-138.1-8-281.9v-739c0-22.1,17.9-40,40-40h323.9c22.1,0,40,17.9,40,40v937
			c0,59.1,3.8,80.6,5.5,87.4h0.1c1.4,0,2.4-0.1,3.3-0.2c1.7-6.3,6.2-29.7,6.2-103.4V962.5c0-22.1,17.9-40,40-40h323.9
			c22.1,0,40,17.9,40,40v834.6c0,97.6-3.2,164.9-9.8,205.7c-7.2,44.6-28.1,90.2-62.3,135.7c-34.5,45.9-80.4,81.1-136.5,104.6
			C1585,2265.9,1520.7,2277.5,1448.3,2277.5z"/>
		<path d="M1807.8,962.5v834.6c0,94.6-3.1,161.1-9.3,199.4c-6.2,38.3-24.4,77.7-54.8,118c-30.3,40.4-70.3,71-119.9,91.8
			s-108.1,31.2-175.5,31.2c-74.6,0-140.4-12.3-197.5-37s-99.8-56.8-128.1-96.4c-28.3-39.6-45-81.4-50.1-125.3
			c-5.1-44-7.7-136.4-7.7-277.3v-739h323.9v937c0,54.6,3,89.4,9,104.6s18.2,22.8,36.5,22.8c20.9,0,34.4-8.4,40.4-25.1
			s9-56.2,9-118.5V962.5H1807.8 M1807.8,882.5h-323.9c-17.8,0-34.2,5.8-47.5,15.6c-13.3-9.8-29.7-15.6-47.5-15.6H1065
			c-44.2,0-80,35.8-80,80v738.9c0,145.4,2.7,239.1,8.2,286.6c6.7,57.3,28.4,112,64.5,162.6c36.7,51.4,91,92.9,161.4,123.3
			c33.9,14.6,70.6,25.7,109.2,33c37.6,7.1,78,10.6,120,10.6c77.7,0,147.2-12.6,206.4-37.5c62.6-26.3,114.1-65.8,153-117.5
			c38.1-50.7,61.6-102.3,69.8-153.4c6.9-43,10.3-112.4,10.3-212.1V962.5C1887.8,918.3,1852,882.5,1807.8,882.5L1807.8,882.5z"/>
	</g>
</g>
</svg>
