<?xml version="1.0" encoding="utf-8"?>
<!-- Generator: Adobe Illustrator 18.0.0, SVG Export Plug-In . SVG Version: 6.00 Build 0)  -->
<!DOCTYPE svg PUBLIC "-//W3C//DTD SVG 1.1//EN" "http://www.w3.org/Graphics/SVG/1.1/DTD/svg11.dtd">
<svg version="1.1" id="Livello_1" xmlns="http://www.w3.org/2000/svg" xmlns:xlink="http://www.w3.org/1999/xlink" x="0px" y="0px"
	 viewBox="0 0 3200 3200" enable-background="new 0 0 3200 3200" xml:space="preserve">
<g>
	<g>
		<path d="M1706,2c1.3,0.6,2.7,1.7,4,1.8c25.8,2.2,51.7,3.5,77.3,6.7c32.2,4.1,64.3,9.4,96.3,14.8c24.5,4.2,49,8.9,73.2,14.4
			c27.5,6.3,54.8,13.3,81.9,20.9c29,8.2,58,16.8,86.4,26.7c31.6,11,63,23,94,35.8c48.3,19.8,95.8,41.8,141.5,67
			c37,20.4,73.2,42.2,108.9,64.7c25.2,15.8,49,33.8,73.6,50.6c40.9,27.8,78.8,59.4,115.9,92c25.6,22.5,50.1,46.3,74.2,70.4
			c24.4,24.3,48.3,49,71.3,74.6c18.2,20.2,34.7,41.8,52,62.8c36.7,44.7,68.1,93.3,100.5,141c13,19.1,23.8,39.7,35.4,59.8
			c10,17.2,19.9,34.3,29.3,51.8c8.4,15.7,16.6,31.7,24,47.9c13.3,29.1,26.3,58.3,38.8,87.8c14.9,35.1,28.6,70.7,39.7,107.2
			c9.6,31.7,19.8,63.2,28.2,95.2c12.9,48.8,23.1,98.3,31.5,148.1c6.3,36.9,11.2,74,14.1,111.4c1.5,19.5,2.8,39,4.2,58.5
			c1.3,29.5,0.5,59.1,0.5,88.6c0,23.9,0.9,47.8-0.5,71.7c-1.3,22.5-2.2,45.1-4.1,67.5c-1.9,22.7-4.4,45.3-7.5,67.8
			c-4.5,32.2-9.5,64.3-14.8,96.4c-2.5,15.3-6.3,30.4-9.6,45.5c-3.8,17.1-7.3,34.2-11.9,51.1c-8.2,29.9-16.7,59.7-25.7,89.4
			c-13.6,44.9-30.3,88.7-48.5,131.9c-10.8,25.8-22.9,51.1-35.1,76.3c-12.3,25.5-25.1,50.8-38.1,76c-5,9.6-11.4,18.6-16.9,27.9
			c-4.9,8.2-9.3,16.8-14.3,25c-14.1,22.8-28,45.8-42.8,68.1c-12.9,19.5-26.7,38.5-40.5,57.4c-8,10.9-16.8,21.2-25.2,31.7
			c-13.6,17-27.1,34.1-40.8,50.9c-7.3,8.9-14.6,17.8-22.5,26.2c-23.7,25.2-47,50.7-71.6,75c-26.1,25.7-53.1,50.5-80.4,75
			c-53.4,48-112.3,88.6-171.8,128.4c-14.1,9.4-27.9,19.1-42,28.5c-4.9,3.3-10.1,6.2-15.3,9.1c-42.9,24.2-85.8,48.5-130.5,69.4
			c-38.6,18.1-77.4,35.8-117.6,50.1c-27.7,9.8-55.3,19.9-83.2,29.1c-20,6.6-40.4,12.1-60.6,18.1c-51.6,15.2-104.5,24.9-157.1,35.4
			c-24.2,4.8-48.9,7.8-73.5,10.5c-34.7,3.9-69.6,6.8-104.4,10.2c-2.1,1.3-4.5,0.9-6.8,0.9c-56.1,0-112.3,0-168.4,0
			c-2.3,0-4.7,0.4-6.8-0.8c-10.4-1-20.9-2-31.3-2.9c-16.1-1.4-32.3-2.6-48.4-4.2c-15.8-1.5-31.6-3.1-47.4-5.2
			c-14.1-1.9-28.2-4.5-42.2-7c-24.8-4.4-49.7-8.8-74.4-13.7c-15.9-3.2-31.6-7.2-47.4-11.1c-16.4-4-32.8-8-48.9-12.7
			c-28.2-8.2-56.7-15.9-84.4-25.8c-38.9-13.9-77.2-29.5-115.6-44.8c-18.1-7.2-36.2-14.8-53.8-23.4c-26.1-12.8-51.7-26.7-77.6-40
			c-33.9-17.5-66.8-36.9-98.7-57.8c-26.3-17.3-52.2-35.3-78.1-53.3c-55.7-38.8-107.1-82.8-156.9-128.9
			c-32.3-29.9-63.3-61.2-92.4-94.2c-26.7-30.3-52.2-61.8-77.7-93.1c-29.6-36.4-55.3-75.6-81.3-114.5c-17.1-25.6-32.1-52.6-47.5-79.2
			c-12.1-20.9-23.8-42-34.8-63.4c-10.4-20.3-20.1-41-29.5-61.7c-9.3-20.5-18.2-41.2-26.7-62c-7.6-18.7-14.5-37.7-21.4-56.6
			c-7.5-20.9-15-41.7-21.8-62.8c-10.6-33-19.7-66.4-27.8-100.1c-9.6-40-18-80.3-24.8-120.8c-4.8-28.4-8.3-57.1-11.9-85.7
			c-2-15.8-3.2-31.7-4.6-47.5c-1-11.1-1.9-22.2-3-33.3c-0.1-0.8-1.2-1.5-1.9-2.3c0-59.3,0-118.7,0-178c3-4.8,3.2-10.2,3.5-15.7
			c0.9-15.5,1.3-31.1,2.8-46.6c2.2-21.3,4.8-42.7,8-63.9c4.2-28.2,8.5-56.3,13.8-84.3c5.4-29,11.7-57.8,18.2-86.5
			c4-17.4,9-34.6,13.9-51.8c7.1-24.7,14.3-49.4,22.1-73.9c6.2-19.1,13.2-38,20.3-56.8c8.9-23.2,17.7-46.4,27.6-69.1
			c11.6-26.6,24.1-52.8,36.9-78.8c11.7-23.7,23.8-47.2,36.9-70.1c20.9-36.7,42.6-73,66.4-108c9.4-13.8,18.2-28,28-41.5
			c12.8-17.6,25.8-35.1,39.6-52c24.7-30.2,49.2-60.7,75.3-89.7c36.8-40.7,75.4-79.7,116.9-115.8c20.7-18,40.8-36.7,62.2-53.7
			c24.6-19.6,50-38.1,75.7-56.2c29-20.5,58.3-40.9,88.3-60c33.2-21.1,67.1-41.1,102.5-58.4c30-14.6,59.6-30.1,90-43.9
			c26.9-12.2,54.5-23.1,82.1-33.8c26.3-10.1,52.9-19.9,79.7-28.5c24.5-7.9,49.5-14.3,74.4-21.1c20.2-5.5,40.3-11.1,60.7-15.5
			c27.2-5.9,54.6-11.1,82.1-16.1c23.5-4.3,47-8.8,70.6-11.6c31.9-3.8,64-6,95.9-8.9c1.8-0.2,3.5-1.1,5.3-1.7C1570,2,1638,2,1706,2z"
			/>
		<path fill="#ABABAB" d="M1513.9,3202.1c13.9,0,27.8-0.1,41.7-0.1c44.5-0.1,88.9-0.2,133.4-0.3c2.3,0,4.6,0.2,6.9,0.4
			c0,0.6,0,1.3,0,1.9c-60.7,0-121.3,0-182,0C1514,3203.4,1513.9,3202.7,1513.9,3202.1z"/>
		<path fill="#ACACAC" d="M3202.3,1674.2c-0.1-16.3-0.3-32.5-0.3-48.8c-0.1-34.5-0.2-69.1-0.2-103.6c0-2.6,0.4-5.3,0.6-7.9
			c0.6-0.4,1.1-0.4,1.6,0.2c0,53.3,0,106.7,0,160l-0.8,0.3L3202.3,1674.2z"/>
		<path fill="#15366F" d="M24.1,1602.1c0-23-0.4-46,0.2-69c0.4-15.6,2.3-31.1,3.5-46.6c0.7-9.6,1.2-19.2,2.2-28.8
			c2.5-23.4,5.1-46.8,7.8-70.1c4.6-39.5,12-78.6,20.2-117.5c7.3-35.1,16.1-69.8,25.9-104.2c14.3-50.2,31.4-99.4,50.7-147.9
			c11.5-29,24.6-57.5,37.4-85.9c19.1-42.2,41.1-82.8,64.3-122.8c34.4-59.4,72.2-116.5,114.5-170.5c22.8-29,46.7-57.1,70.6-85.2
			c31.7-37.4,66.4-72,102.2-105.4c35.9-33.6,73.3-65.5,112.3-95.6c35.8-27.6,72.4-54.2,110.6-78.4c30.1-19,60.8-37,91.6-54.7
			c21.3-12.3,43.1-23.9,65.2-34.7c52.7-25.5,106.2-49.1,161.4-68.7c57.9-20.6,116.5-38.9,176.4-52.4c33-7.4,66.2-13.4,99.5-19.6
			c20.2-3.7,40.5-6.9,60.9-9.6c15.1-2,30.4-3.1,45.6-4.4c20.8-1.9,41.7-3.8,62.5-5.6c0.7-0.1,1.3-0.1,2-0.1
			c46.6-0.7,93.2-1.8,139.8-1.7c24.2,0.1,48.5,1.9,72.7,3.8c23.8,1.9,47.5,5.1,71.3,7.5c46.9,4.8,93.2,13.1,139.4,22.5
			c38.3,7.9,76.2,17.7,113.7,29c49.6,15,98.9,31.2,146.9,50.9c52,21.4,103,44.8,152.6,71.5c50.5,27.1,99.7,56.2,146.6,89
			c33.2,23.2,65.7,47.6,97.6,72.6c26.4,20.7,51.9,42.6,76.7,65.2c25.1,22.8,49.5,46.5,73.1,71c23.7,24.7,46.3,50.5,68.7,76.4
			c28.2,32.7,54.4,67.2,79.6,102.3c34,47.3,64.9,96.7,93.5,147.4c28.1,49.9,53,101.3,75.5,154c21,49.3,39.2,99.5,55.1,150.6
			c15.3,49.1,28.7,98.7,37.9,149.3c5.8,31.6,11.1,63.3,15.9,95.1c3.4,22.6,5.7,45.4,8,68.1c1.7,17.2,2.9,34.4,4,51.6
			c0.9,13.6,0.8,27.2,2.1,40.8c3.4,34.6,1.3,69.2,1.4,103.8c0.1,18.9-2.2,37.7-3.4,56.6c-0.7,11.3-1.2,22.6-2.2,33.8
			c-1.7,19.1-3.5,38.3-5.9,57.4c-3.1,25.3-6.3,50.7-10.5,75.8c-4.3,25.5-9.7,50.8-14.9,76.1c-13.4,64.4-32.6,127.2-54.6,189.2
			c-14.2,40.1-30,79.6-48,118.2c-9,19.3-17.6,38.8-27.2,57.7c-22.6,44.5-47.2,87.9-73.5,130.3c-29.1,47-61.1,92-94.9,135.6
			c-17.7,22.9-36.8,44.7-55.7,66.6c-13.9,16.1-28.5,31.6-43.1,47.2c-14.1,15-28.2,30.2-43.1,44.5c-28.9,27.5-58.3,54.4-89,80
			c-27.3,22.8-55.4,44.6-84,65.7c-41.3,30.4-84.1,58.5-128.3,84.5c-40.5,23.8-81.8,46-124.2,66.1c-64.1,30.3-129.8,56.4-197.4,77.7
			c-57,17.9-114.5,34-173.4,44.4c-30,5.3-60,10.9-90.2,15.4c-20.3,3-40.9,4.3-61.4,6.6c-30.4,3.3-60.9,5.7-91.5,6.1
			c-35.3,0.4-70.6,1.6-105.9,1.4c-19.9-0.1-39.8-2.2-59.7-3.3c-13.3-0.8-26.6-1.4-39.8-2.4c-9.6-0.7-19.1-2-28.7-3.1
			c-8.2-0.9-16.5-1.8-24.7-2.9c-21-2.8-42.2-5.1-63.1-8.7c-29.7-5.2-59.4-10.8-88.8-17.4c-29.4-6.6-58.7-13.9-87.7-22.2
			c-30.3-8.7-60.5-18.1-90.1-28.7c-33.8-12.1-67.2-25.2-100.3-39.2c-29.7-12.6-59-26.2-87.7-40.8c-45.4-23-89.6-48.2-132.7-75.4
			c-39.6-25.1-78-52-115.3-80.5c-20.3-15.5-39.7-32.2-59.5-48.5c-38.4-31.5-74.2-65.7-109.1-101c-30.9-31.3-59.9-64.2-88.1-97.9
			c-39.5-47.3-76.1-96.7-109.3-148.6c-20.4-31.9-39.4-64.8-58.3-97.7c-12.1-21-23.6-42.5-33.9-64.5c-15.6-33.1-30.3-66.5-44.7-100.1
			c-16.4-38.2-30.3-77.3-42.9-116.9c-16.6-52.2-31.1-104.9-41.3-158.8c-5.3-28-10.8-56-15.4-84.1c-3-18.3-4.7-36.8-6.6-55.3
			c-2.2-21.4-3.8-42.9-6.1-64.4C23.7,1680.5,23.6,1641.3,24.1,1602.1z"/>
		<path fill="#FEFEFE" d="M1070.1,199.5c26.6-9.5,53-19.6,79.8-28.5c43-14.3,86.3-27.2,130.8-36.1c43.7-8.8,87.7-16,132.1-21.3
			c74.9-8.8,150-12.8,225.4-11c67,1.6,133.6,7.4,200,16.8c85,12,167.8,33,248.6,61.6c16.3,5.8,32.6,11.7,48.8,17.6
			c3.2,3.1,3.5,7,3.6,11.1c0.1,4,0.1,8,0.1,12c0,920.5,0,1840.9-0.1,2761.4c0,7.6,1.5,15.4-2.9,22.4
			c-52.7,20.8-106.6,37.7-161.2,52.5c-48.3,13.1-97.5,21.2-146.9,28.4c-61.4,9-123.1,13.8-185,15.3c-52,1.3-103.9,0.1-155.8-3.7
			c-80.8-6-160.9-16.9-239.6-36c-58.2-14.2-115.1-32.8-171.1-54.1c-2.4-0.9-4.7-2.3-7-3.5c-2.3-3.1-2.7-6.7-2.8-10.4
			c-0.1-4-0.1-8-0.1-12c0-920,0-1840.1,0.1-2760.1C1066.8,214.3,1065,206.4,1070.1,199.5z"/>
		<path fill="#86D8F7" d="M2136.3,3005.4c0-4.3-0.1-8.7-0.1-13c0-926.3,0-1852.6,0-2779c0-5-0.4-10-0.6-15
			c39.5,15.1,78.1,32,116.3,50.2c57.5,27.4,112.8,58.6,166.5,92.8c50.1,31.8,97.7,67.1,143.1,105.4c41.3,34.8,81,71.2,118.6,109.9
			c42,43.3,81.3,88.8,118.3,136.5c31.7,40.9,60.3,83.8,87,128c37.7,62.5,71.1,127.2,99.9,194.3c32.6,76.3,60,154.5,79.3,235.2
			c9.1,37.8,15.1,76.3,21.6,114.6c6.1,35.7,10.1,71.7,12.3,107.9c1.3,22.5,3.2,45.1,3.8,67.6c1,32.9,1.9,65.9,1.3,98.8
			c-0.6,30.2-3,60.4-5.1,90.5c-1.6,21.9-3.4,43.7-6.3,65.4c-4.4,32.6-9.2,65.1-14.8,97.5c-15.7,89.2-43.5,174.9-77,258.7
			c-12.9,32.4-27.5,64.2-42.2,95.9c-31.3,67.5-68.7,131.6-109.7,193.5c-36.3,54.8-76.9,106.2-121.1,154.8
			c-24.2,26.6-48.8,52.8-74.3,78.2c-42.2,42.1-87.4,80.9-134.3,117.7c-58.9,46.1-121.8,85.9-187.1,122.2
			C2268.5,2949.3,2203.4,2979.5,2136.3,3005.4z"/>
		<path fill="#86D8F7" d="M1070.1,199.5c0,6.7,0.1,13.3,0.1,20c0,923.3,0,1846.6,0,2769.8c0,5-0.3,10-0.5,15
			c-16.1-6.2-32.6-11.7-48.2-18.9c-39.9-18.4-79.8-36.7-118.9-56.6c-41.8-21.3-82-45.6-121.5-71c-55.6-35.7-107.6-76.1-157.5-119.3
			c-35.3-30.5-69.2-62.4-101.4-96.2c-53.1-55.7-102.9-114.2-147.1-177.3c-31.3-44.8-59.6-91.5-86.1-139.2
			c-30.4-54.8-57-111.4-80.4-169.5c-24.7-61.2-45.6-123.6-62.2-187.5c-11.8-45.4-20.3-91.5-26.4-138c-3.9-29.3-7.1-58.7-10-88.1
			c-1.9-18.8-2.5-37.8-4.1-56.6c-3.6-43.9-2.1-87.9-1.7-131.8c0.3-38.2,3.6-76.3,7.5-114.3c3.6-35.7,8.6-71.2,14.3-106.6
			c8.1-49.6,19.4-98.5,34-146.6c13.3-44,27.9-87.5,45.2-130.1c12.6-31.1,26-62,40.1-92.5c26.5-57.1,57.3-112,90.5-165.5
			c39.9-64.4,85.3-124.7,135.8-181.2c25.9-29,52.6-57.5,80-85.1c43-43.2,89.2-83,137.2-120.5c58.4-45.6,120.7-85.2,185.4-121.3
			c61.1-34.1,124.5-63.4,189.5-89.2C1065.6,200.7,1067.8,200.2,1070.1,199.5z"/>
	</g>
</g>
<g>
	<g>
		<path fill="#FFFFFF" d="M587.4,2265c-22.1,0-40-17.9-40-40V975c0-22.1,17.9-40,40-40h324.4c22.1,0,40,17.9,40,40v960h158.8
			c22.1,0,40,17.9,40,40v250c0,22.1-17.9,40-40,40H587.4z"/>
		<path d="M911.8,975v1000h198.8v250H587.4V975H911.8 M911.8,895H587.4c-44.2,0-80,35.8-80,80v1250c0,44.2,35.8,80,80,80h523.2
			c44.2,0,80-35.8,80-80v-250c0-44.2-35.8-80-80-80H991.8V975C991.8,930.8,956,895,911.8,895L911.8,895z"/>
	</g>
	<g>
		<path fill="#FFFFFF" d="M2015,2265c-22.1,0-40-17.9-40-40v-181.3c0-3.9,0.6-7.9,1.7-11.6l233.1-767h-165.6c-22.1,0-40-17.9-40-40
			V975c0-22.1,17.9-40,40-40h568.3c22.1,0,40,17.9,40,40v250c0,4.1-0.6,8.3-1.9,12.2l-224,697.8h185.9c22.1,0,40,17.9,40,40v250
			c0,22.1-17.9,40-40,40H2015z"/>
		<path d="M2612.6,975v250l-240.7,750h240.7v250H2015v-181.3l248.8-818.7h-219.6V975H2612.6 M2612.6,895h-568.3
			c-44.2,0-80,35.8-80,80v250c0,44.2,35.8,80,80,80h111.6l-217.4,715.4c-2.3,7.5-3.5,15.4-3.5,23.3V2225c0,44.2,35.8,80,80,80h597.6
			c44.2,0,80-35.8,80-80v-250c0-44.2-35.8-80-80-80h-131l207.2-645.6c2.5-7.9,3.8-16.2,3.8-24.4V975
			C2692.6,930.8,2656.8,895,2612.6,895L2612.6,895z"/>
	</g>
	<g>
		<path fill="#FFFFFF" d="M1642.9,2265c-20.9,0-38.3-16.1-39.9-36.9l-14.5-187.5h-42.7l-16,187.8c-1.8,20.7-19.1,36.6-39.9,36.6
			h-335.7c-11.5,0-22.5-5-30.1-13.6c-7.6-8.7-11.1-20.2-9.6-31.6l165.5-1250c2.6-19.9,19.6-34.7,39.7-34.7h468.9
			c19.8,0,36.6,14.5,39.6,34.1l186.3,1250c1.7,11.5-1.7,23.2-9.3,32c-7.6,8.8-18.7,13.9-30.3,13.9L1642.9,2265L1642.9,2265z
			 M1571.4,1738.7c-3.6-34.1-7.2-70.1-10.9-107.9c-4.5,40.2-8.2,76.2-11.2,107.9H1571.4z"/>
		<path d="M1788.6,975l186.3,1250h-332l-17.4-224.4H1509l-19.2,224.4h-335.7l165.5-1250H1788.6 M1505.7,1778.7H1616
			c-15.5-141.3-31.6-316.4-48.4-525.4C1535.2,1493.2,1514.6,1668.3,1505.7,1778.7 M1788.6,895h-468.9c-40.1,0-74,29.7-79.3,69.5
			l-165.5,1250c-3,22.8,3.9,45.9,19.1,63.2s37.1,27.3,60.2,27.3h335.7c35.8,0,66.5-23.6,76.5-56.6c10.1,33,40.7,56.6,76.5,56.6h332
			c23.3,0,45.4-10.1,60.6-27.8c15.2-17.7,22-41,18.5-64l-186.3-1250C1861.9,924,1828.2,895,1788.6,895L1788.6,895z"/>
	</g>
</g>
</svg>
