<?xml version="1.0" encoding="utf-8"?>
<!-- Generator: Adobe Illustrator 18.0.0, SVG Export Plug-In . SVG Version: 6.00 Build 0)  -->
<!DOCTYPE svg PUBLIC "-//W3C//DTD SVG 1.1//EN" "http://www.w3.org/Graphics/SVG/1.1/DTD/svg11.dtd">
<svg version="1.1" id="Livello_1" xmlns="http://www.w3.org/2000/svg" xmlns:xlink="http://www.w3.org/1999/xlink" x="0px" y="0px"
	 viewBox="0 0 3200 3200" enable-background="new 0 0 3200 3200" xml:space="preserve">
<g>
	<g>
		<path d="M2,1694c0-59.3,0-118.7,0-178c3.6-15.3,2.1-31,3.1-46.5c2-32,6.8-63.6,10.7-95.3c4.4-35.4,11.5-70.3,18.4-105.3
			c4.1-21.2,9.8-42.1,15-63.1c16.9-67.6,38.6-133.7,64.3-198.5c31.9-80.4,70-157.7,114.9-231.6c25.6-42.1,52.5-83.4,81.8-123.1
			c35.4-48.1,72.9-94.3,113.7-137.9c53.1-56.7,109-110.3,169.7-159.1c54.6-43.9,112.5-83.2,171.3-121c47.9-30.9,98.5-57.3,150-81.6
			c58.1-27.4,117.4-52,178.6-72.2c43.7-14.5,88-26.1,132.5-37.5c56.9-14.7,114.8-23.8,172.7-32.8c28.2-4.4,56.8-6.7,85.5-7.5
			c5.9-0.2,11.9,1.2,17.7-1c68,0,136,0,204,0c17.1,2.4,34.4,1.5,51.5,3.1c45.5,4.1,90.5,11,135.5,19c68,12,134.9,28.9,200.5,50
			c53.5,17.3,106.2,37,157.6,60.2c41.9,19,83.5,38.3,123.7,60.8c57.3,32,113.1,66.4,166.4,105c41.1,29.7,80.9,61,118.9,94.4
			c44.7,39.3,87.4,80.9,127.2,125.4c25.6,28.6,50.7,57.4,74.5,87.4c37.9,47.8,71.9,98.4,104.7,149.8c41.1,64.4,76,132.2,106.7,202.1
			c15.9,36.3,30.5,73.2,43.8,110.5c32.4,90.6,54.6,183.9,70.5,278.6c9.4,55.8,16.5,112,15.5,168.8c0,51.2,0,102.4,0,153.6
			c1.1,47.7-3.2,95-9.7,142.3c-7.5,55.1-16.5,110-29.6,164.1c-20,83-46.1,164-79.4,242.8c-17.3,40.8-35.2,81.3-55.7,120.6
			c-29.5,56.4-61.3,111.5-97.4,164c-26,37.9-52.8,75.2-82.3,110.5c-54.3,64.9-111.7,126.9-175.4,183c-30.8,27.1-61.7,54.1-94.5,78.4
			c-35,25.9-71.3,50.3-107.5,74.7c-45.1,30.4-92.6,56.5-140.8,81.5c-79.5,41.2-162.2,74.4-247.5,101.3c-47.6,15-96.1,26.9-145,37.2
			c-47.9,10.1-96.1,18.9-144.7,24.7c-33.4,4-66.8,6.9-100.5,7.2c-58.5,0-117,0-175.5,0c-39.6-0.8-78.9-4.6-118.3-9.6
			c-52.3-6.6-104.1-15.8-155.4-27.7c-53.8-12.5-107.1-27.1-159.5-45.3c-56.1-19.5-111.2-41.3-164.9-66.7
			c-73.6-34.8-144.3-74.9-211.7-120.6c-44.2-30-86.5-62.2-127.9-95.9c-51.5-42-99.5-87.7-144.9-136c-50.5-53.7-97.5-110.3-139.5-171
			c-26.5-38.4-52.8-76.9-76.2-117.3c-27.7-47.9-53.2-96.9-76.2-147.3c-26.4-58-49.4-117.3-68.9-177.9c-14.2-44.1-25.6-89-35.5-134.2
			c-7.6-34.8-14.9-69.7-20.5-104.9c-8-49.3-13.7-98.9-14.9-148.9C3.2,1697.7,3.8,1695.5,2,1694z"/>
		<path fill="#ABABAB" d="M1696,3202.1c0,0.6,0,1.3,0,1.9c-60.7,0-121.3,0-182,0c0-0.6-0.1-1.3,0-1.9c13.9,0,27.8-0.1,41.7-0.1
			c44.5-0.1,88.9-0.2,133.4-0.3C1691.4,3201.7,1693.7,3201.9,1696,3202.1z"/>
		<path fill="#ACACAC" d="M3202.4,1513.8c0.6-0.4,1.1-0.4,1.6,0.2c0,53.3,0,106.7,0,160l-0.8,0.3l-0.8-0.1
			c-0.1-16.3-0.3-32.5-0.3-48.8c-0.1-34.5-0.2-69.1-0.2-103.6C3201.8,1519.1,3202.2,1516.5,3202.4,1513.8z"/>
		<path fill="#FB090B" d="M2243.7,245.1c14.8,7.2,28,13.4,40.9,20.1c65.5,33.7,129,71,188.9,113.9c28.1,20.2,54.7,42.5,82.2,63.6
			c6.1,4.7,8.2,10,8.2,17.8c-0.2,321.6-0.2,643.3-0.1,964.9c0,5.3-1.4,12.3,1.4,15.2c2.7,2.8,9.9,1.7,15.1,1.7
			c167,0.1,334,0.1,500.9,0.1c2.7,0,5.3,0.2,8,0c4.9-0.4,7,1.1,7.3,6.5c1.7,30.8,4.5,61.6,5.7,92.5c1.2,32.3,1.9,64.6,1.3,96.8
			c-0.6,30.9-3.2,61.7-5,92.5c-0.5,8.9-1.5,17.9-2.1,26.8c-0.2,3.3-1.3,4.9-4.7,4.8c-3.3-0.1-6.7,0-10,0c-168,0-336,0-503.9,0
			c-15.8,0-13.9-2.4-13.9,13.6c0,321.3,0,642.6,0,963.9c0,2.7-0.2,5.4,0,8c0.5,5-1.2,8.6-5.2,12c-39.1,33.4-79.7,64.6-123.1,92.1
			c-35.1,22.3-70.8,43.7-107,64.3c-26.3,15-53.8,27.9-80.7,41.7c-0.8,0.4-1.9,0.4-4.1,0.9c0-4.3,0-8.1,0-12c0-174.3,0-348.6,0-522.9
			c0-216.3,0-432.6,0-648.9c0-14.3,1.7-12.7-12.9-12.7c-188,0-376,0-563.9-0.1c-15.1,0-13.1,2-13.1-13.3c-0.1-97.7,0-195.3,0-293
			c0-2.3-0.1-4.7,0-7c0.2-6.5,0.3-6.5,6.8-6.7c2.7-0.1,5.3,0,8,0c187.3,0,374.6,0,561.9,0c15.3,0,13.2,1.7,13.2-13.3
			c0-389.3,0-778.6,0-1167.9C2243.7,256.4,2243.7,251.8,2243.7,245.1z"/>
		<path fill="#FB090B" d="M1603.7,1602.7c0,495.3,0,990.5,0,1485.8c0,15.7,2.3,13.8-13.7,13.7c-19,0-38,0.5-56.9-0.8
			c-36.4-2.4-72.8-5.8-109.2-9.1c-44.4-4-88.2-11.8-132-20.2c-8-1.5-8-1.4-8.1-9.4c0-2.3,0-4.7,0-7c0-968.5,0-1937,0-2905.6
			c0-5.2-1-11.8,1.7-15.3c2.3-3,9.2-2.4,14.1-3.4c37.5-7.6,75.2-13.9,113.2-17.7c30.4-3.1,60.8-6,91.3-8c29.8-1.9,59.8-2.4,89.7-3.5
			c1.3,0,2.7,0.1,4,0c4.1-0.3,6.3,1.1,6.1,5.6c-0.2,3,0,6,0,9C1603.7,612.2,1603.7,1107.4,1603.7,1602.7z"/>
		<path fill="#FB090B" d="M963.5,245.5c0,905.3,0,1808.9,0,2713.8c-7.5-3.3-14.5-6.1-21.2-9.4c-56.6-28.4-111.7-59.4-164.8-94
			c-43.6-28.4-85.2-59.5-125.3-92.5c-6.3-5.2-8.7-10.4-8.7-18.5c0.2-439.3,0.2-878.6,0.2-1318c0-322,0-644-0.2-966
			c0-8.9,2.7-14.5,9.5-20.2c65.5-54.6,135.7-102,210.1-143.5c25.3-14.1,51-27.5,76.6-41C947,252.6,954.7,249.5,963.5,245.5z"/>
		<path fill="#FFFFFF" d="M1653.7,2457c0-211,0-421.9,0-632.9c0-12,0-12,12.1-12c172,0,343.9,0,515.9,0c14.1,0,12-1.9,12,12.2
			c0,381.9,0,763.9,0,1145.8c0,1.3-0.2,2.7,0,4c0.8,5.7-1.1,8.9-7,11.1c-19.9,7.4-39.5,15.8-59.4,23.4
			c-58.4,22.4-118,41.5-178.9,55.9c-44.1,10.5-88.8,17.6-133.7,23.6c-50.2,6.7-100.7,10.8-151.3,12.8c-2,0.1-4.1,0.6-6,0.1
			c-1.5-0.4-3.4-1.9-3.7-3.2c-0.6-2.9-0.2-6-0.2-9C1653.7,2878.3,1653.7,2667.7,1653.7,2457z"/>
		<path fill="#FFFFFF" d="M1653.7,103.2c41.2,1,80.7,4,120.2,8c49.7,5.1,99,13.1,148,22.6c39.3,7.6,77.6,18.8,115.7,30.6
			c48.6,15.1,96.3,32.7,143.3,52.1c12.8,5.3,12.8,5.3,12.8,19.2c0,381.2,0,762.5,0,1143.7c0,12.5,0,12.5-12.7,12.5
			c-172,0-343.9,0-515.9,0c-11.4,0-11.4,0-11.4-11.6c0-421.9,0-843.8,0-1265.7C1653.7,111.2,1653.7,107.6,1653.7,103.2z"/>
		<path fill="#FFFFFF" d="M3089.4,1812.1c-10.6,91.4-31.9,179.2-61.6,265c-49.3,142.8-117.1,276.2-204.3,399.6
			c-28.3,40-59.5,77.7-92,114.4c-28.9,32.7-59.3,64-90.6,94.5c-8.3,8.1-16.9,15.9-26.8,25.1c-0.2-5-0.4-8.4-0.4-11.8
			c0-115,0-230,0-345c0-176.6,0-353.3,0-529.9c0-12,0-12,12.1-12c150.6,0,301.3,0,451.9,0C3081.4,1812.1,3085,1812.1,3089.4,1812.1z
			"/>
		<path fill="#FFFFFF" d="M2615.8,494.9c10.4,9.9,20.8,19.7,31.1,29.6c62.1,60.2,119.1,124.8,170.3,194.4
			c39,52.9,73.1,108.9,104.4,166.6c55.4,102.2,99,209.2,131.1,320.9c13.9,48.4,23.8,97.6,31.5,147.3c1.9,12.4,3.7,24.9,5.7,38.3
			c-3.9,0-7.2,0-10.4,0c-152,0-303.9,0-455.9,0c-11.5,0-9.9,1.5-9.9-10.1c0-292.3,0-584.5,0-876.8c0-3.2,0-6.4,0-9.7
			C2614.4,495.3,2615.1,495.1,2615.8,494.9z"/>
		<path fill="#FB090B" d="M323.3,820.9c0,521.4,0,1041.4,0,1563.5c-2.1-2.9-3.3-4.3-4.2-5.8c-23.5-38.4-45-77.8-64.6-118.3
			c-37-76.2-67.9-154.8-92.7-235.8c-18-59-31.6-118.9-40.1-179.9c-4.6-33.2-8.3-66.6-12-99.9c-7.2-63.3-6.7-126.9-5.8-190.5
			c0.5-30.8,3.4-61.7,5.8-92.5c1.5-19.9,3.2-39.8,6.1-59.4c5.9-39.4,11.7-78.9,19.3-118c14.5-74.4,38.5-146,65.6-216.6
			c18.6-48.5,39.4-96.1,63.4-142.2c18-34.5,37.6-68.2,56.5-102.3C321,822.8,321.7,822.4,323.3,820.9z"/>
	</g>
</g>
<g>
	<g>
		<path fill="#FFFFFF" d="M1262.6,2265c-22.1,0-40-17.9-40-40l-0.2-246l-33.6,251.3c-2.7,19.9-19.6,34.7-39.6,34.7H948
			c-19.9,0-36.8-14.6-39.6-34.3l-39.7-275.8l-0.2,270.1c0,22.1-17.9,40-40,40H544.3c-22.1,0-40-17.9-40-40V975c0-22.1,17.9-40,40-40
			h420.4c19.7,0,36.5,14.4,39.5,33.9c11.6,75.3,24.5,165,38.3,266.8l3.6,24.7L1083,970c2.5-20,19.5-35,39.7-35h424.1
			c22.1,0,40,17.9,40,40v1250c0,22.1-17.9,40-40,40H1262.6z"/>
		<path d="M1546.8,975v1250h-284.1l-0.6-843.9L1149.2,2225H948l-118.9-825.6l-0.6,825.6H544.3V975h420.4
			c11.6,75.6,24.4,164.4,38.2,266.3l45.6,317.4l74.1-583.7L1546.8,975 M1546.8,895h-424.1c-39.4,0-72.7,28.6-79,67.2
			c-6.3-38.7-39.7-67.2-79-67.2H544.3c-44.2,0-80,35.8-80,80v1250c0,44.2,35.8,80,80,80h284.1c23.8,0,45.1-10.4,59.8-26.8
			c14.7,16.5,36.2,26.8,59.8,26.8h201.2c22,0,42.1-8.9,56.7-23.6c14.5,14.6,34.5,23.6,56.7,23.6h284.1c44.2,0,80-35.8,80-80V975
			C1626.8,930.8,1590.9,895,1546.8,895L1546.8,895z"/>
	</g>
	<g>
		<path fill="#FFFFFF" d="M2132.5,2265c-22.1,0-40-17.9-40-40V975c0-22.1,17.9-40,40-40h324.4c22.1,0,40,17.9,40,40v960h158.8
			c22.1,0,40,17.9,40,40v250c0,22.1-17.9,40-40,40H2132.5z"/>
		<path d="M2456.9,975v1000h198.8v250h-523.2V975H2456.9 M2456.9,895h-324.4c-44.2,0-80,35.8-80,80v1250c0,44.2,35.8,80,80,80h523.2
			c44.2,0,80-35.8,80-80v-250c0-44.2-35.8-80-80-80h-118.8V975C2536.9,930.8,2501.1,895,2456.9,895L2456.9,895z"/>
	</g>
	<g>
		<path fill="#FFFFFF" d="M1677.2,2265c-22.1,0-40-17.9-40-40V975c0-22.1,17.9-40,40-40h324.4c22.1,0,40,17.9,40,40v1250
			c0,22.1-17.9,40-40,40H1677.2z"/>
		<path d="M2001.6,975v1250h-324.4V975H2001.6 M2001.6,895h-324.4c-44.2,0-80,35.8-80,80v1250c0,44.2,35.8,80,80,80h324.4
			c44.2,0,80-35.8,80-80V975C2081.6,930.8,2045.8,895,2001.6,895L2001.6,895z"/>
	</g>
</g>
</svg>
