<?xml version="1.0" encoding="utf-8"?>
<!-- Generator: Adobe Illustrator 18.0.0, SVG Export Plug-In . SVG Version: 6.00 Build 0)  -->
<!DOCTYPE svg PUBLIC "-//W3C//DTD SVG 1.1//EN" "http://www.w3.org/Graphics/SVG/1.1/DTD/svg11.dtd">
<svg version="1.1" id="Livello_1" xmlns="http://www.w3.org/2000/svg" xmlns:xlink="http://www.w3.org/1999/xlink" x="0px" y="0px"
	 viewBox="0 0 3200 3200" enable-background="new 0 0 3200 3200" xml:space="preserve">
<g>
	<g>
		<path d="M1706,2c1.3,0.6,2.7,1.7,4,1.8c25.8,2.2,51.7,3.5,77.3,6.7c32.2,4.1,64.3,9.4,96.3,14.8c24.5,4.2,49,8.9,73.2,14.4
			c27.5,6.3,54.8,13.3,81.9,20.9c29,8.2,58,16.8,86.4,26.7c31.6,11,63,23,94,35.8c48.3,19.8,95.8,41.8,141.5,67
			c37,20.4,73.2,42.2,108.9,64.7c25.2,15.8,49,33.8,73.6,50.6c40.9,27.8,78.8,59.4,115.9,92c25.6,22.5,50.1,46.3,74.2,70.4
			c24.4,24.3,48.3,49,71.3,74.6c18.2,20.2,34.7,41.8,52,62.8c36.7,44.7,68.1,93.3,100.5,141c13,19.1,23.8,39.7,35.4,59.8
			c10,17.2,19.9,34.3,29.3,51.8c8.4,15.7,16.6,31.7,24,47.9c13.3,29.1,26.3,58.3,38.8,87.8c14.9,35.1,28.6,70.7,39.7,107.2
			c9.6,31.7,19.8,63.2,28.2,95.2c12.9,48.8,23.1,98.3,31.5,148.1c6.3,36.9,11.2,74,14.1,111.4c1.5,19.5,2.8,39,4.2,58.5
			c1.3,29.5,0.5,59.1,0.5,88.6c0,23.9,0.9,47.8-0.5,71.7c-1.3,22.5-2.2,45.1-4.1,67.5c-1.9,22.7-4.4,45.3-7.5,67.8
			c-4.5,32.2-9.5,64.3-14.8,96.4c-2.5,15.3-6.3,30.4-9.6,45.5c-3.8,17.1-7.3,34.2-11.9,51.1c-8.2,29.9-16.7,59.7-25.7,89.4
			c-13.6,44.9-30.3,88.7-48.5,131.9c-10.8,25.8-22.9,51.1-35.1,76.3c-12.3,25.5-25.1,50.8-38.1,76c-5,9.6-11.4,18.6-16.9,27.9
			c-4.9,8.2-9.3,16.8-14.3,25c-14.1,22.8-28.1,45.8-42.8,68.1c-12.9,19.5-26.7,38.5-40.5,57.4c-8,10.9-16.8,21.2-25.2,31.7
			c-13.6,17-27.1,34.1-40.8,50.9c-7.3,8.9-14.6,17.8-22.5,26.2c-23.7,25.2-47,50.7-71.6,75c-26.1,25.7-53.1,50.5-80.4,75
			c-53.4,48-112.3,88.6-171.8,128.4c-14.1,9.4-27.9,19.1-42,28.5c-4.9,3.3-10.1,6.2-15.3,9.1c-42.9,24.2-85.8,48.5-130.5,69.4
			c-38.6,18.1-77.4,35.8-117.6,50.1c-27.7,9.8-55.3,19.9-83.2,29.1c-20,6.6-40.4,12.1-60.6,18.1c-51.6,15.1-104.5,24.9-157.1,35.4
			c-24.2,4.8-48.9,7.8-73.5,10.5c-34.7,3.9-69.6,6.8-104.4,10.2c-2.1,1.3-4.5,0.9-6.8,0.9c-56.1,0-112.3,0-168.4,0
			c-2.3,0-4.7,0.4-6.8-0.8c-10.4-1-20.9-2-31.3-2.9c-16.1-1.4-32.3-2.6-48.4-4.2c-15.8-1.5-31.6-3.1-47.4-5.2
			c-14.1-1.9-28.2-4.5-42.2-7c-24.8-4.4-49.7-8.8-74.4-13.7c-15.9-3.2-31.6-7.2-47.4-11.1c-16.4-4-32.8-8-48.9-12.7
			c-28.2-8.2-56.7-15.9-84.4-25.8c-38.9-13.9-77.2-29.5-115.6-44.8c-18.1-7.2-36.2-14.8-53.8-23.4c-26.1-12.8-51.7-26.7-77.6-40
			c-33.9-17.5-66.8-36.9-98.7-57.8c-26.3-17.3-52.2-35.3-78.1-53.3c-55.7-38.8-107.1-82.8-156.9-128.9
			c-32.3-29.9-63.3-61.2-92.4-94.2c-26.7-30.3-52.2-61.8-77.7-93.1c-29.6-36.4-55.3-75.6-81.3-114.5c-17.1-25.6-32.1-52.6-47.5-79.2
			c-12.1-20.9-23.8-42-34.8-63.4c-10.4-20.3-20.1-41-29.5-61.7c-9.3-20.5-18.2-41.2-26.7-62c-7.6-18.7-14.5-37.7-21.4-56.6
			c-7.5-20.9-15-41.7-21.8-62.8c-10.6-33-19.7-66.4-27.8-100.1c-9.6-40-18-80.3-24.8-120.8c-4.8-28.4-8.3-57.1-11.9-85.7
			c-2-15.8-3.2-31.7-4.6-47.5c-1-11.1-1.9-22.2-3-33.3c-0.1-0.8-1.2-1.5-1.9-2.3c0-59.3,0-118.7,0-178c3-4.8,3.2-10.2,3.5-15.7
			c0.9-15.5,1.3-31.1,2.8-46.6c2.2-21.3,4.8-42.7,8-63.9c4.2-28.2,8.5-56.3,13.8-84.3c5.4-29,11.7-57.8,18.2-86.5
			c4-17.4,9-34.6,13.9-51.8c7.1-24.7,14.3-49.4,22.1-73.9c6.2-19.1,13.2-38,20.3-56.8c8.9-23.2,17.7-46.4,27.6-69.1
			c11.6-26.6,24.1-52.8,36.9-78.8c11.7-23.7,23.8-47.2,36.9-70.1c20.9-36.7,42.6-73,66.4-108c9.4-13.8,18.2-28,28-41.5
			c12.8-17.6,25.8-35.1,39.6-52c24.7-30.2,49.2-60.7,75.3-89.7c36.8-40.7,75.4-79.7,116.9-115.8c20.7-18,40.8-36.7,62.2-53.7
			c24.6-19.6,50-38.1,75.7-56.2c29-20.5,58.3-40.9,88.3-60c33.2-21.1,67.1-41.1,102.5-58.4c30-14.6,59.6-30.1,90-43.9
			c26.9-12.2,54.5-23.1,82.1-33.8c26.3-10.1,52.9-19.9,79.7-28.5c24.5-7.9,49.5-14.3,74.4-21.1c20.2-5.5,40.3-11.1,60.7-15.5
			c27.2-5.9,54.6-11.1,82.1-16.1c23.5-4.3,47-8.8,70.6-11.6c31.9-3.8,64-6,95.9-8.9c1.8-0.2,3.5-1.1,5.3-1.7C1570,2,1638,2,1706,2z"
			/>
		<path fill="#ABABAB" d="M1513.9,3202.1c13.9,0,27.8-0.1,41.7-0.1c44.5-0.1,88.9-0.2,133.4-0.3c2.3,0,4.6,0.2,6.9,0.4
			c0,0.6,0,1.3,0,1.9c-60.7,0-121.3,0-182,0C1514,3203.4,1513.9,3202.7,1513.9,3202.1z"/>
		<path fill="#ACACAC" d="M3202.3,1674.2c-0.1-16.3-0.3-32.5-0.3-48.8c-0.1-34.5-0.2-69.1-0.2-103.6c0-2.6,0.4-5.3,0.6-7.9
			c0.6-0.4,1.1-0.4,1.6,0.2c0,53.3,0,106.7,0,160l-0.8,0.3L3202.3,1674.2z"/>
		<path fill="#2651A4" d="M1603,3182c-420.2,2-831.9-167-1130.1-476.6C166.1,2387,16.9,2004.6,23.8,1562
			C38,1135.5,198.2,772.7,499.3,471.2C819.4,166.1,1200.7,16.3,1643,22c427.7,15,791.9,175.4,1093.8,478.2
			c303.6,320.5,453,701.3,446.9,1142.8c-15.6,426.5-174.1,791.4-477.8,1090.8C2421.3,3014.5,2026.9,3184.1,1603,3182z"/>
		<path fill="#FFFFFF" d="M304.6,1464.3c3.4-216.7,127.3-521.7,374-776.2c265-261.6,583.8-389.9,956.1-386
			c351.5,12.2,651.3,143,899.7,391.8c251.3,263.7,374.2,577.7,369.4,941.8c-12.9,352.2-144.9,652.2-394.9,900.3
			c-263.5,249.2-576.5,371.4-939.2,366c-350.8-12.6-650.7-142.8-897.1-392.5C441.6,2275.9,301.5,1950.4,304.6,1464.3z"/>
		<path fill="#4292D6" d="M354.2,1601.6c0-19-0.7-38,0.2-57c1-21.9,2.9-43.8,5.1-65.6c2.4-23.8,5.1-47.6,8.5-71.3
			c6.8-48.8,17.1-96.9,30.8-144.3c17.7-61.1,39.6-120.7,66.1-178.6c24.7-53.9,53-105.9,84.9-156c20.2-31.8,41.8-62.6,64.9-92.3
			c25.5-32.9,52.9-64.2,81.5-94.5c29.8-31.5,61.3-61.1,94-89.5c64.4-55.8,134.2-103.9,208.9-145c94.6-52.2,194.3-91.7,298.8-118.9
			c39-10.2,78.6-17.1,118.5-22.9c41.2-6,82.5-10.4,124.1-11.8c32.9-1.1,65.9-2.2,98.9-1.3c40.2,1.1,80.3,3.9,120.3,9
			c59.8,7.5,119,18,177.1,34.6c53.8,15.3,106.5,33.9,157.9,56c54.9,23.5,107.7,50.8,158.8,81.7c70.7,42.7,135.9,92.4,196.6,148.3
			c50.3,46.4,96.6,96.4,138.9,150.2c40.9,51.9,76.9,107,108.9,164.8c40.5,73,73.3,149.3,98.9,228.7c17.4,53.9,31.4,108.6,39.5,164.7
			c4.6,31.6,8.7,63.2,12,95c2.3,22.1,3.4,44.4,4.1,66.7c0.9,28.9,2,57.9,1.1,86.9c-1,32.2-3.5,64.4-6.8,96.5
			c-3.2,31.4-7.8,62.7-12.8,93.9c-6.8,42.4-17.2,84-29.5,125.2c-12.7,42.4-27.6,84.1-44.6,125c-22.5,54.2-48.7,106.5-78.3,157.1
			c-28,47.8-59.1,93.4-93.3,136.9c-24.5,31.1-50.8,60.8-77.9,89.7c-35.8,38.2-74.4,73.4-114.6,106.8
			c-56.8,47.1-117.7,88.2-182.2,124.1c-72.3,40.3-147.8,73.3-226.5,99.1c-58.3,19.1-117.6,33.6-178.3,43.1
			c-37.8,5.9-75.8,10.3-113.9,13.1c-49.5,3.7-99.2,3.8-148.8,1.9c-57.2-2.2-114-8.9-170.4-18.9c-101.3-17.9-197.9-50-291.3-92.4
			c-60.5-27.4-118.3-59.8-173.6-96.4c-47.5-31.5-92.8-66.1-134.9-104.5c-22.4-20.4-44.7-41-65.9-62.5
			c-45.8-46.6-87.7-96.5-125.6-149.9c-42.9-60.4-80.1-124.2-111.8-191.1c-26.3-55.4-48.3-112.5-66.5-171
			c-16.3-52.5-28.7-105.9-36.8-160.3c-4.7-31.6-8.4-63.3-10.9-95.1c-2.8-35.8-3.8-71.7-5.6-107.6
			C353,1601.7,353.6,1601.6,354.2,1601.6z"/>
	</g>
</g>
<g>
	<g>
		<path fill="#FFFFFF" d="M861.6,2265c-17.7,0-33.3-11.6-38.3-28.6l-91.2-305.7V2225c0,22.1-17.9,40-40,40h-272
			c-22.1,0-40-17.9-40-40V975c0-22.1,17.9-40,40-40h272c17.4,0,32.7,11.2,38.1,27.7l103.6,321V975c0-22.1,17.9-40,40-40h272
			c22.1,0,40,17.9,40,40v1250c0,22.1-17.9,40-40,40H861.6z"/>
		<path d="M1145.8,975v1250H861.6l-169.5-568.3V2225h-272V975h272l181.7,562.8V975H1145.8 M1145.8,895h-272c-44.2,0-80,35.8-80,80
			v54.6l-25.6-79.2c-10.7-33-41.4-55.4-76.1-55.4h-272c-44.2,0-80,35.8-80,80v1250c0,44.2,35.8,80,80,80h272c44.2,0,80-35.8,80-80
			v-20.2l12.9,43.1c10.1,33.9,41.3,57.1,76.7,57.1h284.1c44.2,0,80-35.8,80-80V975C1225.8,930.8,1190,895,1145.8,895L1145.8,895z"/>
	</g>
	<g>
		<path fill="#FFFFFF" d="M2078.6,2265c-22.1,0-40-17.9-40-40V975c0-22.1,17.9-40,40-40h327.8c93.3,0,163.9,7.3,215.7,22.4
			c54.6,15.9,96.9,40,125.8,71.6c28.6,31.3,48.2,69.5,58.2,113.4c9.3,40.7,13.8,100.2,13.8,182.1v108.8c0,86.3-9.3,148.8-28.4,190.9
			c-20.6,45.6-58.1,80.6-111.4,104.2c-49.1,21.7-112.9,32.7-189.5,32.7H2443V2225c0,22.1-17.9,40-40,40H2078.6z M2443,1466.9
			c9.8-1.5,14.6-4.1,16-5.9c0.3-0.5,8.9-12.9,8.9-66.7v-102.9c0-40.4-6.8-52.7-8-54.6c-1.1-0.7-5.6-3.2-16.8-5.3L2443,1466.9
			L2443,1466.9z"/>
		<path d="M2406.4,975c88.6,0,156.8,7,204.5,20.8c47.7,13.9,83.5,34,107.5,60.2c24,26.3,40.2,58,48.7,95.3s12.8,95.1,12.8,173.3
			v108.8c0,79.8-8.3,137.9-24.8,174.4s-46.9,64.6-91.1,84.1c-44.2,19.6-102,29.3-173.3,29.3H2403V2225h-324.4V975H2406.4
			 M2427.3,1507.9c30.3,0,51.3-7.3,63-22s17.6-45.3,17.6-91.7v-102.9c0-42.8-6.8-70.7-20.4-83.6c-13.6-12.9-41.7-19.3-84.5-19.3
			v318.7C2412.4,1507.7,2420.5,1507.9,2427.3,1507.9 M2406.4,895h-327.8c-44.2,0-80,35.8-80,80v1250c0,44.2,35.8,80,80,80H2403
			c44.2,0,80-35.8,80-80v-423.7h7.6c40,0,77-2.8,110.2-8.5c35.3-6,67.4-15.3,95.5-27.7c30.1-13.3,56.2-30.1,77.8-50.1
			c23-21.3,41.1-46.2,53.8-74.2c11.5-25.4,19.7-55.8,24.9-92.7c4.6-32.7,7-71.2,7-114.7v-108.8c0-84.9-4.8-147.4-14.8-191
			c-11.6-50.8-34.3-95-67.6-131.5c-17.7-19.4-39.5-36.4-64.8-50.6c-23.1-12.9-49.8-23.9-79.3-32.5
			C2577.8,902.9,2503.6,895,2406.4,895L2406.4,895z"/>
	</g>
	<g>
		<path fill="#FFFFFF" d="M1691,2265c-20.9,0-38.3-16.1-39.9-36.9l-14.5-187.5h-42.7l-16,187.8c-1.8,20.7-19.1,36.6-39.9,36.6
			h-335.7c-11.5,0-22.5-5-30.1-13.6c-7.6-8.7-11.1-20.2-9.6-31.6l165.5-1250c2.6-19.9,19.6-34.7,39.7-34.7h468.9
			c19.8,0,36.6,14.5,39.6,34.1l186.3,1250c1.7,11.5-1.7,23.2-9.3,32c-7.6,8.8-18.7,13.9-30.3,13.9L1691,2265L1691,2265z
			 M1619.5,1738.7c-3.6-34.1-7.2-70.1-10.9-107.9c-4.5,40.2-8.2,76.2-11.2,107.9H1619.5z"/>
		<path d="M1836.7,975L2023,2225h-332l-17.4-224.4h-116.5l-19.2,224.4h-335.7l165.5-1250H1836.7 M1553.8,1778.7H1664
			c-15.5-141.3-31.6-316.4-48.4-525.4C1583.3,1493.2,1562.7,1668.3,1553.8,1778.7 M1836.7,895h-468.9c-40.1,0-74,29.7-79.3,69.5
			l-165.5,1250c-3,22.8,3.9,45.9,19.1,63.2s37.1,27.3,60.2,27.3H1538c35.8,0,66.5-23.6,76.5-56.6c10.1,33,40.7,56.6,76.5,56.6h332
			c23.3,0,45.4-10.1,60.6-27.8c15.2-17.6,22-41,18.5-64l-186.3-1250C1910,924,1876.3,895,1836.7,895L1836.7,895z"/>
	</g>
</g>
</svg>
