<?xml version="1.0" encoding="utf-8"?>
<!-- Generator: Adobe Illustrator 18.0.0, SVG Export Plug-In . SVG Version: 6.00 Build 0)  -->
<!DOCTYPE svg PUBLIC "-//W3C//DTD SVG 1.1//EN" "http://www.w3.org/Graphics/SVG/1.1/DTD/svg11.dtd">
<svg version="1.1" id="Livello_1" xmlns="http://www.w3.org/2000/svg" xmlns:xlink="http://www.w3.org/1999/xlink" x="0px" y="0px"
	 viewBox="0 0 3200 3200" enable-background="new 0 0 3200 3200" xml:space="preserve">
<g>
	<g>
		<path d="M1706,2c1.3,0.6,2.7,1.7,4,1.8c25.8,2.2,51.7,3.5,77.3,6.7c32.2,4.1,64.3,9.4,96.3,14.8c24.5,4.2,49,8.9,73.2,14.4
			c27.5,6.3,54.8,13.3,81.9,20.9c29,8.2,58,16.8,86.4,26.7c31.6,11,63,23,94,35.8c48.3,19.8,95.8,41.8,141.5,67
			c37,20.4,73.2,42.2,108.9,64.7c25.2,15.8,49,33.8,73.6,50.6c40.9,27.8,78.8,59.4,115.9,92c25.6,22.5,50.1,46.3,74.2,70.4
			c24.4,24.3,48.3,49,71.3,74.6c18.2,20.2,34.7,41.8,52,62.8c36.7,44.7,68.1,93.3,100.5,141c13,19.1,23.8,39.7,35.4,59.8
			c10,17.2,19.9,34.3,29.3,51.8c8.4,15.7,16.6,31.7,24,47.9c13.3,29.1,26.3,58.3,38.8,87.8c14.9,35.1,28.6,70.7,39.7,107.2
			c9.6,31.7,19.8,63.2,28.2,95.2c12.9,48.8,23.1,98.3,31.5,148.1c6.3,36.9,11.2,74,14.1,111.4c1.5,19.5,2.8,39,4.2,58.5
			c1.3,29.5,0.5,59.1,0.5,88.6c0,23.9,0.9,47.8-0.5,71.7c-1.3,22.5-2.2,45.1-4.1,67.5c-1.9,22.7-4.4,45.3-7.5,67.8
			c-4.5,32.2-9.5,64.3-14.8,96.4c-2.5,15.3-6.3,30.4-9.6,45.5c-3.8,17.1-7.3,34.2-11.9,51.1c-8.2,29.9-16.7,59.7-25.7,89.4
			c-13.6,44.9-30.3,88.7-48.5,131.9c-10.8,25.8-22.9,51.1-35.1,76.3c-12.3,25.5-25.1,50.8-38.1,76c-5,9.6-11.4,18.6-16.9,27.9
			c-4.9,8.2-9.3,16.8-14.3,25c-14.1,22.8-28.1,45.8-42.8,68.1c-12.9,19.5-26.7,38.5-40.5,57.4c-8,10.9-16.8,21.2-25.2,31.7
			c-13.6,17-27.1,34.1-40.8,50.9c-7.3,8.9-14.6,17.8-22.5,26.2c-23.7,25.2-47,50.7-71.6,75c-26.1,25.7-53.1,50.5-80.4,75
			c-53.4,48-112.3,88.6-171.8,128.4c-14.1,9.4-27.9,19.1-42,28.5c-4.9,3.3-10.1,6.2-15.3,9.1c-42.9,24.2-85.8,48.5-130.5,69.4
			c-38.6,18.1-77.4,35.8-117.6,50.1c-27.7,9.8-55.3,19.9-83.2,29.1c-20,6.6-40.3,12.2-60.6,18c-53.6,15.4-108.2,26.1-163,36.1
			c-21.7,4-43.7,6.6-65.6,9.5c-18,2.4-36.1,4.4-54.2,6.2c-17.4,1.7-34.8,2.8-52.2,4.2c-2.1,1.3-4.5,0.9-6.8,0.9
			c-56.1,0-112.3,0-168.4,0c-2.3,0-4.7,0.4-6.8-0.8c-10.4-1-20.9-2-31.3-2.9c-16.1-1.4-32.3-2.6-48.4-4.2
			c-15.8-1.5-31.6-3.1-47.4-5.2c-14.1-1.9-28.2-4.5-42.2-7c-24.8-4.4-49.7-8.8-74.4-13.7c-15.9-3.2-31.6-7.2-47.4-11.1
			c-16.4-4-32.8-8-48.9-12.7c-28.2-8.2-56.7-15.9-84.4-25.8c-38.9-13.9-77.2-29.5-115.6-44.8c-18.1-7.2-36.2-14.8-53.8-23.4
			c-26.1-12.8-51.7-26.7-77.6-40c-33.9-17.5-66.8-36.9-98.7-57.8c-26.3-17.3-52.2-35.3-78.1-53.3c-55.7-38.8-107.1-82.8-156.9-128.9
			c-32.3-29.9-63.3-61.2-92.4-94.2c-26.7-30.3-52.2-61.8-77.7-93.1c-29.6-36.4-55.3-75.6-81.3-114.5c-17.1-25.6-32.1-52.6-47.5-79.2
			c-12.1-20.9-23.8-42-34.8-63.4c-10.4-20.3-20.1-41-29.5-61.7c-9.3-20.5-18.2-41.2-26.7-62c-7.6-18.7-14.5-37.7-21.4-56.6
			c-7.5-20.9-15-41.7-21.8-62.8c-10.6-33-19.7-66.4-27.8-100.1c-9.6-40-18-80.3-24.8-120.8c-4.8-28.4-8.3-57.1-11.9-85.7
			c-2-15.8-3.2-31.7-4.6-47.5c-1-11.1-1.9-22.2-3-33.3c-0.1-0.8-1.2-1.5-1.9-2.3c0-59.3,0-118.7,0-178c3-4.8,3.2-10.2,3.5-15.7
			c0.9-15.5,1.3-31.1,2.8-46.6c2.2-21.3,4.8-42.7,8-63.9c4.2-28.2,8.5-56.3,13.8-84.3c5.4-29,11.7-57.8,18.2-86.5
			c4-17.4,9-34.6,13.9-51.8c7.1-24.7,14.3-49.4,22.1-73.9c6.2-19.1,13.2-38,20.3-56.8c8.9-23.2,17.7-46.4,27.6-69.1
			c11.6-26.6,24.1-52.8,36.9-78.8c11.7-23.7,23.8-47.2,36.9-70.1c20.9-36.7,42.6-73,66.4-108c9.4-13.8,18.2-28,28-41.5
			c12.8-17.6,25.8-35.1,39.6-52c24.7-30.2,49.2-60.7,75.3-89.7c36.8-40.7,75.4-79.7,116.9-115.8c20.7-18,40.8-36.7,62.2-53.7
			c24.6-19.6,50-38.1,75.7-56.2c29-20.5,58.3-40.9,88.3-60c33.2-21.1,67.1-41.1,102.5-58.4c30-14.6,59.6-30.1,90-43.9
			c26.9-12.2,54.5-23.1,82.1-33.8c26.3-10.1,52.9-19.9,79.7-28.5c24.5-7.9,49.5-14.3,74.4-21.1c20.2-5.5,40.3-11.1,60.7-15.5
			c27.2-5.9,54.6-11.1,82.1-16.1c23.5-4.3,47-8.8,70.6-11.6c31.9-3.8,64-6,95.9-8.9c1.8-0.2,3.5-1.1,5.3-1.7C1570,2,1638,2,1706,2z"
			/>
		<path fill="#ABABAB" d="M1514,3202.1c13.9,0,27.8-0.1,41.7-0.1c44.5-0.1,88.9-0.2,133.4-0.3c2.3,0,4.6,0.2,6.9,0.4
			c0,0.6,0,1.3,0,1.9c-60.7,0-121.3,0-182,0C1514,3203.4,1513.9,3202.7,1514,3202.1z"/>
		<path fill="#ACACAC" d="M3202.3,1674.2c-0.1-16.3-0.3-32.5-0.3-48.8c-0.1-34.5-0.2-69.1-0.2-103.6c0-2.6,0.4-5.3,0.6-7.9
			c0.6-0.4,1.1-0.4,1.6,0.2c0,53.3,0,106.7,0,160l-0.8,0.3L3202.3,1674.2z"/>
		<path fill="#FFFFFF" d="M1603.6,3151.3c-23.3,0-46.7,0.9-69.9-0.2c-29.8-1.4-59.6-4.3-89.4-6.8c-39.8-3.3-79.2-9.3-118.5-16.1
			c-41.3-7.2-82.2-16.1-122.7-27.1c-72.9-19.9-144.1-44.8-213.4-74.8c-81.4-35.2-159.1-77.1-233.5-125.3
			c-59.4-38.5-115.4-81.3-168.8-127.6c-35.3-30.5-69.2-62.5-101.4-96.3c-62.2-65.2-119.2-134.6-169.3-209.4
			c-28.5-42.6-54.8-86.6-79.1-131.8c-34.7-64.2-64.5-130.6-89.9-199c-29.4-79.4-52.9-160.4-67.9-243.8
			c-7.6-42.5-14.4-85.1-18.1-128.2c-2.3-26.5-3.9-53-6-79.4c-3.6-44.2-2.5-88.6-1.6-132.8c1.2-59.8,6.9-119.2,15.5-178.5
			c10-69.6,24.3-138.2,44.3-205.5c20.8-69.9,46.2-138,76.2-204.5c34.7-76.9,75.7-150.3,122-220.8c35.2-53.5,74.3-104.1,116-152.6
			c30.9-35.8,63.1-70.4,97.3-103.1c65.8-62.9,135.7-120.9,211.4-171.6c49.8-33.3,101.3-63.8,154.5-91.4
			c66.5-34.5,135.2-64,205.9-88.7c53.4-18.7,107.5-35,162.8-46.9c34.4-7.4,69.2-13.6,104-19c30.8-4.9,61.9-8.8,92.9-11.7
			c28.8-2.7,57.7-3.9,86.6-5c23.9-1,47.9-1.1,71.9-1.3c41.6-0.3,83.1,2.2,124.5,5.6c57,4.7,113.6,12.9,169.8,23.7
			c67.4,12.9,133.2,31.7,198.1,54.1c57.9,20,114.3,43.5,169.4,70.1c115.7,55.8,223,124.4,321.2,207.4
			c41.5,35.1,81.5,71.6,119.2,110.7c40.7,42.2,79,86.4,114.9,132.8c33.6,43.5,65.2,88.5,93.3,135.8c18.5,31.2,36.2,62.9,53.5,94.7
			c25,45.9,46.1,93.7,65.5,142.2c35.3,88.2,63.1,178.7,80.8,272.2c8,42.1,14.7,84.4,18.7,127.1c2.3,24.4,4.2,48.9,6,73.4
			c1,12.9,1.7,25.9,2,38.8c0.6,29.9,1.5,59.9,1.2,89.9c-0.2,23.9-1.8,47.8-3.2,71.7c-1.1,19.6-2.2,39.1-4.3,58.6
			c-3,28.1-6.3,56.1-10.5,84c-6.4,43.1-14.6,85.9-25.2,128.2c-15.5,62-34.9,122.9-57.9,182.5c-19.5,50.6-41.3,100.2-66,148.5
			c-43.6,85.2-93.8,166.4-152.6,242.1c-33.3,42.9-68.5,84.1-105.9,123.5c-75.6,79.8-158.7,150.8-249.4,213
			c-51.9,35.6-106.1,67.5-161.9,96.5c-76.8,40-156.4,73.3-238.8,100c-51.9,16.9-104.4,31.5-158,42c-51.2,10-102.7,18.7-154.8,23
			c-26.5,2.2-53,4.4-79.5,5.9c-27.2,1.5-54.5,2-81.8,2.9C1603.7,3152.4,1603.7,3151.8,1603.6,3151.3z"/>
		<path fill="#F7B7D3" d="M1603.9,3102c-18,0-36,0.3-54-0.1c-18.3-0.4-36.6-0.6-54.8-2.3c-29.7-2.7-59.3-6.5-89-9.7
			c-31.6-3.4-62.9-8.9-94-15.6c-14.9-3.2-30-5.3-44.9-8.7c-16.5-3.7-32.8-8.1-49-12.6c-17.9-4.8-35.7-9.9-53.5-15.1
			c-7.9-2.3-15.8-5-23.6-7.6c-17-5.6-34-11-50.9-16.9c-10.7-3.7-21-8.4-31.6-12.3c-32.1-11.9-63.4-25.7-94.2-40.5
			c-32.3-15.4-64.9-30.6-95.3-49.9c-11.1-7.1-23.4-12.4-34.7-19.2c-13.7-8.1-27.1-16.7-40.6-25.3c-8.7-5.5-17.2-11.3-25.7-17.2
			c-24-16.7-48.2-33-71.6-50.5c-19.3-14.4-37.5-30.4-56.3-45.6c-20.2-16.3-39.6-33.4-58-51.7c-27.4-27.2-56.1-53.2-82.4-81.4
			c-25.5-27.4-48.8-56.9-72.7-85.8c-12.2-14.8-23.8-30.1-35.3-45.6c-7-9.5-13.1-19.7-19.8-29.4c-7-10.1-14.8-19.6-21.5-29.9
			c-9.4-14.4-18-29.3-27.1-43.9c-6.7-10.7-13.9-21-20.3-31.8c-7.3-12.3-14.1-24.8-20.7-37.4c-9.4-17.9-18.7-36-27.5-54.2
			c-6.2-12.7-11.6-25.8-17.4-38.6c-1.6-3.6-3.9-6.9-5.5-10.6c-4.8-10.9-9.4-21.9-14-32.9c-7.8-18.9-15.9-37.8-23.3-56.9
			c-5.9-15.4-11.3-31.1-16.3-46.9c-6.4-20.1-12-40.6-18.4-60.7c-10-31.3-16.7-63.4-23.9-95.3c-4.8-21.3-8.5-42.8-12.2-64.3
			c-3.6-20.8-6.8-41.7-9.6-62.7c-1.9-14.4-2.9-29-4.4-43.4c-1.1-10.2-2.5-20.3-3.7-30.5c-0.1-0.7-0.1-1.3-0.2-2
			c-0.7-14.9-1.9-29.8-2-44.7c-0.2-49.7-0.3-99.3,0.1-149c0.1-14.8,2.3-29.7,3.6-44.5c0.7-8.9,1.3-17.8,2.2-26.7
			c1.5-14.1,3.2-28.3,4.9-42.4c1-8.5,1.9-17.1,3.1-25.6c2-13.7,4-27.5,6.5-41.1c2.9-16.6,6-33.2,9.5-49.6
			c3.4-16.2,7.3-32.3,11.3-48.3c6.1-24.4,12.4-48.7,19-73c2.9-10.5,6.6-20.8,10.2-31.2c4.9-14.4,10-28.7,15.2-43.1
			c4.8-13.4,9.5-26.8,14.6-40c7-18.2,14.3-36.4,21.7-54.5c1.6-4,3.9-7.7,5.7-11.6c6.3-13.1,12.9-26,18.6-39.3
			c8.8-20.4,19.1-40.1,30-59.5c5.7-10.1,11.4-20.2,17-30.3c3.9-6.9,7.6-13.9,11.6-20.8c6.2-10.6,12.3-21.1,18.8-31.5
			c10.6-16.9,21.2-33.7,32.2-50.2c8.1-12,17-23.5,25.5-35.3c7.5-10.4,14.7-21.1,22.6-31.3c14.7-18.8,29.6-37.4,44.8-55.8
			c17.7-21.6,36.2-42.5,55.9-62.3c21.9-21.9,42.5-45.1,65.1-66.2c19.8-18.6,39.2-37.7,61.1-54.1c15.1-11.3,28.7-24.7,43.4-36.6
			c12.1-9.7,24.9-18.6,37.5-27.6c15.4-11,30.5-22.3,46.4-32.6c31.4-20.4,62.8-41,95.1-60c27.5-16.1,56.1-30.4,84.6-44.7
			c21.9-11,44.2-21.4,66.8-31.1c22.2-9.6,44.9-18.1,67.5-26.8c15.8-6,31.7-11.9,47.8-17.1c23-7.4,46.2-14.2,69.4-21.1
			c11.1-3.3,22.1-7.1,33.5-9.3c29.2-5.9,57.5-15.8,87.3-19.1c10.1-1.1,20-4.9,30.1-6.5c17.6-2.8,35.4-4.9,53.1-7.3
			c11.5-1.6,23-3.3,34.5-4.8c8.9-1.2,17.8-2.2,26.7-3.1c12.9-1.3,25.7-2.7,38.6-3.7c13.2-1,26.5-2.1,39.8-2.2
			c44.3-0.3,88.7-0.4,133,0.1c15.9,0.2,31.7,2.3,47.6,3.6c9.6,0.8,19.2,1.3,28.8,2.3c15.8,1.7,31.6,3.6,47.4,5.5
			c11.2,1.3,22.4,2.5,33.5,4.3c19.6,3.2,39.2,6.5,58.6,10.3c22.8,4.4,45.5,8.8,68.1,14.1c21.2,5,42,12,63.3,16.8
			c16.9,3.8,32.9,10,49.3,15.3c16.3,5.3,32.3,11.7,48.7,16.8c27,8.3,52.7,19.7,78.9,30.2c16.9,6.8,33.4,14.8,49.9,22.7
			c15.9,7.6,31.7,15.3,47.2,23.7c24,12.9,47.9,26,71.5,39.6c19.6,11.2,38.8,23,57.9,35.1c12.8,8.2,24.9,17.5,37.4,26.1
			c13.3,9.3,27.1,17.9,40,27.7c21.6,16.5,43,33.4,63.9,50.7c16.4,13.5,32.1,27.8,48,41.9c9.9,8.8,19.5,18,29.2,27.1
			c11.1,10.4,22.5,20.6,33.1,31.5c13.9,14.3,27.1,29.3,40.5,43.9c7.4,8.1,15,16,22.2,24.3c9.2,10.5,18.1,21.2,27.1,31.9
			c4.7,5.6,9.2,11.3,13.7,17c8.9,11.2,18.1,22,26.4,33.6c17.8,24.8,35.3,49.8,52.6,74.9c9.3,13.6,18,27.6,26.8,41.6
			c7.4,11.8,14.7,23.6,21.6,35.6c7.8,13.4,15.2,27,22.6,40.7c8.9,16.6,17.9,33.2,26.4,50.1c5.7,11.2,10.8,22.6,16.1,34
			c4.2,9,8.7,17.8,12.5,27c6.6,15.9,12.9,31.9,19.2,47.9c1.1,2.8,1.6,5.8,2.7,8.5c5.6,14.2,11.8,28.2,16.7,42.6
			c8.2,23.8,15.9,47.8,23.3,71.8c5.6,18.3,10.8,36.9,15.5,55.5c5.5,21.5,10.7,43,15.2,64.7c4.2,20.4,7.6,40.9,10.8,61.5
			c3.5,22.2,6.9,44.4,9.7,66.6c1.9,15.1,2.6,30.3,4.4,45.5c2.2,18.5,2.6,37.1,4.3,55.5c2,21,1,41.9,1.4,62.8
			c0.4,24.3,0.6,48.7-0.1,73c-0.5,18.5-2.4,37-3.6,55.5c-0.7,10.6-1.3,21.2-2.2,31.7c-0.8,9.2-2.1,18.4-3.2,27.6
			c-1.6,13.8-3.1,27.6-4.8,41.4c-1.3,10.5-2.9,20.9-4.7,31.4c-3.7,21.1-7.2,42.3-11.5,63.4c-3.4,16.5-7.9,32.8-11.7,49.3
			c-8.2,35.5-17.9,70.6-29.6,105.2c-5.8,17.2-12,34.4-18.3,51.5c-7.8,21.1-15.4,42.3-24,63.1c-8.9,21.7-18.1,43.2-28.3,64.3
			c-11.4,23.5-21.9,47.4-35.5,69.8c-9.6,15.8-17.5,32.5-26.7,48.5c-8.8,15.2-17.8,30.3-27.4,45c-13.7,21.1-27.6,42-42.2,62.5
			c-13.2,18.6-27.4,36.6-41.3,54.7c-10.1,13.2-20.3,26.2-30.6,39.2c-4.9,6.2-9.9,12.5-15.2,18.4c-16.3,18.4-32.5,36.8-49.2,54.9
			c-9.9,10.8-20.4,21-30.9,31.3c-14.8,14.4-29.5,28.9-44.8,42.7c-17,15.3-34.5,30.1-52.2,44.6c-23.6,19.3-47.4,38.4-71.6,57.1
			c-11.5,8.9-24,16.4-36,24.7c-7.4,5.1-14.4,10.7-21.8,15.6c-16.1,10.6-32.1,21.3-48.6,31.1c-24.8,14.7-50,28.8-75.2,42.9
			c-13.6,7.7-27.2,15.4-41.2,22.3c-16.1,8-32.5,15.3-48.9,22.5c-19.7,8.8-39.4,17.8-59.4,25.7c-27.5,10.8-55.3,20.9-83.2,30.8
			c-16.5,5.9-33.4,11-50.2,16c-18.1,5.3-36.3,10.3-54.5,14.9c-19.9,5-39.9,9.8-60,14c-16.5,3.5-33.2,5.9-49.9,8.9
			c-8.1,1.5-16.2,3.3-24.4,4.5c-13.7,2-27.5,3.7-41.3,5.5c-14.1,1.8-28.3,3.5-42.4,5.3c-6.9,0.9-13.8,2.1-20.7,2.5
			c-13.6,1-27.2,1.7-40.8,2.2c-30.6,1.1-61.2,2-91.8,3C1603.9,3102.6,1603.9,3102.3,1603.9,3102z"/>
		<path fill="#FFFFFF" d="M154,1601.6c0-19.7,0.1-39.3,0-59c-0.1-20.9,1.4-41.7,3.8-62.5c1.2-10.2,1.3-20.5,2.3-30.7
			c1.3-12.8,3-25.6,4.6-38.4c1.7-13.4,3.3-26.9,5.3-40.3c1.8-12.1,3.7-24.2,6.3-36.2c6.9-32.3,13.8-64.7,21.6-96.9
			c5.1-20.9,11.4-41.6,18-62.1c8.9-27.8,18.3-55.4,28.3-82.8c6.7-18.4,15.6-36,22.2-54.4c6.4-17.7,14.7-34.6,22.5-51.7
			c10.6-23.1,23-45.5,34.8-68.1c7-13.5,14.1-27.1,21.5-40.4c5.6-10.2,11.5-20.2,17.8-29.9c21.4-32.4,42.5-65,64.8-96.8
			c14.8-21.2,31.3-41.2,47.2-61.6c16.4-21,33.4-41.3,52.1-60.3c22.3-22.8,43.4-46.9,66-69.3c16.9-16.8,35.5-32,53.3-47.9
			c7.2-6.4,14.1-13.1,21.5-19.3c15-12.6,29.7-25.5,45.5-37.2c29.6-21.9,59.6-43.3,89.8-64.4c16.9-11.8,34.2-22.9,51.9-33.4
			c20.2-12,41-23.1,61.7-34.4c12.8-7,25.7-14.1,38.8-20.5c25.7-12.4,51.1-25.4,77.4-36.3c38-15.6,76.6-30,115.3-43.9
			c19.3-6.9,39.5-11.1,58.9-17.5c28.1-9.2,56.9-15.3,85.6-22.1c19.6-4.7,39.6-7.8,59.4-11.5c9.1-1.7,18.3-3.1,27.5-4.4
			c9.5-1.4,19-2.5,28.5-3.7c14.4-1.9,28.9-3.8,43.4-5.5c7.9-1,15.8-1.9,23.8-2.4c13.3-0.9,26.5-1.2,39.8-2.2
			c51.6-4,103.2-1.1,154.8-1.6c15.5-0.1,31.1,2.2,46.6,3.5c9.9,0.8,19.9,1.3,29.8,2.4c14.8,1.6,29.6,3.5,44.4,5.2
			c8.6,1,17.2,1.6,25.7,2.8c12.1,1.7,24.2,3.7,36.2,6c24.4,4.5,49,8.4,73.1,14.2c33.5,8,66.9,16.7,99.9,26.4
			c21.9,6.4,43.2,14.9,64.8,22.7c18.7,6.7,37.5,13.3,56,20.7c18.2,7.3,36,15.5,53.9,23.4c13.4,5.9,26.8,11.6,39.9,18.1
			c15.2,7.5,30.1,15.5,45.1,23.6c10.5,5.6,20.9,11.5,31.2,17.4c15.5,9,31.1,17.9,46.4,27.2c17.5,10.8,35.1,21.5,52,33.2
			c29.2,20.1,58.6,40.2,85.9,63c16.3,13.6,33.1,26.6,49.5,40c6.7,5.5,13.2,11.2,19.3,17.2c32.9,32.1,66.4,63.6,98.3,96.7
			c20.5,21.2,38.8,44.5,57.9,67.1c25.7,30.4,49.8,62.2,72,95.2c13.7,20.4,26.8,41.1,40,61.8c7.2,11.2,14.1,22.5,20.9,33.9
			c5.4,9.1,10.7,18.3,15.6,27.6c10.4,19.7,20.9,39.4,30.8,59.3c7,14.2,13.2,28.8,19.7,43.2c8.7,19.3,17.7,38.5,25.8,58
			c6.3,15.3,11.4,31.1,17.2,46.6c3,8.1,6.6,16,9.2,24.2c10.7,34.5,22.1,68.8,31.5,103.7c7.7,28.4,13.1,57.4,19.2,86.2
			c3.5,16.8,6.7,33.7,9.5,50.7c2,12.4,3.1,24.9,4.6,37.4c1.8,14.4,3.8,28.8,5.6,43.3c0.9,7.2,1.7,14.5,2.3,21.7
			c0.9,11.6,1.4,23.2,2.2,34.7c0.5,6.9,1.4,13.8,1.7,20.8c0.3,6.9-0.1,13.8-0.1,20.7c0,33.3,0.1,66.6,0.1,99.9c0,2.9,0.2,5.8,0,8.7
			c-0.2,5.3-0.6,10.6-0.9,15.8c-0.1,2-0.6,3.9-0.7,5.9c-0.7,14.6-1,29.2-2.2,43.7c-1.3,15.5-3.7,30.8-5.5,46.3
			c-2.2,18.4-3.9,36.9-6.5,55.2c-2.2,15.7-5,31.4-8.3,46.9c-6.3,30.1-12.9,60.2-19.7,90.2c-2.1,9.4-5,18.6-7.9,27.7
			c-5.7,18.4-11.5,36.7-17.4,55c-5.7,17.6-11.6,35.2-17.6,52.8c-3,8.8-6.4,17.4-10,26c-8.7,21.1-17.3,42.2-26.4,63.2
			c-5.8,13.3-12.4,26.2-18.6,39.3c-5.1,10.8-9.9,21.8-15.5,32.4c-10.2,19.4-20.9,38.5-31.5,57.7c-6.6,11.9-13.2,23.7-20,35.5
			c-3.6,6.3-7.4,12.6-11.4,18.7c-12.2,18.6-24.6,37.1-37,55.5c-7.4,11-14.9,22-23,32.5c-15.1,19.8-30.6,39.2-46,58.8
			c-7.2,9.1-14.4,18.2-21.9,27.1c-6.9,8.1-13.8,16.2-21.2,23.8c-25.2,26.1-50.2,52.5-76,78c-24.1,23.8-49.4,46.4-75.5,68
			c-33,27.3-66.6,53.8-102.1,77.8c-17.3,11.7-34.2,24.1-52,35.1c-20.9,12.9-42.3,25-63.7,37c-21.7,12.2-43.4,24.3-65.6,35.7
			c-15.3,7.9-31.3,14.7-47,21.7c-20,8.9-40,18.1-60.3,26.1c-26.9,10.6-53.9,20.9-81.3,30c-35.2,11.7-70.7,22.3-106.8,31.3
			c-33.5,8.3-67.3,14.4-101.1,21c-24.7,4.8-49.8,7.3-74.8,10c-19.4,2.1-38.9,3.7-58.3,6.1c-38.1,4.7-76.4,3.8-114.6,3.8
			c-16.3,0-32.7,0.3-49-0.1c-19.6-0.4-39.3-0.7-58.8-2.2c-23.1-1.8-46.1-4.9-69.2-7.6c-17.1-2-34.3-3.6-51.3-6.2
			c-17.6-2.7-35.1-6.3-52.7-9.5c-10.1-1.8-20.3-3.2-30.3-5.5c-18.1-4.1-36.2-8.3-54-13.3c-27.4-7.7-54.5-16.5-81.9-24.3
			c-31.6-9.1-62-21.4-92.6-33.2c-15.4-6-30.7-12.5-45.8-19.4c-23.2-10.6-46.6-21-69.3-32.8c-29.2-15.1-57.9-31.1-86.5-47.4
			c-16.4-9.3-32.4-19.4-48-29.9c-29.9-20.2-60-40.3-89.1-61.6c-20.3-14.9-39.5-31.3-58.6-47.8c-21.8-18.9-43.1-38.5-64.3-58.2
			c-17.5-16.3-35-32.8-51.6-50c-13.4-13.8-25.4-28.9-38.1-43.4c-6.8-7.7-14.1-15.1-20.6-23c-11.7-14-23.6-27.9-34.4-42.6
			c-21.6-29-43.3-58-63.6-87.9c-17.7-26-34.3-52.9-50.1-80.2c-14.3-24.7-27.3-50.1-40.2-75.6c-10-19.7-18.8-40.1-28.2-60.1
			c-13.1-27.6-24.5-55.9-34.8-84.5c-11.8-32.7-21.8-66.1-32.4-99.2c-4.4-13.9-8.6-27.9-12.4-41.9c-4.6-17.3-9.2-34.6-12.8-52.1
			c-4.7-22.3-8.9-44.8-12.5-67.3c-3.3-20.9-5.7-41.9-8.2-63c-2.2-19.1-3.7-38.2-6.1-57.2c-4-31.1-4-62.3-3.9-93.5
			C154,1621.6,154,1611.6,154,1601.6z"/>
		<path fill="#221E1F" d="M2592.4,612.4c2.1,1.6,4.5,2.9,6.4,4.7c17.5,17.4,35.3,34.5,52.3,52.3c22.7,23.7,43,49.5,62.9,75.7
			c11.6,15.2,23.9,30,34.5,45.9c18,27,37.2,53.1,53.2,81.5c13.1,23.3,27.3,46.1,40.6,69.4c6.3,11.2,11.5,23,17.2,34.6
			c7.2,14.5,14.6,28.9,21.5,43.5c4.3,9,7.8,18.3,11.7,27.5c6.4,15.2,13.2,30.2,19.2,45.6c6.6,17.2,12.7,34.7,18.5,52.3
			c5.7,17.2,11,34.6,16.3,52c4.1,13.2,8.4,26.4,11.7,39.8c5.6,22.4,10.8,44.9,15.7,67.4c4.4,20.3,8.9,40.7,12.2,61.2
			c4.3,26.6,7.7,53.4,10.8,80.1c2.4,20.6,3.8,41.3,5.5,61.9c1.2,14.1,2.6,28.2,3,42.3c0.6,25.7,0.8,51.5,0.7,77.3
			c0,9.8-1.3,19.6-1.9,29.4c-0.3,5.8-0.2,11.7-0.6,17.6c-1.9,27-3.4,54-5.9,80.9c-1.5,16.4-4.5,32.7-6.9,49
			c-1.7,11.7-3.1,23.6-5.2,35.2c-3.7,20.1-7.8,40.1-11.9,60.1c-2.7,13.3-5.4,26.6-8.8,39.8c-4.3,16.9-8.8,33.9-13.9,50.6
			c-8.3,26.9-16.9,53.6-25.8,80.3c-5.4,16.3-11,32.7-17.7,48.5c-11.1,26.5-23,52.6-34.7,78.9c-4.3,9.7-8.4,19.6-13.4,28.9
			c-15,28-30.1,56-45.8,83.6c-11.3,19.9-23.2,39.5-35.7,58.6c-12.7,19.4-26.1,38.5-40,57c-19.7,26.2-39.8,52.1-60.3,77.7
			c-9.7,12.2-20.2,23.8-31.1,34.9c-33,33.5-66.4,66.5-99.6,99.8c-23.5,23.5-49,44.6-75.4,64.8c-20.3,15.5-40.6,30.9-61.1,46
			c-8.3,6.1-17,11.6-25.7,17.1c-19,12.1-38,24.3-57.2,36c-15.8,9.6-31.9,18.9-48.1,27.8c-21.7,11.9-43.4,24-65.8,34.6
			c-27.2,12.9-55.1,24.4-82.7,36.5c-31.2,13.8-63.6,24.5-95.9,35.3c-16.9,5.7-34.4,9.9-51.6,14.6c-23,6.2-45.9,12.8-69.1,18.2
			c-19.9,4.6-40.4,7-60.3,11.7c-22.2,5.3-44.7,8-67.3,10.6c-27.3,3.2-54.7,5.8-82,8.5c-12.1,1.2-24.1,2.7-36.2,3.2
			c-15.8,0.6-31.6,0.3-47.4,0.4c-15.6,0.1-31.1,0.4-46.7,0.2c-10.9-0.2-21.8-1.1-32.7-1.7c-14.2-0.7-28.4-0.9-42.5-2.2
			c-23.9-2.1-47.7-4.8-71.5-7.3c-13.5-1.4-27-2.7-40.3-4.8c-16-2.5-31.8-5.7-47.7-8.8c-15.2-2.9-30.4-5.8-45.6-8.9
			c-8.4-1.7-16.8-3.9-25.1-6c-17.9-4.5-35.9-8.8-53.7-13.9c-17.8-5.1-35.5-10.8-53.1-16.9c-29.3-10.2-58.7-20.2-87.2-32.6
			c-23.1-10.1-46.7-18.7-69.1-30.5c-19.6-10.3-40.3-18.5-59.7-28.9c-23.3-12.6-45.7-26.7-68.7-39.9c-31.1-17.8-60.3-38.3-89.7-58.7
			c-23-16-44.7-33.9-66.8-51.2c-21.5-16.7-41.9-34.7-61.1-54c-13.2-13.2-26.4-26.3-39.5-39.6c-2.2-2.3-3.9-5.2-5.8-7.8
			c0.8-6.3,6.2-9.3,10.1-13.1c251.4-251.5,502.8-502.9,754.3-754.4C1779.1,1422.6,2179,1022.7,2579,622.8
			C2582.7,619.1,2585.8,613.4,2592.4,612.4z"/>
		<path fill="#F6B6D2" d="M2592.4,612.4c-2.2,2.5-4.2,5.1-6.5,7.4C1931.7,1274,1277.5,1928.2,623.3,2582.4c-2.8,2.8-5.9,5.3-8.9,7.9
			c-1.8-1.4-3.8-2.7-5.5-4.3c-22.8-22.9-46.2-45.3-68.3-68.9c-12.6-13.5-23.4-28.8-34.9-43.4c-13.8-17.4-27.7-34.7-41.1-52.4
			c-6.6-8.7-12.4-18-18.5-27.1c-8.5-12.7-17-25.3-25.2-38.1c-6.4-10-12.5-20.2-18.8-30.3c-2.9-4.7-5.9-9.4-8.6-14.3
			c-7.6-13.6-14.8-27.4-22.5-40.9c-14.2-24.7-26.2-50.5-38.6-76.1c-5.7-11.9-11.3-23.9-16.6-36c-3.7-8.4-6.7-17.1-10.2-25.6
			c-1.8-4.3-4.3-8.2-5.9-12.5c-10.2-28.3-20.5-56.6-30.3-85.1c-6.1-17.8-11.5-35.9-16.8-54c-4.3-14.9-8-30-11.7-45.1
			c-4.5-18.2-9.2-36.5-12.8-54.9c-3.5-17.8-5.7-35.9-8.5-53.8c-2.9-18.6-6.1-37.1-8.6-55.7c-1.7-12.5-2.2-25.1-3.4-37.6
			c-1.1-11.5-2.7-23-3.5-34.5c-0.7-9.9-0.4-19.8-0.8-29.7c-0.2-4.9-1.5-9.8-1.5-14.7c-0.1-33.7-0.4-67.3,0.1-101
			c0.2-14.4,2.1-28.7,3.1-43.1c1-15.4,1.8-30.8,2.9-46.1c0.5-7.3,1.2-14.5,2.1-21.8c1.7-13.7,3.5-27.5,5.6-41.1
			c2.9-18.9,5.9-37.9,9.4-56.7c4.1-22.1,8.6-44.2,13.1-66.2c1.4-6.8,3.8-13.4,5.5-20.1c8.5-34,17.8-67.9,29.3-101
			c8.6-24.8,17.3-49.5,26.8-73.8c9.4-24,19.6-47.7,30.3-71.2c7.4-16.3,16.1-31.9,24.1-47.9c5.6-11.2,9.7-23.4,16.6-33.7
			c7.9-11.6,13.4-24.2,20.6-36.1c9.5-15.6,18.5-31.5,28.4-46.8c10.4-16.2,21.1-32.1,32.2-47.7c10.2-14.3,21.2-28,31.7-42.1
			c8-10.6,15.4-21.6,23.8-31.8c13.6-16.7,26.9-33.8,41.8-49.3c38.3-39.9,77-79.3,116.3-118.2c16-15.8,33.9-29.7,51.2-44.2
			c10.9-9.2,22.1-18.1,33.5-26.7c15.9-12,32-23.6,48.1-35.2c12.4-8.9,24.7-17.9,37.4-26.3c12.8-8.3,26-16,39.1-23.8
			c18.9-11.4,37.8-22.9,57-34c7.9-4.6,16.5-8,24.8-12.1c5-2.5,9.9-5.4,15-7.9c8-4,16.4-7.4,24.2-11.7c22.4-12.4,46.3-21.4,69.6-31.6
			c12.7-5.5,26-9.8,38.9-14.8c14.2-5.5,28.2-11.5,42.6-16.6c12.7-4.6,25.7-8.6,38.7-12.4c17.7-5.3,35.5-10.3,53.4-15.1
			c19.5-5.2,39-10.5,58.7-14.8c24.2-5.3,48.6-10,73.1-14.2c16.3-2.8,32.8-4.3,49.2-6.5c13.1-1.8,26.2-4.1,39.3-5.6
			c9.9-1.2,19.8-1.5,29.8-2.3c16.7-1.3,33.4-3.1,50.1-3.8c16.5-0.7,33-0.3,49.5-0.3c20.2,0,40.5-0.5,60.7,0.2
			c19.4,0.6,38.8,2.4,58.2,3.7c11.6,0.7,23.2,1.1,34.7,2.3c19.7,2,39.5,4.2,59.1,7c16.3,2.3,32.5,6.7,48.9,8.2
			c13.6,1.3,26.7,4.6,40,7.1c17.1,3.3,34.1,7.2,50.9,11.5c27.8,7.2,55.7,14.1,83.1,22.6c24.6,7.6,48.6,17.4,72.9,25.9
			c11.9,4.2,23.2,9.7,35,13.8c17.2,6,33.2,14.5,50.3,20.7c15.7,5.7,30.1,15.1,45.2,22.7c9.8,4.9,19.8,9.4,29.5,14.3
			c5,2.5,9.6,5.8,14.5,8.5c14.5,8,29.3,15.4,43.4,24c21.2,12.9,41.8,26.6,62.7,40c13.9,9,27.9,17.9,41.6,27.2
			c8.2,5.6,15.8,12.1,23.6,18.2c13,10.2,25.8,20.7,39.1,30.7c18.1,13.5,35.5,27.8,51.6,43.8c18.2,18.1,36.3,36.3,54.4,54.5
			C2589.8,608.6,2591,610.6,2592.4,612.4z"/>
	</g>
</g>
<g>
	<g>
		<path fill="#FFFFFF" d="M560.1,2265c-22.1,0-40-17.9-40-40V975c0-22.1,17.9-40,40-40h327.8c93.3,0,163.9,7.3,215.7,22.4
			c54.6,15.9,96.9,40,125.8,71.6c28.6,31.3,48.2,69.5,58.2,113.4c9.3,40.7,13.8,100.2,13.8,182.1v108.8c0,86.3-9.3,148.8-28.4,190.9
			c-20.6,45.6-58.1,80.6-111.4,104.2c-49.1,21.7-112.9,32.7-189.5,32.7h-47.6V2225c0,22.1-17.9,40-40,40H560.1z M924.5,1466.9
			c9.8-1.5,14.6-4.1,16-5.9c0.3-0.5,8.9-12.9,8.9-66.7v-102.9c0-40.4-6.8-52.7-8-54.6c-1.1-0.7-5.6-3.2-16.9-5.3V1466.9z"/>
		<path d="M887.9,975c88.6,0,156.8,7,204.5,20.8c47.7,13.9,83.5,34,107.5,60.2c24,26.3,40.2,58,48.7,95.3s12.8,95.1,12.8,173.3
			v108.8c0,79.8-8.3,137.9-24.8,174.4s-46.9,64.6-91.1,84.1c-44.2,19.6-102,29.3-173.3,29.3h-87.6V2225H560.1V975H887.9
			 M908.8,1507.9c30.3,0,51.3-7.3,63-22s17.6-45.3,17.6-91.7v-102.9c0-42.8-6.8-70.7-20.4-83.6c-13.6-12.9-41.7-19.3-84.5-19.3
			v318.7C893.9,1507.7,902,1507.9,908.8,1507.9 M887.9,895H560.1c-44.2,0-80,35.8-80,80v1250c0,44.2,35.8,80,80,80h324.4
			c44.2,0,80-35.8,80-80v-423.7h7.6c40,0,77-2.8,110.2-8.5c35.3-6,67.4-15.3,95.5-27.7c30.1-13.3,56.2-30.1,77.8-50.1
			c23-21.3,41.1-46.2,53.8-74.2c11.5-25.4,19.7-55.8,24.9-92.7c4.6-32.7,7-71.2,7-114.7v-108.8c0-84.9-4.8-147.4-14.8-191
			c-11.6-50.8-34.3-95-67.6-131.5c-17.7-19.4-39.5-36.4-64.8-50.6c-23.1-12.9-49.8-23.9-79.3-32.5C1059.3,902.9,985.1,895,887.9,895
			L887.9,895z"/>
	</g>
	<g>
		<path fill="#FFFFFF" d="M2116.7,2265c-22.1,0-40-17.9-40-40V975c0-22.1,17.9-40,40-40h324.4c22.1,0,40,17.9,40,40v960h158.8
			c22.1,0,40,17.9,40,40v250c0,22.1-17.9,40-40,40H2116.7z"/>
		<path d="M2441.1,975v1000h198.8v250h-523.2V975H2441.1 M2441.1,895h-324.4c-44.2,0-80,35.8-80,80v1250c0,44.2,35.8,80,80,80h523.2
			c44.2,0,80-35.8,80-80v-250c0-44.2-35.8-80-80-80h-118.8V975C2521.1,930.8,2485.3,895,2441.1,895L2441.1,895z"/>
	</g>
	<g>
		<path fill="#FFFFFF" d="M1729,2265c-20.9,0-38.3-16.1-39.9-36.9l-14.5-187.5h-42.7l-16,187.8c-1.8,20.7-19.1,36.6-39.9,36.6
			h-335.7c-11.5,0-22.5-5-30.1-13.6c-7.6-8.7-11.1-20.2-9.6-31.6l165.5-1250c2.6-19.9,19.6-34.7,39.7-34.7h468.9
			c19.8,0,36.6,14.5,39.6,34.1l186.3,1250c1.7,11.5-1.7,23.2-9.3,32s-18.7,13.9-30.3,13.9L1729,2265L1729,2265z M1657.6,1738.7
			c-3.6-34.1-7.2-70.1-10.9-107.9c-4.5,40.2-8.2,76.2-11.2,107.9H1657.6z"/>
		<path d="M1874.8,975l186.3,1250h-332l-17.4-224.4h-116.5L1576,2225h-335.7l165.5-1250H1874.8 M1591.8,1778.7h110.3
			c-15.5-141.3-31.6-316.4-48.4-525.4C1621.4,1493.2,1600.8,1668.3,1591.8,1778.7 M1874.8,895h-468.9c-40.1,0-74,29.7-79.3,69.5
			l-165.5,1250c-3,22.8,3.9,45.9,19.1,63.2s37.1,27.3,60.2,27.3H1576c35.8,0,66.5-23.6,76.5-56.6c10.1,33,40.7,56.6,76.5,56.6h332
			c23.3,0,45.4-10.1,60.6-27.8c15.2-17.6,22-41,18.5-64l-186.3-1250C1948.1,924,1914.4,895,1874.8,895L1874.8,895z"/>
	</g>
</g>
</svg>
