<?xml version="1.0" encoding="utf-8"?>
<!-- Generator: Adobe Illustrator 18.0.0, SVG Export Plug-In . SVG Version: 6.00 Build 0)  -->
<!DOCTYPE svg PUBLIC "-//W3C//DTD SVG 1.1//EN" "http://www.w3.org/Graphics/SVG/1.1/DTD/svg11.dtd">
<svg version="1.1" id="Livello_1" xmlns="http://www.w3.org/2000/svg" xmlns:xlink="http://www.w3.org/1999/xlink" x="0px" y="0px"
	 viewBox="0 0 3200 3200" enable-background="new 0 0 3200 3200" xml:space="preserve">
<g>
	<g>
		<path d="M1706,2c1.3,0.6,2.7,1.7,4,1.8c25.8,2.2,51.7,3.5,77.3,6.7c32.2,4.1,64.3,9.4,96.3,14.8c24.5,4.2,49,8.9,73.2,14.4
			c27.5,6.3,54.8,13.3,81.9,20.9c29,8.2,58,16.8,86.4,26.7c31.6,11,63,23,94,35.8c48.3,19.8,95.8,41.8,141.5,67
			c37,20.4,73.2,42.2,108.9,64.7c25.2,15.8,49,33.8,73.6,50.6c40.9,27.8,78.8,59.4,115.9,92c25.6,22.5,50.1,46.3,74.2,70.4
			c24.4,24.3,48.3,49,71.3,74.6c18.2,20.2,34.7,41.8,52,62.8c36.7,44.7,68.1,93.3,100.5,141c13,19.1,23.8,39.7,35.4,59.8
			c10,17.2,19.9,34.3,29.3,51.8c8.4,15.7,16.6,31.7,24,47.9c13.3,29.1,26.3,58.3,38.8,87.8c14.9,35.1,28.6,70.7,39.7,107.2
			c9.6,31.7,19.8,63.2,28.2,95.2c12.9,48.8,23.1,98.3,31.5,148.1c6.3,36.9,11.2,74,14.1,111.4c1.5,19.5,2.8,39,4.2,58.5
			c1.3,29.5,0.5,59.1,0.5,88.6c0,23.9,0.9,47.8-0.5,71.7c-1.3,22.5-2.2,45.1-4.1,67.5c-1.9,22.7-4.4,45.3-7.5,67.8
			c-4.5,32.2-9.5,64.3-14.8,96.4c-2.5,15.3-6.3,30.4-9.6,45.5c-3.8,17.1-7.3,34.2-11.9,51.1c-8.2,29.9-16.7,59.7-25.7,89.4
			c-13.6,44.9-30.3,88.7-48.5,131.9c-10.8,25.8-22.9,51.1-35.1,76.3c-12.3,25.5-25.1,50.8-38.1,76c-5,9.6-11.4,18.6-16.9,27.9
			c-4.9,8.2-9.3,16.8-14.3,25c-14.1,22.8-28.1,45.8-42.8,68.1c-12.9,19.5-26.7,38.5-40.5,57.4c-8,10.9-16.8,21.2-25.2,31.7
			c-13.6,17-27.1,34.1-40.8,50.9c-7.3,8.9-14.6,17.8-22.5,26.2c-23.7,25.2-47,50.7-71.6,75c-26.1,25.7-53.1,50.5-80.4,75
			c-53.4,48-112.3,88.6-171.8,128.4c-14.1,9.4-27.9,19.1-42,28.5c-4.9,3.3-10.1,6.2-15.3,9.1c-42.9,24.2-85.8,48.5-130.5,69.4
			c-38.6,18.1-77.4,35.8-117.6,50.1c-27.7,9.8-55.3,19.9-83.2,29.1c-20,6.6-40.4,12.1-60.6,18.1c-51.6,15.2-104.5,24.9-157.1,35.4
			c-24.2,4.8-48.9,7.8-73.5,10.5c-34.7,3.9-69.6,6.8-104.4,10.2c-2.1,1.3-4.5,0.9-6.8,0.9c-56.2,0-112.3,0-168.4,0
			c-2.3,0-4.7,0.4-6.8-0.8c-10.4-1-20.9-2-31.3-2.9c-16.1-1.4-32.3-2.6-48.4-4.2c-15.8-1.5-31.6-3.1-47.4-5.2
			c-14.1-1.9-28.2-4.5-42.2-7c-24.8-4.4-49.7-8.8-74.4-13.7c-15.9-3.2-31.6-7.2-47.4-11.1c-16.4-4-32.8-8-48.9-12.7
			c-28.2-8.2-56.7-15.9-84.4-25.8c-38.9-13.9-77.2-29.5-115.6-44.8c-18.1-7.2-36.2-14.8-53.8-23.4c-26.1-12.8-51.7-26.7-77.6-40
			c-33.9-17.5-66.8-36.9-98.7-57.8c-26.3-17.3-52.2-35.3-78.1-53.3c-55.7-38.8-107.1-82.8-156.9-128.9
			c-32.3-29.9-63.3-61.2-92.4-94.2c-26.7-30.3-52.2-61.8-77.7-93.1c-29.6-36.4-55.3-75.6-81.3-114.5c-17.1-25.6-32.1-52.6-47.5-79.2
			c-12.1-20.9-23.8-42-34.8-63.4c-10.4-20.3-20.1-41-29.5-61.7c-9.3-20.5-18.2-41.2-26.7-62c-7.6-18.7-14.5-37.7-21.4-56.6
			c-7.5-20.9-15-41.7-21.8-62.8c-10.6-33-19.7-66.4-27.8-100.1c-9.6-40-18-80.3-24.8-120.8c-4.8-28.4-8.3-57.1-11.9-85.7
			c-2-15.8-3.2-31.7-4.6-47.5c-1-11.1-1.9-22.2-3-33.3c-0.1-0.8-1.2-1.5-1.9-2.3c0-59.3,0-118.7,0-178c3-4.8,3.2-10.2,3.5-15.7
			c0.9-15.5,1.3-31.1,2.8-46.6c2.2-21.3,4.8-42.7,8-63.9c4.2-28.2,8.5-56.3,13.8-84.3c5.4-29,11.7-57.8,18.2-86.5
			c4-17.4,9-34.6,13.9-51.8c7.1-24.7,14.3-49.4,22.1-73.9c6.2-19.1,13.2-38,20.3-56.8c8.9-23.2,17.7-46.4,27.6-69.1
			c11.6-26.6,24.1-52.8,36.9-78.8c11.7-23.7,23.8-47.2,36.9-70.1c20.9-36.7,42.6-73,66.4-108c9.4-13.8,18.2-28,28-41.5
			c12.8-17.6,25.8-35.1,39.6-52c24.7-30.2,49.2-60.7,75.3-89.7c36.8-40.7,75.4-79.7,116.9-115.8c20.7-18,40.8-36.7,62.2-53.7
			c24.6-19.6,50-38.1,75.7-56.2c29-20.5,58.3-40.9,88.3-60c33.2-21.1,67.1-41.1,102.5-58.4c30-14.6,59.6-30.1,90-43.9
			c26.9-12.2,54.5-23.1,82.1-33.8c26.3-10.1,52.9-19.9,79.7-28.5c24.5-7.9,49.5-14.3,74.4-21.1c20.2-5.5,40.3-11.1,60.7-15.5
			c27.2-5.9,54.6-11.1,82.1-16.1c23.5-4.3,47-8.8,70.6-11.6c31.9-3.8,64-6,95.9-8.9c1.8-0.2,3.5-1.1,5.3-1.7C1570,2,1638,2,1706,2z"
			/>
		<path fill="#ABABAB" d="M1513.9,3202.1c13.9,0,27.8-0.1,41.7-0.1c44.5-0.1,88.9-0.2,133.4-0.3c2.3,0,4.6,0.2,6.9,0.4
			c0,0.6,0,1.3,0,1.9c-60.7,0-121.3,0-182,0C1514,3203.4,1513.9,3202.7,1513.9,3202.1z"/>
		<path fill="#ACACAC" d="M3202.3,1674.2c-0.1-16.3-0.3-32.5-0.3-48.8c-0.1-34.5-0.2-69.1-0.2-103.6c0-2.6,0.4-5.3,0.6-7.9
			c0.6-0.4,1.1-0.4,1.6,0.2c0,53.3,0,106.7,0,160l-0.8,0.3L3202.3,1674.2z"/>
		<path fill="#FFFFFF" d="M1533.2,21.5c29.2-0.4,58.4-1.3,87.6-1c25.5,0.3,51.1,2,76.6,3.4c21.9,1.2,43.8,2.6,65.6,4.5
			c13.9,1.2,27.7,2.8,41.5,4.9c29.9,4.5,59.8,8.7,89.4,14.3c30,5.7,59.7,12.8,89.5,19.7c44,10.3,87.4,22.8,130,38
			c20.9,7.5,42.1,14.1,62.7,22.5c35,14.3,70,28.6,104.1,44.8c47.4,22.4,93.8,46.8,138.5,74.4c25.7,15.9,51.4,31.9,76.5,48.7
			c17.6,11.8,34.3,25.1,51.4,37.7c14.9,11.1,30.2,21.7,44.5,33.5c23.1,19,45.7,38.5,68.2,58.3c15.4,13.6,30.4,27.8,45.2,42
			c10.6,10.1,20.8,20.5,30.9,31.1c14.9,15.6,29.9,31.2,44.3,47.2c14.4,16,28.9,32,42.3,48.9c22.5,28.4,45.7,56.2,65.9,86.4
			c17.6,26.3,35.9,52.1,53.5,78.3c6.6,9.9,12.3,20.4,18.4,30.7c10,17.2,20.2,34.3,29.9,51.6c7.6,13.6,14.9,27.4,21.8,41.3
			c8.5,16.9,16.7,33.9,24.6,51.1c11,24.1,22.1,48.3,32.1,72.8c10.2,24.9,20.1,49.9,28.6,75.4c11.9,35.5,23.2,71.3,33.4,107.4
			c6.7,23.6,11.3,47.9,16.6,71.9c5.3,24.4,11,48.7,15.3,73.2c4.8,27.1,9,54.4,12.1,81.8c3.5,31.3,6.2,62.8,8,94.2
			c1.5,25.8,1.5,51.6,2,77.4c0.3,16.2,0.7,32.4,0.2,48.5c-0.9,26.8-2.3,53.7-4.1,80.5c-1.5,22.8-3.1,45.7-6.1,68.4
			c-4.3,32.9-9.8,65.7-14.9,98.5c-4.4,28.6-10,57-17.2,85c-7.2,27.6-14.4,55.3-22.5,82.7c-8.3,28-17,55.9-26.9,83.4
			c-10,28.1-21,55.9-32.6,83.4c-11.4,27.2-23.7,54-36.4,80.6c-9.6,20-20.3,39.5-30.7,59.1c-8.4,15.8-16.3,31.8-25.8,47
			c-19.5,31.3-39.7,62.2-60,93c-9.8,15-20.1,29.6-30.6,44.2c-6.4,8.9-13.2,17.4-20.1,26c-12.3,15.3-24.3,30.7-37.1,45.5
			c-18.6,21.6-37.6,43-56.9,64c-18.7,20.2-37.8,40.1-57.3,59.5c-14.8,14.7-30.4,28.8-46.1,42.6c-21,18.4-42.2,36.4-63.8,54.1
			c-21.1,17.3-42.7,33.9-65.5,48.9c-25.5,16.9-50.2,35.1-75.7,52c-17.1,11.3-35.1,21.4-52.7,32c-10.8,6.5-21.5,13.1-32.4,19.4
			c-9.2,5.3-18.3,10.8-27.9,15.4c-35.5,17.3-70.8,35-106.8,51.2c-26.6,11.9-54.1,21.8-81.3,32.4c-17,6.6-34,13.3-51.4,18.8
			c-24.9,7.9-50.3,14.6-75.3,22.3c-49.4,15.1-100.1,24.2-150.5,34.6c-21.7,4.5-44,6.4-66,9.4c-14.1,1.9-28.2,4.1-42.4,5.6
			c-16.2,1.7-32.4,2.9-48.6,4.2c-14.5,1.2-29.1,2.7-43.7,3.1c-22.8,0.7-45.7,0.8-68.5,0.8c-20.5,0-41.1-0.1-61.6-0.7
			c-11.6-0.3-23.1-1.8-34.7-2.6c-16.2-1.1-32.4-1.9-48.7-3c-5.9-0.4-11.9-1.2-17.8-1.8c-43.3-4.7-86.4-10.3-129.1-19.2
			c-21.1-4.4-42.5-7.8-63.6-12.4c-16.5-3.6-32.9-8.2-49.2-12.5c-33.7-8.8-67.4-17.9-100.2-29.7c-34.3-12.3-68.6-24.6-102.4-38.2
			c-29.5-11.9-58.4-25.2-87.2-38.8c-19.8-9.4-38.8-20.3-58.1-30.7c-18.7-10-37.7-19.7-55.9-30.5c-20-11.9-39.6-24.6-58.9-37.4
			c-21.9-14.5-43.6-29.3-64.9-44.6c-18.8-13.6-37.4-27.7-55.3-42.4c-26.8-21.9-53.4-44-79.2-67c-19.9-17.6-38.8-36.4-57.6-55.2
			c-15.7-15.7-31.1-31.8-45.9-48.4c-19.9-22.3-39.3-45.1-58.4-68.1c-13.4-16.1-26.6-32.4-38.9-49.3c-21-29.1-41.7-58.4-61.7-88.2
			c-13.3-19.8-25.4-40.4-37.4-61.1c-15.7-27.3-30.9-54.9-46-82.5c-5.9-10.8-10.9-22-16.2-33.1c-5.5-11.7-10.9-23.4-16.2-35.1
			c-6.1-13.6-12.3-27.2-18-40.9c-6.1-14.6-11.9-29.4-17.5-44.3c-7.1-18.6-14.2-37.2-20.6-56.1c-11.6-34.2-22.8-68.6-31.3-103.7
			c-6.1-25.2-12.5-50.3-17.8-75.7c-6-28.3-11.4-56.7-16.1-85.1c-3.7-22.6-6.4-45.4-8.9-68.1c-2.6-24.1-4.7-48.2-6.6-72.4
			c-0.8-9.5-0.6-19.1-1.1-28.7c-3.1-53.5-2.8-107,0.7-160.4c1.7-26.1,2.6-52.3,6.8-78.2c3.1-18.9,3.9-38.2,6.2-57.3
			c1.5-12.5,4-24.9,6.2-37.4c3.8-21.6,7.4-43.2,11.9-64.7c4.2-20.1,9.2-40.1,14.3-60.1c6.1-23.8,11.9-47.7,19-71.3
			c7.9-26,17-51.7,25.7-77.5c4.2-12.5,8.7-25,13.3-37.4c3.6-9.6,7.7-19,11.6-28.5c4.7-11.3,9.3-22.7,14.2-33.9
			c13.2-30.4,27-60.6,43-89.7c11.8-21.5,22.7-43.5,34.8-64.9c10.6-18.8,22.4-36.9,33.5-55.5c18.4-30.9,39.2-60.1,60.5-89.1
			c16.1-21.9,32.9-43.4,50.3-64.3c22.6-27.4,45.5-54.7,69.4-80.9c18.5-20.4,38.6-39.4,58.4-58.5c21.6-20.7,43.3-41.2,65.8-60.9
			c20.5-17.9,41.5-35.4,63.3-51.7c28.7-21.5,58.4-41.8,87.6-62.5c10.3-7.3,20.5-14.9,31.2-21.6c22.2-13.9,44.7-27.4,67.3-40.8
			c12.8-7.6,25.9-14.8,39.1-21.8c17.6-9.3,35.1-18.8,53-27.2c29.7-13.9,59.5-27.4,89.7-40.3c32-13.7,64.5-26.1,97.7-36.4
			c18-5.6,35.7-12.4,53.8-17.9c14.3-4.4,28.8-8,43.3-11.5c13.5-3.3,27.5-4.9,40.7-9.2c19.1-6.2,38.6-10.1,58.2-13.7
			c31.3-5.8,62.7-11.4,94.3-16.1c22-3.3,44.2-5.1,66.3-7.4c16.2-1.7,32.4-3.2,48.6-4.5c9.9-0.8,19.8-0.9,29.7-1.4
			C1533.2,21.8,1533.2,21.6,1533.2,21.5z"/>
		<path fill="#014DA1" d="M126.2,1330c5.6-27.3,10.1-55,17-82c9.5-37,20.2-73.7,31.4-110.3c6.4-20.9,14.7-41.2,22.6-61.6
			c9.5-24.4,18.6-49,29.3-72.8c13.1-29.4,27.5-58.2,41.8-87.1c8.2-16.7,16.8-33.2,26-49.4c13.3-23.4,27.4-46.3,41.2-69.4
			c19-31.7,40.2-62,62.5-91.5c17.3-22.8,35.1-45.2,53.7-66.9c23.8-27.8,48.6-54.7,73.2-81.8c7.6-8.4,15.8-16.2,24.1-23.9
			c24.8-23.1,49.2-46.7,74.8-69c42.6-37.3,87.3-71.9,135-102.6c16.8-10.8,32.8-22.8,49.7-33.4s34.3-20.2,51.6-30.2
			c11.5-6.6,22.8-13.6,34.7-19.5c31.4-15.8,62.8-31.7,94.7-46.5c26.2-12.1,52.9-23.1,79.7-33.7c21-8.3,42.4-15.3,63.7-22.7
			c18.2-6.3,36.4-12.8,54.8-18.2c16.2-4.8,32.8-8.3,49.3-12.3c19.7-4.8,39.2-10.4,59.1-14.2c30.3-5.9,60.8-11.5,91.4-15.4
			c39.2-5,78.6-8.4,118-12c15.5-1.4,31.1-1.6,46.6-2c22.2-0.5,44.5-1.3,66.7-0.9c26.2,0.5,52.5,1.8,78.7,3.4
			c24.9,1.5,49.7,3.3,74.5,5.8c21.1,2.1,42.1,5.5,63.2,8.3c41.9,5.6,83.2,13.9,124.2,23.8c39.5,9.5,78.4,20.9,116.7,34.5
			c21,7.4,42.1,14.5,62.8,22.5c21.6,8.4,42.9,17.7,64.2,26.8c13.7,5.9,27.5,11.8,40.9,18.3c47.2,23.1,94,46.8,138.6,74.6
			c31.9,19.9,63.4,40.4,94.4,61.8c38.1,26.3,73.9,55.7,108.8,86c26.3,22.8,50.6,48,76,71.8c19.4,18.2,37.4,37.8,54.9,57.8
			c14.9,17,30.7,33.2,44.9,50.8c22.1,27.5,44.9,54.4,64,84.2c9.4,14.5,20,28.3,29.4,42.8c11.6,17.8,22.6,35.9,33.6,54.1
			c9.1,15.1,18,30.3,26.6,45.6c8.3,14.7,16.5,29.6,24.2,44.7c8.7,17.2,17.2,34.5,25.1,52c11,24.2,22,48.4,32.1,73
			c9.9,24.3,19.1,48.9,27.9,73.6c20.9,58.6,38.2,118.3,49.4,179.6c2.4,13.1,5.9,26,8.1,39.1c4.3,26.9,8.8,53.8,11.8,80.9
			c3.6,31.7,6.3,63.5,8.2,95.4c1.5,25.2,1.6,50.4,1.9,75.6c0.2,20.2,0.1,40.4-0.2,60.6c-0.2,14.9-0.8,29.9-1.7,44.8
			c-1.3,20.5-2.9,41.1-4.8,61.6c-1.5,16.2-3.4,32.3-5.6,48.5c-3,21.7-6.4,43.4-9.7,65.1c-0.5,3.3-1.6,6.4-2.4,9.7
			c-11.2,3.2-21.7-1.9-32.3-3.6c-32.9-5.3-65.6-11.5-98.4-17.7c-52-9.9-104.1-19.5-156.2-29.2c-61.2-11.4-122.5-22.6-183.8-34
			c-45.8-8.6-91.6-17.3-137.5-25.8c-40.6-7.5-81.3-14.8-121.9-22.3c-100.2-18.6-200.5-37-300.7-55.9
			c-59.2-11.1-118.7-21.3-177.9-32.7c-65.8-12.7-131.7-24.3-197.4-37c-31.4-6-63-11.1-94.4-17.1c-60.8-11.7-121.8-22.7-182.7-34
			c-61.9-11.5-123.8-22.9-185.7-34.3c-56-10.3-112-21-168-31.4c-41.9-7.8-83.9-15.2-125.8-23c-48.8-9.1-97.5-18.5-146.3-27.3
			s-97.5-18.5-146.3-27.3c-46.6-8.4-93.1-16.9-139.6-25.6c-72-13.5-144.2-26.5-216.2-40.2c-43.2-8.2-86.4-16.6-129.7-23.9
			C134.3,1334.3,129.6,1333.8,126.2,1330z"/>
		<path fill="#00B2EF" d="M126.2,1330c16.9,3.2,33.8,6.4,50.7,9.5c33.9,6.2,67.8,12.3,101.7,18.6c26.7,5,53.4,10.2,80.2,15.2
			c24.4,4.5,49,8.5,73.4,13c20.2,3.7,40.3,7.9,60.5,11.7c25.4,4.8,50.9,9.3,76.3,14c24.1,4.5,48.2,9.2,72.3,13.6
			c27.7,5.1,55.5,9.8,83.2,14.9c26.1,4.8,52,10,78.1,14.9c27,5,54.1,9.8,81.1,14.9c23.1,4.3,46.2,9,69.3,13.2
			c20.8,3.8,41.8,7.2,62.6,11c18.3,3.3,36.5,6.8,54.7,10.3c23.1,4.4,46.2,8.8,69.3,13.2c23.5,4.4,46.9,8.8,70.4,13.1
			c28.4,5.2,56.8,10.1,85.1,15.3c18.9,3.5,37.8,7.3,56.7,10.8c34.5,6.4,69.1,12.7,103.7,19.1c20.2,3.8,40.3,7.9,60.5,11.6
			c15.3,2.9,30.7,5.3,46,8.2c24.1,4.5,48.1,9.4,72.2,13.9c29.7,5.5,59.4,10.7,89,16.2c24.1,4.5,48.2,9.3,72.3,13.6
			c20.9,3.8,41.8,7,62.7,10.7c17.3,3.1,34.5,6.7,51.7,10c24.1,4.6,48.2,9,72.2,13.6c16.6,3.2,33.1,6.7,49.7,9.7
			c22.1,4.1,44.4,7.8,66.5,11.8c24.1,4.4,48.3,8.9,72.4,13.3c34.5,6.4,69.1,12.7,103.6,19.2c23.8,4.5,47.5,9.3,71.2,13.7
			c30.6,5.6,61.3,10.9,92,16.5c15.3,2.8,30.6,5.9,45.9,8.7c21.2,3.9,42.4,7.4,63.6,11.3c18.3,3.4,36.5,7.2,54.7,10.6
			c20.8,3.9,41.7,7.5,62.6,11.3c12.1,2.2,24.1,4.3,36.2,6.6c30.9,5.8,61.8,11.6,92.8,17.4c41.4,7.8,82.7,15.6,124.1,23.4
			c36.5,6.8,73,13.6,109.4,20.4c17.6,3.3,35.1,6.5,52.7,9.7c-4,22.2-7.4,44.6-12.2,66.7c-4.3,19.8-9.5,39.5-15.5,58.8
			c-11.2,36.2-23.2,72.1-35.2,108c-5.3,15.7-11.2,31.3-17.6,46.6c-13.8,33.1-27.2,66.3-43.7,98.2c-12.9,25-25.3,50.4-38.2,75.4
			c-4.3,8.2-9.6,15.9-14.3,23.9c-6.6,11.2-12.7,22.6-19.5,33.6c-12.8,20.6-25.2,41.6-39.2,61.4c-19.3,27.5-39.6,54.4-60.1,80.9
			c-24.4,31.6-50.7,61.6-78.3,90.5c-19.1,19.9-37.6,40.4-57.6,59.5c-37.8,36-76.9,70.6-117.9,103c-38.7,30.7-80.6,56.6-120.6,85.3
			c-14,10-29.7,17.6-44.5,26.4c-11.7,6.9-23.1,14.4-35,21c-14.8,8.3-29.8,16.2-45,23.7c-14,7-28.2,13.4-42.4,19.9
			c-22.9,10.6-45.7,21.5-68.8,31.5c-17.1,7.4-34.5,13.8-51.9,20.4c-17.1,6.5-34.1,13-51.4,18.9c-17.9,6-36.1,11.4-54.2,16.8
			c-45.4,13.4-91.4,23.7-137.9,32.5c-21.2,4-42.6,6.7-64,9.7c-14.8,2.1-29.6,3.9-44.5,5.4c-15.9,1.6-31.8,2.9-47.6,4.2
			c-15.9,1.3-31.8,3-47.7,3.6c-18.2,0.7-36.5,0.6-54.7,0.6c-24.6,0-49.3,0.3-73.8-0.5c-22.9-0.7-45.8-2.3-68.6-4.2
			c-22.8-1.9-45.6-4.3-68.3-7.2c-52.8-6.6-105.2-15.4-156.9-28.1c-42-10.3-83.7-21.5-124.3-36.7c-30.2-11.3-60.7-21.9-90.5-33.9
			c-26.2-10.6-51.8-22.3-77.4-34.3c-21.4-10-42.5-20.5-63.2-31.8c-25.4-13.8-50.6-28-75.1-43.2c-30-18.5-59.8-37.5-88.7-57.7
			c-39.9-27.8-78-57.9-113.9-90.8c-21.6-19.8-43.4-39.3-64.7-59.3c-12.6-11.9-24.6-24.4-36.3-37c-19.5-20.9-38.9-42-57.7-63.5
			c-14.6-16.8-28.9-34-42.2-51.9c-23.6-31.8-46.7-64-69.1-96.7c-13.5-19.7-25.2-40.6-37.5-61c-9.4-15.7-18.9-31.3-27.6-47.3
			c-8.9-16.3-17-33.1-25.3-49.8c-9.4-19-18.8-38-27.7-57.2c-5.6-12-10.6-24.4-15.5-36.7c-6-14.7-11.8-29.5-17.4-44.4
			c-7.3-19.2-14.8-38.4-21.4-57.9c-15.6-46-29.6-92.4-39.3-140c-5.3-26.4-10.7-52.8-15.1-79.3c-4.7-28.5-8.6-57.2-12-85.9
			c-2.5-21.1-4.4-42.3-5.3-63.6c-1.9-45.1-4-90.2-2.6-135.4c0.7-21.6,2.1-43.2,3.3-64.8c0.6-11.6,1.2-23.2,2.2-34.8
			c1.5-16.9,3.2-33.7,5.2-50.5c2.6-21.4,5.6-42.7,8.7-64.1C123,1346.3,124.8,1338.1,126.2,1330z"/>
	</g>
</g>
<g>
	<g>
		<path fill="#FFFFFF" d="M519.7,2263.2c-22.1,0-40-17.9-40-40V975.6c0-22.1,17.9-40,40-40h327.2c93.1,0,163.6,7.3,215.3,22.4
			c54.5,15.9,96.8,39.9,125.6,71.5c28.6,31.3,48.1,69.4,58.1,113.2c9.2,40.6,13.7,100.1,13.7,181.8v108.6
			c0,86.2-9.3,148.5-28.3,190.6c-20.6,45.5-58,80.5-111.2,104.1c-49.1,21.7-112.7,32.7-189.2,32.7h-47.5v462.7c0,22.1-17.9,40-40,40
			H519.7z M883.5,1466.4c9.7-1.5,14.4-4.1,15.8-5.9c0.3-0.5,8.8-12.8,8.8-66.6v-102.7c0-40.3-6.8-52.6-8-54.5
			c-1.1-0.7-5.6-3.2-16.7-5.3v235H883.5z"/>
		<path d="M846.9,975.6c88.5,0,156.5,6.9,204.1,20.8c47.6,13.9,83.3,33.9,107.2,60.1c23.9,26.2,40.1,57.9,48.6,95.2
			c8.5,37.2,12.7,94.9,12.7,172.9v108.6c0,79.6-8.3,137.6-24.8,174.1s-46.8,64.5-90.9,84s-101.8,29.3-173,29.3h-87.5v502.7H519.7
			V975.6H846.9 M867.7,1507.5c30.2,0,51.2-7.3,62.9-22s17.6-45.2,17.6-91.5v-102.7c0-42.7-6.8-70.5-20.3-83.4s-41.7-19.3-84.4-19.3
			v318.1C852.8,1507.2,860.9,1507.5,867.7,1507.5 M846.9,895.6H519.7c-44.2,0-80,35.8-80,80v1247.7c0,44.2,35.8,80,80,80h323.8
			c44.2,0,80-35.8,80-80v-422.7h7.5c39.9,0,76.9-2.8,110-8.4c35.2-6,67.3-15.3,95.3-27.7c30-13.3,56.2-30.1,77.7-50
			c23-21.2,41.1-46.2,53.7-74.1c11.5-25.4,19.6-55.7,24.9-92.6c4.6-32.6,7-71.1,7-114.5v-108.6c0-84.8-4.8-147.2-14.7-190.7
			c-11.6-50.7-34.3-94.9-67.5-131.3c-17.7-19.4-39.5-36.4-64.7-50.5c-23.1-12.9-49.7-23.8-79.2-32.4
			C1017.9,903.4,943.8,895.6,846.9,895.6L846.9,895.6z"/>
	</g>
	<g>
		<path fill="#FFFFFF" d="M2320.9,2290c-93,0-174-18.2-240.9-54.1c-69.8-37.5-116.6-86.9-139-147c-20.9-55.9-31-131.4-31-230.7
			v-81.7c0-22.1,17.9-40,40-40h253.1c-10.3-7-21.6-14.4-33.9-22.5l-0.1-0.1c-83.2-54.9-137.2-94.2-165.3-120.1
			c-30.4-28.1-55.6-66.7-74.9-114.7c-19-47.2-28.6-107.2-28.6-178.4c0-103.4,13.6-178.3,41.5-229c28.5-51.7,74.4-92.3,136.5-120.8
			c59.4-27.2,131.3-41,213.7-41c89.5,0,167.5,15,231.8,44.5c67.8,31.2,114,72.4,137.3,122.4c21.9,47.2,32.6,121.7,32.6,227.8v49.4
			c0,22.1-17.9,40-40,40h-280.3c150.1,89.1,242.9,161.7,284,222c42.5,62.4,63.1,156.8,63.1,288.5c0,96-11.5,166.1-35.3,214.3
			c-24.8,50.2-71.5,92-139,124.4C2481.3,2274.3,2405.6,2290,2320.9,2290z M2297.1,1997.8c0.9,0.4,4.1,1.6,11.3,1.6
			c9.3,0,11.8-2.7,14.1-6.6c3.7-5.9,9.8-20.9,9.8-54.7c0-87.7-14.9-112.4-19.7-118c-4.3-4.7-11.1-11.2-22-20.2v128.8
			C2290.6,1979.3,2295.8,1994.7,2297.1,1997.8z M2302.7,1200.6c-6.5,0-8.2,1.6-10.5,5.2c-2.7,4.3-8.9,17.8-8.9,51.4
			c0,43.6,6.6,65.2,12.1,75.6c0.1,0.2,0.2,0.5,0.4,0.7c1.3,2.6,5.3,8.8,17.1,19.1v-91.4c0-39.8-3.5-55.4-5-60.2
			C2306.9,1200.8,2305.2,1200.6,2302.7,1200.6z"/>
		<path d="M2291.9,950c84.1,0,155.8,13.6,215.1,40.9c59.2,27.3,98.5,61.6,117.7,103s28.9,111.7,28.9,210.9v49.4h-300.7v-92.9
			c0-43.4-3.9-71-11.6-82.8c-7.7-11.9-20.6-17.8-38.6-17.8c-19.6,0-34.3,8-44.4,24c-10,16-15,40.2-15,72.6
			c0,41.7,5.6,73.2,16.7,94.3c10.7,21.1,41.1,46.6,91.5,76.3c144.3,85.6,235.2,155.9,272.6,210.9c37.4,55,56.2,143.7,56.2,266
			c0,88.9-10.4,154.5-31.2,196.6s-60.9,77.5-120.4,106s-128.8,42.8-207.8,42.8c-86.7,0-160.7-16.5-222-49.4s-101.4-74.8-120.4-125.7
			c-19-50.9-28.5-123.1-28.5-216.7v-81.7h300.7V1929c0,46.9,4.2,77.1,12.7,90.5s23.5,20.1,45.1,20.1s37.6-8.5,48.1-25.5
			s15.8-42.2,15.8-75.7c0-73.7-9.9-121.9-29.8-144.5c-20.4-22.7-70.9-60.4-151.5-113.1c-80.6-53.2-134-91.9-160.1-116.1
			s-47.8-57.6-65-100.2c-17.2-42.7-25.8-97.2-25.8-163.5c0-95.6,12.2-165.5,36.5-209.7c24.4-44.2,63.7-78.8,118.1-103.7
			C2149.3,962.5,2214.9,950,2291.9,950 M2291.9,870c-43.3,0-84.3,3.6-121.9,10.8c-39,7.4-75.5,18.8-108.4,33.9
			c-70.1,32.1-122.1,78.5-154.8,137.8c-31.3,56.7-46.5,138-46.5,248.3c0,37.2,2.5,71.8,7.4,103c5.2,33.1,13.3,63.5,24.1,90.3
			c21.5,53.5,50.1,97,84.9,129.1c19.8,18.3,51.2,42.5,95.3,73.3h-122c-44.2,0-80,35.8-80,80v81.7c0,104.2,11,184.2,33.5,244.7
			c25.9,69.4,78.9,126,157.6,168.2c37,19.8,78,34.8,122,44.6c42.5,9.5,88.9,14.2,137.9,14.2c44.7,0,87.6-4.2,127.3-12.3
			c40.8-8.4,79.5-21.3,115-38.3c36.2-17.4,67.5-37.6,93-60c27.9-24.5,49.6-52.4,64.6-82.8c26.5-53.8,39.4-129.7,39.4-232
			c0-140-22.9-241.7-70-311c-23.7-34.8-60.8-71.5-113.4-112.2c-19.5-15.1-41.4-30.8-65.5-47.2h142.1c44.2,0,80-35.8,80-80v-49.4
			c0-53-2.7-99.4-8-138c-6-43.5-15.2-78.4-28.3-106.6c-14.3-30.8-35.8-58.8-63.7-83.3c-25.3-22.1-56.6-41.9-93.1-58.6
			c-35.4-16.3-74.7-28.6-116.7-36.6C2383.1,873.9,2338.8,870,2291.9,870L2291.9,870z"/>
	</g>
	<g>
		<path fill="#FFFFFF" d="M1311.5,2263.2c-22.1,0-40-17.9-40-40V975.6c0-22.1,17.9-40,40-40h541.7c22.1,0,40,17.9,40,40v249.5
			c0,22.1-17.9,40-40,40h-177.9v156.1h163.3c22.1,0,40,17.9,40,40v237.4c0,22.1-17.9,40-40,40h-163.3v195.1h198.6
			c22.1,0,40,17.9,40,40v249.5c0,22.1-17.9,40-40,40H1311.5z"/>
		<path d="M1853.2,975.6v249.5h-217.9v236.1h203.3v237.4h-203.3v275.1h238.6v249.5h-562.4V975.6H1853.2 M1853.2,895.6h-541.7
			c-44.2,0-80,35.8-80,80v1247.7c0,44.2,35.8,80,80,80h562.4c44.2,0,80-35.8,80-80v-249.5c0-44.2-35.8-80-80-80h-158.6v-115.1h123.3
			c44.2,0,80-35.8,80-80v-237.4c0-44.2-35.8-80-80-80h-123.3v-76.1h137.9c44.2,0,80-35.8,80-80V975.6
			C1933.2,931.4,1897.4,895.6,1853.2,895.6L1853.2,895.6z"/>
	</g>
</g>
</svg>
