<?xml version="1.0" encoding="utf-8"?>
<!-- Generator: Adobe Illustrator 18.0.0, SVG Export Plug-In . SVG Version: 6.00 Build 0)  -->
<!DOCTYPE svg PUBLIC "-//W3C//DTD SVG 1.1//EN" "http://www.w3.org/Graphics/SVG/1.1/DTD/svg11.dtd">
<svg version="1.1" id="Livello_1" xmlns="http://www.w3.org/2000/svg" xmlns:xlink="http://www.w3.org/1999/xlink" x="0px" y="0px"
	 viewBox="0 0 3200 3200" enable-background="new 0 0 3200 3200" xml:space="preserve">
<g>
	<g>
		<path d="M2,1662c0-38.7,0-77.3,0-116c2.4-10.1,1.6-20.5,1.7-30.6c0.8-51.7,7.3-102.9,14.7-153.9c14.7-100.6,39.6-198.6,73.5-294.3
			c27.2-76.8,60.1-150.9,98.7-222.7c37.7-70,80.1-136.9,127.6-200.5c32.7-43.8,67.6-85.7,104.7-126
			c92.3-100.3,195.2-188,309.6-262.1c105.9-68.6,218.3-123.8,337.4-165.8c102.2-36,207-61,314.2-76.1c51.8-7.3,103.8-11.7,156.2-11
			c3.2,0,6.6,1.1,9.7-1c44,0,88,0,132,0c13.1,2.6,26.4,1.2,39.6,1.7c48.4,2,96.1,8.9,143.8,16.3c52.1,8.2,103.4,19.4,154.3,33.1
			c77,20.8,152,47,225.1,79.2c115.9,50.9,224.1,114.4,325.1,190.7c41.8,31.5,82.1,64.7,120.4,100.4c37.3,34.7,72.7,71.3,107.2,108.8
			c51.7,56.4,97.3,117.5,139.9,180.8c46.2,68.6,86.4,140.8,121.2,215.9c22.9,49.3,43.8,99.4,61.4,150.8
			c21.3,62.5,38.9,126,52.6,190.6c12.8,60,21.2,120.7,27.5,181.7c3.2,30.8,3.2,61.8,2.9,92.8c0,36.7,0,73.5,0,110.2
			c1.5,105.6-14.6,209.1-38,311.7c-22.1,96.8-53.7,190.5-93.5,281.4c-33.5,76.5-73.3,149.6-118.3,219.9
			c-42.5,66.4-89.9,129-141.6,188.5c-38.2,44.1-79.3,85.4-122.1,125.1c-59.3,54.9-122.7,104.6-189.5,150
			c-43.8,29.8-89.3,57-136,82.2c-65.2,35.2-132.6,65.5-202,91.5c-97.1,36.3-196.8,62.6-299.1,79.2c-58.2,9.4-116.6,17-175.7,17.8
			c-10.6,0.1-21.3,0.6-31.9,0.8c-35.1,0-70.1,0-105.1,0c-1.8,0-3.5,0-5.3-0.1c-6.5-1.7-13.2-0.6-19.8-0.9
			c-65.9,0.3-130.7-9.4-195.5-20c-78.1-12.8-154.5-32.9-229.7-57.2c-85.2-27.5-166.9-63.5-246-105.3
			c-91.9-48.5-178.3-105.6-259.1-171c-31.3-25.4-61.4-52.2-90.9-79.7c-94.1-87.7-175-186.4-245.4-293.8
			c-27.6-42.1-52.6-85.7-76.1-130.3c-41.7-79.2-76.1-161.5-103.9-246.6C48.9,2008,28,1915.8,15.3,1821.8
			c-6-44.5-11.2-89.1-11.6-134.2C3.7,1679.2,4.3,1670.4,2,1662z"/>
		<path fill="#AAAAAA" d="M3202.3,1541.9c0.6-0.1,1.2,0,1.7,0.1c0,38.7,0,77.3,0,116l-0.8,0.2l-0.9-0.1
			C3202.3,1619.4,3202.3,1580.6,3202.3,1541.9z"/>
		<path fill="#9FA5A5" d="M1658,3202c0,0.7,0,1.4,0,2c-36.7,0-73.3,0-110,0c-0.1-0.6-0.1-1.2-0.1-1.8
			C1584.6,3202.1,1621.3,3202,1658,3202z"/>
		<path fill="#A21934" d="M3103.3,1601.8c-0.3,19.3-0.7,38.5-1,57.8c-0.1,7,0.1,14-0.4,21c-2,28.8-3.3,57.7-6.4,86.4
			c-6.9,64.7-16.4,129.2-32.1,192.4c-14,56.1-32,111.1-52.4,165.3c-19.8,52.4-42,103.6-67.4,153.5c-40.3,79-85.4,155.3-139.7,225.6
			c-24.6,31.8-50.5,62.7-77.2,92.8c-24.7,27.9-50.6,54.8-77,81.1c-42,41.8-87.1,80.2-133.8,116.7c-63.2,49.4-131,91.5-201.4,129.5
			c-66.6,36-135.6,66.6-206.6,92.5c-52.2,19.1-105.2,35.7-159.2,48.6c-29.4,7-59.2,11.9-89,16.9c-27.2,4.5-54.5,8.2-81.8,11.5
			c-18.5,2.2-37,3.4-55.6,4.7c-22.2,1.5-44.4,3.3-66.6,3.7c-34.6,0.6-69.3,0.4-104,0.1c-17.9-0.2-35.9-0.9-53.8-2.3
			c-24.8-2-49.5-4.6-74.3-7.3c-16.5-1.8-33-3.6-49.4-6.2c-25.9-4-51.8-8.4-77.6-13.1c-46.2-8.3-91.1-21.5-135.9-35.6
			c-59.8-18.8-117.9-41.6-175-67.4c-73.6-33.2-143.9-72.3-211.5-116.4c-44.4-28.9-86.9-60.5-127-95.1
			c-25.4-21.9-50.3-44.5-75.2-67.1c-35.6-32.2-67.9-67.6-99.7-103.5c-27.8-31.4-54.2-64-79.3-97.6c-27.9-37.4-53.6-76.3-76.8-116.8
			c-20.5-35.8-40.7-71.8-59.3-108.7c-27.2-54.1-50.4-110.1-70.9-167.1c-16.5-46.1-31.2-92.7-42.8-140.1c-6.9-28-11.9-56.5-17.1-84.9
			c-3.7-20.2-6.9-40.6-9.5-61c-2.8-21.4-4.8-42.9-6.7-64.4c-2.1-23.8-4.5-47.6-5.4-71.5c-1-24.6-0.3-49.3-0.4-73.9
			c2.9-2.7,6.6-3,10.3-3.1c3.7-0.1,7.3-0.1,11-0.1c985.5,0,1971.1,0,2956.6,0.1C3089.1,1598.8,3096.7,1597,3103.3,1601.8z"/>
		<path fill="#F5811F" d="M3103.3,1601.8c-4,0.1-8,0.2-12,0.2c-992.1,0-1984.1,0-2976.2,0c-3.7,0-7.3,0-11-0.1
			c0.5-26.9,0.8-53.9,1.6-80.8c0.4-14.6,1-29.3,2.4-43.8c3.1-32.1,6.2-64.1,10.4-96c5.6-42.5,13.1-84.8,22.9-126.5
			c11-46.7,25.3-92.4,41-137.7c15.7-45.3,33.7-89.7,53.6-133.3c23.6-51.8,50.1-102.2,79.2-151.2c26.2-44.1,54-87.2,85.1-128.1
			c31.2-41.1,64-80.9,99.5-118.4c20.2-21.3,40.1-42.8,61.2-63.1c76.2-73,157.7-139.2,248-194.2c42.4-25.8,85.5-50.4,130.1-72.2
			c58.3-28.5,118-54,179.4-75.2c46.3-16,92.9-30.9,140.6-41.6c34-7.6,68.4-13.9,102.9-19.3c31.8-5,63.8-8.9,95.9-11.9
			c28.8-2.7,57.7-3.9,86.6-4.8c30.6-1,61.2-1.9,91.8-1.2c31.5,0.7,63,2.9,94.5,5.1c24.2,1.7,48.4,3.5,72.4,6.9
			c34.5,4.8,68.9,10.8,103.3,16.7c56.9,9.8,111.9,26.7,166.6,45c55.3,18.5,109.1,40.5,162,65c83.3,38.7,162.4,84.5,237.6,137.1
			c39.9,27.9,77.4,58.8,114.1,90.7c31.4,27.3,61.7,55.9,90.7,85.7c42.9,44.2,83.3,90.6,121,139.4c45.6,58.9,84.9,121.8,120.7,186.9
			c50.2,91.3,90.4,186.8,121.7,286.2c16,50.9,29.5,102.3,38.2,154.9c5.9,35.4,10.6,71,14.8,106.6c3,24.7,4.3,49.6,6.3,74.4
			C3103.1,1536,3104.4,1568.8,3103.3,1601.8z"/>
		<path fill="#9FA5A5" d="M1544.1,3201.9c-6.8,0.2-13.7,2.4-20.2-1.3C1530.7,3201,1537.4,3201.4,1544.1,3201.9z"/>
	</g>
</g>
<g>
	<g>
		<path fill="#FFFFFF" d="M667.5,2263.2c-22.1,0-40-17.9-40-40v-414.4c0-72.5-6.6-95.2-8.9-100.8c-1.5-0.8-4.8-2.3-10.9-3.7v518.9
			c0,22.1-17.9,40-40,40H243.9c-22.1,0-40-17.9-40-40V975.6c0-22.1,17.9-40,40-40h229.6c157.4,0,261.9,6.1,319.4,18.7
			c64.1,14,116.8,49.9,156.7,106.7c39.4,56,58.5,139.6,58.5,255.5c0,50.8-3.3,94.2-9.7,129.1c-7.2,38.9-18.3,68.4-34.1,90.2
			c-12.6,17.4-29.5,32.1-50.5,43.8c14.4,9.5,26.3,20,35.8,31.4c26.2,31.7,42.4,61,49.3,89.6c4,16.4,9.2,54.3,9.2,193.8v328.8
			c0,22.1-17.9,40-40,40H667.5z M607.7,1424.2c6.3-1.2,10.2-2.6,12.5-3.7c2.1-5.1,7.3-22,7.3-66.3v-68.9c0-37.1-7-47.1-7.8-48.1
			c-0.7-0.5-3.9-2.8-12-4.8V1424.2z"/>
		<path d="M473.5,975.6c153.1,0,256.7,5.9,310.9,17.7s98.4,42,132.5,90.6c34.2,48.6,51.2,126.1,51.2,232.5
			c0,97.2-12.1,162.5-36.2,195.9c-24.1,33.4-71.6,53.5-142.5,60.2c64.2,15.9,107.3,37.2,129.4,63.9c22.1,26.7,35.8,51.2,41.2,73.5
			s8.1,83.8,8.1,184.4v328.8H667.5v-414.4c0-66.8-5.3-108.1-16-124s-38.6-23.9-83.8-23.9v562.4H243.9V975.6H473.5 M567.7,1467.3
			c36.9,0,62.8-5,77.6-15.1s22.2-42.7,22.2-97.9v-68.9c0-39.8-7.2-65.8-21.5-78.2c-14.3-12.4-40.4-18.6-78.4-18.6v278.7
			 M473.5,895.6H243.9c-44.2,0-80,35.8-80,80v1247.7c0,44.2,35.8,80,80,80h323.8c18.9,0,36.2-6.5,49.9-17.5
			c13.7,10.9,31,17.5,49.9,17.5h300.7c44.2,0,80-35.8,80-80v-328.8c0-141.3-5.2-182-10.3-203.2c0,0,0,0,0-0.1
			c-8.4-34.6-27.1-69.2-57.3-105.7c-1-1.2-2.1-2.4-3.1-3.7c7.1-7,13.6-14.6,19.4-22.6c35-48.5,51.3-125.6,51.3-242.7
			c0-124.4-21.5-215.6-65.8-278.5c-22.5-32-49.1-58.7-79-79.1c-30.5-20.9-64.8-35.6-101.9-43.6C741.1,902,633.8,895.6,473.5,895.6
			L473.5,895.6z"/>
	</g>
	<g>
		<path fill="#FFFFFF" d="M2672.4,2263.2c-22.1,0-40-17.9-40-40l-0.2-244.4l-33.4,249.7c-2.7,19.9-19.6,34.7-39.6,34.7h-200.8
			c-19.9,0-36.8-14.6-39.6-34.3l-39.5-274.3l-0.2,268.6c0,22.1-17.9,40-40,40h-283.6c-22.1,0-40-17.9-40-40V975.6
			c0-22.1,17.9-40,40-40h419.6c19.7,0,36.5,14.4,39.5,33.9c11.5,75,24.4,164.6,38.2,266.3l3.5,24.1l36.7-289.4
			c2.5-20,19.5-35,39.7-35H2956c22.1,0,40,17.9,40,40v1247.7c0,22.1-17.9,40-40,40H2672.4z"/>
		<path d="M2956.1,975.6v1247.7h-283.6l-0.6-842.3l-112.6,842.3h-200.8l-118.7-824l-0.6,824h-283.6V975.6h419.6
			c11.6,75.5,24.3,164.1,38.1,265.8l45.6,316.8l73.9-582.6H2956.1 M2956.1,895.6h-423.3c-39.1,0-72.2,28.2-78.8,66.3
			c-6.6-38.2-39.9-66.3-78.8-66.3h-419.6c-44.2,0-80,35.8-80,80v1247.7c0,44.2,35.8,80,80,80h283.6c23.7,0,45-10.3,59.6-26.7
			c14.7,16.5,36.1,26.7,59.6,26.7h200.8c21.9,0,42-8.9,56.6-23.5c14.5,14.5,34.5,23.5,56.6,23.5H2956c44.2,0,80-35.8,80-80V975.6
			C3036.1,931.4,3000.2,895.6,2956.1,895.6L2956.1,895.6z"/>
	</g>
	<g>
		<path fill="#FFFFFF" d="M1459.9,2290c-71.7,0-137.3-12-195-35.8c-59.7-24.5-108.5-62-145.1-111.4
			c-36.4-49.1-58.3-103.5-65.3-161.6c-6.4-53.3-9.5-143.1-9.5-274.5v-213.5c0-128,3-216.6,9.1-270.7c6.6-58.8,27.7-113.2,62.7-161.8
			c35.1-48.8,83-86.7,142.3-112.7c57.7-25.2,125.2-38,200.8-38c71.6,0,137.2,12,195,35.8c59.7,24.5,108.5,62,145.1,111.4
			c36.3,49.1,58.3,103.5,65.3,161.6c6.4,53.4,9.5,143.2,9.5,274.5v213.5c0,127.9-3,216.5-9.1,270.7c-6.6,58.8-27.7,113.2-62.7,161.8
			c-35.2,48.8-83,86.8-142.3,112.7C1603,2277.2,1535.4,2290,1459.9,2290z M1455,1999.2c1,0.1,2.3,0.3,4.2,0.3c2,0,3.3-0.2,4.1-0.3
			c0.1-0.3,0.2-0.7,0.4-1.1c2.2-7,7.4-33.6,7.4-127.6v-574.1c0-69.3-4.8-90.4-6.5-95.6c-0.7-0.1-1.8-0.2-3.1-0.2
			c-3.5,0-4.6,0.4-5.5,1.4c-1.5,4.1-7.2,24.1-7.2,94.4v583.3C1448.8,1966.9,1453.3,1992.6,1455,1999.2z"/>
		<path d="M1459.9,950c66.7,0,126.6,10.9,179.8,32.8c53.1,21.8,95.9,54.6,128.2,98.3c32.3,43.7,51.6,91.2,57.7,142.6
			c6.2,51.4,9.2,141.3,9.2,269.7v213.5c0,125.4-3,214.1-8.9,266.2c-5.9,52.2-24.4,99.8-55.4,142.9c-31.1,43.2-73,76.3-125.9,99.4
			c-52.9,23.1-114.5,34.7-184.8,34.7c-66.7,0-126.6-10.9-179.8-32.8c-53.1-21.8-95.8-54.6-128.2-98.3
			c-32.3-43.7-51.6-91.2-57.7-142.5c-6.2-51.4-9.2-141.3-9.2-269.7v-213.5c0-125.3,2.9-214.1,8.8-266.2
			c5.9-52.2,24.4-99.8,55.4-142.9s73-76.3,125.9-99.4C1328,961.6,1389.6,950,1459.9,950 M1459.2,2039.4c22.2,0,36.4-9.8,42.6-29.3
			c6.2-19.6,9.3-66.1,9.3-139.7v-574.1c0-58.1-3.2-95.3-9.7-111.5s-19.8-24.3-39.9-24.3c-17,0-30.1,6.6-39.1,19.7
			s-13.5,51.8-13.5,116.1v583.3c0,72.5,3,117.3,8.9,134.3C1423.7,2030.9,1437.5,2039.4,1459.2,2039.4 M1459.9,870
			c-81.1,0-154,13.9-216.8,41.4c-65.9,28.8-119.3,71.2-158.7,126c-39,54.2-62.6,115-70,180.7c-6.3,55.7-9.4,145.7-9.4,275.2v213.5
			c0,133,3.2,224.3,9.8,279.2c7.8,65.1,32.3,125.9,72.9,180.6c41,55.4,95.5,97.3,162.1,124.6c62.6,25.7,133.3,38.8,210.2,38.8
			c81,0,154-13.9,216.8-41.4c66-28.9,119.4-71.2,158.8-126c39-54.2,62.6-115,70-180.7c6.3-55.8,9.4-145.8,9.4-275.2v-213.5
			c0-132.8-3.2-224.2-9.8-279.2c-7.8-65.1-32.3-125.9-72.9-180.6c-41-55.3-95.5-97.3-162.1-124.6C1607.5,883,1536.8,870,1459.9,870
			L1459.9,870z"/>
	</g>
</g>
</svg>
