<?xml version="1.0" encoding="utf-8"?>
<!-- Generator: Adobe Illustrator 18.0.0, SVG Export Plug-In . SVG Version: 6.00 Build 0)  -->
<!DOCTYPE svg PUBLIC "-//W3C//DTD SVG 1.1//EN" "http://www.w3.org/Graphics/SVG/1.1/DTD/svg11.dtd">
<svg version="1.1" id="Livello_1" xmlns="http://www.w3.org/2000/svg" xmlns:xlink="http://www.w3.org/1999/xlink" x="0px" y="0px"
	 viewBox="0 0 3200 3200" enable-background="new 0 0 3200 3200" xml:space="preserve">
<g>
	<g>
		<path d="M2,1662c0-38.7,0-77.3,0-116c2.4-10.1,1.6-20.5,1.7-30.6c0.8-51.7,7.3-102.9,14.7-153.9c14.7-100.6,39.6-198.6,73.5-294.3
			c27.2-76.8,60.1-151,98.7-222.7c37.7-70,80.1-136.9,127.6-200.5C351,600.2,386,558.2,423,518c92.3-100.3,195.2-188,309.6-262.1
			C838.5,187.3,950.9,132.1,1070,90.1c102.2-36,207-61,314.2-76.1C1436,6.7,1488,2.3,1540.4,3c3.2,0,6.6,1.1,9.7-1c44,0,88,0,132,0
			c13.1,2.6,26.4,1.2,39.6,1.7c48.4,2,96.1,8.9,143.8,16.3c52.1,8.2,103.4,19.4,154.3,33.1c77,20.8,152,47,225.1,79.2
			C2360.8,183.2,2469,246.7,2570,323c41.8,31.5,82.1,64.7,120.4,100.4c37.3,34.7,72.7,71.3,107.2,108.8
			c51.7,56.4,97.3,117.5,139.9,180.8c46.2,68.6,86.4,140.8,121.2,215.9c22.9,49.3,43.8,99.4,61.4,150.8
			c21.3,62.5,38.9,126,52.6,190.6c12.8,60,21.2,120.7,27.5,181.7c3.2,30.8,3.2,61.8,2.9,92.8c0,36.7,0,73.5,0,110.2
			c1.5,105.6-14.6,209-37.9,311.5c-22,96.8-53.6,190.4-93.4,281.3c-33.2,75.8-72.6,148.3-117.1,218.1
			c-42.7,67-90.5,130.2-142.6,190.1c-38.4,44.3-79.7,85.9-122.8,125.7c-59.5,55.1-123.2,105-190.3,150.5
			c-46.9,31.8-95.7,60.6-145.8,87.1c-77,40.8-156.8,75.2-239.3,103c-93.1,31.3-188.3,54-285.6,67.4c-46.5,6.4-93,12.3-140.1,12.4
			c-10.9,0-21.9,0.7-32.9,0.8c-35.1,0-70.1,0-105.1,0c-1.8,0-3.5,0-5.3-0.1c-6.5-1.7-13.2-0.6-19.8-0.9
			c-65.9,0.3-130.7-9.4-195.5-20c-78.1-12.8-154.5-32.9-229.7-57.2c-85.2-27.5-166.9-63.5-246-105.3
			c-91.9-48.5-178.3-105.6-259.1-171c-31.3-25.4-61.4-52.2-90.9-79.7c-94.1-87.7-175-186.4-245.4-293.8
			c-27.6-42.1-52.6-85.7-76.1-130.3c-41.7-79.2-76.1-161.5-103.9-246.6c-29.6-90-50.5-182.2-63.2-276.2
			c-6-44.5-11.2-89.1-11.6-134.2C3.7,1679.2,4.3,1670.4,2,1662z"/>
		<path fill="#AAAAAA" d="M3202.3,1541.9c0.6-0.1,1.2,0,1.7,0.1c0,38.7,0,77.3,0,116l-0.8,0.2l-0.9-0.1
			C3202.3,1619.4,3202.3,1580.6,3202.3,1541.9z"/>
		<path fill="#9FA5A5" d="M1658,3202c0,0.7,0,1.4,0,2c-36.7,0-73.3,0-110,0c-0.1-0.6-0.1-1.2-0.1-1.8
			C1584.6,3202.1,1621.3,3202,1658,3202z"/>
		<path fill="#006090" d="M1534.2,103.6c2.9-0.5,5.8-1.4,8.7-1.4c37-0.2,73.9-0.6,110.9-0.1c20.9,0.3,41.8,2.2,62.7,3.5
			c37.1,2.4,74,6.5,110.9,11.7c41.8,5.9,83.3,13,124.3,22.7c41.3,9.8,82.1,21.7,122.3,35.7c26.8,9.4,53.3,19.8,80,29.7
			c-3.1,5.7-8.4,9.3-12.9,13.8c-639.9,640-1279.9,1280-1919.9,1919.9c-4.3,4.3-7.5,10.5-14.7,11.1c-12.9-36-26.7-71.6-38.3-107.9
			c-10.7-33.5-20.3-67.4-28.3-101.6c-7.4-31.3-12.6-63.1-17.7-94.8c-4.6-28.1-7.8-56.5-11.5-84.8c-1.2-9.2-1.8-18.5-2.3-27.8
			c-1-16.6-1.5-33.2-2.6-49.8c-3.2-45.2-1.5-90.5-1.4-135.7c0-1.3,0.3-2.6,0.5-4c1.5-5.9,6.3-9.3,10.3-13.2
			c374.1-374.2,748.2-748.3,1122.4-1122.4c98.2-98.2,196.5-196.5,294.7-294.8C1534.5,111,1541.4,108.6,1534.2,103.6z"/>
		<path fill="#006090" d="M1671,3100.8c-5.6,0.3-11.2,0.7-16.8,0.8c-32,0.1-64,0.6-95.9,0.1c-21.9-0.4-43.9-1.8-65.7-3.5
			c-26.5-2.1-53-4.4-79.3-7.7c-32.6-4.1-65.1-9.1-97.5-14.4c-46.3-7.5-91.5-19.5-136.3-33.1c-42.3-12.9-83.9-27.6-124.9-44
			c0-2.7,2.2-4,3.8-5.6c643.1-642.9,1286.1-1286,1929.2-1929c4.2-4.2,7.6-9.3,13.2-12c24.6,59.6,44,121,60.7,183.2
			c9.8,36.5,16.6,73.8,22.4,111.1c4.2,26.9,7.5,53.9,10.5,80.9c2.5,22.4,4.3,45,6,67.5c1.1,14.2,1.7,28.5,2.1,42.8
			c0.7,23.2,1.4,46.4,1.4,69.6c0,17.6-1.1,35.2-1.6,52.8c-2.8,5.4-7.3,9.4-11.6,13.6c-471.8,471.8-943.5,943.5-1415.2,1415.4
			C1672.3,3092.2,1665.5,3094.5,1671,3100.8z"/>
		<path fill="#FFFFFF" d="M206.4,2150.3c1.9-1.8,3.9-3.6,5.8-5.5C856,1501,1499.9,857.1,2143.9,213.3c3-3,6.6-5.2,10-7.8
			c115.6,47.2,224.8,106,326.7,178.4c11.3,8.1,21.9,17.2,32.9,25.8c-0.7,6.4-6.1,9.3-10,13.2c-232.3,232.4-464.7,464.8-697,697.2
			C1345.8,1580.8,885,2041.6,424.2,2502.2c-3.9,3.9-6.6,10.4-14,9.6c-25.8-31.5-48.2-65.3-69.9-99.6c-45-71-84.2-145-117.3-222.2
			C217.2,2176.7,211.9,2163.5,206.4,2150.3z"/>
		<path fill="#FFFFFF" d="M3000.6,1052.4c-2.4,2.8-4.6,5.7-7.1,8.3C2349.9,1704.4,1706.3,2348,1062.6,2991.6
			c-2.6,2.6-5.4,4.9-8.1,7.4c-52.3-20.7-103.2-44.4-152.9-70.8c-68.3-36.3-134.1-76.6-196-123.1c-4-3-7.8-6.1-11.2-8.7
			c701.1-701.2,1401.8-1402,2103.2-2103.4c8,10.6,16.8,21.6,25,33.2c63.6,90,117.3,185.7,161,286.8
			C2989.3,1026.1,2994.9,1039.3,3000.6,1052.4z"/>
		<path fill="#D60026" d="M410.1,2511.7c3.2-2.9,6.4-5.8,9.4-8.8C1113.2,1809.3,1806.8,1115.7,2500.4,422c4.2-4.2,8.6-8.3,12.9-12.4
			c7.8,5.6,16.1,10.7,23.4,16.9c28.1,24,56,48.1,83.6,72.7c13.7,12.2,26.4,25.4,39.7,37.9c3.4,3.2,4.3,5.6,0.3,8.7
			c-1.8,1.4-3.3,3.3-5,4.9c-701,701-1402,1402-2103.1,2103c-10.9,10.9-7.9,10.9-18.7,0.1c-42.6-42.7-82.1-88.2-119.4-135.6
			C412.7,2516.3,411.5,2513.9,410.1,2511.7z"/>
		<path fill="#FFFFFF" d="M1671,3100.8c-2.6-0.2-5.2-0.4-9.6-0.8c3.6-3.7,6.3-6.4,9-9.1c174.6-174.6,349.1-349.2,523.7-523.7
			c299-299,597.9-597.9,896.9-896.9c3.5-3.5,7.3-6.7,11-10c-1.5,27.3-2,54.6-4.6,81.8c-3.5,35.8-8.2,71.4-13.1,107.1
			c-10.7,78.1-30.9,153.9-56.6,228.3c-49.1,142.6-116.8,275.6-203.9,398.8c-28.5,40.3-59.4,78.7-92.7,115.1
			c-26.3,28.8-52.9,57.3-80.6,84.7c-92.5,91.2-195,169-308.7,232.4c-121.8,68-249.9,120.1-385.2,154.1
			c-33.5,8.4-67.8,13.8-101.9,19.7c-52.2,9.1-105,13.9-157.8,17.3C1688.3,3100,1679.6,3100.3,1671,3100.8z"/>
		<path fill="#FFFFFF" d="M1534.2,103.6c3,0.2,5.9,0.4,9.9,0.7c-1.5,2.1-2.6,3.9-4,5.4c-2.5,2.7-5.1,5.2-7.7,7.8
			C1060,590,587.6,1062.4,115.1,1534.8c-3.3,3.3-6.9,6.1-10.4,9.2c-0.1-1.7-0.2-3.4-0.3-5.1c1.6-5.2-0.3-10.5,1-15.7
			c2.7-56.3,8.7-112.2,16.9-167.9c12.5-84.6,34.7-166.6,63.5-247c48.7-135.9,114.4-262.9,197.7-380.7c30.4-43,63.7-83.7,99.3-122.5
			c26.2-28.4,52.8-56.5,80.4-83.4C655.1,432.2,756.8,356,869,293.8c121.4-67.3,249-118.8,383.6-152.5c32.2-8.1,65.2-13.3,97.9-19
			c44-7.6,88.4-12.2,132.9-15.7C1500.3,105.3,1517.3,104.6,1534.2,103.6z"/>
		<path fill="#9FA5A5" d="M1544.1,3201.9c-6.8,0.2-13.7,2.4-20.2-1.3C1530.7,3201,1537.4,3201.4,1544.1,3201.9z"/>
		<path fill="#006090" d="M105.5,1523.1c-0.3,5.2-0.7,10.5-1,15.7C104.8,1533.6,105.1,1528.4,105.5,1523.1z"/>
	</g>
</g>
<g>
	<g>
		<path fill="#FFFFFF" d="M658.6,2290c-93,0-174-18.2-240.9-54.1c-69.8-37.5-116.6-86.9-139-147c-20.9-55.9-31-131.4-31-230.7v-81.7
			c0-22.1,17.9-40,40-40h253.1c-10.3-7-21.6-14.4-33.9-22.5l-0.1-0.1c-83.2-54.9-137.2-94.2-165.3-120.1
			c-30.4-28.1-55.6-66.7-74.9-114.7c-19-47.2-28.6-107.2-28.6-178.4c0-103.4,13.6-178.3,41.5-229C308,1020,353.9,979.4,416,950.9
			c59.4-27.2,131.3-41,213.7-41c89.5,0,167.5,15,231.8,44.5c67.8,31.2,114,72.4,137.3,122.4c21.9,47.2,32.6,121.7,32.6,227.8v49.4
			c0,22.1-17.9,40-40,40H710.9c150.1,89.1,242.9,161.7,284,222c42.5,62.4,63.1,156.8,63.1,288.5c0,96-11.5,166.1-35.3,214.3
			c-24.8,50.2-71.5,92-139,124.4C819,2274.3,743.3,2290,658.6,2290z M634.8,1997.8c0.9,0.4,4.1,1.6,11.3,1.6
			c9.3,0,11.8-2.7,14.1-6.6c3.7-5.9,9.8-20.9,9.8-54.7c0-87.7-14.9-112.4-19.7-118c-4.3-4.7-11.1-11.2-22-20.2v128.8
			C628.3,1979.3,633.5,1994.7,634.8,1997.8z M640.4,1200.6c-6.5,0-8.2,1.6-10.5,5.2c-2.7,4.3-8.9,17.8-8.9,51.4
			c0,43.6,6.6,65.2,12.1,75.6c0.1,0.2,0.2,0.5,0.4,0.7c1.3,2.6,5.3,8.8,17.1,19.1v-91.4c0-39.8-3.5-55.4-5-60.2
			C644.5,1200.8,642.9,1200.6,640.4,1200.6z"/>
		<path d="M629.6,950c84.1,0,155.8,13.6,215.1,40.9c59.2,27.3,98.5,61.6,117.7,103s28.9,111.7,28.9,210.9v49.4H690.6v-92.9
			c0-43.4-3.9-71-11.6-82.8c-7.7-11.9-20.6-17.8-38.6-17.8c-19.6,0-34.3,8-44.4,24c-10,16-15,40.2-15,72.6
			c0,41.7,5.6,73.2,16.7,94.3c10.7,21.1,41.1,46.6,91.5,76.3c144.3,85.6,235.2,155.9,272.6,210.9s56.2,143.7,56.2,266
			c0,88.9-10.4,154.5-31.2,196.6s-60.9,77.5-120.4,106s-128.8,42.8-207.8,42.8c-86.7,0-160.7-16.5-222-49.4s-101.4-74.8-120.4-125.7
			c-19-50.9-28.5-123.1-28.5-216.7v-81.7h300.7V1929c0,46.9,4.2,77.1,12.7,90.5s23.5,20.1,45.1,20.1s37.6-8.5,48.1-25.5
			s15.8-42.2,15.8-75.7c0-73.7-9.9-121.9-29.8-144.5c-20.4-22.7-70.9-60.4-151.5-113.1c-80.6-53.2-134-91.9-160.1-116.1
			s-47.8-57.6-65-100.2s-25.8-97.2-25.8-163.5c0-95.6,12.2-165.5,36.5-209.7c24.4-44.2,63.7-78.8,118.1-103.7
			C486.9,962.5,552.6,950,629.6,950 M629.6,870c-43.3,0-84.3,3.6-121.9,10.8c-39,7.4-75.5,18.8-108.4,33.9
			c-70.1,32.1-122.1,78.5-154.8,137.8c-31.3,56.7-46.5,138-46.5,248.3c0,37.2,2.5,71.8,7.4,103c5.2,33.1,13.3,63.5,24.1,90.3
			c21.5,53.5,50.1,97,84.9,129.1c19.8,18.3,51.2,42.5,95.3,73.3h-122c-44.2,0-80,35.8-80,80v81.7c0,104.2,11,184.2,33.5,244.7
			c25.9,69.4,78.9,126,157.6,168.2c37,19.8,78,34.8,122,44.6c42.5,9.5,88.9,14.2,137.9,14.2c44.7,0,87.6-4.2,127.3-12.3
			c40.8-8.4,79.5-21.3,115-38.3c36.2-17.4,67.5-37.6,93-60c27.9-24.5,49.6-52.4,64.6-82.8c26.5-53.8,39.4-129.7,39.4-232
			c0-140-22.9-241.7-70-311c-23.7-34.8-60.8-71.5-113.4-112.2c-19.5-15.1-41.4-30.8-65.5-47.2h142.1c44.2,0,80-35.8,80-80v-49.4
			c0-53-2.7-99.4-8-138c-6-43.5-15.2-78.4-28.3-106.6c-14.3-30.8-35.8-58.8-63.7-83.3c-25.3-22.1-56.6-41.9-93.1-58.6
			c-35.4-16.3-74.7-28.6-116.7-36.6C720.8,873.9,676.4,870,629.6,870L629.6,870z"/>
	</g>
	<g>
		<path fill="#FFFFFF" d="M2638.5,2263.2c-22.1,0-40-17.9-40-40l-0.2-244.4l-33.4,249.7c-2.7,19.9-19.6,34.7-39.6,34.7h-200.8
			c-19.9,0-36.8-14.6-39.6-34.3l-39.5-274.3l-0.2,268.6c0,22.1-17.9,40-40,40h-283.6c-22.1,0-40-17.9-40-40V975.6
			c0-22.1,17.9-40,40-40h419.6c19.7,0,36.5,14.4,39.5,33.9c11.5,75,24.4,164.6,38.2,266.3l3.5,24.1l36.7-289.4
			c2.5-20,19.5-35,39.7-35h423.3c22.1,0,40,17.9,40,40v1247.7c0,22.1-17.9,40-40,40H2638.5z"/>
		<path d="M2922.1,975.6v1247.7h-283.6l-0.6-842.3l-112.6,842.3h-200.8l-118.7-824l-0.6,824h-283.6V975.6h419.6
			c11.6,75.5,24.3,164.1,38.1,265.8l45.6,316.8l73.9-582.6H2922.1 M2922.1,895.6h-423.3c-39.1,0-72.2,28.2-78.8,66.3
			c-6.6-38.2-39.9-66.3-78.8-66.3h-419.6c-44.2,0-80,35.8-80,80v1247.7c0,44.2,35.8,80,80,80h283.6c23.7,0,45-10.3,59.6-26.7
			c14.7,16.5,36.1,26.7,59.6,26.7h200.8c21.9,0,42-8.9,56.6-23.5c14.5,14.5,34.5,23.5,56.6,23.5H2922c44.2,0,80-35.8,80-80V975.6
			C3002.1,931.4,2966.3,895.6,2922.1,895.6L2922.1,895.6z"/>
	</g>
	<g>
		<path fill="#FFFFFF" d="M1534.6,2263.2c-20.9,0-38.3-16.1-39.9-36.9l-14.5-187.1h-42.5l-16,187.4c-1.8,20.7-19.1,36.6-39.9,36.6
			h-335c-11.5,0-22.5-5-30.1-13.6c-7.6-8.7-11.1-20.2-9.6-31.6l165.2-1247.7c2.6-19.9,19.6-34.7,39.7-34.7h468
			c19.8,0,36.6,14.5,39.6,34.1l185.9,1247.7c1.7,11.5-1.7,23.2-9.3,32c-7.6,8.8-18.7,13.9-30.3,13.9L1534.6,2263.2L1534.6,2263.2z
			 M1463.2,1737.7c-3.6-33.8-7.2-69.5-10.8-106.9c-4.4,39.8-8.1,75.4-11.1,106.9H1463.2z"/>
		<path d="M1680,975.6l186,1247.6h-331.4l-17.4-224H1401l-19.1,224h-335L1212,975.6H1680 M1397.6,1777.7h110
			c-15.4-141-31.5-315.9-48.3-524.4C1427.1,1492.8,1406.6,1667.6,1397.6,1777.7 M1680,895.6h-468c-40.1,0-74,29.7-79.3,69.5
			L967.5,2212.7c-3,22.8,3.9,45.9,19.1,63.2c15.2,17.3,37.1,27.3,60.2,27.3h335c35.6,0,66.2-23.4,76.4-56.2
			c10.2,32.8,40.7,56.2,76.4,56.2H1866c23.3,0,45.4-10.1,60.6-27.8s22-41,18.5-64L1759.2,963.8
			C1753.3,924.6,1719.7,895.6,1680,895.6L1680,895.6z"/>
	</g>
</g>
</svg>
