<?xml version="1.0" encoding="utf-8"?>
<!-- Generator: Adobe Illustrator 18.0.0, SVG Export Plug-In . SVG Version: 6.00 Build 0)  -->
<!DOCTYPE svg PUBLIC "-//W3C//DTD SVG 1.1//EN" "http://www.w3.org/Graphics/SVG/1.1/DTD/svg11.dtd">
<svg version="1.1" id="Livello_1" xmlns="http://www.w3.org/2000/svg" xmlns:xlink="http://www.w3.org/1999/xlink" x="0px" y="0px"
	 viewBox="0 0 3200 3200" enable-background="new 0 0 3200 3200" xml:space="preserve">
<g>
	<g>
		<path d="M1658,2c1.4,0.5,2.9,1.4,4.3,1.4c39.9,0.1,79.5,3.9,119.1,8.1c43.6,4.6,86.8,11.6,129.8,19.9
			C1971.6,43,2031,58.5,2089.7,77c62.1,19.6,122.7,43.2,181.9,70.3c75.7,34.7,148,75.3,217.4,121.4
			c61.3,40.7,119.7,85.2,174.4,134.2c32,28.6,63.2,58.2,93.1,89c62.8,64.7,119.4,134.7,170.2,209.3c35.6,52.2,67.9,106.4,97.2,162.4
			c42.5,81.1,77.3,165.4,105.1,252.5c20.6,64.5,37,130.1,49,196.7c6.9,38.1,12.9,76.4,16.4,115c2.1,23.8,4.3,47.5,5.9,71.3
			c1.1,15.6,1.4,31.2,2,46.8c1.5,24.2,0.5,48.4,0.6,72.6c0.1,13.2,0.9,26.5-0.6,39.7c-0.2,9.3-0.2,18.6-0.7,28
			c-2,41-5.7,81.9-11,122.7c-5.3,40.7-12.1,81.2-20.3,121.4c-10,48.8-22.5,96.9-37.1,144.4c-18.5,60-40.4,118.7-65.9,176.1
			c-26,58.7-55.6,115.5-88.5,170.7c-48.1,80.7-103.1,156.4-164.4,227.5c-32.2,37.3-65.9,73.2-101.5,107.2
			c-60.6,58-125.2,111.2-194,159.2c-48.8,34.1-99.4,65.3-151.7,93.9c-61,33.3-124.1,62.1-188.9,87.2
			c-45.2,17.5-91.2,32.7-137.9,45.9c-59.8,16.9-120.3,30.4-181.7,40c-37.7,5.9-75.4,11-113.5,13.9c-19.2,1.4-38.4,2.7-57.6,4
			c-9.9,0.7-19.8,1.3-29.7,1.9c-5.5,2-11.1,1-16.7,0.9c-30.5-0.3-60.9,1.1-91.4-0.7c-10.2-0.7-20.5-1.7-30.7-2.1
			c-37.8-1.5-75.4-5.3-112.9-9.8c-71.3-8.4-141.6-22.1-211-40.3c-87.5-23-172.4-53.3-254.8-90.8c-73-33.3-143-71.8-210.2-115.6
			c-61.9-40.3-120.7-84.8-176.5-133.2c-17.3-15-34.1-30.7-50.7-46.5c-16.4-15.6-32.8-31.3-48.5-47.5
			c-40.9-42.3-79.6-86.5-115.5-133.1c-27.2-35.3-53.2-71.4-77.5-108.8c-28.2-43.5-54.3-88.3-78.4-134.2
			c-25-47.7-47.1-96.7-67.2-146.6c-27.3-68.2-49.6-138.1-67-209.4c-12.3-50.2-22.6-100.8-29.1-152.1c-3.6-28.9-7-57.8-9.9-86.8
			c-1.9-19.1-2.8-38.3-4.1-57.5c-0.6-9.2-1.3-18.4-2.1-27.6c-0.1-0.8-1-1.5-1.6-2.3c0-37.3,0-74.7,0-112c0.6-1.1,1.6-2.1,1.7-3.2
			c1-14.2,1.6-28.4,2.7-42.6c1.9-25.1,3.5-50.3,6.2-75.3c2.4-22.7,6-45.3,9.2-67.9c6.2-42.9,14.7-85.5,24.8-127.7
			c17.2-72.1,39.3-142.7,66.5-211.7c14.4-36.4,30-72.3,46.9-107.7c32.4-67.9,69.7-133,111.5-195.6c41.4-62,86.9-120.8,136.5-176.4
			c27.5-30.8,55.9-60.7,85.7-89.3c49.5-47.4,101.6-91.7,156.7-132.5c58.5-43.5,119.7-82.8,183.5-118c44.2-24.4,89.6-46.3,136-66.4
			c43.9-19,88.6-35.8,134.1-50.8c60.6-19.9,122.2-36.4,184.8-48.5c36.8-7.1,73.8-12.9,110.9-18.2c23.9-3.4,48.1-5.3,72.3-7
			c24.5-1.8,49.1-2.6,73.6-4c1.5-0.1,2.9-0.9,4.3-1.4C1586,2,1622,2,1658,2z"/>
		<path fill="#AAAAAA" d="M3202.3,1658.1c0-37.4,0-74.9,0-112.3c0.6-0.1,1.2,0,1.7,0.1c0,37.3,0,74.7,0,112l-0.8,0.2L3202.3,1658.1z
			"/>
		<path fill="#AAAAAA" d="M1549.9,3202.2c36-0.1,72-0.2,108.1-0.2c0,0.7,0,1.3,0,2c-36,0-72,0-108,0
			C1549.9,3203.4,1549.8,3202.8,1549.9,3202.2z"/>
		<path fill="#CDCED0" d="M23.1,1677.4c0.6-351,67.2-609,202.2-848.8C364.2,582.1,555.5,386.2,798.8,242
			C1058.5,88,1340.4,13.9,1642,22.7c427.5,12.5,791.6,174.1,1093.6,476.4c304.9,321,454.6,702.7,448.1,1145.5
			c-15.9,426.3-176,789.3-477.7,1090.3c-320.7,304.1-701.8,454.5-1143.9,446.9c-192.5-3.3-378.2-43-556.4-116.2
			C801.9,2981.9,622.9,2861,469.4,2703c-139.5-143.6-247.9-308.1-325.2-492.9C66.8,2025.2,22,1817.4,23.1,1677.4z"/>
		<path d="M104.4,1601.4c0-24-0.9-48,0.2-71.9c1.4-29.8,4-59.6,7.2-89.3c3.4-31.7,7.4-63.3,12.1-94.8
			c8.8-58.7,22.5-116.2,40.2-172.9c20.4-65.2,44.6-128.9,72.9-191.1c23.4-51.2,49.9-100.8,78.4-149.4
			c43.9-75,94.9-144.7,151.9-210.2c30.4-35,62.1-68.7,95.6-100.7c47.7-45.5,97.5-88.6,150.6-127.9c50.1-37.1,102.8-70.2,157.2-100.6
			c71.5-40.1,146-73.9,222.8-102.4c54.6-20.2,110.1-38,166.9-51c34.3-7.8,69.2-13.6,104-19.1c30.8-4.9,61.9-8.8,92.9-11.7
			c28.8-2.7,57.7-4,86.6-5c29.9-1,59.9-1.9,89.9-1.1c35.2,0.9,70.4,2.9,105.5,5.5c57.4,4.2,114.2,12.9,170.8,23.6
			c44.5,8.5,88,20.7,131.3,34.1c44.5,13.9,88.2,29.9,131.2,47.7c56.3,23.4,111.2,49.6,164.3,79.5c58.1,32.6,114.4,68.2,167.6,108.5
			c35,26.6,68.9,54.5,101.2,84.3c25.2,23.2,50.2,46.8,74.2,71.3c42.4,43.3,81.9,89.2,119,137.2c30.6,39.6,58.4,81,84.4,123.8
			c42.5,70.1,79.6,143,110.8,218.9c27.8,67.5,51,136.6,69,207.3c7.4,29,13,58.5,17.7,88c6,37.4,11.3,74.9,15.2,112.5
			c3.4,32.7,5.1,65.6,6.2,98.4c1.3,35.9,2,71.9,1.2,107.9c-0.7,31.8-3,63.7-5.9,95.5c-6.3,69.6-16.3,138.7-32.6,206.6
			c-14.8,61.9-34.7,122.3-57.6,181.6c-18.6,48.1-39.4,95.3-62.7,141.4c-55.9,110.8-123.2,213.9-205.3,307.3
			c-30.4,34.5-61.6,68.2-94.9,99.9c-63,60.1-129.4,116-202,164.2c-47.7,31.7-97.1,60.6-148,87c-76,39.5-154.8,72.6-236.2,99.2
			c-45.5,14.9-91.5,28.5-138.6,37.6c-51.3,10-102.9,17.7-154.8,23.3c-68.7,7.3-137.5,8.8-206.4,7.5c-31.2-0.6-62.4-3.4-93.6-5.6
			c-47.2-3.3-93.9-10.2-140.4-18.2c-48.3-8.2-95.7-19.9-142.6-34.2c-69.2-21-136.6-46.6-202.2-76.8
			c-70.6-32.4-138.3-70.1-203.4-112.4c-59.3-38.6-114.6-82.3-167.4-129.2c-29.7-26.3-58.5-53.6-85.8-82.2
			c-60.3-63.2-116.4-129.8-164.7-202.8c-31.3-47.2-60-96-86.1-146.2c-45.2-86.8-81.5-177-110.2-270.5c-18-58.7-31.4-118.3-39.9-179
			c-4.7-33.5-8.4-67.2-12.1-100.9C104.6,1696.5,103,1649,104.4,1601.4z"/>
		<path fill="#01A54F" d="M2136.2,2350.3c0,178,0,356,0,534c0,16.9,1.7,12.7-12.2,18.5c-56.5,23.7-114.2,44-173.3,59.7
			c-27.8,7.4-56.4,12.1-84.8,17.4c-20.2,3.7-40.6,6.6-61,9.4c-14.5,2-29,3.3-43.6,4.6c-22.1,2-44.3,3.9-66.5,5.7
			c-4.3,0.4-8.7,0.2-13,0.3c-40.9,0.6-81.9,1.8-122.8,1.6c-25.6-0.1-51.2-1.6-76.6-4c-40.3-3.9-80.6-8.5-120.7-13.8
			c-68.7-9.2-135.4-27.2-200.5-50.8c-27.5-10-54.7-20.7-81.9-31.4c-11-4.3-9.1-3.6-9.1-13.7c0-139.3,0-278.6,0-418
			c0-218.3,0-436.6,0-655c0-14.4-1.7-12.8,12.8-12.8c346.6,0,693.3,0,1039.9,0c15,0,13.2-1.8,13.2,13.3
			C2136.3,1993.7,2136.2,2172,2136.2,2350.3z"/>
		<path fill="#FFFFFF" d="M216,1402.1c6.4-47.4,12.7-93.6,24.4-138.8c12.8-49.3,29.3-97.4,47.5-145c19.5-51,41.5-100.9,66.3-149.5
			c25.8-50.7,54.4-99.9,85.3-147.7c32.6-50.5,70.4-97,110.6-141.4c26.1-28.9,52.7-57.4,80.6-84.5c52.3-50.8,107.2-98.8,167.2-140.5
			c50.9-35.3,104.4-66.4,159.3-95c75.4-39.2,153.5-71.5,234-98.6c57.2-19.3,115.7-33,175.5-41.1c25.7-3.5,51.4-6.4,77.1-9.6
			c1.3-0.2,2.6-0.4,4-0.5c3.9-0.4,6.6,0.4,6,5.3c-0.2,1.6,0,3.3,0,5c0,390.6,0,781.2,0,1171.8c0,2-0.1,4,0,6c0.2,2.9-1,4.3-4,4.2
			c-2.3-0.1-4.7,0-7,0c-405.3,0-810.5,0-1215.8,0C223.6,1402.1,220.3,1402.1,216,1402.1z"/>
		<path fill="#01A54F" d="M1603,1752c-459.7,0-919.3,0-1379,0c-4.2,0-9.5,0.7-12.4-1.5c-2.2-1.7-1.7-7.3-2-11.2
			c-1.3-14.9-3.1-29.8-3.4-44.8c-1-42.3-2.1-84.6-2-126.9c0.1-25.6,2.1-51.2,3.4-76.8c0.6-10.6,1.5-21.2,2.4-31.8
			c0.5-6.8,0.6-6.8,7.8-7c2-0.1,4,0,6,0c919.6,0,1839.3,0,2758.9,0c14.2,0,14,0,15.2,13.7c4.8,58.1,6.5,116.4,5.4,174.7
			c-0.3,18.6-1.8,37.2-2.9,55.8c-0.7,12.9-1.6,25.9-2.5,38.8c-0.3,4-0.8,7.9-1.2,11.9c-0.3,3.6-2,5.3-5.9,5.1c-3-0.2-6,0-9,0
			C2522.3,1752,2062.6,1752,1603,1752z"/>
		<path fill="#01A54F" d="M1753.8,806.1c0-194.3,0-388.6,0-582.9c0-15-2.2-14.5,14.2-12.8c55.2,5.8,110,14,164.2,25.9
			c21.7,4.7,42.8,12.1,64.1,18.5c13.7,4.1,27.1,9,40.8,13.3c5.3,1.7,7.7,4.6,6.8,10.2c-0.4,2.3-0.1,4.7-0.1,7
			c0,367.6,0,735.1,0,1102.7c0,16,2,14-13.5,14c-87.6,0.1-175.3,0.1-262.9,0c-15.2,0-13.5,1.9-13.5-13.1
			C1753.7,1194.6,1753.8,1000.3,1753.8,806.1z"/>
		<path fill="#01A54F" d="M2333.8,405.9c16.8,10.5,31.7,19.8,46.6,29.2c45.5,28.7,87,62.5,127.7,97.4c36.4,31.2,71,64.4,104.6,98.6
			c11.1,11.3,11.1,11.3,11.1,26.9c0,243.6,0,487.3,0,730.9c0,15,1.7,13.1-13.5,13.1c-88.3,0.1-176.6,0-265,0
			c-12.4,0-11.5,1.2-11.5-11.1c0-324.6,0-649.2,0-973.9C2333.8,414.1,2333.8,411.1,2333.8,405.9z"/>
		<path fill="#01A54F" d="M2670.2,2506.4c0-3.6,0-7.1,0-10.7c0-226.9,0-453.9,0-680.8c0-1.3,0-2.7,0-4c0.1-8.7,0.1-8.8,8.8-8.8
			c42.3,0,84.6,0,127,0c56.7,0,113.3,0,170,0c2,0,4,0,6,0c8.6,0.1,8.9,0.2,7.9,9.2c-1.2,10.9-2.6,21.8-4.6,32.6
			c-4.9,27.5-9.4,55-15.4,82.3c-4.6,20.7-10.8,41.1-16.9,61.5c-11.8,39.5-25.4,78.5-41.2,116.6c-13.4,32.6-27.7,64.8-42.4,96.9
			c-25.5,55.4-55.9,108.2-87.8,160.1c-25,40.6-53,79-83.6,115.6c-8.5,10.2-17,20.3-25.5,30.5
			C2671.8,2506.9,2671,2506.7,2670.2,2506.4z"/>
		<path fill="#01A54F" d="M533.7,2507c-16.7-20.6-33.8-41.1-50.2-62c-40.5-51.5-73.8-107.5-105.4-164.6
			c-52-93.7-92.9-192.1-124.9-294.3c-12.2-39.1-21.4-78.8-27.5-119.3c-2.8-18.7-5.9-37.4-8.9-56.1c-0.3-1.6-0.9-3.5-0.4-4.9
			c0.5-1.5,2-3.2,3.4-3.6c2.2-0.6,4.6-0.2,6.9-0.2c99.6,0,199.2,0,298.8,0c1.7,0,3.3,0.1,5,0c4.5-0.4,5.8,2,5.6,6
			c-0.1,2.3,0,4.7,0,7c0,226.9,0,453.8,0,680.6c0,3.5,0,7.1,0,10.6C535.4,2506.5,534.6,2506.8,533.7,2507z"/>
		<path fill="#01A54F" d="M2915.7,1109.5c3.3,8.5,6.7,17,9.9,25.6c16.3,44.3,31.5,89,42.6,134.9c5.7,23.5,9.4,47.5,13.7,71.3
			c2.8,15.4,4.9,30.8,7.3,46.2c0.2,1,0.3,2,0.5,3c1.4,11.4,1.4,11.4-10.5,11.5c-17.3,0-34.6,0.1-52,0c-15.2-0.1-13.5,1.9-13.5-13
			c-0.1-72.9,0-145.9,0-218.8c0-17.3,0-34.6,0-52c0-2.8,0-5.6,0-8.4C2914.4,1109.7,2915.1,1109.6,2915.7,1109.5z"/>
	</g>
</g>
<g>
	<g>
		<path fill="#FFFFFF" d="M802.2,2290c-93,0-174-18.2-240.9-54.1c-69.8-37.5-116.6-86.9-139-147c-20.9-55.9-31-131.4-31-230.7v-81.7
			c0-22.1,17.9-40,40-40h253.1c-10.3-7-21.6-14.4-33.9-22.5l-0.1-0.1c-83.2-54.9-137.2-94.2-165.3-120.1
			c-30.4-28.1-55.6-66.7-74.9-114.7c-19-47.2-28.6-107.2-28.6-178.4c0-103.4,13.6-178.3,41.5-229c28.5-51.7,74.4-92.3,136.5-120.8
			c59.4-27.2,131.3-41,213.7-41c89.5,0,167.5,15,231.8,44.5c67.8,31.2,114,72.4,137.3,122.4c21.9,47.2,32.6,121.7,32.6,227.8v49.4
			c0,22.1-17.9,40-40,40H854.6c150.1,89.1,242.9,161.7,284,222c42.5,62.4,63.1,156.8,63.1,288.5c0,96-11.5,166.1-35.3,214.3
			c-24.8,50.2-71.5,92-139,124.4C962.6,2274.3,886.9,2290,802.2,2290z M778.4,1997.8c0.9,0.4,4.1,1.6,11.3,1.6
			c9.3,0,11.8-2.7,14.1-6.6c3.7-5.9,9.8-20.9,9.8-54.7c0-87.7-14.9-112.4-19.7-118c-4.3-4.7-11.1-11.2-22-20.2v128.8
			C771.9,1979.3,777.1,1994.7,778.4,1997.8z M784,1200.6c-6.5,0-8.2,1.6-10.5,5.2c-2.7,4.3-8.9,17.8-8.9,51.4
			c0,43.6,6.6,65.2,12.1,75.6c0.1,0.2,0.2,0.5,0.4,0.7c1.3,2.6,5.3,8.8,17.1,19.1v-91.4c0-39.8-3.5-55.4-5-60.2
			C788.2,1200.8,786.5,1200.6,784,1200.6z"/>
		<path d="M773.2,950c84.1,0,155.8,13.6,215.1,40.9c59.2,27.3,98.5,61.6,117.7,103s28.9,111.7,28.9,210.9v49.4H834.2v-92.9
			c0-43.4-3.9-71-11.6-82.8c-7.7-11.9-20.6-17.8-38.6-17.8c-19.6,0-34.3,8-44.4,24c-10,16-15,40.2-15,72.6
			c0,41.7,5.6,73.2,16.7,94.3c10.7,21.1,41.1,46.6,91.5,76.3c144.3,85.6,235.2,155.9,272.6,210.9s56.2,143.7,56.2,266
			c0,88.9-10.4,154.5-31.2,196.6c-20.8,42.1-60.9,77.5-120.4,106s-128.8,42.8-207.8,42.8c-86.7,0-160.7-16.5-222-49.4
			s-101.4-74.8-120.4-125.7c-19-50.9-28.5-123.1-28.5-216.7v-81.7H732V1929c0,46.9,4.2,77.1,12.7,90.5s23.5,20.1,45.1,20.1
			s37.6-8.5,48.1-25.5s15.8-42.2,15.8-75.7c0-73.7-9.9-121.9-29.8-144.5c-20.4-22.7-70.9-60.4-151.5-113.1
			c-80.6-53.2-134-91.9-160.1-116.1c-26.1-24.2-47.8-57.6-65-100.2s-25.8-97.2-25.8-163.5c0-95.6,12.2-165.5,36.5-209.7
			c24.4-44.2,63.7-78.8,118.1-103.7C630.6,962.5,696.3,950,773.2,950 M773.2,870c-43.3,0-84.3,3.6-121.9,10.8
			c-39,7.4-75.5,18.8-108.4,33.9c-70.1,32.1-122.1,78.5-154.8,137.8c-31.3,56.7-46.5,138-46.5,248.3c0,37.2,2.5,71.8,7.4,103
			c5.2,33.1,13.3,63.5,24.1,90.3c21.5,53.5,50.1,97,84.9,129.1c19.8,18.3,51.2,42.5,95.3,73.3h-122c-44.2,0-80,35.8-80,80v81.7
			c0,104.2,11,184.2,33.5,244.7c25.9,69.4,78.9,126,157.6,168.2c37,19.8,78,34.8,122,44.6c42.5,9.5,88.9,14.2,137.9,14.2
			c44.7,0,87.6-4.2,127.3-12.3c40.8-8.4,79.5-21.3,115-38.3c36.2-17.4,67.5-37.6,93-60c27.9-24.5,49.6-52.4,64.6-82.8
			c26.5-53.8,39.4-129.7,39.4-232c0-140-22.9-241.7-70-311c-23.7-34.8-60.8-71.5-113.4-112.2c-19.5-15.1-41.4-30.8-65.5-47.2h142.1
			c44.2,0,80-35.8,80-80v-49.4c0-53-2.7-99.4-8-138c-6-43.5-15.2-78.4-28.3-106.6c-14.3-30.8-35.8-58.8-63.7-83.3
			c-25.3-22.1-56.6-41.9-93.1-58.6c-35.4-16.3-74.7-28.6-116.7-36.6C864.4,873.9,820.1,870,773.2,870L773.2,870z"/>
	</g>
	<g>
		<path fill="#FFFFFF" d="M2419,2290c-93,0-174-18.2-240.9-54.1c-69.8-37.5-116.6-86.9-139-147c-20.9-55.9-31-131.4-31-230.7v-81.7
			c0-22.1,17.9-40,40-40h253.1c-10.3-7-21.6-14.4-33.9-22.5l-0.1-0.1c-83.2-54.9-137.2-94.2-165.3-120.1
			c-30.4-28.1-55.6-66.7-74.9-114.7c-19-47.2-28.6-107.2-28.6-178.4c0-103.4,13.6-178.3,41.5-229c28.5-51.7,74.4-92.3,136.5-120.8
			c59.4-27.2,131.3-41,213.7-41c89.5,0,167.5,15,231.8,44.5c67.8,31.2,114,72.4,137.3,122.4c21.9,47.2,32.6,121.7,32.6,227.8v49.4
			c0,22.1-17.9,40-40,40h-280.3c150.1,89.1,242.9,161.7,284,222c42.5,62.4,63.1,156.8,63.1,288.5c0,96-11.5,166.1-35.3,214.3
			c-24.8,50.2-71.5,92-139,124.4C2579.4,2274.3,2503.7,2290,2419,2290z M2395.3,1997.8c0.9,0.4,4.1,1.6,11.3,1.6
			c9.3,0,11.8-2.7,14.1-6.6c3.7-5.9,9.8-20.9,9.8-54.7c0-87.7-14.9-112.4-19.7-118c-4.3-4.7-11.1-11.2-22-20.2v128.8
			C2388.8,1979.3,2393.9,1994.7,2395.3,1997.8z M2400.9,1200.6c-6.5,0-8.2,1.6-10.5,5.2c-2.7,4.3-8.9,17.8-8.9,51.4
			c0,43.6,6.6,65.2,12.1,75.6c0.1,0.2,0.2,0.5,0.4,0.7c1.3,2.6,5.3,8.8,17.1,19.1v-91.4c0-39.8-3.5-55.4-5-60.2
			C2405,1200.8,2403.3,1200.6,2400.9,1200.6z"/>
		<path d="M2390,950c84.1,0,155.8,13.6,215.1,40.9c59.2,27.3,98.5,61.6,117.7,103s28.9,111.7,28.9,210.9v49.4H2451v-92.9
			c0-43.4-3.9-71-11.6-82.8c-7.7-11.9-20.6-17.8-38.6-17.8c-19.6,0-34.3,8-44.4,24c-10,16-15,40.2-15,72.6
			c0,41.7,5.6,73.2,16.7,94.3c10.7,21.1,41.1,46.6,91.5,76.3c144.3,85.6,235.2,155.9,272.6,210.9c37.4,55,56.2,143.7,56.2,266
			c0,88.9-10.4,154.5-31.2,196.6s-60.9,77.5-120.4,106s-128.8,42.8-207.8,42.8c-86.7,0-160.7-16.5-222-49.4s-101.4-74.8-120.4-125.7
			c-19-50.9-28.5-123.1-28.5-216.7v-81.7h300.7V1929c0,46.9,4.2,77.1,12.7,90.5s23.5,20.1,45.1,20.1s37.6-8.5,48.1-25.5
			s15.8-42.2,15.8-75.7c0-73.7-9.9-121.9-29.8-144.5c-20.4-22.7-70.9-60.4-151.5-113.1c-80.6-53.2-134-91.9-160.1-116.1
			s-47.8-57.6-65-100.2s-25.8-97.2-25.8-163.5c0-95.6,12.2-165.5,36.5-209.7c24.4-44.2,63.7-78.8,118.1-103.7
			C2247.4,962.5,2313.1,950,2390,950 M2390,870c-43.3,0-84.3,3.6-121.9,10.8c-39,7.4-75.5,18.8-108.4,33.9
			c-70.1,32.1-122.1,78.5-154.8,137.8c-31.3,56.7-46.5,138-46.5,248.3c0,37.2,2.5,71.8,7.4,103c5.2,33.1,13.3,63.5,24.1,90.3
			c21.5,53.5,50.1,97,84.9,129.1c19.8,18.3,51.2,42.5,95.3,73.3h-122c-44.2,0-80,35.8-80,80v81.7c0,104.2,11,184.2,33.5,244.7
			c25.9,69.4,78.9,126,157.6,168.2c37,19.8,78,34.8,122,44.6c42.5,9.5,88.9,14.2,137.9,14.2c44.7,0,87.6-4.2,127.3-12.3
			c40.8-8.4,79.5-21.3,115-38.3c36.2-17.4,67.5-37.6,93-60c27.9-24.5,49.6-52.4,64.6-82.8c26.5-53.8,39.4-129.7,39.4-232
			c0-140-22.9-241.7-70-311c-23.7-34.8-60.8-71.5-113.4-112.2c-19.5-15.1-41.4-30.8-65.5-47.2h142.1c44.2,0,80-35.8,80-80v-49.4
			c0-53-2.7-99.4-8-138c-6-43.5-15.2-78.4-28.3-106.6c-14.3-30.8-35.8-58.8-63.7-83.3c-25.3-22.1-56.6-41.9-93.1-58.6
			c-35.4-16.3-74.7-28.6-116.7-36.6C2481.2,873.9,2436.9,870,2390,870L2390,870z"/>
	</g>
	<g>
		<path fill="#FFFFFF" d="M1678.2,2263.2c-20.9,0-38.3-16.1-39.9-36.9l-14.5-187.1h-42.5l-16,187.4c-1.8,20.7-19.1,36.6-39.9,36.6
			h-335c-11.5,0-22.5-5-30.1-13.6c-7.6-8.7-11.1-20.2-9.6-31.6L1316,970.3c2.6-19.9,19.6-34.7,39.7-34.7h468
			c19.8,0,36.6,14.5,39.6,34.1l185.9,1247.7c1.7,11.5-1.7,23.2-9.3,32c-7.6,8.8-18.7,13.9-30.3,13.9L1678.2,2263.2L1678.2,2263.2z
			 M1606.8,1737.7c-3.6-33.8-7.2-69.5-10.8-106.9c-4.4,39.8-8.1,75.4-11.1,106.9H1606.8z"/>
		<path d="M1823.7,975.6l185.9,1247.7h-331.4l-17.4-224h-116.3l-19.1,224h-335l165.2-1247.7L1823.7,975.6 M1541.3,1777.7h110
			c-15.4-141-31.5-315.9-48.3-524.4C1570.8,1492.8,1550.2,1667.6,1541.3,1777.7 M1823.7,895.6h-468c-40.1,0-74,29.7-79.3,69.5
			l-165.2,1247.7c-3,22.8,3.9,45.9,19.1,63.2s37.1,27.3,60.2,27.3h335c35.6,0,66.2-23.4,76.4-56.2c10.2,32.8,40.7,56.2,76.4,56.2
			h331.4c23.3,0,45.4-10.1,60.6-27.8c15.2-17.6,22-41,18.5-64l-186-1247.7C1897,924.6,1863.3,895.6,1823.7,895.6L1823.7,895.6z"/>
	</g>
</g>
</svg>
