<?xml version="1.0" encoding="utf-8"?>
<!-- Generator: Adobe Illustrator 18.0.0, SVG Export Plug-In . SVG Version: 6.00 Build 0)  -->
<!DOCTYPE svg PUBLIC "-//W3C//DTD SVG 1.1//EN" "http://www.w3.org/Graphics/SVG/1.1/DTD/svg11.dtd">
<svg version="1.1" id="Livello_1" xmlns="http://www.w3.org/2000/svg" xmlns:xlink="http://www.w3.org/1999/xlink" x="0px" y="0px"
	 viewBox="0 0 3200 3200" enable-background="new 0 0 3200 3200" xml:space="preserve">
<g>
	<g>
		<path d="M1658,2c1.4,0.5,2.9,1.4,4.3,1.4c39.9,0.1,79.5,3.9,119.1,8.1c43.6,4.6,86.8,11.6,129.8,19.9
			C1971.6,43,2031,58.5,2089.7,77c62.1,19.6,122.7,43.2,181.9,70.3c75.7,34.7,148,75.3,217.4,121.4
			c61.3,40.7,119.7,85.2,174.4,134.2c32,28.6,63.2,58.2,93,89c62.8,64.7,119.4,134.7,170.2,209.3c35.6,52.2,67.9,106.4,97.2,162.4
			c42.5,81.1,77.3,165.4,105.1,252.5c20.6,64.5,37,130.1,49,196.7c6.9,38.1,12.9,76.4,16.4,115c2.1,23.8,4.3,47.5,5.9,71.3
			c1.1,15.6,1.4,31.2,2,46.8c1.5,24.2,0.5,48.4,0.6,72.6c0.1,13.2,0.9,26.5-0.6,39.7c-0.2,9.3-0.2,18.6-0.7,28
			c-2,41-5.7,81.9-11,122.7c-5.3,40.7-12.1,81.2-20.3,121.4c-10,48.8-22.5,96.9-37.1,144.4c-18.5,60-40.4,118.7-65.9,176.1
			c-26,58.7-55.6,115.5-88.5,170.7c-48.1,80.7-103.1,156.4-164.4,227.5c-32.2,37.3-65.9,73.2-101.5,107.2
			c-60.6,58-125.2,111.2-194,159.2c-48.8,34.1-99.4,65.3-151.7,93.9c-61,33.3-124.1,62.1-188.9,87.2
			c-45.2,17.5-91.2,32.7-137.9,45.9c-59.8,16.9-120.3,30.4-181.7,40c-37.7,5.9-75.4,11-113.5,13.9c-19.2,1.4-38.4,2.7-57.6,4
			c-9.9,0.7-19.8,1.3-29.7,1.9c-5.5,2-11.1,1-16.7,0.9c-30.5-0.3-60.9,1.1-91.4-0.7c-10.2-0.7-20.5-1.7-30.7-2.1
			c-37.8-1.5-75.4-5.3-112.9-9.8c-71.3-8.4-141.6-22.1-211-40.3c-87.5-23-172.4-53.3-254.8-90.8c-73-33.3-143-71.8-210.2-115.6
			c-61.9-40.3-120.7-84.8-176.5-133.2c-17.3-15-34.1-30.7-50.7-46.5c-16.4-15.6-32.8-31.3-48.5-47.5
			c-40.9-42.3-79.6-86.5-115.5-133.1c-27.2-35.3-53.2-71.4-77.5-108.8c-28.2-43.5-54.3-88.3-78.4-134.2
			c-25-47.7-47.1-96.7-67.2-146.6c-27.3-68.2-49.6-138.1-67-209.4c-12.3-50.2-22.6-100.8-29.1-152.1c-3.6-28.9-7-57.8-9.9-86.8
			c-1.9-19.1-2.8-38.3-4.1-57.5c-0.6-9.2-1.3-18.4-2.1-27.6c-0.1-0.8-1-1.5-1.6-2.3c0-37.3,0-74.7,0-112c0.6-1.1,1.6-2.1,1.7-3.2
			c1-14.2,1.6-28.4,2.7-42.6c1.9-25.1,3.5-50.3,6.2-75.3c2.4-22.7,6-45.3,9.2-67.9c6.2-42.9,14.7-85.5,24.8-127.7
			c17.2-72.1,39.3-142.7,66.5-211.7c14.4-36.4,30-72.3,46.9-107.7c32.4-67.9,69.7-133,111.5-195.6c41.4-62,86.9-120.8,136.5-176.4
			c27.5-30.8,55.9-60.7,85.7-89.3c49.5-47.4,101.6-91.7,156.7-132.5c58.6-43.5,119.8-82.8,183.6-118c44.2-24.4,89.6-46.3,136-66.4
			c43.9-19,88.6-35.8,134.1-50.8c60.6-19.9,122.2-36.4,184.8-48.5c36.8-7.1,73.8-12.9,110.9-18.2c23.9-3.4,48.1-5.3,72.3-7
			c24.5-1.8,49.1-2.6,73.6-4c1.5-0.1,2.9-0.9,4.3-1.4C1586,2,1622,2,1658,2z"/>
		<path fill="#AAAAAA" d="M3202.3,1658.1c0-37.4,0-74.9,0-112.3c0.6-0.1,1.2,0,1.7,0.1c0,37.3,0,74.7,0,112l-0.8,0.2L3202.3,1658.1z
			"/>
		<path fill="#AAAAAA" d="M1549.9,3202.2c36-0.1,72-0.2,108.1-0.2c0,0.7,0,1.3,0,2c-36,0-72,0-108,0
			C1549.9,3203.4,1549.8,3202.8,1549.9,3202.2z"/>
		<path fill="#ECB215" d="M23.3,1623.6c-0.2-276.3,57.3-517.5,174.4-743.8c139.6-269.9,340.4-483.1,601.8-638.1
			C1058.7,88,1340.1,14.1,1641,22.8c428,12.3,792.4,174,1094.7,476.7c304.3,320.6,454.1,701.7,447.9,1143.8
			c-15.4,426.8-175.6,790.2-477.6,1091.6c-320.5,303.9-701.2,454.5-1143.1,447c-192.9-3.3-378.9-42.9-557.4-116.3
			c-203.6-83.6-382.3-204.3-535.7-362.1C330,2559.6,221.3,2394.9,144,2209.7C62.9,2015.3,23,1812.7,23.3,1623.6z"/>
		<path fill="#861F19" d="M104.3,1602c0-23-0.7-46,0.2-69c0.9-23.2,3.2-46.3,5.1-69.5c1.2-14.2,2.4-28.5,4.2-42.6
			c3.2-25.7,6.1-51.5,10.5-76.9c5.6-32.4,11.5-64.8,19.2-96.7c15-61.8,35-122,58.1-181.2c20.7-53.1,44.1-104.9,70.2-155.5
			c32.9-63.7,69.5-125.2,111.6-183.2c23.1-31.7,47.8-62.3,72.8-92.6c18.5-22.3,38.4-43.3,58.2-64.4c15-16.1,30.1-32,46-47.2
			c40.4-38.6,82.4-75.5,126.5-110c59.2-46.2,122.3-86.4,187.9-122.9c69.1-38.4,140.7-71,214.7-98.6c55.5-20.7,111.9-38.6,169.5-52.2
			c26.5-6.2,53.4-10.7,80.2-15.5c20.6-3.6,41.3-6.7,62-9.5c14.1-1.9,28.4-3.2,42.6-4.5c22.5-2.1,45-4,67.5-5.8
			c4.6-0.4,9.3-0.2,14-0.3c40.9-0.6,81.9-1.8,122.8-1.6c25.2,0.1,50.5,1.7,75.6,4c36.4,3.3,72.7,6.9,108.9,12
			c65.2,9.3,129.6,22.5,192.6,42.1c66.8,20.8,132.2,45.1,195.8,74c75.9,34.5,148.5,74.9,218.1,120.8
			c49.6,32.7,96.1,69.2,141.1,107.9c35.9,30.8,70.4,63.2,103.1,97.3c56.5,58.9,109.1,121.2,155.3,188.6c30.9,45.1,59,91.9,85,139.9
			c32.2,59.5,60.2,120.9,84.4,184.1c22.3,58.1,41.8,117.1,56,177.7c8,34.2,14.2,68.9,19.7,103.7c5.1,32.1,8.5,64.5,12.2,96.8
			c1.8,16.2,2.6,32.4,4,48.6c4.2,46.5,3.8,93.1,3.3,139.7c-0.2,20.6-2.1,41.1-3.3,61.7c-0.6,10.6-1.1,21.2-2.1,31.8
			c-2.4,24.4-4.5,48.9-7.8,73.3c-4.1,30.2-9.2,60.4-14.1,90.5c-6.2,38.1-15.8,75.4-26.7,112.4c-22.4,76-50.2,150.1-83.7,222
			c-22.7,48.6-47.9,95.8-75,142.1c-43.1,73.5-93,141.9-148.7,206.2c-36.7,42.3-75.2,82.9-116.2,120.9
			c-55.9,51.9-114.6,100.5-178.1,143c-49,32.8-99.8,62.6-152.1,90c-54.9,28.7-111.5,53.7-169.3,75.9
			c-58.7,22.5-118.6,41.6-179.9,55.7c-37.8,8.7-76.3,14.9-114.7,20.8c-32.1,4.9-64.6,8.2-96.9,11.5c-16.5,1.7-33.2,2.3-49.8,2.7
			c-33.9,0.9-67.9,1.6-101.8,2c-31.3,0.4-62.5-1-93.7-3.9c-19.2-1.8-38.5-2.6-57.6-4.8c-24.4-2.7-48.8-5.7-73.1-9.7
			c-30.5-5-60.9-10.4-91.1-17c-50.7-11-100.3-26.5-149.2-43.5c-65.4-22.8-129.1-49.9-190.9-81.2c-51.4-26.1-101.2-54.9-149.7-86.2
			c-53.3-34.4-103.3-73-151.2-114.4c-18.4-15.9-36.1-32.5-53.9-49.1c-13.1-12.3-26.1-24.7-38.7-37.5c-39.6-40-76.6-82.3-111.8-126.2
			c-49.5-61.7-92.1-128.1-130.5-197.2c-29.6-53.3-55.8-108.2-79-164.6c-28.1-68.4-51.9-138.2-69.5-210
			c-7.8-31.9-13.6-64.3-19.2-96.7c-4.7-27.5-8.2-55.1-11.7-82.8c-2.1-16.5-3.1-33.1-4.4-49.6C104.7,1685.9,102.9,1644,104.3,1602z"
			/>
		<path fill="#FFFFFF" d="M531.5,701.3c7.9-9.4,15.4-19.2,23.8-28.1c24.7-26.1,49.1-52.6,74.8-77.7
			c49.4-48.1,101.4-93.4,157.3-133.7c41-29.6,84.5-55.5,128.7-80.2c75.3-42.2,153.7-77.4,234.8-106.7
			c42.5-15.4,85.3-30.3,129.6-39.6c38-8,76.5-13.9,115-19.3c32.2-4.5,64.7-7,97.1-9.8c17.5-1.5,35.2-2,52.8-2.4
			c30.3-0.7,60.6-1.8,90.8-1.2c31.5,0.7,63,2.8,94.5,5.1c27.5,2.1,55,4.7,82.3,8.4c30.9,4.2,61.8,9.1,92.5,15
			c75.4,14.7,147.3,40.8,218,70.1c38,15.7,75.6,32.8,112.5,51.2c63.2,31.5,123.9,67.4,181.8,107.9c34.6,24.3,66.8,51.7,98.8,79.5
			c32.7,28.4,64.2,58,94.1,89.3c21.4,22.4,41.8,45.6,62.6,68.5c1.1,1.2,1.6,2.8,2.3,4.3c-2.8,3-6.5,3-10.2,3.3
			c-3.7,0.2-7.3,0.1-11,0.1c-700.4,0-1400.7,0-2101.1-0.1C546,705.1,537.9,707.6,531.5,701.3z"/>
		<path fill="#518AC3" d="M531.5,701.3c4.3,0.2,8.6,0.5,13,0.5c709,0,1418.1,0,2127.1,0c1.3,0,2.7,0.1,4,0.1c7,8,14.4,15.7,20.9,24
			c18.4,23.6,36.6,47.4,54.8,71.2c0.8,1,1.3,2.2,2,3.4c-7.5,1.9-2285.4,2.4-2298.4,0.6C459.3,789.1,504.2,730.7,531.5,701.3z"/>
	</g>
</g>
<g>
	<g>
		<path fill="#FFFFFF" d="M607.1,2263.2c-22.1,0-40-17.9-40-40v-958.1H415.9c-22.1,0-40-17.9-40-40V975.6c0-22.1,17.9-40,40-40
			h707.2c22.1,0,40,17.9,40,40v249.5c0,22.1-17.9,40-40,40H970.8v958.1c0,22.1-17.9,40-40,40H607.1z"/>
		<path d="M1123.2,975.6v249.5H930.8v998.1H607.1v-998.1H415.9V975.6H1123.2 M1123.2,895.6H415.9c-44.2,0-80,35.8-80,80v249.5
			c0,44.2,35.8,80,80,80H527v918.1c0,44.2,35.8,80,80,80h323.8c44.2,0,80-35.8,80-80v-918.1h112.3c44.2,0,80-35.8,80-80V975.6
			C1203.2,931.4,1167.3,895.6,1123.2,895.6L1123.2,895.6z"/>
	</g>
	<g>
		<path fill="#FFFFFF" d="M2483.4,2263.2c-22.1,0-40-17.9-40-40v-414.4c0-72.5-6.6-95.2-8.9-100.8c-1.5-0.8-4.8-2.3-10.9-3.7v518.9
			c0,22.1-17.9,40-40,40h-323.8c-22.1,0-40-17.9-40-40V975.6c0-22.1,17.9-40,40-40h229.6c157.4,0,261.9,6.1,319.4,18.7
			c64.1,14,116.8,49.9,156.7,106.7c39.4,56,58.5,139.6,58.5,255.5c0,50.8-3.3,94.2-9.7,129.1c-7.2,38.9-18.3,68.4-34.1,90.2
			c-12.6,17.4-29.5,32.1-50.5,43.8c14.4,9.5,26.3,20,35.8,31.4c26.2,31.7,42.4,61,49.3,89.6c4,16.4,9.2,54.3,9.2,193.8v328.8
			c0,22.1-17.9,40-40,40H2483.4z M2423.6,1424.2c6.3-1.2,10.2-2.6,12.5-3.7c2.1-5.1,7.3-22,7.3-66.3v-68.9c0-37.1-7-47.1-7.8-48.1
			c-0.7-0.5-3.9-2.8-12-4.8V1424.2z"/>
		<path d="M2289.4,975.6c153.1,0,256.7,5.9,310.9,17.7s98.4,42,132.5,90.6c34.2,48.6,51.2,126.1,51.2,232.5
			c0,97.2-12.1,162.5-36.2,195.9c-24.1,33.4-71.6,53.5-142.5,60.2c64.2,15.9,107.3,37.2,129.4,63.9c22.1,26.7,35.8,51.2,41.2,73.5
			s8.1,83.8,8.1,184.4v328.8h-300.7v-414.4c0-66.8-5.3-108.1-16-124s-38.6-23.9-83.8-23.9v562.4h-323.8V975.6H2289.4 M2383.6,1467.3
			c36.9,0,62.8-5,77.6-15.1s22.2-42.7,22.2-97.9v-68.9c0-39.8-7.2-65.8-21.5-78.2c-14.3-12.4-40.4-18.6-78.4-18.6L2383.6,1467.3
			 M2289.4,895.6h-229.6c-44.2,0-80,35.8-80,80v1247.7c0,44.2,35.8,80,80,80h323.8c18.9,0,36.2-6.5,49.9-17.5
			c13.7,10.9,31,17.5,49.9,17.5h300.7c44.2,0,80-35.8,80-80v-328.8c0-141.3-5.2-182-10.3-203.2c0,0,0,0,0-0.1
			c-8.4-34.6-27.1-69.2-57.3-105.7c-1-1.2-2.1-2.4-3.1-3.7c7.1-7,13.6-14.6,19.4-22.6c35-48.5,51.3-125.6,51.3-242.7
			c0-124.4-21.5-215.6-65.8-278.5c-22.5-32-49.1-58.7-79-79.1c-30.5-20.9-64.8-35.6-101.9-43.6C2557,902,2449.7,895.6,2289.4,895.6
			L2289.4,895.6z"/>
	</g>
	<g>
		<path fill="#FFFFFF" d="M1564.2,2290c-71.7,0-137.3-12-195-35.8c-59.7-24.5-108.5-62-145.1-111.4
			c-36.4-49.1-58.3-103.5-65.3-161.6c-6.4-53.3-9.5-143.1-9.5-274.5v-213.5c0-128,3-216.6,9.1-270.7c6.6-58.8,27.7-113.2,62.7-161.8
			c35.1-48.8,83-86.7,142.3-112.7c57.7-25.2,125.2-38,200.8-38c71.6,0,137.2,12,195,35.8c59.7,24.5,108.5,62,145.1,111.4
			c36.3,49.1,58.3,103.5,65.3,161.6c6.4,53.4,9.5,143.2,9.5,274.5v213.5c0,127.9-3,216.5-9.1,270.7c-6.6,58.8-27.7,113.2-62.7,161.8
			c-35.2,48.8-83,86.8-142.3,112.7C1707.3,2277.2,1639.7,2290,1564.2,2290z M1559.3,1999.2c1,0.1,2.3,0.3,4.2,0.3
			c2,0,3.3-0.2,4.1-0.3c0.1-0.3,0.2-0.7,0.4-1.1c2.2-7,7.4-33.6,7.4-127.6v-574.1c0-69.3-4.8-90.4-6.5-95.6
			c-0.7-0.1-1.8-0.2-3.1-0.2c-3.5,0-4.6,0.4-5.5,1.4c-1.5,4.1-7.2,24.2-7.2,94.4v583.3C1553.1,1966.9,1557.6,1992.6,1559.3,1999.2z"
			/>
		<path d="M1564.2,950c66.7,0,126.6,10.9,179.8,32.8c53.1,21.8,95.9,54.6,128.2,98.3c32.3,43.7,51.6,91.2,57.7,142.6
			c6.2,51.4,9.2,141.3,9.2,269.7v213.5c0,125.4-3,214.1-8.9,266.2c-5.9,52.2-24.4,99.8-55.4,142.9c-31.1,43.2-73,76.3-125.9,99.4
			c-52.9,23.1-114.5,34.7-184.8,34.7c-66.7,0-126.6-10.9-179.8-32.8c-53.1-21.8-95.8-54.6-128.2-98.3
			c-32.3-43.7-51.6-91.2-57.7-142.5c-6.2-51.4-9.2-141.3-9.2-269.7v-213.5c0-125.3,2.9-214.1,8.8-266.2
			c5.9-52.2,24.4-99.8,55.4-142.9s73-76.3,125.9-99.4C1432.4,961.6,1493.9,950,1564.2,950 M1563.5,2039.4c22.2,0,36.4-9.8,42.6-29.3
			c6.2-19.6,9.3-66.1,9.3-139.7v-574.1c0-58.1-3.2-95.3-9.7-111.5s-19.8-24.3-39.9-24.3c-17,0-30.1,6.6-39.1,19.7
			s-13.5,51.8-13.5,116.1v583.3c0,72.5,3,117.3,8.9,134.3C1528,2030.9,1541.8,2039.4,1563.5,2039.4 M1564.2,870
			c-81.1,0-154,13.9-216.8,41.4c-65.9,28.8-119.3,71.2-158.7,126c-39,54.2-62.6,115-70,180.7c-6.3,55.7-9.4,145.7-9.4,275.2v213.5
			c0,133,3.2,224.3,9.8,279.2c7.8,65.1,32.3,125.9,72.9,180.6c41,55.4,95.5,97.3,162.1,124.6c62.6,25.7,133.3,38.8,210.2,38.8
			c81,0,154-13.9,216.8-41.4c66-28.9,119.4-71.2,158.8-126c39-54.2,62.6-115,70-180.7c6.3-55.8,9.4-145.8,9.4-275.2v-213.5
			c0-132.8-3.2-224.2-9.8-279.2c-7.8-65.1-32.3-125.9-72.9-180.6c-41-55.3-95.5-97.3-162.1-124.6C1711.8,883,1641.1,870,1564.2,870
			L1564.2,870z"/>
	</g>
</g>
</svg>
