<?xml version="1.0" encoding="utf-8"?>
<!-- Generator: Adobe Illustrator 18.0.0, SVG Export Plug-In . SVG Version: 6.00 Build 0)  -->
<!DOCTYPE svg PUBLIC "-//W3C//DTD SVG 1.1//EN" "http://www.w3.org/Graphics/SVG/1.1/DTD/svg11.dtd">
<svg version="1.1" id="Livello_1" xmlns="http://www.w3.org/2000/svg" xmlns:xlink="http://www.w3.org/1999/xlink" x="0px" y="0px"
	 viewBox="0 0 3200 3200" enable-background="new 0 0 3200 3200" xml:space="preserve">
<g>
	<g>
		<path d="M1658,2c1.4,0.5,2.9,1.4,4.3,1.4c39.9,0.1,79.5,3.9,119.1,8.1c43.6,4.6,86.8,11.6,129.8,19.9
			C1971.6,43,2031,58.5,2089.7,77c62.1,19.6,122.7,43.2,181.9,70.3c75.7,34.7,148,75.3,217.4,121.4
			c61.3,40.7,119.7,85.2,174.4,134.2c32,28.6,63.2,58.2,93,89c62.8,64.7,119.4,134.7,170.2,209.3c35.6,52.2,67.9,106.4,97.2,162.4
			c42.5,81.1,77.3,165.4,105.1,252.5c20.6,64.5,37,130.1,49,196.7c6.9,38.1,12.9,76.4,16.4,115c2.1,23.8,4.3,47.5,5.9,71.3
			c1.1,15.6,1.4,31.2,2,46.8c1.5,24.2,0.5,48.4,0.6,72.6c0.1,13.2,0.9,26.5-0.6,39.7c-0.2,9.3-0.2,18.6-0.7,28
			c-2,41-5.7,81.9-11,122.7c-5.3,40.7-12.1,81.2-20.3,121.4c-10,48.8-22.5,96.9-37.1,144.4c-18.5,60-40.4,118.7-65.9,176.1
			c-26,58.7-55.6,115.5-88.5,170.7c-48.1,80.7-103.1,156.4-164.4,227.5c-32.2,37.3-65.9,73.2-101.5,107.2
			c-60.6,58-125.2,111.2-194,159.2c-48.8,34.1-99.4,65.3-151.7,93.9c-61,33.3-124.1,62.1-188.9,87.2
			c-45.2,17.5-91.2,32.7-137.9,45.9c-59.8,16.9-120.3,30.4-181.7,40c-37.7,5.9-75.4,11-113.5,13.9c-19.2,1.4-38.4,2.7-57.6,4
			c-9.9,0.7-19.8,1.3-29.7,1.9c-5.5,2-11.1,1-16.7,0.9c-30.5-0.3-60.9,1.1-91.4-0.7c-10.2-0.7-20.5-1.7-30.7-2.1
			c-37.8-1.5-75.4-5.3-112.9-9.8c-71.3-8.4-141.6-22.1-211-40.3c-87.5-23-172.4-53.3-254.8-90.8c-73-33.3-143-71.8-210.2-115.6
			c-61.9-40.3-120.7-84.8-176.5-133.2c-17.3-15-34.1-30.7-50.7-46.5c-16.4-15.6-32.8-31.3-48.5-47.5
			c-40.9-42.3-79.6-86.5-115.5-133.1c-27.2-35.3-53.2-71.4-77.5-108.8c-28.2-43.5-54.3-88.3-78.4-134.2
			c-25-47.7-47.1-96.7-67.2-146.6c-27.3-68.2-49.6-138.1-67-209.4c-12.3-50.2-22.6-100.8-29.1-152.1c-3.6-28.9-7-57.8-9.9-86.8
			c-1.9-19.1-2.8-38.3-4.1-57.5c-0.6-9.2-1.3-18.4-2.1-27.6c-0.1-0.8-1-1.5-1.6-2.3c0-37.3,0-74.7,0-112c0.6-1.1,1.6-2.1,1.7-3.2
			c1-14.2,1.6-28.4,2.7-42.6c1.9-25.1,3.5-50.3,6.2-75.3c2.4-22.7,6-45.3,9.2-67.9c6.2-42.9,14.7-85.5,24.8-127.7
			c17.2-72.1,39.3-142.7,66.5-211.7c14.4-36.4,30-72.3,46.9-107.7c32.4-67.9,69.7-133,111.5-195.6c41.4-62,86.9-120.8,136.5-176.4
			c27.5-30.8,55.9-60.7,85.7-89.3c49.5-47.4,101.6-91.7,156.7-132.5c58.6-43.5,119.8-82.8,183.6-118c44.2-24.4,89.7-46.3,136-66.4
			c43.9-19,88.6-35.8,134.1-50.8c60.6-19.9,122.2-36.4,184.8-48.5c36.8-7.1,73.8-12.9,110.9-18.2c23.9-3.4,48.1-5.3,72.3-7
			c24.5-1.8,49.1-2.6,73.6-4c1.5-0.1,2.9-0.9,4.3-1.4C1586,2,1622,2,1658,2z"/>
		<path fill="#AAAAAA" d="M3202.3,1658.1c0-37.4,0-74.9,0-112.3c0.6-0.1,1.2,0,1.7,0.1c0,37.3,0,74.7,0,112l-0.8,0.2L3202.3,1658.1z
			"/>
		<path fill="#AAAAAA" d="M1549.9,3202.2c36-0.1,72-0.2,108.1-0.2c0,0.7,0,1.3,0,2c-36,0-72,0-108,0
			C1549.9,3203.4,1549.8,3202.8,1549.9,3202.2z"/>
		<path fill="#A89515" d="M1621.4,3182.6c-286.2-0.3-538.2-63.7-773.3-192.1c-251.4-137.3-451.6-329-599.3-574.3
			c-158-262.4-233.7-547.7-224.6-853.8c12.6-426.7,174.1-789.6,475.3-1091.2C819.5,166.7,1200.2,16.7,1642,22.1
			C2069.8,37,2434.3,197.2,2736.5,500c304,320.8,455,702,446.7,1144.1c-4.8,257-71.6,498.7-196.8,723.5
			c-139.3,250.2-332.3,449.2-578.8,595.2C2159.8,3109.5,1891.2,3182.1,1621.4,3182.6z"/>
		<path fill="#7F7F7F" d="M3007.9,1602.4c0,13.3,0.3,26.7-0.1,40c-0.4,18.3-0.5,36.6-2.3,54.8c-2.2,22.1-2.5,44.3-7,66.2
			c-2.9,14.2-2.6,29-4.7,43.4c-2.4,16-5.9,31.9-8.8,47.8c-1.7,9.1-3.2,18.3-4.9,27.4c-1.9,10.1-3.8,20.1-6,30.1
			c-2.7,12.3-5.3,24.6-8.4,36.7c-3.3,12.8-7.2,25.4-11.1,38.1c-7.5,24.3-14.8,48.7-22.9,72.8c-5.8,17.3-12.6,34.2-19.1,51.2
			c-5.5,14.2-10.9,28.5-16.9,42.5c-5.1,12.1-10.9,24-16.5,35.9c-7.1,15-14,30-21.5,44.7c-7.3,14.2-14.9,28.2-22.9,42
			c-13.4,23.2-26.8,46.5-40.8,69.3c-19,31-40.4,60.3-61.7,89.7c-20.5,28.2-42.7,55-65.6,81.3c-14.2,16.3-28.6,32.3-43.7,47.7
			c-23.2,23.7-46.1,47.7-70.7,69.9c-26.3,23.9-54,46.2-81.6,68.5c-19.4,15.6-39.4,30.6-59.7,44.9c-18.9,13.4-38.5,25.9-58.2,38.1
			c-21.7,13.4-43.7,26.6-66.1,38.8c-27.7,15-55.6,29.7-84.1,43.1c-29.4,13.8-59.3,26.4-89.5,38.5c-22.4,9-45.5,16.5-68.4,24.2
			c-18.5,6.2-37.2,12.2-56,17.6c-13.6,4-27.6,6.9-41.4,10.4c-9.6,2.4-19.1,5.4-28.9,7.4c-21.1,4.4-42.2,8.3-63.3,12.3
			c-13.6,2.6-27.2,5.6-41,7.5c-18,2.6-36.2,4.3-54.3,6.4c-6.6,0.8-13.2,1.6-19.8,2.1c-19.5,1.5-39,2.5-58.5,4.2
			c-44.2,3.9-88.5,1.1-132.8,1.6c-15.8,0.1-31.7-2.3-47.5-3.5c-4-0.3-8-0.1-12-0.5c-11.9-1.1-23.7-2.4-35.6-3.5
			c-8.6-0.8-17.2-1.1-25.7-2.4c-16-2.3-32-5.1-48-7.6c-14.1-2.2-28.2-4-42.2-6.6c-19.2-3.6-38.3-7.7-57.3-12.1
			c-14.5-3.3-28.9-7.1-43.3-11.1c-18.5-5.2-37-10.4-55.3-16.3c-24.9-8.1-49.8-16.3-74.3-25.5c-26.4-9.9-52.7-20.2-78.4-31.6
			c-23.6-10.5-46.6-22.3-69.6-34.1c-18.9-9.7-37.6-19.8-56-30.3c-32.5-18.6-64.7-37.9-95-60.1c-20.1-14.7-40.7-28.7-60.6-43.5
			c-13.6-10.1-26.6-21-39.6-31.8c-16.9-14-33.6-28.1-50.1-42.5c-9.2-8.1-17.8-16.9-26.7-25.5c-7.9-7.6-16-14.9-23.5-22.8
			c-15.2-15.8-30.1-31.8-45-47.9c-7.9-8.5-15.9-16.9-23.3-25.8c-17.6-21.2-35.2-42.3-52.2-64c-14.3-18.2-28.2-36.8-41.1-56
			c-16.1-23.8-31.6-48-46.3-72.6c-16.5-27.6-32.2-55.7-47.7-83.9c-6.5-11.9-11.9-24.4-17.7-36.7c-5.7-12.2-11.6-24.4-17-36.8
			c-8.1-18.9-16.3-37.7-23.6-56.9c-9.3-24.5-18-49.2-26.4-74c-5.9-17.5-11-35.3-16.1-53c-4.3-14.9-8.4-29.9-12-45
			c-6.2-25.7-13-51.3-16.1-77.7c-0.5-4.6-2.8-8.9-3.4-13.4c-2.3-15.4-4.2-30.8-6.3-46.2c-3.1-22.3-6.2-44.6-9.3-66.9
			c-0.1-1-0.2-2-0.2-3c-0.8-16.3-1.1-32.5-2.4-48.8c-3.7-45.2-1.1-90.5-1.5-135.8c-0.1-14.8,2.3-29.7,3.4-44.5c0.3-4,0.1-8,0.5-12
			c1.5-14.8,3.2-29.6,4.9-44.5c0.9-8.6,1.7-17.1,2.8-25.7c2.1-16.8,3.9-33.6,6.6-50.2c2.2-13.7,5.4-27.3,8.4-40.8
			c4.8-21.6,9.7-43.2,14.8-64.8c3.5-14.8,7.2-29.5,11.5-44c7.4-24.7,15-49.4,23.1-73.8c5.8-17.3,12.7-34.2,19.2-51.2
			c5.4-13.9,10.7-27.9,16.5-41.6c5.3-12.5,11.2-24.7,17-36.9c6.9-14.6,13.7-29.3,21-43.7c6.4-12.7,13.3-25.3,20.2-37.8
			c4.6-8.4,9.7-16.5,14.5-24.8c6.3-10.9,12.4-21.9,18.9-32.7c10.3-16.9,20.2-34.2,31.5-50.4c15.4-22.3,31.9-43.8,48.2-65.5
			c9.1-12.2,18.4-24.4,28-36.1c11.6-14.1,23.6-27.7,35.5-41.5c8.7-10,17.1-20.4,26.4-29.9c27-27.4,54-55,81.9-81.5
			c18.5-17.6,38.6-33.5,58.2-50c9.1-7.7,18.5-15.1,27.9-22.5c5.7-4.5,11.4-9,17.4-13.3c14.3-10.3,28.7-20.4,43.1-30.5
			c10.3-7.2,20.6-14.5,31.3-21.2c25.9-16.2,51.5-32.8,78.1-47.8c26.2-14.8,53.5-27.9,80.3-41.7c33.6-17.3,68.7-31.5,103.8-45.4
			c22.1-8.8,44.8-16.2,67.4-23.8c19.8-6.6,39.7-13,59.8-18.8c13-3.8,26.4-6.3,39.5-9.6c9-2.2,17.8-5.2,26.9-7.1
			c14.2-3.1,28.6-5.3,42.8-8.5c24.6-5.6,49.4-9.1,74.4-12.2c23-2.9,46-6.2,68.9-9.3c1.3-0.2,2.7-0.1,4-0.2c16.6-0.8,33.2-1,49.8-2.4
			c46.2-3.9,92.5-1.2,138.8-1.5c21.2-0.1,42.4,1.9,63.5,4.1c23.1,2.4,46,6,69,9.2c20.7,2.9,41.3,5.6,61.9,8.8
			c10.8,1.7,21.4,4.2,32.1,6.6c30,7,60,13.7,89.7,21.6c22.1,5.9,43.7,13.7,65.5,20.6c40.2,12.7,79.5,27.9,117.9,45.2
			c28.1,12.6,56.1,25.6,83.3,39.8c30.6,15.9,60.6,32.9,90.3,50.5c20,11.8,38.9,25.4,58.1,38.4c15.9,10.8,32,21.5,47.4,33.1
			c19,14.4,37.5,29.6,56,44.7c16.2,13.3,32.2,26.8,47.9,40.6c9.2,8.1,17.8,16.9,26.6,25.5c12.3,12.1,24.9,23.9,36.8,36.4
			c14.9,15.6,29.5,31.5,44,47.6c10.2,11.3,20.1,22.9,29.8,34.6c9.8,11.7,19.5,23.4,28.7,35.5c12.2,16,24.4,32.2,35.9,48.8
			c16.4,23.6,32.8,47.3,48.1,71.6c12.3,19.6,23,40.1,34.4,60.3c7,12.4,14.3,24.7,20.9,37.3c7.3,14.1,13.9,28.6,20.7,43
			c5.8,12.2,11.8,24.4,17.2,36.8c6,14,11.4,28.3,17.1,42.4c3.7,9.2,7.8,18.3,11.2,27.7c7.2,20.3,13.9,40.7,20.8,61.1
			c2.1,6.2,4.3,12.5,6.2,18.8c4.1,13.3,8.4,26.5,11.9,39.9c3.7,14.4,6.6,28.9,10,43.4c2,8.7,4.4,17.3,6.1,26.1
			c2.8,13.9,5.3,27.9,8,41.9c2.9,15.3,6.3,30.5,8.7,45.8c2.3,14.4,3.5,28.9,5.3,43.4c1.5,12.2,3.2,24.3,4.8,36.5
			c0.2,1.3,0.6,2.6,0.7,3.9c0.8,13.3,1.7,26.5,2.2,39.8c1.1,28.9,1.9,57.8,2.9,86.7C3008.5,1602.4,3008.2,1602.4,3007.9,1602.4z"/>
		<path fill="#FFFFFF" d="M1603.5,2941.4c-28,0-56,0.8-84-0.3c-20.2-0.7-40.3-3.6-60.5-5.9c-19.1-2.2-38.2-4.7-57.3-7.3
			c-12.8-1.8-25.6-4-38.3-6.4c-19.9-3.8-40-7-59.6-12c-38.3-9.8-76.7-19.7-114.5-31.3c-30.8-9.4-60.9-20.9-90.9-32.7
			c-39.9-15.7-78.5-34.2-116.9-53.2c-13.7-6.8-26.9-14.5-40.1-22.3c-21.4-12.7-42.5-25.9-64-38.6c-36.2-21.3-69.4-47-102.8-72.4
			c-21.2-16.1-41-34-61.2-51.3c-12.6-10.8-25.1-21.9-37.2-33.2c-10.9-10.2-21.7-20.6-32-31.4c-16.1-16.8-31.5-34.2-47.6-51.1
			c-19.8-20.7-38.2-42.5-55.4-65.4c-19.5-26.1-39.1-52.2-57.7-79c-12.7-18.2-23.8-37.6-35.5-56.5c-6.3-10.2-12.5-20.4-18.6-30.7
			c-1.7-2.8-3.4-5.7-4.9-8.6c-8.9-16.7-17.9-33.3-26.4-50.2c-6-11.8-11.1-24.1-16.6-36.2c-7.6-16.5-15.4-33-22.8-49.6
			c-3.5-7.9-6-16.2-8.9-24.3c-9.1-25.6-18.5-51.2-27.3-76.9c-14.8-43.5-25.3-88.2-35.3-132.9c-6.1-27.2-10.7-54.8-15-82.3
			c-4-25.6-7-51.3-9.8-77c-1.6-14.9-2.4-29.8-2.7-44.8c-0.8-34.3-0.9-68.6-1.5-102.9c-0.5-26,1.5-51.8,3.5-77.7
			c2-25.2,4.8-50.2,7.9-75.3c3.2-26.1,8.6-51.7,13.3-77.5c8.7-48.5,21.6-96,35.4-143.2c6.8-23.2,15.3-46,23.7-68.7
			c7.9-21.1,16-42.2,25.2-62.8c13.9-30.8,28.3-61.5,43.5-91.7c10.2-20.1,22.3-39.2,33.5-58.8c19.3-33.8,40.7-66.3,63.9-97.6
			c23.1-31.3,46.2-62.6,72.2-91.8c23.9-26.8,47.6-53.7,73.6-78.5c15.4-14.6,30.5-29.7,46.3-43.9c13.8-12.5,28.2-24.3,42.6-36.1
			c14.1-11.6,28.3-23.2,42.8-34.4c28.7-22.2,58-43.6,89-62.5c18.4-11.3,36.5-23.2,55-34.3c9.9-6,20.2-11.4,30.6-16.6
			c27.9-14,55.5-28.8,83.9-41.5c30.6-13.7,61.9-25.8,93.1-38c30.6-12,62.1-21.6,93.8-30.2c26-7,52-14.1,78.2-20.3
			c18.7-4.4,37.8-7.8,56.8-11c24.5-4.2,49.1-8.3,73.8-11.6c17.1-2.3,34.4-2.9,51.6-4.9c53.1-6,106.4-3.6,159.7-3.6
			c21.2,0,42.5,2,63.7,3.7s42.4,3.9,63.5,6.3c35.7,3.9,70.8,11.2,106,18.3c14,2.8,27.9,6.1,41.7,9.8c29.9,7.9,59.8,15.7,89.5,24.5
			c18.1,5.3,35.9,12,53.6,18.6c21.2,7.9,42.5,15.5,63.1,24.6c29.2,12.8,58,26.4,86.7,40.3c20,9.7,39.7,20.1,58.9,31.3
			c20.4,11.9,39.8,25.4,60,37.6c33.7,20.4,64.9,44.3,96.1,68.1c21.4,16.3,41.4,34.5,61.9,51.9c11.4,9.7,22.6,19.6,33.6,29.8
			s21.7,20.6,32.2,31.3c15.4,15.7,30.7,31.4,45.4,47.7c14.9,16.5,29.5,33.4,43.3,50.9c19.6,24.8,38.7,50,57.4,75.5
			c20.5,27.9,39.3,56.9,56.3,87.1c15.8,28.1,31.7,56.1,46.8,84.5c8,14.9,14.5,30.6,21.6,46c2.9,6.3,5.8,12.6,8.3,19.1
			c10.7,27.2,21.5,54.3,31.8,81.6c18.4,48.9,32.2,99.2,43.5,150.2c7.1,32.1,13.9,64.3,19.5,96.7c4.1,23.5,6.2,47.4,8.6,71.1
			c2,20.5,3.9,41.1,4.4,61.6c1,43.9,1.4,87.9,1.3,131.8c0,14.9-2.3,29.8-3.3,44.7c-1.6,25.2-4.8,50.2-7.9,75.3
			c-7.1,57.5-20.1,113.8-34.2,169.9c-4.3,17.1-8.8,34.1-14.2,50.9c-8.6,26.5-17.6,52.9-27.2,79.1c-6.5,17.7-14.2,35-21.7,52.4
			c-12.2,28.3-25.8,56-39.7,83.5c-14.5,28.8-30.4,56.8-47.2,84.2c-19.3,31.4-39.5,62.4-62.4,91.4c-10.3,13-19.7,26.9-29.9,40
			c-9.8,12.6-20,24.9-30.5,36.9c-18.2,20.7-36.7,41.2-55.5,61.4c-10.6,11.4-21.9,22.3-33.3,33c-22.5,20.8-44.8,41.7-68,61.6
			c-19.4,16.6-39.8,32.3-60.2,47.7c-19.4,14.6-39.1,28.9-59.3,42.4c-19.3,13-39.1,25.3-59.1,37.2c-22,13.1-44.3,25.6-66.8,37.7
			c-14.3,7.7-29.1,14.6-43.8,21.6c-31.5,15-63.5,28.8-96.2,41c-18,6.7-36.2,13.3-54.5,19c-29.2,9.1-58.5,17.7-87.9,26.2
			c-14,4.1-28.2,7.7-42.5,10.8c-19.8,4.3-39.7,8.1-59.6,11.9c-15.7,2.9-31.4,5.7-47.1,7.9c-18.4,2.6-37,4.1-55.4,6.6
			C1695.9,2942.4,1649.7,2942.7,1603.5,2941.4z"/>
		<path fill="#7E7E7E" d="M1603.8,2891.6c-23.3,0-46.7,0.8-70-0.2c-24.9-1.1-49.6-3.8-74.4-6.2c-14.5-1.4-29-3-43.5-5.1
			c-13.5-1.9-26.9-4.3-40.2-7c-29.6-6-59.2-12-88.6-18.9c-19.7-4.6-39.2-10.2-58.5-16.2c-22.5-6.9-45.1-13.8-67.2-22.1
			c-32.3-12.2-64.5-24.8-96-38.9c-52.8-23.6-103.6-51.3-152.5-82.2c-25.8-16.3-50.7-34.1-75.7-51.6c-35.5-24.8-68.6-52.6-100.7-81.5
			c-37.3-33.7-73.4-68.6-105.8-107.2c-21.8-25.9-44.1-51.4-64.6-78.2c-29-38-55.6-77.7-79.7-119c-22.3-38.2-43.2-77-61.5-117.2
			c-16.8-36.8-32.1-74.3-45.4-112.5c-10.9-31.3-20.9-62.9-29-95.1c-5.6-22.2-11.6-44.3-16.3-66.7c-4.7-22.4-8.4-45-11.8-67.6
			c-3.3-22.3-6.1-44.7-8.4-67.1c-2-19.1-3.6-38.4-4.1-57.6c-1-43.6-1.4-87.2-1.3-130.8c0-14.6,2.1-29.1,3.5-43.6
			c2.5-25.1,4.7-50.2,8.1-75.2c3.5-25.3,8-50.4,12.8-75.5c4.2-21.8,8.9-43.6,14.4-65.1c5.5-21.8,12-43.4,18.5-65
			c13.8-46.2,31.2-91,50.5-135.1c14.8-34,30.9-67.6,49.6-99.8c15.8-27.2,31.5-54.6,48.6-81.1c16.3-25.4,33.7-50.1,51.7-74.3
			c23.2-31.1,48.1-60.9,74.2-89.7c28-30.9,57.1-60.6,88.1-88.3c29-25.9,59.3-50.4,89.8-74.5c45.2-35.6,93.4-67,143.6-95
			c29-16.1,58.5-31.5,88.5-45.7c30-14.1,60.6-27.4,91.7-39c36-13.4,72.6-25.5,109.5-36.4c29.6-8.7,59.7-15.9,90-21.9
			c33.5-6.7,67.3-11.9,101.2-16.7c20.4-2.9,41.1-3.3,61.6-5.4c52.5-5.4,105.1-2.8,157.7-3c14.6-0.1,29.1,2,43.7,3.3
			c28.8,2.7,57.5,5.4,86.2,8.6c13.2,1.5,26.3,4.1,39.3,6.7c24.1,4.8,48.3,9.3,72.2,15c24.5,5.8,48.9,12.4,73.1,19.6
			c22.9,6.8,45.7,14.1,68.1,22.3c27.4,10.1,54.7,20.5,81.4,32.4c32.4,14.5,64.7,29.7,96,46.4c41,21.9,80.6,46.4,118.9,72.9
			c38.3,26.4,74.9,55.1,110.5,85.2c35.6,30.2,68.8,62.9,100.9,96.6c25.1,26.4,49.3,53.9,71.2,83.2c16.3,21.8,33.3,43.1,48.7,65.6
			c17.4,25.4,33.8,51.6,49.8,77.9c22.8,37.5,43,76.4,61.3,116.3c17.2,37.4,32.8,75.5,46,114.4c10.3,30.4,19.2,61.3,27.9,92.3
			c6.2,22,11.7,44.3,16.5,66.7c4.2,19.4,7.5,39.1,10.3,58.8c4.3,29.5,8.5,59.1,11.5,88.8c5.9,58.7,4.5,117.7,4.1,176.6
			c-0.1,14.6-2,29.1-3.5,43.6c-2.5,25.1-4.7,50.2-8.2,75.2c-3.5,25.3-8,50.4-12.8,75.5c-4.2,21.8-8.8,43.6-14.2,65.1
			c-4.7,18.9-10.7,37.6-16.4,56.3c-5.6,18.4-10.9,36.9-17.7,54.9c-12,31.6-24.9,62.9-37.8,94.2c-15.2,36.5-33.4,71.6-53,105.9
			c-22.3,39.2-46.3,77.5-72.6,114.3c-22.4,31.4-45.7,62-70.9,91.1c-22.4,25.9-46.3,50.4-70,75.1c-37.6,39.2-78.6,74.7-121.6,107.8
			c-27.8,21.5-57,41.3-86.2,60.9c-21.8,14.6-44.4,28-67,41.2c-31,18.1-62.6,35-95.6,49.3c-28.6,12.4-57.1,25.3-86.3,36.4
			c-27.3,10.4-55.1,19.6-83,28c-29.5,8.9-59.4,17-89.4,24.1c-25.8,6-52.1,10.2-78.2,14.9c-15,2.7-30.1,5.3-45.2,7.2
			c-18.1,2.2-36.3,3.7-54.5,5.3c-14.2,1.3-28.4,2.9-42.7,3.3C1649.8,2892,1626.8,2891.6,1603.8,2891.6z"/>
	</g>
</g>
<g>
	<g>
		<path fill="#FFFFFF" d="M951.3,2277.5c-79.7,0-151.5-13.6-213.3-40.3c-63.6-27.5-112.3-64.5-144.7-109.9
			c-32.1-45-51.4-93.4-57.3-143.9c-5.4-45.9-8-138.1-8-281.9v-739c0-22.1,17.9-40,40-40h323.9c22.1,0,40,17.9,40,40v937
			c0,59.1,3.8,80.6,5.5,87.4h0.1c1.4,0,2.4-0.1,3.3-0.2c1.7-6.3,6.2-29.7,6.2-103.4V962.5c0-22.1,17.9-40,40-40h323.9
			c22.1,0,40,17.9,40,40v834.6c0,97.6-3.2,164.9-9.8,205.7c-7.2,44.6-28.1,90.2-62.3,135.7c-34.5,45.9-80.4,81.1-136.5,104.6
			C1087.9,2265.9,1023.6,2277.5,951.3,2277.5z"/>
		<path d="M1310.7,962.5v834.6c0,94.6-3.1,161.1-9.3,199.4c-6.2,38.3-24.4,77.7-54.8,118c-30.3,40.4-70.3,71-119.9,91.8
			s-108.1,31.2-175.5,31.2c-74.6,0-140.4-12.3-197.5-37s-99.8-56.8-128.1-96.4c-28.3-39.6-45-81.4-50.1-125.3
			c-5.1-44-7.7-136.4-7.7-277.3v-739h323.9v937c0,54.6,3,89.4,9,104.6s18.2,22.8,36.5,22.8c20.9,0,34.4-8.4,40.4-25.1
			s9-56.2,9-118.5V962.5H1310.7 M1310.7,882.5H986.8c-17.8,0-34.2,5.8-47.5,15.6c-13.3-9.8-29.7-15.6-47.5-15.6H567.9
			c-44.2,0-80,35.8-80,80v738.9c0,145.4,2.7,239.1,8.2,286.6c6.7,57.3,28.4,112,64.5,162.6c36.7,51.4,91,92.9,161.4,123.3
			c33.9,14.6,70.6,25.7,109.2,33c37.6,7.1,78,10.6,120,10.6c77.7,0,147.2-12.6,206.4-37.5c62.6-26.3,114.1-65.8,153-117.5
			c38.1-50.7,61.6-102.3,69.8-153.4c6.9-43,10.3-112.4,10.3-212.1V962.5C1390.7,918.3,1354.9,882.5,1310.7,882.5L1310.7,882.5z"/>
	</g>
	<g>
		<path fill="#FFFFFF" d="M2308.2,2250.7c-22.1,0-40-17.9-40-40V962.5c0-22.1,17.9-40,40-40h323.9c22.1,0,40,17.9,40,40v1248.2
			c0,22.1-17.9,40-40,40H2308.2z"/>
		<path d="M2632.1,962.5v1248.2h-323.9V962.5H2632.1 M2632.1,882.5h-323.9c-44.2,0-80,35.8-80,80v1248.2c0,44.2,35.8,80,80,80h323.9
			c44.2,0,80-35.8,80-80V962.5C2712.1,918.3,2676.3,882.5,2632.1,882.5L2632.1,882.5z"/>
	</g>
	<g>
		<path fill="#FFFFFF" d="M1435.8,2250.7c-22.1,0-40-17.9-40-40V962.5c0-22.1,17.9-40,40-40h242.8c161.5,0,268.8,7.5,328,22.9
			c62.9,16.4,112,44.4,146,83.3c33.5,38.3,54.8,81.8,63.2,129.2c7.7,43.1,11.4,123.2,11.4,244.9v437.1c0,116.8-5.7,193.8-17.3,235.5
			c-12.8,45.7-35.8,82.4-68.4,108.9c-31,25.2-69.2,43-113.7,52.8c-41.7,9.2-101.5,13.6-182.7,13.6H1435.8z M1799.8,1953.9
			c8.3-2,11.8-4.3,12.8-5c2-4.5,10.7-30.2,10.7-132.7v-485.5c0-72.5-3.1-94-4.5-99.9c-1.6-6.9-4.1-8.4-5.8-9.3
			c-0.2-0.1-3.5-1.8-13.2-3.4V1953.9z"/>
		<path d="M1678.6,962.5c156.7,0,262.6,7.2,317.9,21.6c55.2,14.4,97.2,38,126,70.9s46.8,69.5,53.9,109.9
			c7.2,40.4,10.8,119.6,10.8,237.8v437.1c0,112.1-5.3,187-15.8,224.8s-28.9,67.3-55.1,88.7c-26.2,21.3-58.6,36.2-97.1,44.7
			c-38.5,8.5-96.6,12.7-174.1,12.7h-409.2V962.5H1678.6 M1759.8,1997.6c47.2,0,76.3-9.4,87.2-28.2c10.9-18.8,16.3-69.9,16.3-153.2
			v-485.5c0-56.6-1.8-92.9-5.5-108.8c-3.6-15.9-11.9-27.7-24.9-35.1c-13-7.5-37.4-11.2-73.1-11.2V1997.6 M1678.6,882.5h-242.8
			c-44.2,0-80,35.8-80,80v1248.2c0,44.2,35.8,80,80,80H1845c84.2,0,146.8-4.8,191.3-14.6c50.7-11.2,94.5-31.6,130.4-60.8
			c39.2-31.9,66.6-75.4,81.7-129.2c8-28.8,18.8-85.8,18.8-246.2v-437.1c0-124.1-3.9-206.5-12-251.9c-9.8-54.7-34.1-104.6-72.5-148.5
			c-39.4-45.1-95.3-77.2-166.1-95.7c-32.8-8.5-77.1-14.6-135.6-18.6C1826.5,884.4,1758.4,882.5,1678.6,882.5L1678.6,882.5z"/>
	</g>
</g>
</svg>
